%TF.GenerationSoftware,KiCad,Pcbnew,9.0.6*%
%TF.CreationDate,2025-11-27T17:01:59+01:00*%
%TF.ProjectId,thermal-ctrl,74686572-6d61-46c2-9d63-74726c2e6b69,1*%
%TF.SameCoordinates,Original*%
%TF.FileFunction,Drillmap*%
%TF.FilePolarity,Positive*%
%FSLAX45Y45*%
G04 Gerber Fmt 4.5, Leading zero omitted, Abs format (unit mm)*
G04 Created by KiCad (PCBNEW 9.0.6) date 2025-11-27 17:01:59*
%MOMM*%
%LPD*%
G01*
G04 APERTURE LIST*
%ADD10C,0.100000*%
%ADD11C,0.200000*%
%ADD12C,0.120000*%
%ADD13C,0.130000*%
%ADD14C,0.190000*%
%ADD15C,0.320000*%
G04 APERTURE END LIST*
D10*
X12400000Y-5000000D02*
X12400000Y-9400000D01*
X12200000Y-4800000D02*
G75*
G02*
X12400000Y-5000000I0J-200000D01*
G01*
X12400000Y-9400000D02*
G75*
G02*
X12000000Y-9800000I-400000J0D01*
G01*
X7800000Y-9800000D02*
G75*
G02*
X7400000Y-9400000I0J400000D01*
G01*
X7400000Y-5000000D02*
G75*
G02*
X7600000Y-4800000I200000J0D01*
G01*
X7600000Y-4800000D02*
X12200000Y-4800000D01*
X12000000Y-9800000D02*
X7800000Y-9800000D01*
X7400000Y-9400000D02*
X7400000Y-5000000D01*
D11*
D10*
X7632500Y-7360000D02*
X7662500Y-7390000D01*
X7662500Y-7360000D02*
X7632500Y-7390000D01*
X7837500Y-7360000D02*
X7867500Y-7390000D01*
X7867500Y-7360000D02*
X7837500Y-7390000D01*
X8045000Y-5812440D02*
X8075000Y-5842440D01*
X8075000Y-5812440D02*
X8045000Y-5842440D01*
X8045000Y-5872440D02*
X8075000Y-5902440D01*
X8075000Y-5872440D02*
X8045000Y-5902440D01*
X8045000Y-5945000D02*
X8075000Y-5975000D01*
X8075000Y-5945000D02*
X8045000Y-5975000D01*
X8046259Y-7374682D02*
X8076259Y-7404682D01*
X8076259Y-7374682D02*
X8046259Y-7404682D01*
X8090844Y-7306636D02*
X8120844Y-7336636D01*
X8120844Y-7306636D02*
X8090844Y-7336636D01*
X8194200Y-9112200D02*
X8224200Y-9142200D01*
X8224200Y-9112200D02*
X8194200Y-9142200D01*
X8240000Y-7745000D02*
X8270000Y-7775000D01*
X8270000Y-7745000D02*
X8240000Y-7775000D01*
X8282300Y-7260000D02*
X8312300Y-7290000D01*
X8312300Y-7260000D02*
X8282300Y-7290000D01*
X8282300Y-7410000D02*
X8312300Y-7440000D01*
X8312300Y-7410000D02*
X8282300Y-7440000D01*
X8335000Y-7335000D02*
X8365000Y-7365000D01*
X8365000Y-7335000D02*
X8335000Y-7365000D01*
X8374200Y-9062200D02*
X8404200Y-9092200D01*
X8404200Y-9062200D02*
X8374200Y-9092200D01*
X8383900Y-7260000D02*
X8413900Y-7290000D01*
X8413900Y-7260000D02*
X8383900Y-7290000D01*
X8383900Y-7410000D02*
X8413900Y-7440000D01*
X8413900Y-7410000D02*
X8383900Y-7440000D01*
X8810000Y-8787500D02*
X8840000Y-8817500D01*
X8840000Y-8787500D02*
X8810000Y-8817500D01*
X8835000Y-9085000D02*
X8865000Y-9115000D01*
X8865000Y-9085000D02*
X8835000Y-9115000D01*
X8858750Y-8332500D02*
X8888750Y-8362500D01*
X8888750Y-8332500D02*
X8858750Y-8362500D01*
X8858750Y-8462500D02*
X8888750Y-8492500D01*
X8888750Y-8462500D02*
X8858750Y-8492500D01*
X8858750Y-8722500D02*
X8888750Y-8752500D01*
X8888750Y-8722500D02*
X8858750Y-8752500D01*
X8944600Y-8528800D02*
X8974600Y-8558800D01*
X8974600Y-8528800D02*
X8944600Y-8558800D01*
X8970000Y-8401800D02*
X9000000Y-8431800D01*
X9000000Y-8401800D02*
X8970000Y-8431800D01*
X9097000Y-9062200D02*
X9127000Y-9092200D01*
X9127000Y-9062200D02*
X9097000Y-9092200D01*
X9431250Y-8917500D02*
X9461250Y-8947500D01*
X9461250Y-8917500D02*
X9431250Y-8947500D01*
X9615000Y-9075000D02*
X9645000Y-9105000D01*
X9645000Y-9075000D02*
X9615000Y-9105000D01*
X9615000Y-9205000D02*
X9645000Y-9235000D01*
X9645000Y-9205000D02*
X9615000Y-9235000D01*
X9750000Y-9275000D02*
X9780000Y-9305000D01*
X9780000Y-9275000D02*
X9750000Y-9305000D01*
X9850000Y-9275000D02*
X9880000Y-9305000D01*
X9880000Y-9275000D02*
X9850000Y-9305000D01*
X9985000Y-8445000D02*
X10015000Y-8475000D01*
X10015000Y-8445000D02*
X9985000Y-8475000D01*
X9985000Y-8685000D02*
X10015000Y-8715000D01*
X10015000Y-8685000D02*
X9985000Y-8715000D01*
X10075000Y-9065000D02*
X10105000Y-9095000D01*
X10105000Y-9065000D02*
X10075000Y-9095000D01*
X10255000Y-8825000D02*
X10285000Y-8855000D01*
X10285000Y-8825000D02*
X10255000Y-8855000D01*
X10255000Y-9065000D02*
X10285000Y-9095000D01*
X10285000Y-9065000D02*
X10255000Y-9095000D01*
X10635000Y-8225000D02*
X10665000Y-8255000D01*
X10665000Y-8225000D02*
X10635000Y-8255000D01*
X11208000Y-7124094D02*
X11238000Y-7154094D01*
X11238000Y-7124094D02*
X11208000Y-7154094D01*
X11208389Y-6666518D02*
X11238389Y-6696518D01*
X11238389Y-6666518D02*
X11208389Y-6696518D01*
X11910000Y-8680000D02*
X11940000Y-8710000D01*
X11940000Y-8680000D02*
X11910000Y-8710000D01*
X11990000Y-8680000D02*
X12020000Y-8710000D01*
X12020000Y-8680000D02*
X11990000Y-8710000D01*
X7690000Y-7511250D02*
G75*
G02*
X7650000Y-7511250I-20000J0D01*
G01*
X7650000Y-7511250D02*
G75*
G02*
X7690000Y-7511250I20000J0D01*
G01*
X7845000Y-7511250D02*
G75*
G02*
X7805000Y-7511250I-20000J0D01*
G01*
X7805000Y-7511250D02*
G75*
G02*
X7845000Y-7511250I20000J0D01*
G01*
X7900000Y-8360000D02*
G75*
G02*
X7860000Y-8360000I-20000J0D01*
G01*
X7860000Y-8360000D02*
G75*
G02*
X7900000Y-8360000I20000J0D01*
G01*
X7905000Y-7860000D02*
G75*
G02*
X7865000Y-7860000I-20000J0D01*
G01*
X7865000Y-7860000D02*
G75*
G02*
X7905000Y-7860000I20000J0D01*
G01*
X7905000Y-8060000D02*
G75*
G02*
X7865000Y-8060000I-20000J0D01*
G01*
X7865000Y-8060000D02*
G75*
G02*
X7905000Y-8060000I20000J0D01*
G01*
X8045119Y-7593017D02*
G75*
G02*
X8005119Y-7593017I-20000J0D01*
G01*
X8005119Y-7593017D02*
G75*
G02*
X8045119Y-7593017I20000J0D01*
G01*
X8095000Y-7860000D02*
G75*
G02*
X8055000Y-7860000I-20000J0D01*
G01*
X8055000Y-7860000D02*
G75*
G02*
X8095000Y-7860000I20000J0D01*
G01*
X8095000Y-8060000D02*
G75*
G02*
X8055000Y-8060000I-20000J0D01*
G01*
X8055000Y-8060000D02*
G75*
G02*
X8095000Y-8060000I20000J0D01*
G01*
X8245000Y-6100000D02*
G75*
G02*
X8205000Y-6100000I-20000J0D01*
G01*
X8205000Y-6100000D02*
G75*
G02*
X8245000Y-6100000I20000J0D01*
G01*
X8245000Y-6200000D02*
G75*
G02*
X8205000Y-6200000I-20000J0D01*
G01*
X8205000Y-6200000D02*
G75*
G02*
X8245000Y-6200000I20000J0D01*
G01*
X8245000Y-6300000D02*
G75*
G02*
X8205000Y-6300000I-20000J0D01*
G01*
X8205000Y-6300000D02*
G75*
G02*
X8245000Y-6300000I20000J0D01*
G01*
X8270000Y-7910000D02*
G75*
G02*
X8230000Y-7910000I-20000J0D01*
G01*
X8230000Y-7910000D02*
G75*
G02*
X8270000Y-7910000I20000J0D01*
G01*
X8300000Y-8270000D02*
G75*
G02*
X8260000Y-8270000I-20000J0D01*
G01*
X8260000Y-8270000D02*
G75*
G02*
X8300000Y-8270000I20000J0D01*
G01*
X8330000Y-8085000D02*
G75*
G02*
X8290000Y-8085000I-20000J0D01*
G01*
X8290000Y-8085000D02*
G75*
G02*
X8330000Y-8085000I20000J0D01*
G01*
X8420000Y-6165000D02*
G75*
G02*
X8380000Y-6165000I-20000J0D01*
G01*
X8380000Y-6165000D02*
G75*
G02*
X8420000Y-6165000I20000J0D01*
G01*
X8437500Y-7600000D02*
G75*
G02*
X8397500Y-7600000I-20000J0D01*
G01*
X8397500Y-7600000D02*
G75*
G02*
X8437500Y-7600000I20000J0D01*
G01*
X8457500Y-7100000D02*
G75*
G02*
X8417500Y-7100000I-20000J0D01*
G01*
X8417500Y-7100000D02*
G75*
G02*
X8457500Y-7100000I20000J0D01*
G01*
X8520000Y-8085000D02*
G75*
G02*
X8480000Y-8085000I-20000J0D01*
G01*
X8480000Y-8085000D02*
G75*
G02*
X8520000Y-8085000I20000J0D01*
G01*
X8527500Y-8270000D02*
G75*
G02*
X8487500Y-8270000I-20000J0D01*
G01*
X8487500Y-8270000D02*
G75*
G02*
X8527500Y-8270000I20000J0D01*
G01*
X8528120Y-8499520D02*
G75*
G02*
X8488120Y-8499520I-20000J0D01*
G01*
X8488120Y-8499520D02*
G75*
G02*
X8528120Y-8499520I20000J0D01*
G01*
X8660000Y-7340000D02*
G75*
G02*
X8620000Y-7340000I-20000J0D01*
G01*
X8620000Y-7340000D02*
G75*
G02*
X8660000Y-7340000I20000J0D01*
G01*
X8693750Y-8562500D02*
G75*
G02*
X8653750Y-8562500I-20000J0D01*
G01*
X8653750Y-8562500D02*
G75*
G02*
X8693750Y-8562500I20000J0D01*
G01*
X8693750Y-8717500D02*
G75*
G02*
X8653750Y-8717500I-20000J0D01*
G01*
X8653750Y-8717500D02*
G75*
G02*
X8693750Y-8717500I20000J0D01*
G01*
X8740000Y-7460000D02*
G75*
G02*
X8700000Y-7460000I-20000J0D01*
G01*
X8700000Y-7460000D02*
G75*
G02*
X8740000Y-7460000I20000J0D01*
G01*
X8740000Y-7600000D02*
G75*
G02*
X8700000Y-7600000I-20000J0D01*
G01*
X8700000Y-7600000D02*
G75*
G02*
X8740000Y-7600000I20000J0D01*
G01*
X8740000Y-7740000D02*
G75*
G02*
X8700000Y-7740000I-20000J0D01*
G01*
X8700000Y-7740000D02*
G75*
G02*
X8740000Y-7740000I20000J0D01*
G01*
X8858000Y-7524000D02*
G75*
G02*
X8818000Y-7524000I-20000J0D01*
G01*
X8818000Y-7524000D02*
G75*
G02*
X8858000Y-7524000I20000J0D01*
G01*
X8858000Y-7651000D02*
G75*
G02*
X8818000Y-7651000I-20000J0D01*
G01*
X8818000Y-7651000D02*
G75*
G02*
X8858000Y-7651000I20000J0D01*
G01*
X8858000Y-7779000D02*
G75*
G02*
X8818000Y-7779000I-20000J0D01*
G01*
X8818000Y-7779000D02*
G75*
G02*
X8858000Y-7779000I20000J0D01*
G01*
X8964000Y-7117000D02*
G75*
G02*
X8924000Y-7117000I-20000J0D01*
G01*
X8924000Y-7117000D02*
G75*
G02*
X8964000Y-7117000I20000J0D01*
G01*
X9005000Y-6580000D02*
G75*
G02*
X8965000Y-6580000I-20000J0D01*
G01*
X8965000Y-6580000D02*
G75*
G02*
X9005000Y-6580000I20000J0D01*
G01*
X9005000Y-6730000D02*
G75*
G02*
X8965000Y-6730000I-20000J0D01*
G01*
X8965000Y-6730000D02*
G75*
G02*
X9005000Y-6730000I20000J0D01*
G01*
X9005000Y-6880000D02*
G75*
G02*
X8965000Y-6880000I-20000J0D01*
G01*
X8965000Y-6880000D02*
G75*
G02*
X9005000Y-6880000I20000J0D01*
G01*
X9080000Y-6655000D02*
G75*
G02*
X9040000Y-6655000I-20000J0D01*
G01*
X9040000Y-6655000D02*
G75*
G02*
X9080000Y-6655000I20000J0D01*
G01*
X9080000Y-6805000D02*
G75*
G02*
X9040000Y-6805000I-20000J0D01*
G01*
X9040000Y-6805000D02*
G75*
G02*
X9080000Y-6805000I20000J0D01*
G01*
X9091000Y-7117000D02*
G75*
G02*
X9051000Y-7117000I-20000J0D01*
G01*
X9051000Y-7117000D02*
G75*
G02*
X9091000Y-7117000I20000J0D01*
G01*
X9095000Y-7565000D02*
G75*
G02*
X9055000Y-7565000I-20000J0D01*
G01*
X9055000Y-7565000D02*
G75*
G02*
X9095000Y-7565000I20000J0D01*
G01*
X9095000Y-7715000D02*
G75*
G02*
X9055000Y-7715000I-20000J0D01*
G01*
X9055000Y-7715000D02*
G75*
G02*
X9095000Y-7715000I20000J0D01*
G01*
X9095000Y-7865000D02*
G75*
G02*
X9055000Y-7865000I-20000J0D01*
G01*
X9055000Y-7865000D02*
G75*
G02*
X9095000Y-7865000I20000J0D01*
G01*
X9125000Y-8610000D02*
G75*
G02*
X9085000Y-8610000I-20000J0D01*
G01*
X9085000Y-8610000D02*
G75*
G02*
X9125000Y-8610000I20000J0D01*
G01*
X9155000Y-6580000D02*
G75*
G02*
X9115000Y-6580000I-20000J0D01*
G01*
X9115000Y-6580000D02*
G75*
G02*
X9155000Y-6580000I20000J0D01*
G01*
X9155000Y-6730000D02*
G75*
G02*
X9115000Y-6730000I-20000J0D01*
G01*
X9115000Y-6730000D02*
G75*
G02*
X9155000Y-6730000I20000J0D01*
G01*
X9155000Y-6880000D02*
G75*
G02*
X9115000Y-6880000I-20000J0D01*
G01*
X9115000Y-6880000D02*
G75*
G02*
X9155000Y-6880000I20000J0D01*
G01*
X9170000Y-7640000D02*
G75*
G02*
X9130000Y-7640000I-20000J0D01*
G01*
X9130000Y-7640000D02*
G75*
G02*
X9170000Y-7640000I20000J0D01*
G01*
X9170000Y-7790000D02*
G75*
G02*
X9130000Y-7790000I-20000J0D01*
G01*
X9130000Y-7790000D02*
G75*
G02*
X9170000Y-7790000I20000J0D01*
G01*
X9219000Y-7117000D02*
G75*
G02*
X9179000Y-7117000I-20000J0D01*
G01*
X9179000Y-7117000D02*
G75*
G02*
X9219000Y-7117000I20000J0D01*
G01*
X9230000Y-6655000D02*
G75*
G02*
X9190000Y-6655000I-20000J0D01*
G01*
X9190000Y-6655000D02*
G75*
G02*
X9230000Y-6655000I20000J0D01*
G01*
X9230000Y-6805000D02*
G75*
G02*
X9190000Y-6805000I-20000J0D01*
G01*
X9190000Y-6805000D02*
G75*
G02*
X9230000Y-6805000I20000J0D01*
G01*
X9245000Y-7565000D02*
G75*
G02*
X9205000Y-7565000I-20000J0D01*
G01*
X9205000Y-7565000D02*
G75*
G02*
X9245000Y-7565000I20000J0D01*
G01*
X9245000Y-7715000D02*
G75*
G02*
X9205000Y-7715000I-20000J0D01*
G01*
X9205000Y-7715000D02*
G75*
G02*
X9245000Y-7715000I20000J0D01*
G01*
X9245000Y-7865000D02*
G75*
G02*
X9205000Y-7865000I-20000J0D01*
G01*
X9205000Y-7865000D02*
G75*
G02*
X9245000Y-7865000I20000J0D01*
G01*
X9305000Y-6580000D02*
G75*
G02*
X9265000Y-6580000I-20000J0D01*
G01*
X9265000Y-6580000D02*
G75*
G02*
X9305000Y-6580000I20000J0D01*
G01*
X9305000Y-6730000D02*
G75*
G02*
X9265000Y-6730000I-20000J0D01*
G01*
X9265000Y-6730000D02*
G75*
G02*
X9305000Y-6730000I20000J0D01*
G01*
X9305000Y-6880000D02*
G75*
G02*
X9265000Y-6880000I-20000J0D01*
G01*
X9265000Y-6880000D02*
G75*
G02*
X9305000Y-6880000I20000J0D01*
G01*
X9320000Y-7640000D02*
G75*
G02*
X9280000Y-7640000I-20000J0D01*
G01*
X9280000Y-7640000D02*
G75*
G02*
X9320000Y-7640000I20000J0D01*
G01*
X9320000Y-7790000D02*
G75*
G02*
X9280000Y-7790000I-20000J0D01*
G01*
X9280000Y-7790000D02*
G75*
G02*
X9320000Y-7790000I20000J0D01*
G01*
X9395000Y-7565000D02*
G75*
G02*
X9355000Y-7565000I-20000J0D01*
G01*
X9355000Y-7565000D02*
G75*
G02*
X9395000Y-7565000I20000J0D01*
G01*
X9395000Y-7715000D02*
G75*
G02*
X9355000Y-7715000I-20000J0D01*
G01*
X9355000Y-7715000D02*
G75*
G02*
X9395000Y-7715000I20000J0D01*
G01*
X9395000Y-7865000D02*
G75*
G02*
X9355000Y-7865000I-20000J0D01*
G01*
X9355000Y-7865000D02*
G75*
G02*
X9395000Y-7865000I20000J0D01*
G01*
X9413045Y-9155000D02*
G75*
G02*
X9373045Y-9155000I-20000J0D01*
G01*
X9373045Y-9155000D02*
G75*
G02*
X9413045Y-9155000I20000J0D01*
G01*
X9643750Y-8682500D02*
G75*
G02*
X9603750Y-8682500I-20000J0D01*
G01*
X9603750Y-8682500D02*
G75*
G02*
X9643750Y-8682500I20000J0D01*
G01*
X9643750Y-8837500D02*
G75*
G02*
X9603750Y-8837500I-20000J0D01*
G01*
X9603750Y-8837500D02*
G75*
G02*
X9643750Y-8837500I20000J0D01*
G01*
X9973750Y-8850000D02*
G75*
G02*
X9933750Y-8850000I-20000J0D01*
G01*
X9933750Y-8850000D02*
G75*
G02*
X9973750Y-8850000I20000J0D01*
G01*
X11267500Y-7900000D02*
G75*
G02*
X11227500Y-7900000I-20000J0D01*
G01*
X11227500Y-7900000D02*
G75*
G02*
X11267500Y-7900000I20000J0D01*
G01*
X11342440Y-8382680D02*
G75*
G02*
X11302440Y-8382680I-20000J0D01*
G01*
X11302440Y-8382680D02*
G75*
G02*
X11342440Y-8382680I20000J0D01*
G01*
X11345000Y-8011840D02*
G75*
G02*
X11305000Y-8011840I-20000J0D01*
G01*
X11305000Y-8011840D02*
G75*
G02*
X11345000Y-8011840I20000J0D01*
G01*
X11422500Y-7900000D02*
G75*
G02*
X11382500Y-7900000I-20000J0D01*
G01*
X11382500Y-7900000D02*
G75*
G02*
X11422500Y-7900000I20000J0D01*
G01*
X11474520Y-8313750D02*
G75*
G02*
X11434520Y-8313750I-20000J0D01*
G01*
X11434520Y-8313750D02*
G75*
G02*
X11474520Y-8313750I20000J0D01*
G01*
X11549020Y-8108295D02*
G75*
G02*
X11509020Y-8108295I-20000J0D01*
G01*
X11509020Y-8108295D02*
G75*
G02*
X11549020Y-8108295I20000J0D01*
G01*
X11895000Y-8266250D02*
G75*
G02*
X11855000Y-8266250I-20000J0D01*
G01*
X11855000Y-8266250D02*
G75*
G02*
X11895000Y-8266250I20000J0D01*
G01*
X11920353Y-8799307D02*
G75*
G02*
X11880353Y-8799307I-20000J0D01*
G01*
X11880353Y-8799307D02*
G75*
G02*
X11920353Y-8799307I20000J0D01*
G01*
X7560700Y-6600000D02*
X7560700Y-6650000D01*
X7535700Y-6625000D02*
X7585700Y-6625000D01*
X7675000Y-6600000D02*
X7675000Y-6650000D01*
X7650000Y-6625000D02*
X7700000Y-6625000D01*
X7802000Y-6600000D02*
X7802000Y-6650000D01*
X7777000Y-6625000D02*
X7827000Y-6625000D01*
X8240000Y-6435000D02*
X8240000Y-6485000D01*
X8215000Y-6460000D02*
X8265000Y-6460000D01*
X8240000Y-6755000D02*
X8240000Y-6805000D01*
X8215000Y-6780000D02*
X8265000Y-6780000D01*
X8480000Y-6595000D02*
X8480000Y-6645000D01*
X8455000Y-6620000D02*
X8505000Y-6620000D01*
X9775000Y-6550000D02*
X9775000Y-6600000D01*
X9750000Y-6575000D02*
X9800000Y-6575000D01*
X9777500Y-6875000D02*
X9777500Y-6925000D01*
X9752500Y-6900000D02*
X9802500Y-6900000D01*
X9860000Y-7235000D02*
X9860000Y-7285000D01*
X9835000Y-7260000D02*
X9885000Y-7260000D01*
X10070000Y-6550000D02*
X10070000Y-6600000D01*
X10045000Y-6575000D02*
X10095000Y-6575000D01*
X10072500Y-6875000D02*
X10072500Y-6925000D01*
X10047500Y-6900000D02*
X10097500Y-6900000D01*
X10427500Y-6550000D02*
X10427500Y-6600000D01*
X10402500Y-6575000D02*
X10452500Y-6575000D01*
X10427500Y-6875000D02*
X10427500Y-6925000D01*
X10402500Y-6900000D02*
X10452500Y-6900000D01*
X10722500Y-6550000D02*
X10722500Y-6600000D01*
X10697500Y-6575000D02*
X10747500Y-6575000D01*
X10722500Y-6875000D02*
X10722500Y-6925000D01*
X10697500Y-6900000D02*
X10747500Y-6900000D01*
X7610981Y-8896981D02*
X7610981Y-8851019D01*
X7565019Y-8851019D01*
X7565019Y-8896981D01*
X7610981Y-8896981D01*
X7737981Y-8896981D02*
X7737981Y-8851019D01*
X7692019Y-8851019D01*
X7692019Y-8896981D01*
X7737981Y-8896981D01*
X7864981Y-8896981D02*
X7864981Y-8851019D01*
X7819019Y-8851019D01*
X7819019Y-8896981D01*
X7864981Y-8896981D01*
X7991981Y-8896981D02*
X7991981Y-8851019D01*
X7946019Y-8851019D01*
X7946019Y-8896981D01*
X7991981Y-8896981D01*
X10625000Y-8747500D02*
X10672500Y-8700000D01*
X10625000Y-8652500D01*
X10577500Y-8700000D01*
X10625000Y-8747500D01*
X10625000Y-8997500D02*
X10672500Y-8950000D01*
X10625000Y-8902500D01*
X10577500Y-8950000D01*
X10625000Y-8997500D01*
X10625000Y-9247500D02*
X10672500Y-9200000D01*
X10625000Y-9152500D01*
X10577500Y-9200000D01*
X10625000Y-9247500D01*
X10625000Y-9497500D02*
X10672500Y-9450000D01*
X10625000Y-9402500D01*
X10577500Y-9450000D01*
X10625000Y-9497500D01*
X11300000Y-8747500D02*
X11347500Y-8700000D01*
X11300000Y-8652500D01*
X11252500Y-8700000D01*
X11300000Y-8747500D01*
X11300000Y-8997500D02*
X11347500Y-8950000D01*
X11300000Y-8902500D01*
X11252500Y-8950000D01*
X11300000Y-8997500D01*
X11300000Y-9247500D02*
X11347500Y-9200000D01*
X11300000Y-9152500D01*
X11252500Y-9200000D01*
X11300000Y-9247500D01*
X11300000Y-9497500D02*
X11347500Y-9450000D01*
X11300000Y-9402500D01*
X11252500Y-9450000D01*
X11300000Y-9497500D01*
X8459000Y-9586500D02*
X8558000Y-9685500D01*
X8558000Y-9586500D02*
X8459000Y-9685500D01*
X8558000Y-9636000D02*
G75*
G02*
X8459000Y-9636000I-49500J0D01*
G01*
X8459000Y-9636000D02*
G75*
G02*
X8558000Y-9636000I49500J0D01*
G01*
X8909000Y-9586500D02*
X9008000Y-9685500D01*
X9008000Y-9586500D02*
X8909000Y-9685500D01*
X9008000Y-9636000D02*
G75*
G02*
X8909000Y-9636000I-49500J0D01*
G01*
X8909000Y-9636000D02*
G75*
G02*
X9008000Y-9636000I49500J0D01*
G01*
X8650000Y-5028000D02*
X8750000Y-5128000D01*
X8750000Y-5028000D02*
X8650000Y-5128000D01*
X8700000Y-5028000D02*
X8700000Y-5128000D01*
X8650000Y-5078000D02*
X8750000Y-5078000D01*
X9750000Y-5028000D02*
X9850000Y-5128000D01*
X9850000Y-5028000D02*
X9750000Y-5128000D01*
X9800000Y-5028000D02*
X9800000Y-5128000D01*
X9750000Y-5078000D02*
X9850000Y-5078000D01*
X10100000Y-5628000D02*
X10200000Y-5728000D01*
X10200000Y-5628000D02*
X10100000Y-5728000D01*
X10150000Y-5628000D02*
X10150000Y-5728000D01*
X10100000Y-5678000D02*
X10200000Y-5678000D01*
X11200000Y-5628000D02*
X11300000Y-5728000D01*
X11300000Y-5628000D02*
X11200000Y-5728000D01*
X11250000Y-5628000D02*
X11250000Y-5728000D01*
X11200000Y-5678000D02*
X11300000Y-5678000D01*
X11740000Y-5650000D02*
X11840000Y-5750000D01*
X11840000Y-5650000D02*
X11740000Y-5750000D01*
X11790000Y-5650000D02*
X11790000Y-5750000D01*
X11740000Y-5700000D02*
X11840000Y-5700000D01*
X11740000Y-6330000D02*
X11840000Y-6430000D01*
X11840000Y-6330000D02*
X11740000Y-6430000D01*
X11790000Y-6330000D02*
X11790000Y-6430000D01*
X11740000Y-6380000D02*
X11840000Y-6380000D01*
X11740000Y-7010000D02*
X11840000Y-7110000D01*
X11840000Y-7010000D02*
X11740000Y-7110000D01*
X11790000Y-7010000D02*
X11790000Y-7110000D01*
X11740000Y-7060000D02*
X11840000Y-7060000D01*
X11740000Y-7690000D02*
X11840000Y-7790000D01*
X11840000Y-7690000D02*
X11740000Y-7790000D01*
X11790000Y-7690000D02*
X11790000Y-7790000D01*
X11740000Y-7740000D02*
X11840000Y-7740000D01*
X11990000Y-5650000D02*
X12090000Y-5750000D01*
X12090000Y-5650000D02*
X11990000Y-5750000D01*
X12040000Y-5650000D02*
X12040000Y-5750000D01*
X11990000Y-5700000D02*
X12090000Y-5700000D01*
X11990000Y-6330000D02*
X12090000Y-6430000D01*
X12090000Y-6330000D02*
X11990000Y-6430000D01*
X12040000Y-6330000D02*
X12040000Y-6430000D01*
X11990000Y-6380000D02*
X12090000Y-6380000D01*
X11990000Y-7010000D02*
X12090000Y-7110000D01*
X12090000Y-7010000D02*
X11990000Y-7110000D01*
X12040000Y-7010000D02*
X12040000Y-7110000D01*
X11990000Y-7060000D02*
X12090000Y-7060000D01*
X11990000Y-7690000D02*
X12090000Y-7790000D01*
X12090000Y-7690000D02*
X11990000Y-7790000D01*
X12040000Y-7690000D02*
X12040000Y-7790000D01*
X11990000Y-7740000D02*
X12090000Y-7740000D01*
D12*
X7815000Y-5515000D02*
X7935000Y-5635000D01*
X7935000Y-5515000D02*
X7815000Y-5635000D01*
X7917427Y-5617427D02*
X7917427Y-5532573D01*
X7832573Y-5532573D01*
X7832573Y-5617427D01*
X7917427Y-5617427D01*
X8165000Y-5515000D02*
X8285000Y-5635000D01*
X8285000Y-5515000D02*
X8165000Y-5635000D01*
X8267427Y-5617427D02*
X8267427Y-5532573D01*
X8182573Y-5532573D01*
X8182573Y-5617427D01*
X8267427Y-5617427D01*
D13*
X8317500Y-9322000D02*
X8447500Y-9452000D01*
X8447500Y-9322000D02*
X8317500Y-9452000D01*
X8382500Y-9452000D02*
X8447500Y-9387000D01*
X8382500Y-9322000D01*
X8317500Y-9387000D01*
X8382500Y-9452000D01*
X9018500Y-9322000D02*
X9148500Y-9452000D01*
X9148500Y-9322000D02*
X9018500Y-9452000D01*
X9083500Y-9452000D02*
X9148500Y-9387000D01*
X9083500Y-9322000D01*
X9018500Y-9387000D01*
X9083500Y-9452000D01*
D14*
X9000000Y-5983000D02*
X9000000Y-6173000D01*
X8905000Y-6078000D02*
X9095000Y-6078000D01*
X9095000Y-6078000D02*
G75*
G02*
X8905000Y-6078000I-95000J0D01*
G01*
X8905000Y-6078000D02*
G75*
G02*
X9095000Y-6078000I95000J0D01*
G01*
X9500000Y-5983000D02*
X9500000Y-6173000D01*
X9405000Y-6078000D02*
X9595000Y-6078000D01*
X9595000Y-6078000D02*
G75*
G02*
X9405000Y-6078000I-95000J0D01*
G01*
X9405000Y-6078000D02*
G75*
G02*
X9595000Y-6078000I95000J0D01*
G01*
X10450000Y-6083000D02*
X10450000Y-6273000D01*
X10355000Y-6178000D02*
X10545000Y-6178000D01*
X10545000Y-6178000D02*
G75*
G02*
X10355000Y-6178000I-95000J0D01*
G01*
X10355000Y-6178000D02*
G75*
G02*
X10545000Y-6178000I95000J0D01*
G01*
X10950000Y-6083000D02*
X10950000Y-6273000D01*
X10855000Y-6178000D02*
X11045000Y-6178000D01*
X11045000Y-6178000D02*
G75*
G02*
X10855000Y-6178000I-95000J0D01*
G01*
X10855000Y-6178000D02*
G75*
G02*
X11045000Y-6178000I95000J0D01*
G01*
D15*
X7913138Y-9513138D02*
X7913138Y-9286862D01*
X7686862Y-9286862D01*
X7686862Y-9513138D01*
X7913138Y-9513138D01*
X7960000Y-9400000D02*
G75*
G02*
X7640000Y-9400000I-160000J0D01*
G01*
X7640000Y-9400000D02*
G75*
G02*
X7960000Y-9400000I160000J0D01*
G01*
X12113138Y-5213138D02*
X12113138Y-4986862D01*
X11886862Y-4986862D01*
X11886862Y-5213138D01*
X12113138Y-5213138D01*
X12160000Y-5100000D02*
G75*
G02*
X11840000Y-5100000I-160000J0D01*
G01*
X11840000Y-5100000D02*
G75*
G02*
X12160000Y-5100000I160000J0D01*
G01*
X12113138Y-9513138D02*
X12113138Y-9286862D01*
X11886862Y-9286862D01*
X11886862Y-9513138D01*
X12113138Y-9513138D01*
X12160000Y-9400000D02*
G75*
G02*
X11840000Y-9400000I-160000J0D01*
G01*
X11840000Y-9400000D02*
G75*
G02*
X12160000Y-9400000I160000J0D01*
G01*
D11*
X7655777Y-10116484D02*
X7655777Y-9916484D01*
X7655777Y-9916484D02*
X7703396Y-9916484D01*
X7703396Y-9916484D02*
X7731967Y-9926008D01*
X7731967Y-9926008D02*
X7751015Y-9945055D01*
X7751015Y-9945055D02*
X7760539Y-9964103D01*
X7760539Y-9964103D02*
X7770062Y-10002198D01*
X7770062Y-10002198D02*
X7770062Y-10030770D01*
X7770062Y-10030770D02*
X7760539Y-10068865D01*
X7760539Y-10068865D02*
X7751015Y-10087912D01*
X7751015Y-10087912D02*
X7731967Y-10106960D01*
X7731967Y-10106960D02*
X7703396Y-10116484D01*
X7703396Y-10116484D02*
X7655777Y-10116484D01*
X7855777Y-10116484D02*
X7855777Y-9983150D01*
X7855777Y-10021246D02*
X7865301Y-10002198D01*
X7865301Y-10002198D02*
X7874824Y-9992674D01*
X7874824Y-9992674D02*
X7893872Y-9983150D01*
X7893872Y-9983150D02*
X7912920Y-9983150D01*
X7979586Y-10116484D02*
X7979586Y-9983150D01*
X7979586Y-9916484D02*
X7970062Y-9926008D01*
X7970062Y-9926008D02*
X7979586Y-9935531D01*
X7979586Y-9935531D02*
X7989110Y-9926008D01*
X7989110Y-9926008D02*
X7979586Y-9916484D01*
X7979586Y-9916484D02*
X7979586Y-9935531D01*
X8103396Y-10116484D02*
X8084348Y-10106960D01*
X8084348Y-10106960D02*
X8074824Y-10087912D01*
X8074824Y-10087912D02*
X8074824Y-9916484D01*
X8208158Y-10116484D02*
X8189110Y-10106960D01*
X8189110Y-10106960D02*
X8179586Y-10087912D01*
X8179586Y-10087912D02*
X8179586Y-9916484D01*
X8436729Y-10116484D02*
X8436729Y-9916484D01*
X8436729Y-9916484D02*
X8503396Y-10059341D01*
X8503396Y-10059341D02*
X8570063Y-9916484D01*
X8570063Y-9916484D02*
X8570063Y-10116484D01*
X8751015Y-10116484D02*
X8751015Y-10011722D01*
X8751015Y-10011722D02*
X8741491Y-9992674D01*
X8741491Y-9992674D02*
X8722444Y-9983150D01*
X8722444Y-9983150D02*
X8684348Y-9983150D01*
X8684348Y-9983150D02*
X8665301Y-9992674D01*
X8751015Y-10106960D02*
X8731967Y-10116484D01*
X8731967Y-10116484D02*
X8684348Y-10116484D01*
X8684348Y-10116484D02*
X8665301Y-10106960D01*
X8665301Y-10106960D02*
X8655777Y-10087912D01*
X8655777Y-10087912D02*
X8655777Y-10068865D01*
X8655777Y-10068865D02*
X8665301Y-10049817D01*
X8665301Y-10049817D02*
X8684348Y-10040293D01*
X8684348Y-10040293D02*
X8731967Y-10040293D01*
X8731967Y-10040293D02*
X8751015Y-10030770D01*
X8846253Y-9983150D02*
X8846253Y-10183150D01*
X8846253Y-9992674D02*
X8865301Y-9983150D01*
X8865301Y-9983150D02*
X8903396Y-9983150D01*
X8903396Y-9983150D02*
X8922444Y-9992674D01*
X8922444Y-9992674D02*
X8931967Y-10002198D01*
X8931967Y-10002198D02*
X8941491Y-10021246D01*
X8941491Y-10021246D02*
X8941491Y-10078389D01*
X8941491Y-10078389D02*
X8931967Y-10097436D01*
X8931967Y-10097436D02*
X8922444Y-10106960D01*
X8922444Y-10106960D02*
X8903396Y-10116484D01*
X8903396Y-10116484D02*
X8865301Y-10116484D01*
X8865301Y-10116484D02*
X8846253Y-10106960D01*
X9027205Y-10097436D02*
X9036729Y-10106960D01*
X9036729Y-10106960D02*
X9027205Y-10116484D01*
X9027205Y-10116484D02*
X9017682Y-10106960D01*
X9017682Y-10106960D02*
X9027205Y-10097436D01*
X9027205Y-10097436D02*
X9027205Y-10116484D01*
X9027205Y-9992674D02*
X9036729Y-10002198D01*
X9036729Y-10002198D02*
X9027205Y-10011722D01*
X9027205Y-10011722D02*
X9017682Y-10002198D01*
X9017682Y-10002198D02*
X9027205Y-9992674D01*
X9027205Y-9992674D02*
X9027205Y-10011722D01*
D10*
X7365000Y-10430000D02*
X7395000Y-10460000D01*
X7395000Y-10430000D02*
X7365000Y-10460000D01*
D11*
X7693872Y-10336484D02*
X7712920Y-10336484D01*
X7712920Y-10336484D02*
X7731967Y-10346008D01*
X7731967Y-10346008D02*
X7741491Y-10355531D01*
X7741491Y-10355531D02*
X7751015Y-10374579D01*
X7751015Y-10374579D02*
X7760539Y-10412674D01*
X7760539Y-10412674D02*
X7760539Y-10460293D01*
X7760539Y-10460293D02*
X7751015Y-10498389D01*
X7751015Y-10498389D02*
X7741491Y-10517436D01*
X7741491Y-10517436D02*
X7731967Y-10526960D01*
X7731967Y-10526960D02*
X7712920Y-10536484D01*
X7712920Y-10536484D02*
X7693872Y-10536484D01*
X7693872Y-10536484D02*
X7674824Y-10526960D01*
X7674824Y-10526960D02*
X7665301Y-10517436D01*
X7665301Y-10517436D02*
X7655777Y-10498389D01*
X7655777Y-10498389D02*
X7646253Y-10460293D01*
X7646253Y-10460293D02*
X7646253Y-10412674D01*
X7646253Y-10412674D02*
X7655777Y-10374579D01*
X7655777Y-10374579D02*
X7665301Y-10355531D01*
X7665301Y-10355531D02*
X7674824Y-10346008D01*
X7674824Y-10346008D02*
X7693872Y-10336484D01*
X7846253Y-10517436D02*
X7855777Y-10526960D01*
X7855777Y-10526960D02*
X7846253Y-10536484D01*
X7846253Y-10536484D02*
X7836729Y-10526960D01*
X7836729Y-10526960D02*
X7846253Y-10517436D01*
X7846253Y-10517436D02*
X7846253Y-10536484D01*
X7922443Y-10336484D02*
X8046253Y-10336484D01*
X8046253Y-10336484D02*
X7979586Y-10412674D01*
X7979586Y-10412674D02*
X8008158Y-10412674D01*
X8008158Y-10412674D02*
X8027205Y-10422198D01*
X8027205Y-10422198D02*
X8036729Y-10431722D01*
X8036729Y-10431722D02*
X8046253Y-10450770D01*
X8046253Y-10450770D02*
X8046253Y-10498389D01*
X8046253Y-10498389D02*
X8036729Y-10517436D01*
X8036729Y-10517436D02*
X8027205Y-10526960D01*
X8027205Y-10526960D02*
X8008158Y-10536484D01*
X8008158Y-10536484D02*
X7951015Y-10536484D01*
X7951015Y-10536484D02*
X7931967Y-10526960D01*
X7931967Y-10526960D02*
X7922443Y-10517436D01*
X8170062Y-10336484D02*
X8189110Y-10336484D01*
X8189110Y-10336484D02*
X8208158Y-10346008D01*
X8208158Y-10346008D02*
X8217682Y-10355531D01*
X8217682Y-10355531D02*
X8227205Y-10374579D01*
X8227205Y-10374579D02*
X8236729Y-10412674D01*
X8236729Y-10412674D02*
X8236729Y-10460293D01*
X8236729Y-10460293D02*
X8227205Y-10498389D01*
X8227205Y-10498389D02*
X8217682Y-10517436D01*
X8217682Y-10517436D02*
X8208158Y-10526960D01*
X8208158Y-10526960D02*
X8189110Y-10536484D01*
X8189110Y-10536484D02*
X8170062Y-10536484D01*
X8170062Y-10536484D02*
X8151015Y-10526960D01*
X8151015Y-10526960D02*
X8141491Y-10517436D01*
X8141491Y-10517436D02*
X8131967Y-10498389D01*
X8131967Y-10498389D02*
X8122443Y-10460293D01*
X8122443Y-10460293D02*
X8122443Y-10412674D01*
X8122443Y-10412674D02*
X8131967Y-10374579D01*
X8131967Y-10374579D02*
X8141491Y-10355531D01*
X8141491Y-10355531D02*
X8151015Y-10346008D01*
X8151015Y-10346008D02*
X8170062Y-10336484D01*
X8360539Y-10336484D02*
X8379586Y-10336484D01*
X8379586Y-10336484D02*
X8398634Y-10346008D01*
X8398634Y-10346008D02*
X8408158Y-10355531D01*
X8408158Y-10355531D02*
X8417682Y-10374579D01*
X8417682Y-10374579D02*
X8427205Y-10412674D01*
X8427205Y-10412674D02*
X8427205Y-10460293D01*
X8427205Y-10460293D02*
X8417682Y-10498389D01*
X8417682Y-10498389D02*
X8408158Y-10517436D01*
X8408158Y-10517436D02*
X8398634Y-10526960D01*
X8398634Y-10526960D02*
X8379586Y-10536484D01*
X8379586Y-10536484D02*
X8360539Y-10536484D01*
X8360539Y-10536484D02*
X8341491Y-10526960D01*
X8341491Y-10526960D02*
X8331967Y-10517436D01*
X8331967Y-10517436D02*
X8322443Y-10498389D01*
X8322443Y-10498389D02*
X8312920Y-10460293D01*
X8312920Y-10460293D02*
X8312920Y-10412674D01*
X8312920Y-10412674D02*
X8322443Y-10374579D01*
X8322443Y-10374579D02*
X8331967Y-10355531D01*
X8331967Y-10355531D02*
X8341491Y-10346008D01*
X8341491Y-10346008D02*
X8360539Y-10336484D01*
X8512920Y-10536484D02*
X8512920Y-10403150D01*
X8512920Y-10422198D02*
X8522444Y-10412674D01*
X8522444Y-10412674D02*
X8541491Y-10403150D01*
X8541491Y-10403150D02*
X8570063Y-10403150D01*
X8570063Y-10403150D02*
X8589110Y-10412674D01*
X8589110Y-10412674D02*
X8598634Y-10431722D01*
X8598634Y-10431722D02*
X8598634Y-10536484D01*
X8598634Y-10431722D02*
X8608158Y-10412674D01*
X8608158Y-10412674D02*
X8627205Y-10403150D01*
X8627205Y-10403150D02*
X8655777Y-10403150D01*
X8655777Y-10403150D02*
X8674825Y-10412674D01*
X8674825Y-10412674D02*
X8684348Y-10431722D01*
X8684348Y-10431722D02*
X8684348Y-10536484D01*
X8779586Y-10536484D02*
X8779586Y-10403150D01*
X8779586Y-10422198D02*
X8789110Y-10412674D01*
X8789110Y-10412674D02*
X8808158Y-10403150D01*
X8808158Y-10403150D02*
X8836729Y-10403150D01*
X8836729Y-10403150D02*
X8855777Y-10412674D01*
X8855777Y-10412674D02*
X8865301Y-10431722D01*
X8865301Y-10431722D02*
X8865301Y-10536484D01*
X8865301Y-10431722D02*
X8874825Y-10412674D01*
X8874825Y-10412674D02*
X8893872Y-10403150D01*
X8893872Y-10403150D02*
X8922444Y-10403150D01*
X8922444Y-10403150D02*
X8941491Y-10412674D01*
X8941491Y-10412674D02*
X8951015Y-10431722D01*
X8951015Y-10431722D02*
X8951015Y-10536484D01*
X9341491Y-10326960D02*
X9170063Y-10584103D01*
X9598634Y-10336484D02*
X9617682Y-10336484D01*
X9617682Y-10336484D02*
X9636729Y-10346008D01*
X9636729Y-10346008D02*
X9646253Y-10355531D01*
X9646253Y-10355531D02*
X9655777Y-10374579D01*
X9655777Y-10374579D02*
X9665301Y-10412674D01*
X9665301Y-10412674D02*
X9665301Y-10460293D01*
X9665301Y-10460293D02*
X9655777Y-10498389D01*
X9655777Y-10498389D02*
X9646253Y-10517436D01*
X9646253Y-10517436D02*
X9636729Y-10526960D01*
X9636729Y-10526960D02*
X9617682Y-10536484D01*
X9617682Y-10536484D02*
X9598634Y-10536484D01*
X9598634Y-10536484D02*
X9579587Y-10526960D01*
X9579587Y-10526960D02*
X9570063Y-10517436D01*
X9570063Y-10517436D02*
X9560539Y-10498389D01*
X9560539Y-10498389D02*
X9551015Y-10460293D01*
X9551015Y-10460293D02*
X9551015Y-10412674D01*
X9551015Y-10412674D02*
X9560539Y-10374579D01*
X9560539Y-10374579D02*
X9570063Y-10355531D01*
X9570063Y-10355531D02*
X9579587Y-10346008D01*
X9579587Y-10346008D02*
X9598634Y-10336484D01*
X9751015Y-10517436D02*
X9760539Y-10526960D01*
X9760539Y-10526960D02*
X9751015Y-10536484D01*
X9751015Y-10536484D02*
X9741491Y-10526960D01*
X9741491Y-10526960D02*
X9751015Y-10517436D01*
X9751015Y-10517436D02*
X9751015Y-10536484D01*
X9884348Y-10336484D02*
X9903396Y-10336484D01*
X9903396Y-10336484D02*
X9922444Y-10346008D01*
X9922444Y-10346008D02*
X9931968Y-10355531D01*
X9931968Y-10355531D02*
X9941491Y-10374579D01*
X9941491Y-10374579D02*
X9951015Y-10412674D01*
X9951015Y-10412674D02*
X9951015Y-10460293D01*
X9951015Y-10460293D02*
X9941491Y-10498389D01*
X9941491Y-10498389D02*
X9931968Y-10517436D01*
X9931968Y-10517436D02*
X9922444Y-10526960D01*
X9922444Y-10526960D02*
X9903396Y-10536484D01*
X9903396Y-10536484D02*
X9884348Y-10536484D01*
X9884348Y-10536484D02*
X9865301Y-10526960D01*
X9865301Y-10526960D02*
X9855777Y-10517436D01*
X9855777Y-10517436D02*
X9846253Y-10498389D01*
X9846253Y-10498389D02*
X9836729Y-10460293D01*
X9836729Y-10460293D02*
X9836729Y-10412674D01*
X9836729Y-10412674D02*
X9846253Y-10374579D01*
X9846253Y-10374579D02*
X9855777Y-10355531D01*
X9855777Y-10355531D02*
X9865301Y-10346008D01*
X9865301Y-10346008D02*
X9884348Y-10336484D01*
X10141491Y-10536484D02*
X10027206Y-10536484D01*
X10084348Y-10536484D02*
X10084348Y-10336484D01*
X10084348Y-10336484D02*
X10065301Y-10365055D01*
X10065301Y-10365055D02*
X10046253Y-10384103D01*
X10046253Y-10384103D02*
X10027206Y-10393627D01*
X10331968Y-10536484D02*
X10217682Y-10536484D01*
X10274825Y-10536484D02*
X10274825Y-10336484D01*
X10274825Y-10336484D02*
X10255777Y-10365055D01*
X10255777Y-10365055D02*
X10236729Y-10384103D01*
X10236729Y-10384103D02*
X10217682Y-10393627D01*
X10446253Y-10422198D02*
X10427206Y-10412674D01*
X10427206Y-10412674D02*
X10417682Y-10403150D01*
X10417682Y-10403150D02*
X10408158Y-10384103D01*
X10408158Y-10384103D02*
X10408158Y-10374579D01*
X10408158Y-10374579D02*
X10417682Y-10355531D01*
X10417682Y-10355531D02*
X10427206Y-10346008D01*
X10427206Y-10346008D02*
X10446253Y-10336484D01*
X10446253Y-10336484D02*
X10484349Y-10336484D01*
X10484349Y-10336484D02*
X10503396Y-10346008D01*
X10503396Y-10346008D02*
X10512920Y-10355531D01*
X10512920Y-10355531D02*
X10522444Y-10374579D01*
X10522444Y-10374579D02*
X10522444Y-10384103D01*
X10522444Y-10384103D02*
X10512920Y-10403150D01*
X10512920Y-10403150D02*
X10503396Y-10412674D01*
X10503396Y-10412674D02*
X10484349Y-10422198D01*
X10484349Y-10422198D02*
X10446253Y-10422198D01*
X10446253Y-10422198D02*
X10427206Y-10431722D01*
X10427206Y-10431722D02*
X10417682Y-10441246D01*
X10417682Y-10441246D02*
X10408158Y-10460293D01*
X10408158Y-10460293D02*
X10408158Y-10498389D01*
X10408158Y-10498389D02*
X10417682Y-10517436D01*
X10417682Y-10517436D02*
X10427206Y-10526960D01*
X10427206Y-10526960D02*
X10446253Y-10536484D01*
X10446253Y-10536484D02*
X10484349Y-10536484D01*
X10484349Y-10536484D02*
X10503396Y-10526960D01*
X10503396Y-10526960D02*
X10512920Y-10517436D01*
X10512920Y-10517436D02*
X10522444Y-10498389D01*
X10522444Y-10498389D02*
X10522444Y-10460293D01*
X10522444Y-10460293D02*
X10512920Y-10441246D01*
X10512920Y-10441246D02*
X10503396Y-10431722D01*
X10503396Y-10431722D02*
X10484349Y-10422198D01*
X10598634Y-10336484D02*
X10598634Y-10374579D01*
X10674825Y-10336484D02*
X10674825Y-10374579D01*
X10970063Y-10612674D02*
X10960539Y-10603150D01*
X10960539Y-10603150D02*
X10941491Y-10574579D01*
X10941491Y-10574579D02*
X10931968Y-10555531D01*
X10931968Y-10555531D02*
X10922444Y-10526960D01*
X10922444Y-10526960D02*
X10912920Y-10479341D01*
X10912920Y-10479341D02*
X10912920Y-10441246D01*
X10912920Y-10441246D02*
X10922444Y-10393627D01*
X10922444Y-10393627D02*
X10931968Y-10365055D01*
X10931968Y-10365055D02*
X10941491Y-10346008D01*
X10941491Y-10346008D02*
X10960539Y-10317436D01*
X10960539Y-10317436D02*
X10970063Y-10307912D01*
X11027206Y-10336484D02*
X11151015Y-10336484D01*
X11151015Y-10336484D02*
X11084349Y-10412674D01*
X11084349Y-10412674D02*
X11112920Y-10412674D01*
X11112920Y-10412674D02*
X11131968Y-10422198D01*
X11131968Y-10422198D02*
X11141491Y-10431722D01*
X11141491Y-10431722D02*
X11151015Y-10450770D01*
X11151015Y-10450770D02*
X11151015Y-10498389D01*
X11151015Y-10498389D02*
X11141491Y-10517436D01*
X11141491Y-10517436D02*
X11131968Y-10526960D01*
X11131968Y-10526960D02*
X11112920Y-10536484D01*
X11112920Y-10536484D02*
X11055777Y-10536484D01*
X11055777Y-10536484D02*
X11036730Y-10526960D01*
X11036730Y-10526960D02*
X11027206Y-10517436D01*
X11265301Y-10422198D02*
X11246253Y-10412674D01*
X11246253Y-10412674D02*
X11236729Y-10403150D01*
X11236729Y-10403150D02*
X11227206Y-10384103D01*
X11227206Y-10384103D02*
X11227206Y-10374579D01*
X11227206Y-10374579D02*
X11236729Y-10355531D01*
X11236729Y-10355531D02*
X11246253Y-10346008D01*
X11246253Y-10346008D02*
X11265301Y-10336484D01*
X11265301Y-10336484D02*
X11303396Y-10336484D01*
X11303396Y-10336484D02*
X11322444Y-10346008D01*
X11322444Y-10346008D02*
X11331968Y-10355531D01*
X11331968Y-10355531D02*
X11341491Y-10374579D01*
X11341491Y-10374579D02*
X11341491Y-10384103D01*
X11341491Y-10384103D02*
X11331968Y-10403150D01*
X11331968Y-10403150D02*
X11322444Y-10412674D01*
X11322444Y-10412674D02*
X11303396Y-10422198D01*
X11303396Y-10422198D02*
X11265301Y-10422198D01*
X11265301Y-10422198D02*
X11246253Y-10431722D01*
X11246253Y-10431722D02*
X11236729Y-10441246D01*
X11236729Y-10441246D02*
X11227206Y-10460293D01*
X11227206Y-10460293D02*
X11227206Y-10498389D01*
X11227206Y-10498389D02*
X11236729Y-10517436D01*
X11236729Y-10517436D02*
X11246253Y-10526960D01*
X11246253Y-10526960D02*
X11265301Y-10536484D01*
X11265301Y-10536484D02*
X11303396Y-10536484D01*
X11303396Y-10536484D02*
X11322444Y-10526960D01*
X11322444Y-10526960D02*
X11331968Y-10517436D01*
X11331968Y-10517436D02*
X11341491Y-10498389D01*
X11341491Y-10498389D02*
X11341491Y-10460293D01*
X11341491Y-10460293D02*
X11331968Y-10441246D01*
X11331968Y-10441246D02*
X11322444Y-10431722D01*
X11322444Y-10431722D02*
X11303396Y-10422198D01*
X11579587Y-10536484D02*
X11579587Y-10336484D01*
X11665301Y-10536484D02*
X11665301Y-10431722D01*
X11665301Y-10431722D02*
X11655777Y-10412674D01*
X11655777Y-10412674D02*
X11636730Y-10403150D01*
X11636730Y-10403150D02*
X11608158Y-10403150D01*
X11608158Y-10403150D02*
X11589110Y-10412674D01*
X11589110Y-10412674D02*
X11579587Y-10422198D01*
X11789110Y-10536484D02*
X11770063Y-10526960D01*
X11770063Y-10526960D02*
X11760539Y-10517436D01*
X11760539Y-10517436D02*
X11751015Y-10498389D01*
X11751015Y-10498389D02*
X11751015Y-10441246D01*
X11751015Y-10441246D02*
X11760539Y-10422198D01*
X11760539Y-10422198D02*
X11770063Y-10412674D01*
X11770063Y-10412674D02*
X11789110Y-10403150D01*
X11789110Y-10403150D02*
X11817682Y-10403150D01*
X11817682Y-10403150D02*
X11836730Y-10412674D01*
X11836730Y-10412674D02*
X11846253Y-10422198D01*
X11846253Y-10422198D02*
X11855777Y-10441246D01*
X11855777Y-10441246D02*
X11855777Y-10498389D01*
X11855777Y-10498389D02*
X11846253Y-10517436D01*
X11846253Y-10517436D02*
X11836730Y-10526960D01*
X11836730Y-10526960D02*
X11817682Y-10536484D01*
X11817682Y-10536484D02*
X11789110Y-10536484D01*
X11970063Y-10536484D02*
X11951015Y-10526960D01*
X11951015Y-10526960D02*
X11941491Y-10507912D01*
X11941491Y-10507912D02*
X11941491Y-10336484D01*
X12122444Y-10526960D02*
X12103396Y-10536484D01*
X12103396Y-10536484D02*
X12065301Y-10536484D01*
X12065301Y-10536484D02*
X12046253Y-10526960D01*
X12046253Y-10526960D02*
X12036730Y-10507912D01*
X12036730Y-10507912D02*
X12036730Y-10431722D01*
X12036730Y-10431722D02*
X12046253Y-10412674D01*
X12046253Y-10412674D02*
X12065301Y-10403150D01*
X12065301Y-10403150D02*
X12103396Y-10403150D01*
X12103396Y-10403150D02*
X12122444Y-10412674D01*
X12122444Y-10412674D02*
X12131968Y-10431722D01*
X12131968Y-10431722D02*
X12131968Y-10450770D01*
X12131968Y-10450770D02*
X12036730Y-10469817D01*
X12208158Y-10526960D02*
X12227206Y-10536484D01*
X12227206Y-10536484D02*
X12265301Y-10536484D01*
X12265301Y-10536484D02*
X12284349Y-10526960D01*
X12284349Y-10526960D02*
X12293872Y-10507912D01*
X12293872Y-10507912D02*
X12293872Y-10498389D01*
X12293872Y-10498389D02*
X12284349Y-10479341D01*
X12284349Y-10479341D02*
X12265301Y-10469817D01*
X12265301Y-10469817D02*
X12236730Y-10469817D01*
X12236730Y-10469817D02*
X12217682Y-10460293D01*
X12217682Y-10460293D02*
X12208158Y-10441246D01*
X12208158Y-10441246D02*
X12208158Y-10431722D01*
X12208158Y-10431722D02*
X12217682Y-10412674D01*
X12217682Y-10412674D02*
X12236730Y-10403150D01*
X12236730Y-10403150D02*
X12265301Y-10403150D01*
X12265301Y-10403150D02*
X12284349Y-10412674D01*
X12360539Y-10612674D02*
X12370063Y-10603150D01*
X12370063Y-10603150D02*
X12389111Y-10574579D01*
X12389111Y-10574579D02*
X12398634Y-10555531D01*
X12398634Y-10555531D02*
X12408158Y-10526960D01*
X12408158Y-10526960D02*
X12417682Y-10479341D01*
X12417682Y-10479341D02*
X12417682Y-10441246D01*
X12417682Y-10441246D02*
X12408158Y-10393627D01*
X12408158Y-10393627D02*
X12398634Y-10365055D01*
X12398634Y-10365055D02*
X12389111Y-10346008D01*
X12389111Y-10346008D02*
X12370063Y-10317436D01*
X12370063Y-10317436D02*
X12360539Y-10307912D01*
D10*
X7395000Y-10709000D02*
G75*
G02*
X7355000Y-10709000I-20000J0D01*
G01*
X7355000Y-10709000D02*
G75*
G02*
X7395000Y-10709000I20000J0D01*
G01*
D11*
X7693872Y-10600484D02*
X7712920Y-10600484D01*
X7712920Y-10600484D02*
X7731967Y-10610008D01*
X7731967Y-10610008D02*
X7741491Y-10619531D01*
X7741491Y-10619531D02*
X7751015Y-10638579D01*
X7751015Y-10638579D02*
X7760539Y-10676674D01*
X7760539Y-10676674D02*
X7760539Y-10724293D01*
X7760539Y-10724293D02*
X7751015Y-10762389D01*
X7751015Y-10762389D02*
X7741491Y-10781436D01*
X7741491Y-10781436D02*
X7731967Y-10790960D01*
X7731967Y-10790960D02*
X7712920Y-10800484D01*
X7712920Y-10800484D02*
X7693872Y-10800484D01*
X7693872Y-10800484D02*
X7674824Y-10790960D01*
X7674824Y-10790960D02*
X7665301Y-10781436D01*
X7665301Y-10781436D02*
X7655777Y-10762389D01*
X7655777Y-10762389D02*
X7646253Y-10724293D01*
X7646253Y-10724293D02*
X7646253Y-10676674D01*
X7646253Y-10676674D02*
X7655777Y-10638579D01*
X7655777Y-10638579D02*
X7665301Y-10619531D01*
X7665301Y-10619531D02*
X7674824Y-10610008D01*
X7674824Y-10610008D02*
X7693872Y-10600484D01*
X7846253Y-10781436D02*
X7855777Y-10790960D01*
X7855777Y-10790960D02*
X7846253Y-10800484D01*
X7846253Y-10800484D02*
X7836729Y-10790960D01*
X7836729Y-10790960D02*
X7846253Y-10781436D01*
X7846253Y-10781436D02*
X7846253Y-10800484D01*
X8027205Y-10667150D02*
X8027205Y-10800484D01*
X7979586Y-10590960D02*
X7931967Y-10733817D01*
X7931967Y-10733817D02*
X8055777Y-10733817D01*
X8170062Y-10600484D02*
X8189110Y-10600484D01*
X8189110Y-10600484D02*
X8208158Y-10610008D01*
X8208158Y-10610008D02*
X8217682Y-10619531D01*
X8217682Y-10619531D02*
X8227205Y-10638579D01*
X8227205Y-10638579D02*
X8236729Y-10676674D01*
X8236729Y-10676674D02*
X8236729Y-10724293D01*
X8236729Y-10724293D02*
X8227205Y-10762389D01*
X8227205Y-10762389D02*
X8217682Y-10781436D01*
X8217682Y-10781436D02*
X8208158Y-10790960D01*
X8208158Y-10790960D02*
X8189110Y-10800484D01*
X8189110Y-10800484D02*
X8170062Y-10800484D01*
X8170062Y-10800484D02*
X8151015Y-10790960D01*
X8151015Y-10790960D02*
X8141491Y-10781436D01*
X8141491Y-10781436D02*
X8131967Y-10762389D01*
X8131967Y-10762389D02*
X8122443Y-10724293D01*
X8122443Y-10724293D02*
X8122443Y-10676674D01*
X8122443Y-10676674D02*
X8131967Y-10638579D01*
X8131967Y-10638579D02*
X8141491Y-10619531D01*
X8141491Y-10619531D02*
X8151015Y-10610008D01*
X8151015Y-10610008D02*
X8170062Y-10600484D01*
X8360539Y-10600484D02*
X8379586Y-10600484D01*
X8379586Y-10600484D02*
X8398634Y-10610008D01*
X8398634Y-10610008D02*
X8408158Y-10619531D01*
X8408158Y-10619531D02*
X8417682Y-10638579D01*
X8417682Y-10638579D02*
X8427205Y-10676674D01*
X8427205Y-10676674D02*
X8427205Y-10724293D01*
X8427205Y-10724293D02*
X8417682Y-10762389D01*
X8417682Y-10762389D02*
X8408158Y-10781436D01*
X8408158Y-10781436D02*
X8398634Y-10790960D01*
X8398634Y-10790960D02*
X8379586Y-10800484D01*
X8379586Y-10800484D02*
X8360539Y-10800484D01*
X8360539Y-10800484D02*
X8341491Y-10790960D01*
X8341491Y-10790960D02*
X8331967Y-10781436D01*
X8331967Y-10781436D02*
X8322443Y-10762389D01*
X8322443Y-10762389D02*
X8312920Y-10724293D01*
X8312920Y-10724293D02*
X8312920Y-10676674D01*
X8312920Y-10676674D02*
X8322443Y-10638579D01*
X8322443Y-10638579D02*
X8331967Y-10619531D01*
X8331967Y-10619531D02*
X8341491Y-10610008D01*
X8341491Y-10610008D02*
X8360539Y-10600484D01*
X8512920Y-10800484D02*
X8512920Y-10667150D01*
X8512920Y-10686198D02*
X8522444Y-10676674D01*
X8522444Y-10676674D02*
X8541491Y-10667150D01*
X8541491Y-10667150D02*
X8570063Y-10667150D01*
X8570063Y-10667150D02*
X8589110Y-10676674D01*
X8589110Y-10676674D02*
X8598634Y-10695722D01*
X8598634Y-10695722D02*
X8598634Y-10800484D01*
X8598634Y-10695722D02*
X8608158Y-10676674D01*
X8608158Y-10676674D02*
X8627205Y-10667150D01*
X8627205Y-10667150D02*
X8655777Y-10667150D01*
X8655777Y-10667150D02*
X8674825Y-10676674D01*
X8674825Y-10676674D02*
X8684348Y-10695722D01*
X8684348Y-10695722D02*
X8684348Y-10800484D01*
X8779586Y-10800484D02*
X8779586Y-10667150D01*
X8779586Y-10686198D02*
X8789110Y-10676674D01*
X8789110Y-10676674D02*
X8808158Y-10667150D01*
X8808158Y-10667150D02*
X8836729Y-10667150D01*
X8836729Y-10667150D02*
X8855777Y-10676674D01*
X8855777Y-10676674D02*
X8865301Y-10695722D01*
X8865301Y-10695722D02*
X8865301Y-10800484D01*
X8865301Y-10695722D02*
X8874825Y-10676674D01*
X8874825Y-10676674D02*
X8893872Y-10667150D01*
X8893872Y-10667150D02*
X8922444Y-10667150D01*
X8922444Y-10667150D02*
X8941491Y-10676674D01*
X8941491Y-10676674D02*
X8951015Y-10695722D01*
X8951015Y-10695722D02*
X8951015Y-10800484D01*
X9341491Y-10590960D02*
X9170063Y-10848103D01*
X9598634Y-10600484D02*
X9617682Y-10600484D01*
X9617682Y-10600484D02*
X9636729Y-10610008D01*
X9636729Y-10610008D02*
X9646253Y-10619531D01*
X9646253Y-10619531D02*
X9655777Y-10638579D01*
X9655777Y-10638579D02*
X9665301Y-10676674D01*
X9665301Y-10676674D02*
X9665301Y-10724293D01*
X9665301Y-10724293D02*
X9655777Y-10762389D01*
X9655777Y-10762389D02*
X9646253Y-10781436D01*
X9646253Y-10781436D02*
X9636729Y-10790960D01*
X9636729Y-10790960D02*
X9617682Y-10800484D01*
X9617682Y-10800484D02*
X9598634Y-10800484D01*
X9598634Y-10800484D02*
X9579587Y-10790960D01*
X9579587Y-10790960D02*
X9570063Y-10781436D01*
X9570063Y-10781436D02*
X9560539Y-10762389D01*
X9560539Y-10762389D02*
X9551015Y-10724293D01*
X9551015Y-10724293D02*
X9551015Y-10676674D01*
X9551015Y-10676674D02*
X9560539Y-10638579D01*
X9560539Y-10638579D02*
X9570063Y-10619531D01*
X9570063Y-10619531D02*
X9579587Y-10610008D01*
X9579587Y-10610008D02*
X9598634Y-10600484D01*
X9751015Y-10781436D02*
X9760539Y-10790960D01*
X9760539Y-10790960D02*
X9751015Y-10800484D01*
X9751015Y-10800484D02*
X9741491Y-10790960D01*
X9741491Y-10790960D02*
X9751015Y-10781436D01*
X9751015Y-10781436D02*
X9751015Y-10800484D01*
X9884348Y-10600484D02*
X9903396Y-10600484D01*
X9903396Y-10600484D02*
X9922444Y-10610008D01*
X9922444Y-10610008D02*
X9931968Y-10619531D01*
X9931968Y-10619531D02*
X9941491Y-10638579D01*
X9941491Y-10638579D02*
X9951015Y-10676674D01*
X9951015Y-10676674D02*
X9951015Y-10724293D01*
X9951015Y-10724293D02*
X9941491Y-10762389D01*
X9941491Y-10762389D02*
X9931968Y-10781436D01*
X9931968Y-10781436D02*
X9922444Y-10790960D01*
X9922444Y-10790960D02*
X9903396Y-10800484D01*
X9903396Y-10800484D02*
X9884348Y-10800484D01*
X9884348Y-10800484D02*
X9865301Y-10790960D01*
X9865301Y-10790960D02*
X9855777Y-10781436D01*
X9855777Y-10781436D02*
X9846253Y-10762389D01*
X9846253Y-10762389D02*
X9836729Y-10724293D01*
X9836729Y-10724293D02*
X9836729Y-10676674D01*
X9836729Y-10676674D02*
X9846253Y-10638579D01*
X9846253Y-10638579D02*
X9855777Y-10619531D01*
X9855777Y-10619531D02*
X9865301Y-10610008D01*
X9865301Y-10610008D02*
X9884348Y-10600484D01*
X10141491Y-10800484D02*
X10027206Y-10800484D01*
X10084348Y-10800484D02*
X10084348Y-10600484D01*
X10084348Y-10600484D02*
X10065301Y-10629055D01*
X10065301Y-10629055D02*
X10046253Y-10648103D01*
X10046253Y-10648103D02*
X10027206Y-10657627D01*
X10322444Y-10600484D02*
X10227206Y-10600484D01*
X10227206Y-10600484D02*
X10217682Y-10695722D01*
X10217682Y-10695722D02*
X10227206Y-10686198D01*
X10227206Y-10686198D02*
X10246253Y-10676674D01*
X10246253Y-10676674D02*
X10293872Y-10676674D01*
X10293872Y-10676674D02*
X10312920Y-10686198D01*
X10312920Y-10686198D02*
X10322444Y-10695722D01*
X10322444Y-10695722D02*
X10331968Y-10714770D01*
X10331968Y-10714770D02*
X10331968Y-10762389D01*
X10331968Y-10762389D02*
X10322444Y-10781436D01*
X10322444Y-10781436D02*
X10312920Y-10790960D01*
X10312920Y-10790960D02*
X10293872Y-10800484D01*
X10293872Y-10800484D02*
X10246253Y-10800484D01*
X10246253Y-10800484D02*
X10227206Y-10790960D01*
X10227206Y-10790960D02*
X10217682Y-10781436D01*
X10398634Y-10600484D02*
X10531968Y-10600484D01*
X10531968Y-10600484D02*
X10446253Y-10800484D01*
X10598634Y-10600484D02*
X10598634Y-10638579D01*
X10674825Y-10600484D02*
X10674825Y-10638579D01*
X10970063Y-10876674D02*
X10960539Y-10867150D01*
X10960539Y-10867150D02*
X10941491Y-10838579D01*
X10941491Y-10838579D02*
X10931968Y-10819531D01*
X10931968Y-10819531D02*
X10922444Y-10790960D01*
X10922444Y-10790960D02*
X10912920Y-10743341D01*
X10912920Y-10743341D02*
X10912920Y-10705246D01*
X10912920Y-10705246D02*
X10922444Y-10657627D01*
X10922444Y-10657627D02*
X10931968Y-10629055D01*
X10931968Y-10629055D02*
X10941491Y-10610008D01*
X10941491Y-10610008D02*
X10960539Y-10581436D01*
X10960539Y-10581436D02*
X10970063Y-10571912D01*
X11027206Y-10600484D02*
X11160539Y-10600484D01*
X11160539Y-10600484D02*
X11074825Y-10800484D01*
X11341491Y-10800484D02*
X11227206Y-10800484D01*
X11284348Y-10800484D02*
X11284348Y-10600484D01*
X11284348Y-10600484D02*
X11265301Y-10629055D01*
X11265301Y-10629055D02*
X11246253Y-10648103D01*
X11246253Y-10648103D02*
X11227206Y-10657627D01*
X11579587Y-10800484D02*
X11579587Y-10600484D01*
X11665301Y-10800484D02*
X11665301Y-10695722D01*
X11665301Y-10695722D02*
X11655777Y-10676674D01*
X11655777Y-10676674D02*
X11636730Y-10667150D01*
X11636730Y-10667150D02*
X11608158Y-10667150D01*
X11608158Y-10667150D02*
X11589110Y-10676674D01*
X11589110Y-10676674D02*
X11579587Y-10686198D01*
X11789110Y-10800484D02*
X11770063Y-10790960D01*
X11770063Y-10790960D02*
X11760539Y-10781436D01*
X11760539Y-10781436D02*
X11751015Y-10762389D01*
X11751015Y-10762389D02*
X11751015Y-10705246D01*
X11751015Y-10705246D02*
X11760539Y-10686198D01*
X11760539Y-10686198D02*
X11770063Y-10676674D01*
X11770063Y-10676674D02*
X11789110Y-10667150D01*
X11789110Y-10667150D02*
X11817682Y-10667150D01*
X11817682Y-10667150D02*
X11836730Y-10676674D01*
X11836730Y-10676674D02*
X11846253Y-10686198D01*
X11846253Y-10686198D02*
X11855777Y-10705246D01*
X11855777Y-10705246D02*
X11855777Y-10762389D01*
X11855777Y-10762389D02*
X11846253Y-10781436D01*
X11846253Y-10781436D02*
X11836730Y-10790960D01*
X11836730Y-10790960D02*
X11817682Y-10800484D01*
X11817682Y-10800484D02*
X11789110Y-10800484D01*
X11970063Y-10800484D02*
X11951015Y-10790960D01*
X11951015Y-10790960D02*
X11941491Y-10771912D01*
X11941491Y-10771912D02*
X11941491Y-10600484D01*
X12122444Y-10790960D02*
X12103396Y-10800484D01*
X12103396Y-10800484D02*
X12065301Y-10800484D01*
X12065301Y-10800484D02*
X12046253Y-10790960D01*
X12046253Y-10790960D02*
X12036730Y-10771912D01*
X12036730Y-10771912D02*
X12036730Y-10695722D01*
X12036730Y-10695722D02*
X12046253Y-10676674D01*
X12046253Y-10676674D02*
X12065301Y-10667150D01*
X12065301Y-10667150D02*
X12103396Y-10667150D01*
X12103396Y-10667150D02*
X12122444Y-10676674D01*
X12122444Y-10676674D02*
X12131968Y-10695722D01*
X12131968Y-10695722D02*
X12131968Y-10714770D01*
X12131968Y-10714770D02*
X12036730Y-10733817D01*
X12208158Y-10790960D02*
X12227206Y-10800484D01*
X12227206Y-10800484D02*
X12265301Y-10800484D01*
X12265301Y-10800484D02*
X12284349Y-10790960D01*
X12284349Y-10790960D02*
X12293872Y-10771912D01*
X12293872Y-10771912D02*
X12293872Y-10762389D01*
X12293872Y-10762389D02*
X12284349Y-10743341D01*
X12284349Y-10743341D02*
X12265301Y-10733817D01*
X12265301Y-10733817D02*
X12236730Y-10733817D01*
X12236730Y-10733817D02*
X12217682Y-10724293D01*
X12217682Y-10724293D02*
X12208158Y-10705246D01*
X12208158Y-10705246D02*
X12208158Y-10695722D01*
X12208158Y-10695722D02*
X12217682Y-10676674D01*
X12217682Y-10676674D02*
X12236730Y-10667150D01*
X12236730Y-10667150D02*
X12265301Y-10667150D01*
X12265301Y-10667150D02*
X12284349Y-10676674D01*
X12360539Y-10876674D02*
X12370063Y-10867150D01*
X12370063Y-10867150D02*
X12389111Y-10838579D01*
X12389111Y-10838579D02*
X12398634Y-10819531D01*
X12398634Y-10819531D02*
X12408158Y-10790960D01*
X12408158Y-10790960D02*
X12417682Y-10743341D01*
X12417682Y-10743341D02*
X12417682Y-10705246D01*
X12417682Y-10705246D02*
X12408158Y-10657627D01*
X12408158Y-10657627D02*
X12398634Y-10629055D01*
X12398634Y-10629055D02*
X12389111Y-10610008D01*
X12389111Y-10610008D02*
X12370063Y-10581436D01*
X12370063Y-10581436D02*
X12360539Y-10571912D01*
D10*
X7370000Y-10948000D02*
X7370000Y-10998000D01*
X7345000Y-10973000D02*
X7395000Y-10973000D01*
D11*
X7693872Y-10864484D02*
X7712920Y-10864484D01*
X7712920Y-10864484D02*
X7731967Y-10874008D01*
X7731967Y-10874008D02*
X7741491Y-10883531D01*
X7741491Y-10883531D02*
X7751015Y-10902579D01*
X7751015Y-10902579D02*
X7760539Y-10940674D01*
X7760539Y-10940674D02*
X7760539Y-10988293D01*
X7760539Y-10988293D02*
X7751015Y-11026389D01*
X7751015Y-11026389D02*
X7741491Y-11045436D01*
X7741491Y-11045436D02*
X7731967Y-11054960D01*
X7731967Y-11054960D02*
X7712920Y-11064484D01*
X7712920Y-11064484D02*
X7693872Y-11064484D01*
X7693872Y-11064484D02*
X7674824Y-11054960D01*
X7674824Y-11054960D02*
X7665301Y-11045436D01*
X7665301Y-11045436D02*
X7655777Y-11026389D01*
X7655777Y-11026389D02*
X7646253Y-10988293D01*
X7646253Y-10988293D02*
X7646253Y-10940674D01*
X7646253Y-10940674D02*
X7655777Y-10902579D01*
X7655777Y-10902579D02*
X7665301Y-10883531D01*
X7665301Y-10883531D02*
X7674824Y-10874008D01*
X7674824Y-10874008D02*
X7693872Y-10864484D01*
X7846253Y-11045436D02*
X7855777Y-11054960D01*
X7855777Y-11054960D02*
X7846253Y-11064484D01*
X7846253Y-11064484D02*
X7836729Y-11054960D01*
X7836729Y-11054960D02*
X7846253Y-11045436D01*
X7846253Y-11045436D02*
X7846253Y-11064484D01*
X8036729Y-10864484D02*
X7941491Y-10864484D01*
X7941491Y-10864484D02*
X7931967Y-10959722D01*
X7931967Y-10959722D02*
X7941491Y-10950198D01*
X7941491Y-10950198D02*
X7960539Y-10940674D01*
X7960539Y-10940674D02*
X8008158Y-10940674D01*
X8008158Y-10940674D02*
X8027205Y-10950198D01*
X8027205Y-10950198D02*
X8036729Y-10959722D01*
X8036729Y-10959722D02*
X8046253Y-10978770D01*
X8046253Y-10978770D02*
X8046253Y-11026389D01*
X8046253Y-11026389D02*
X8036729Y-11045436D01*
X8036729Y-11045436D02*
X8027205Y-11054960D01*
X8027205Y-11054960D02*
X8008158Y-11064484D01*
X8008158Y-11064484D02*
X7960539Y-11064484D01*
X7960539Y-11064484D02*
X7941491Y-11054960D01*
X7941491Y-11054960D02*
X7931967Y-11045436D01*
X8170062Y-10864484D02*
X8189110Y-10864484D01*
X8189110Y-10864484D02*
X8208158Y-10874008D01*
X8208158Y-10874008D02*
X8217682Y-10883531D01*
X8217682Y-10883531D02*
X8227205Y-10902579D01*
X8227205Y-10902579D02*
X8236729Y-10940674D01*
X8236729Y-10940674D02*
X8236729Y-10988293D01*
X8236729Y-10988293D02*
X8227205Y-11026389D01*
X8227205Y-11026389D02*
X8217682Y-11045436D01*
X8217682Y-11045436D02*
X8208158Y-11054960D01*
X8208158Y-11054960D02*
X8189110Y-11064484D01*
X8189110Y-11064484D02*
X8170062Y-11064484D01*
X8170062Y-11064484D02*
X8151015Y-11054960D01*
X8151015Y-11054960D02*
X8141491Y-11045436D01*
X8141491Y-11045436D02*
X8131967Y-11026389D01*
X8131967Y-11026389D02*
X8122443Y-10988293D01*
X8122443Y-10988293D02*
X8122443Y-10940674D01*
X8122443Y-10940674D02*
X8131967Y-10902579D01*
X8131967Y-10902579D02*
X8141491Y-10883531D01*
X8141491Y-10883531D02*
X8151015Y-10874008D01*
X8151015Y-10874008D02*
X8170062Y-10864484D01*
X8360539Y-10864484D02*
X8379586Y-10864484D01*
X8379586Y-10864484D02*
X8398634Y-10874008D01*
X8398634Y-10874008D02*
X8408158Y-10883531D01*
X8408158Y-10883531D02*
X8417682Y-10902579D01*
X8417682Y-10902579D02*
X8427205Y-10940674D01*
X8427205Y-10940674D02*
X8427205Y-10988293D01*
X8427205Y-10988293D02*
X8417682Y-11026389D01*
X8417682Y-11026389D02*
X8408158Y-11045436D01*
X8408158Y-11045436D02*
X8398634Y-11054960D01*
X8398634Y-11054960D02*
X8379586Y-11064484D01*
X8379586Y-11064484D02*
X8360539Y-11064484D01*
X8360539Y-11064484D02*
X8341491Y-11054960D01*
X8341491Y-11054960D02*
X8331967Y-11045436D01*
X8331967Y-11045436D02*
X8322443Y-11026389D01*
X8322443Y-11026389D02*
X8312920Y-10988293D01*
X8312920Y-10988293D02*
X8312920Y-10940674D01*
X8312920Y-10940674D02*
X8322443Y-10902579D01*
X8322443Y-10902579D02*
X8331967Y-10883531D01*
X8331967Y-10883531D02*
X8341491Y-10874008D01*
X8341491Y-10874008D02*
X8360539Y-10864484D01*
X8512920Y-11064484D02*
X8512920Y-10931150D01*
X8512920Y-10950198D02*
X8522444Y-10940674D01*
X8522444Y-10940674D02*
X8541491Y-10931150D01*
X8541491Y-10931150D02*
X8570063Y-10931150D01*
X8570063Y-10931150D02*
X8589110Y-10940674D01*
X8589110Y-10940674D02*
X8598634Y-10959722D01*
X8598634Y-10959722D02*
X8598634Y-11064484D01*
X8598634Y-10959722D02*
X8608158Y-10940674D01*
X8608158Y-10940674D02*
X8627205Y-10931150D01*
X8627205Y-10931150D02*
X8655777Y-10931150D01*
X8655777Y-10931150D02*
X8674825Y-10940674D01*
X8674825Y-10940674D02*
X8684348Y-10959722D01*
X8684348Y-10959722D02*
X8684348Y-11064484D01*
X8779586Y-11064484D02*
X8779586Y-10931150D01*
X8779586Y-10950198D02*
X8789110Y-10940674D01*
X8789110Y-10940674D02*
X8808158Y-10931150D01*
X8808158Y-10931150D02*
X8836729Y-10931150D01*
X8836729Y-10931150D02*
X8855777Y-10940674D01*
X8855777Y-10940674D02*
X8865301Y-10959722D01*
X8865301Y-10959722D02*
X8865301Y-11064484D01*
X8865301Y-10959722D02*
X8874825Y-10940674D01*
X8874825Y-10940674D02*
X8893872Y-10931150D01*
X8893872Y-10931150D02*
X8922444Y-10931150D01*
X8922444Y-10931150D02*
X8941491Y-10940674D01*
X8941491Y-10940674D02*
X8951015Y-10959722D01*
X8951015Y-10959722D02*
X8951015Y-11064484D01*
X9341491Y-10854960D02*
X9170063Y-11112103D01*
X9598634Y-10864484D02*
X9617682Y-10864484D01*
X9617682Y-10864484D02*
X9636729Y-10874008D01*
X9636729Y-10874008D02*
X9646253Y-10883531D01*
X9646253Y-10883531D02*
X9655777Y-10902579D01*
X9655777Y-10902579D02*
X9665301Y-10940674D01*
X9665301Y-10940674D02*
X9665301Y-10988293D01*
X9665301Y-10988293D02*
X9655777Y-11026389D01*
X9655777Y-11026389D02*
X9646253Y-11045436D01*
X9646253Y-11045436D02*
X9636729Y-11054960D01*
X9636729Y-11054960D02*
X9617682Y-11064484D01*
X9617682Y-11064484D02*
X9598634Y-11064484D01*
X9598634Y-11064484D02*
X9579587Y-11054960D01*
X9579587Y-11054960D02*
X9570063Y-11045436D01*
X9570063Y-11045436D02*
X9560539Y-11026389D01*
X9560539Y-11026389D02*
X9551015Y-10988293D01*
X9551015Y-10988293D02*
X9551015Y-10940674D01*
X9551015Y-10940674D02*
X9560539Y-10902579D01*
X9560539Y-10902579D02*
X9570063Y-10883531D01*
X9570063Y-10883531D02*
X9579587Y-10874008D01*
X9579587Y-10874008D02*
X9598634Y-10864484D01*
X9751015Y-11045436D02*
X9760539Y-11054960D01*
X9760539Y-11054960D02*
X9751015Y-11064484D01*
X9751015Y-11064484D02*
X9741491Y-11054960D01*
X9741491Y-11054960D02*
X9751015Y-11045436D01*
X9751015Y-11045436D02*
X9751015Y-11064484D01*
X9884348Y-10864484D02*
X9903396Y-10864484D01*
X9903396Y-10864484D02*
X9922444Y-10874008D01*
X9922444Y-10874008D02*
X9931968Y-10883531D01*
X9931968Y-10883531D02*
X9941491Y-10902579D01*
X9941491Y-10902579D02*
X9951015Y-10940674D01*
X9951015Y-10940674D02*
X9951015Y-10988293D01*
X9951015Y-10988293D02*
X9941491Y-11026389D01*
X9941491Y-11026389D02*
X9931968Y-11045436D01*
X9931968Y-11045436D02*
X9922444Y-11054960D01*
X9922444Y-11054960D02*
X9903396Y-11064484D01*
X9903396Y-11064484D02*
X9884348Y-11064484D01*
X9884348Y-11064484D02*
X9865301Y-11054960D01*
X9865301Y-11054960D02*
X9855777Y-11045436D01*
X9855777Y-11045436D02*
X9846253Y-11026389D01*
X9846253Y-11026389D02*
X9836729Y-10988293D01*
X9836729Y-10988293D02*
X9836729Y-10940674D01*
X9836729Y-10940674D02*
X9846253Y-10902579D01*
X9846253Y-10902579D02*
X9855777Y-10883531D01*
X9855777Y-10883531D02*
X9865301Y-10874008D01*
X9865301Y-10874008D02*
X9884348Y-10864484D01*
X10141491Y-11064484D02*
X10027206Y-11064484D01*
X10084348Y-11064484D02*
X10084348Y-10864484D01*
X10084348Y-10864484D02*
X10065301Y-10893055D01*
X10065301Y-10893055D02*
X10046253Y-10912103D01*
X10046253Y-10912103D02*
X10027206Y-10921627D01*
X10236729Y-11064484D02*
X10274825Y-11064484D01*
X10274825Y-11064484D02*
X10293872Y-11054960D01*
X10293872Y-11054960D02*
X10303396Y-11045436D01*
X10303396Y-11045436D02*
X10322444Y-11016865D01*
X10322444Y-11016865D02*
X10331968Y-10978770D01*
X10331968Y-10978770D02*
X10331968Y-10902579D01*
X10331968Y-10902579D02*
X10322444Y-10883531D01*
X10322444Y-10883531D02*
X10312920Y-10874008D01*
X10312920Y-10874008D02*
X10293872Y-10864484D01*
X10293872Y-10864484D02*
X10255777Y-10864484D01*
X10255777Y-10864484D02*
X10236729Y-10874008D01*
X10236729Y-10874008D02*
X10227206Y-10883531D01*
X10227206Y-10883531D02*
X10217682Y-10902579D01*
X10217682Y-10902579D02*
X10217682Y-10950198D01*
X10217682Y-10950198D02*
X10227206Y-10969246D01*
X10227206Y-10969246D02*
X10236729Y-10978770D01*
X10236729Y-10978770D02*
X10255777Y-10988293D01*
X10255777Y-10988293D02*
X10293872Y-10988293D01*
X10293872Y-10988293D02*
X10312920Y-10978770D01*
X10312920Y-10978770D02*
X10322444Y-10969246D01*
X10322444Y-10969246D02*
X10331968Y-10950198D01*
X10398634Y-10864484D02*
X10531968Y-10864484D01*
X10531968Y-10864484D02*
X10446253Y-11064484D01*
X10598634Y-10864484D02*
X10598634Y-10902579D01*
X10674825Y-10864484D02*
X10674825Y-10902579D01*
X10970063Y-11140674D02*
X10960539Y-11131150D01*
X10960539Y-11131150D02*
X10941491Y-11102579D01*
X10941491Y-11102579D02*
X10931968Y-11083531D01*
X10931968Y-11083531D02*
X10922444Y-11054960D01*
X10922444Y-11054960D02*
X10912920Y-11007341D01*
X10912920Y-11007341D02*
X10912920Y-10969246D01*
X10912920Y-10969246D02*
X10922444Y-10921627D01*
X10922444Y-10921627D02*
X10931968Y-10893055D01*
X10931968Y-10893055D02*
X10941491Y-10874008D01*
X10941491Y-10874008D02*
X10960539Y-10845436D01*
X10960539Y-10845436D02*
X10970063Y-10835912D01*
X11151015Y-11064484D02*
X11036730Y-11064484D01*
X11093872Y-11064484D02*
X11093872Y-10864484D01*
X11093872Y-10864484D02*
X11074825Y-10893055D01*
X11074825Y-10893055D02*
X11055777Y-10912103D01*
X11055777Y-10912103D02*
X11036730Y-10921627D01*
X11331968Y-10864484D02*
X11236729Y-10864484D01*
X11236729Y-10864484D02*
X11227206Y-10959722D01*
X11227206Y-10959722D02*
X11236729Y-10950198D01*
X11236729Y-10950198D02*
X11255777Y-10940674D01*
X11255777Y-10940674D02*
X11303396Y-10940674D01*
X11303396Y-10940674D02*
X11322444Y-10950198D01*
X11322444Y-10950198D02*
X11331968Y-10959722D01*
X11331968Y-10959722D02*
X11341491Y-10978770D01*
X11341491Y-10978770D02*
X11341491Y-11026389D01*
X11341491Y-11026389D02*
X11331968Y-11045436D01*
X11331968Y-11045436D02*
X11322444Y-11054960D01*
X11322444Y-11054960D02*
X11303396Y-11064484D01*
X11303396Y-11064484D02*
X11255777Y-11064484D01*
X11255777Y-11064484D02*
X11236729Y-11054960D01*
X11236729Y-11054960D02*
X11227206Y-11045436D01*
X11579587Y-11064484D02*
X11579587Y-10864484D01*
X11665301Y-11064484D02*
X11665301Y-10959722D01*
X11665301Y-10959722D02*
X11655777Y-10940674D01*
X11655777Y-10940674D02*
X11636730Y-10931150D01*
X11636730Y-10931150D02*
X11608158Y-10931150D01*
X11608158Y-10931150D02*
X11589110Y-10940674D01*
X11589110Y-10940674D02*
X11579587Y-10950198D01*
X11789110Y-11064484D02*
X11770063Y-11054960D01*
X11770063Y-11054960D02*
X11760539Y-11045436D01*
X11760539Y-11045436D02*
X11751015Y-11026389D01*
X11751015Y-11026389D02*
X11751015Y-10969246D01*
X11751015Y-10969246D02*
X11760539Y-10950198D01*
X11760539Y-10950198D02*
X11770063Y-10940674D01*
X11770063Y-10940674D02*
X11789110Y-10931150D01*
X11789110Y-10931150D02*
X11817682Y-10931150D01*
X11817682Y-10931150D02*
X11836730Y-10940674D01*
X11836730Y-10940674D02*
X11846253Y-10950198D01*
X11846253Y-10950198D02*
X11855777Y-10969246D01*
X11855777Y-10969246D02*
X11855777Y-11026389D01*
X11855777Y-11026389D02*
X11846253Y-11045436D01*
X11846253Y-11045436D02*
X11836730Y-11054960D01*
X11836730Y-11054960D02*
X11817682Y-11064484D01*
X11817682Y-11064484D02*
X11789110Y-11064484D01*
X11970063Y-11064484D02*
X11951015Y-11054960D01*
X11951015Y-11054960D02*
X11941491Y-11035912D01*
X11941491Y-11035912D02*
X11941491Y-10864484D01*
X12122444Y-11054960D02*
X12103396Y-11064484D01*
X12103396Y-11064484D02*
X12065301Y-11064484D01*
X12065301Y-11064484D02*
X12046253Y-11054960D01*
X12046253Y-11054960D02*
X12036730Y-11035912D01*
X12036730Y-11035912D02*
X12036730Y-10959722D01*
X12036730Y-10959722D02*
X12046253Y-10940674D01*
X12046253Y-10940674D02*
X12065301Y-10931150D01*
X12065301Y-10931150D02*
X12103396Y-10931150D01*
X12103396Y-10931150D02*
X12122444Y-10940674D01*
X12122444Y-10940674D02*
X12131968Y-10959722D01*
X12131968Y-10959722D02*
X12131968Y-10978770D01*
X12131968Y-10978770D02*
X12036730Y-10997817D01*
X12208158Y-11054960D02*
X12227206Y-11064484D01*
X12227206Y-11064484D02*
X12265301Y-11064484D01*
X12265301Y-11064484D02*
X12284349Y-11054960D01*
X12284349Y-11054960D02*
X12293872Y-11035912D01*
X12293872Y-11035912D02*
X12293872Y-11026389D01*
X12293872Y-11026389D02*
X12284349Y-11007341D01*
X12284349Y-11007341D02*
X12265301Y-10997817D01*
X12265301Y-10997817D02*
X12236730Y-10997817D01*
X12236730Y-10997817D02*
X12217682Y-10988293D01*
X12217682Y-10988293D02*
X12208158Y-10969246D01*
X12208158Y-10969246D02*
X12208158Y-10959722D01*
X12208158Y-10959722D02*
X12217682Y-10940674D01*
X12217682Y-10940674D02*
X12236730Y-10931150D01*
X12236730Y-10931150D02*
X12265301Y-10931150D01*
X12265301Y-10931150D02*
X12284349Y-10940674D01*
X12360539Y-11140674D02*
X12370063Y-11131150D01*
X12370063Y-11131150D02*
X12389111Y-11102579D01*
X12389111Y-11102579D02*
X12398634Y-11083531D01*
X12398634Y-11083531D02*
X12408158Y-11054960D01*
X12408158Y-11054960D02*
X12417682Y-11007341D01*
X12417682Y-11007341D02*
X12417682Y-10969246D01*
X12417682Y-10969246D02*
X12408158Y-10921627D01*
X12408158Y-10921627D02*
X12398634Y-10893055D01*
X12398634Y-10893055D02*
X12389111Y-10874008D01*
X12389111Y-10874008D02*
X12370063Y-10845436D01*
X12370063Y-10845436D02*
X12360539Y-10835912D01*
D10*
X7385481Y-11259981D02*
X7385481Y-11214019D01*
X7339519Y-11214019D01*
X7339519Y-11259981D01*
X7385481Y-11259981D01*
D11*
X7693872Y-11128484D02*
X7712920Y-11128484D01*
X7712920Y-11128484D02*
X7731967Y-11138008D01*
X7731967Y-11138008D02*
X7741491Y-11147531D01*
X7741491Y-11147531D02*
X7751015Y-11166579D01*
X7751015Y-11166579D02*
X7760539Y-11204674D01*
X7760539Y-11204674D02*
X7760539Y-11252293D01*
X7760539Y-11252293D02*
X7751015Y-11290388D01*
X7751015Y-11290388D02*
X7741491Y-11309436D01*
X7741491Y-11309436D02*
X7731967Y-11318960D01*
X7731967Y-11318960D02*
X7712920Y-11328484D01*
X7712920Y-11328484D02*
X7693872Y-11328484D01*
X7693872Y-11328484D02*
X7674824Y-11318960D01*
X7674824Y-11318960D02*
X7665301Y-11309436D01*
X7665301Y-11309436D02*
X7655777Y-11290388D01*
X7655777Y-11290388D02*
X7646253Y-11252293D01*
X7646253Y-11252293D02*
X7646253Y-11204674D01*
X7646253Y-11204674D02*
X7655777Y-11166579D01*
X7655777Y-11166579D02*
X7665301Y-11147531D01*
X7665301Y-11147531D02*
X7674824Y-11138008D01*
X7674824Y-11138008D02*
X7693872Y-11128484D01*
X7846253Y-11309436D02*
X7855777Y-11318960D01*
X7855777Y-11318960D02*
X7846253Y-11328484D01*
X7846253Y-11328484D02*
X7836729Y-11318960D01*
X7836729Y-11318960D02*
X7846253Y-11309436D01*
X7846253Y-11309436D02*
X7846253Y-11328484D01*
X8027205Y-11128484D02*
X7989110Y-11128484D01*
X7989110Y-11128484D02*
X7970062Y-11138008D01*
X7970062Y-11138008D02*
X7960539Y-11147531D01*
X7960539Y-11147531D02*
X7941491Y-11176103D01*
X7941491Y-11176103D02*
X7931967Y-11214198D01*
X7931967Y-11214198D02*
X7931967Y-11290388D01*
X7931967Y-11290388D02*
X7941491Y-11309436D01*
X7941491Y-11309436D02*
X7951015Y-11318960D01*
X7951015Y-11318960D02*
X7970062Y-11328484D01*
X7970062Y-11328484D02*
X8008158Y-11328484D01*
X8008158Y-11328484D02*
X8027205Y-11318960D01*
X8027205Y-11318960D02*
X8036729Y-11309436D01*
X8036729Y-11309436D02*
X8046253Y-11290388D01*
X8046253Y-11290388D02*
X8046253Y-11242769D01*
X8046253Y-11242769D02*
X8036729Y-11223722D01*
X8036729Y-11223722D02*
X8027205Y-11214198D01*
X8027205Y-11214198D02*
X8008158Y-11204674D01*
X8008158Y-11204674D02*
X7970062Y-11204674D01*
X7970062Y-11204674D02*
X7951015Y-11214198D01*
X7951015Y-11214198D02*
X7941491Y-11223722D01*
X7941491Y-11223722D02*
X7931967Y-11242769D01*
X8227205Y-11128484D02*
X8131967Y-11128484D01*
X8131967Y-11128484D02*
X8122443Y-11223722D01*
X8122443Y-11223722D02*
X8131967Y-11214198D01*
X8131967Y-11214198D02*
X8151015Y-11204674D01*
X8151015Y-11204674D02*
X8198634Y-11204674D01*
X8198634Y-11204674D02*
X8217682Y-11214198D01*
X8217682Y-11214198D02*
X8227205Y-11223722D01*
X8227205Y-11223722D02*
X8236729Y-11242769D01*
X8236729Y-11242769D02*
X8236729Y-11290388D01*
X8236729Y-11290388D02*
X8227205Y-11309436D01*
X8227205Y-11309436D02*
X8217682Y-11318960D01*
X8217682Y-11318960D02*
X8198634Y-11328484D01*
X8198634Y-11328484D02*
X8151015Y-11328484D01*
X8151015Y-11328484D02*
X8131967Y-11318960D01*
X8131967Y-11318960D02*
X8122443Y-11309436D01*
X8360539Y-11128484D02*
X8379586Y-11128484D01*
X8379586Y-11128484D02*
X8398634Y-11138008D01*
X8398634Y-11138008D02*
X8408158Y-11147531D01*
X8408158Y-11147531D02*
X8417682Y-11166579D01*
X8417682Y-11166579D02*
X8427205Y-11204674D01*
X8427205Y-11204674D02*
X8427205Y-11252293D01*
X8427205Y-11252293D02*
X8417682Y-11290388D01*
X8417682Y-11290388D02*
X8408158Y-11309436D01*
X8408158Y-11309436D02*
X8398634Y-11318960D01*
X8398634Y-11318960D02*
X8379586Y-11328484D01*
X8379586Y-11328484D02*
X8360539Y-11328484D01*
X8360539Y-11328484D02*
X8341491Y-11318960D01*
X8341491Y-11318960D02*
X8331967Y-11309436D01*
X8331967Y-11309436D02*
X8322443Y-11290388D01*
X8322443Y-11290388D02*
X8312920Y-11252293D01*
X8312920Y-11252293D02*
X8312920Y-11204674D01*
X8312920Y-11204674D02*
X8322443Y-11166579D01*
X8322443Y-11166579D02*
X8331967Y-11147531D01*
X8331967Y-11147531D02*
X8341491Y-11138008D01*
X8341491Y-11138008D02*
X8360539Y-11128484D01*
X8512920Y-11328484D02*
X8512920Y-11195150D01*
X8512920Y-11214198D02*
X8522444Y-11204674D01*
X8522444Y-11204674D02*
X8541491Y-11195150D01*
X8541491Y-11195150D02*
X8570063Y-11195150D01*
X8570063Y-11195150D02*
X8589110Y-11204674D01*
X8589110Y-11204674D02*
X8598634Y-11223722D01*
X8598634Y-11223722D02*
X8598634Y-11328484D01*
X8598634Y-11223722D02*
X8608158Y-11204674D01*
X8608158Y-11204674D02*
X8627205Y-11195150D01*
X8627205Y-11195150D02*
X8655777Y-11195150D01*
X8655777Y-11195150D02*
X8674825Y-11204674D01*
X8674825Y-11204674D02*
X8684348Y-11223722D01*
X8684348Y-11223722D02*
X8684348Y-11328484D01*
X8779586Y-11328484D02*
X8779586Y-11195150D01*
X8779586Y-11214198D02*
X8789110Y-11204674D01*
X8789110Y-11204674D02*
X8808158Y-11195150D01*
X8808158Y-11195150D02*
X8836729Y-11195150D01*
X8836729Y-11195150D02*
X8855777Y-11204674D01*
X8855777Y-11204674D02*
X8865301Y-11223722D01*
X8865301Y-11223722D02*
X8865301Y-11328484D01*
X8865301Y-11223722D02*
X8874825Y-11204674D01*
X8874825Y-11204674D02*
X8893872Y-11195150D01*
X8893872Y-11195150D02*
X8922444Y-11195150D01*
X8922444Y-11195150D02*
X8941491Y-11204674D01*
X8941491Y-11204674D02*
X8951015Y-11223722D01*
X8951015Y-11223722D02*
X8951015Y-11328484D01*
X9341491Y-11118960D02*
X9170063Y-11376103D01*
X9598634Y-11128484D02*
X9617682Y-11128484D01*
X9617682Y-11128484D02*
X9636729Y-11138008D01*
X9636729Y-11138008D02*
X9646253Y-11147531D01*
X9646253Y-11147531D02*
X9655777Y-11166579D01*
X9655777Y-11166579D02*
X9665301Y-11204674D01*
X9665301Y-11204674D02*
X9665301Y-11252293D01*
X9665301Y-11252293D02*
X9655777Y-11290388D01*
X9655777Y-11290388D02*
X9646253Y-11309436D01*
X9646253Y-11309436D02*
X9636729Y-11318960D01*
X9636729Y-11318960D02*
X9617682Y-11328484D01*
X9617682Y-11328484D02*
X9598634Y-11328484D01*
X9598634Y-11328484D02*
X9579587Y-11318960D01*
X9579587Y-11318960D02*
X9570063Y-11309436D01*
X9570063Y-11309436D02*
X9560539Y-11290388D01*
X9560539Y-11290388D02*
X9551015Y-11252293D01*
X9551015Y-11252293D02*
X9551015Y-11204674D01*
X9551015Y-11204674D02*
X9560539Y-11166579D01*
X9560539Y-11166579D02*
X9570063Y-11147531D01*
X9570063Y-11147531D02*
X9579587Y-11138008D01*
X9579587Y-11138008D02*
X9598634Y-11128484D01*
X9751015Y-11309436D02*
X9760539Y-11318960D01*
X9760539Y-11318960D02*
X9751015Y-11328484D01*
X9751015Y-11328484D02*
X9741491Y-11318960D01*
X9741491Y-11318960D02*
X9751015Y-11309436D01*
X9751015Y-11309436D02*
X9751015Y-11328484D01*
X9884348Y-11128484D02*
X9903396Y-11128484D01*
X9903396Y-11128484D02*
X9922444Y-11138008D01*
X9922444Y-11138008D02*
X9931968Y-11147531D01*
X9931968Y-11147531D02*
X9941491Y-11166579D01*
X9941491Y-11166579D02*
X9951015Y-11204674D01*
X9951015Y-11204674D02*
X9951015Y-11252293D01*
X9951015Y-11252293D02*
X9941491Y-11290388D01*
X9941491Y-11290388D02*
X9931968Y-11309436D01*
X9931968Y-11309436D02*
X9922444Y-11318960D01*
X9922444Y-11318960D02*
X9903396Y-11328484D01*
X9903396Y-11328484D02*
X9884348Y-11328484D01*
X9884348Y-11328484D02*
X9865301Y-11318960D01*
X9865301Y-11318960D02*
X9855777Y-11309436D01*
X9855777Y-11309436D02*
X9846253Y-11290388D01*
X9846253Y-11290388D02*
X9836729Y-11252293D01*
X9836729Y-11252293D02*
X9836729Y-11204674D01*
X9836729Y-11204674D02*
X9846253Y-11166579D01*
X9846253Y-11166579D02*
X9855777Y-11147531D01*
X9855777Y-11147531D02*
X9865301Y-11138008D01*
X9865301Y-11138008D02*
X9884348Y-11128484D01*
X10027206Y-11147531D02*
X10036729Y-11138008D01*
X10036729Y-11138008D02*
X10055777Y-11128484D01*
X10055777Y-11128484D02*
X10103396Y-11128484D01*
X10103396Y-11128484D02*
X10122444Y-11138008D01*
X10122444Y-11138008D02*
X10131968Y-11147531D01*
X10131968Y-11147531D02*
X10141491Y-11166579D01*
X10141491Y-11166579D02*
X10141491Y-11185627D01*
X10141491Y-11185627D02*
X10131968Y-11214198D01*
X10131968Y-11214198D02*
X10017682Y-11328484D01*
X10017682Y-11328484D02*
X10141491Y-11328484D01*
X10322444Y-11128484D02*
X10227206Y-11128484D01*
X10227206Y-11128484D02*
X10217682Y-11223722D01*
X10217682Y-11223722D02*
X10227206Y-11214198D01*
X10227206Y-11214198D02*
X10246253Y-11204674D01*
X10246253Y-11204674D02*
X10293872Y-11204674D01*
X10293872Y-11204674D02*
X10312920Y-11214198D01*
X10312920Y-11214198D02*
X10322444Y-11223722D01*
X10322444Y-11223722D02*
X10331968Y-11242769D01*
X10331968Y-11242769D02*
X10331968Y-11290388D01*
X10331968Y-11290388D02*
X10322444Y-11309436D01*
X10322444Y-11309436D02*
X10312920Y-11318960D01*
X10312920Y-11318960D02*
X10293872Y-11328484D01*
X10293872Y-11328484D02*
X10246253Y-11328484D01*
X10246253Y-11328484D02*
X10227206Y-11318960D01*
X10227206Y-11318960D02*
X10217682Y-11309436D01*
X10503396Y-11128484D02*
X10465301Y-11128484D01*
X10465301Y-11128484D02*
X10446253Y-11138008D01*
X10446253Y-11138008D02*
X10436729Y-11147531D01*
X10436729Y-11147531D02*
X10417682Y-11176103D01*
X10417682Y-11176103D02*
X10408158Y-11214198D01*
X10408158Y-11214198D02*
X10408158Y-11290388D01*
X10408158Y-11290388D02*
X10417682Y-11309436D01*
X10417682Y-11309436D02*
X10427206Y-11318960D01*
X10427206Y-11318960D02*
X10446253Y-11328484D01*
X10446253Y-11328484D02*
X10484349Y-11328484D01*
X10484349Y-11328484D02*
X10503396Y-11318960D01*
X10503396Y-11318960D02*
X10512920Y-11309436D01*
X10512920Y-11309436D02*
X10522444Y-11290388D01*
X10522444Y-11290388D02*
X10522444Y-11242769D01*
X10522444Y-11242769D02*
X10512920Y-11223722D01*
X10512920Y-11223722D02*
X10503396Y-11214198D01*
X10503396Y-11214198D02*
X10484349Y-11204674D01*
X10484349Y-11204674D02*
X10446253Y-11204674D01*
X10446253Y-11204674D02*
X10427206Y-11214198D01*
X10427206Y-11214198D02*
X10417682Y-11223722D01*
X10417682Y-11223722D02*
X10408158Y-11242769D01*
X10598634Y-11128484D02*
X10598634Y-11166579D01*
X10674825Y-11128484D02*
X10674825Y-11166579D01*
X10970063Y-11404674D02*
X10960539Y-11395150D01*
X10960539Y-11395150D02*
X10941491Y-11366579D01*
X10941491Y-11366579D02*
X10931968Y-11347531D01*
X10931968Y-11347531D02*
X10922444Y-11318960D01*
X10922444Y-11318960D02*
X10912920Y-11271341D01*
X10912920Y-11271341D02*
X10912920Y-11233246D01*
X10912920Y-11233246D02*
X10922444Y-11185627D01*
X10922444Y-11185627D02*
X10931968Y-11157055D01*
X10931968Y-11157055D02*
X10941491Y-11138008D01*
X10941491Y-11138008D02*
X10960539Y-11109436D01*
X10960539Y-11109436D02*
X10970063Y-11099912D01*
X11131968Y-11195150D02*
X11131968Y-11328484D01*
X11084349Y-11118960D02*
X11036730Y-11261817D01*
X11036730Y-11261817D02*
X11160539Y-11261817D01*
X11389110Y-11328484D02*
X11389110Y-11128484D01*
X11474825Y-11328484D02*
X11474825Y-11223722D01*
X11474825Y-11223722D02*
X11465301Y-11204674D01*
X11465301Y-11204674D02*
X11446253Y-11195150D01*
X11446253Y-11195150D02*
X11417682Y-11195150D01*
X11417682Y-11195150D02*
X11398634Y-11204674D01*
X11398634Y-11204674D02*
X11389110Y-11214198D01*
X11598634Y-11328484D02*
X11579587Y-11318960D01*
X11579587Y-11318960D02*
X11570063Y-11309436D01*
X11570063Y-11309436D02*
X11560539Y-11290388D01*
X11560539Y-11290388D02*
X11560539Y-11233246D01*
X11560539Y-11233246D02*
X11570063Y-11214198D01*
X11570063Y-11214198D02*
X11579587Y-11204674D01*
X11579587Y-11204674D02*
X11598634Y-11195150D01*
X11598634Y-11195150D02*
X11627206Y-11195150D01*
X11627206Y-11195150D02*
X11646253Y-11204674D01*
X11646253Y-11204674D02*
X11655777Y-11214198D01*
X11655777Y-11214198D02*
X11665301Y-11233246D01*
X11665301Y-11233246D02*
X11665301Y-11290388D01*
X11665301Y-11290388D02*
X11655777Y-11309436D01*
X11655777Y-11309436D02*
X11646253Y-11318960D01*
X11646253Y-11318960D02*
X11627206Y-11328484D01*
X11627206Y-11328484D02*
X11598634Y-11328484D01*
X11779587Y-11328484D02*
X11760539Y-11318960D01*
X11760539Y-11318960D02*
X11751015Y-11299912D01*
X11751015Y-11299912D02*
X11751015Y-11128484D01*
X11931968Y-11318960D02*
X11912920Y-11328484D01*
X11912920Y-11328484D02*
X11874825Y-11328484D01*
X11874825Y-11328484D02*
X11855777Y-11318960D01*
X11855777Y-11318960D02*
X11846253Y-11299912D01*
X11846253Y-11299912D02*
X11846253Y-11223722D01*
X11846253Y-11223722D02*
X11855777Y-11204674D01*
X11855777Y-11204674D02*
X11874825Y-11195150D01*
X11874825Y-11195150D02*
X11912920Y-11195150D01*
X11912920Y-11195150D02*
X11931968Y-11204674D01*
X11931968Y-11204674D02*
X11941491Y-11223722D01*
X11941491Y-11223722D02*
X11941491Y-11242769D01*
X11941491Y-11242769D02*
X11846253Y-11261817D01*
X12017682Y-11318960D02*
X12036730Y-11328484D01*
X12036730Y-11328484D02*
X12074825Y-11328484D01*
X12074825Y-11328484D02*
X12093872Y-11318960D01*
X12093872Y-11318960D02*
X12103396Y-11299912D01*
X12103396Y-11299912D02*
X12103396Y-11290388D01*
X12103396Y-11290388D02*
X12093872Y-11271341D01*
X12093872Y-11271341D02*
X12074825Y-11261817D01*
X12074825Y-11261817D02*
X12046253Y-11261817D01*
X12046253Y-11261817D02*
X12027206Y-11252293D01*
X12027206Y-11252293D02*
X12017682Y-11233246D01*
X12017682Y-11233246D02*
X12017682Y-11223722D01*
X12017682Y-11223722D02*
X12027206Y-11204674D01*
X12027206Y-11204674D02*
X12046253Y-11195150D01*
X12046253Y-11195150D02*
X12074825Y-11195150D01*
X12074825Y-11195150D02*
X12093872Y-11204674D01*
X12170063Y-11404674D02*
X12179587Y-11395150D01*
X12179587Y-11395150D02*
X12198634Y-11366579D01*
X12198634Y-11366579D02*
X12208158Y-11347531D01*
X12208158Y-11347531D02*
X12217682Y-11318960D01*
X12217682Y-11318960D02*
X12227206Y-11271341D01*
X12227206Y-11271341D02*
X12227206Y-11233246D01*
X12227206Y-11233246D02*
X12217682Y-11185627D01*
X12217682Y-11185627D02*
X12208158Y-11157055D01*
X12208158Y-11157055D02*
X12198634Y-11138008D01*
X12198634Y-11138008D02*
X12179587Y-11109436D01*
X12179587Y-11109436D02*
X12170063Y-11099912D01*
D10*
X7347500Y-11548500D02*
X7395000Y-11501000D01*
X7347500Y-11453500D01*
X7300000Y-11501000D01*
X7347500Y-11548500D01*
D11*
X7693872Y-11392484D02*
X7712920Y-11392484D01*
X7712920Y-11392484D02*
X7731967Y-11402008D01*
X7731967Y-11402008D02*
X7741491Y-11411531D01*
X7741491Y-11411531D02*
X7751015Y-11430579D01*
X7751015Y-11430579D02*
X7760539Y-11468674D01*
X7760539Y-11468674D02*
X7760539Y-11516293D01*
X7760539Y-11516293D02*
X7751015Y-11554388D01*
X7751015Y-11554388D02*
X7741491Y-11573436D01*
X7741491Y-11573436D02*
X7731967Y-11582960D01*
X7731967Y-11582960D02*
X7712920Y-11592484D01*
X7712920Y-11592484D02*
X7693872Y-11592484D01*
X7693872Y-11592484D02*
X7674824Y-11582960D01*
X7674824Y-11582960D02*
X7665301Y-11573436D01*
X7665301Y-11573436D02*
X7655777Y-11554388D01*
X7655777Y-11554388D02*
X7646253Y-11516293D01*
X7646253Y-11516293D02*
X7646253Y-11468674D01*
X7646253Y-11468674D02*
X7655777Y-11430579D01*
X7655777Y-11430579D02*
X7665301Y-11411531D01*
X7665301Y-11411531D02*
X7674824Y-11402008D01*
X7674824Y-11402008D02*
X7693872Y-11392484D01*
X7846253Y-11573436D02*
X7855777Y-11582960D01*
X7855777Y-11582960D02*
X7846253Y-11592484D01*
X7846253Y-11592484D02*
X7836729Y-11582960D01*
X7836729Y-11582960D02*
X7846253Y-11573436D01*
X7846253Y-11573436D02*
X7846253Y-11592484D01*
X7951015Y-11592484D02*
X7989110Y-11592484D01*
X7989110Y-11592484D02*
X8008158Y-11582960D01*
X8008158Y-11582960D02*
X8017682Y-11573436D01*
X8017682Y-11573436D02*
X8036729Y-11544865D01*
X8036729Y-11544865D02*
X8046253Y-11506769D01*
X8046253Y-11506769D02*
X8046253Y-11430579D01*
X8046253Y-11430579D02*
X8036729Y-11411531D01*
X8036729Y-11411531D02*
X8027205Y-11402008D01*
X8027205Y-11402008D02*
X8008158Y-11392484D01*
X8008158Y-11392484D02*
X7970062Y-11392484D01*
X7970062Y-11392484D02*
X7951015Y-11402008D01*
X7951015Y-11402008D02*
X7941491Y-11411531D01*
X7941491Y-11411531D02*
X7931967Y-11430579D01*
X7931967Y-11430579D02*
X7931967Y-11478198D01*
X7931967Y-11478198D02*
X7941491Y-11497246D01*
X7941491Y-11497246D02*
X7951015Y-11506769D01*
X7951015Y-11506769D02*
X7970062Y-11516293D01*
X7970062Y-11516293D02*
X8008158Y-11516293D01*
X8008158Y-11516293D02*
X8027205Y-11506769D01*
X8027205Y-11506769D02*
X8036729Y-11497246D01*
X8036729Y-11497246D02*
X8046253Y-11478198D01*
X8227205Y-11392484D02*
X8131967Y-11392484D01*
X8131967Y-11392484D02*
X8122443Y-11487722D01*
X8122443Y-11487722D02*
X8131967Y-11478198D01*
X8131967Y-11478198D02*
X8151015Y-11468674D01*
X8151015Y-11468674D02*
X8198634Y-11468674D01*
X8198634Y-11468674D02*
X8217682Y-11478198D01*
X8217682Y-11478198D02*
X8227205Y-11487722D01*
X8227205Y-11487722D02*
X8236729Y-11506769D01*
X8236729Y-11506769D02*
X8236729Y-11554388D01*
X8236729Y-11554388D02*
X8227205Y-11573436D01*
X8227205Y-11573436D02*
X8217682Y-11582960D01*
X8217682Y-11582960D02*
X8198634Y-11592484D01*
X8198634Y-11592484D02*
X8151015Y-11592484D01*
X8151015Y-11592484D02*
X8131967Y-11582960D01*
X8131967Y-11582960D02*
X8122443Y-11573436D01*
X8360539Y-11392484D02*
X8379586Y-11392484D01*
X8379586Y-11392484D02*
X8398634Y-11402008D01*
X8398634Y-11402008D02*
X8408158Y-11411531D01*
X8408158Y-11411531D02*
X8417682Y-11430579D01*
X8417682Y-11430579D02*
X8427205Y-11468674D01*
X8427205Y-11468674D02*
X8427205Y-11516293D01*
X8427205Y-11516293D02*
X8417682Y-11554388D01*
X8417682Y-11554388D02*
X8408158Y-11573436D01*
X8408158Y-11573436D02*
X8398634Y-11582960D01*
X8398634Y-11582960D02*
X8379586Y-11592484D01*
X8379586Y-11592484D02*
X8360539Y-11592484D01*
X8360539Y-11592484D02*
X8341491Y-11582960D01*
X8341491Y-11582960D02*
X8331967Y-11573436D01*
X8331967Y-11573436D02*
X8322443Y-11554388D01*
X8322443Y-11554388D02*
X8312920Y-11516293D01*
X8312920Y-11516293D02*
X8312920Y-11468674D01*
X8312920Y-11468674D02*
X8322443Y-11430579D01*
X8322443Y-11430579D02*
X8331967Y-11411531D01*
X8331967Y-11411531D02*
X8341491Y-11402008D01*
X8341491Y-11402008D02*
X8360539Y-11392484D01*
X8512920Y-11592484D02*
X8512920Y-11459150D01*
X8512920Y-11478198D02*
X8522444Y-11468674D01*
X8522444Y-11468674D02*
X8541491Y-11459150D01*
X8541491Y-11459150D02*
X8570063Y-11459150D01*
X8570063Y-11459150D02*
X8589110Y-11468674D01*
X8589110Y-11468674D02*
X8598634Y-11487722D01*
X8598634Y-11487722D02*
X8598634Y-11592484D01*
X8598634Y-11487722D02*
X8608158Y-11468674D01*
X8608158Y-11468674D02*
X8627205Y-11459150D01*
X8627205Y-11459150D02*
X8655777Y-11459150D01*
X8655777Y-11459150D02*
X8674825Y-11468674D01*
X8674825Y-11468674D02*
X8684348Y-11487722D01*
X8684348Y-11487722D02*
X8684348Y-11592484D01*
X8779586Y-11592484D02*
X8779586Y-11459150D01*
X8779586Y-11478198D02*
X8789110Y-11468674D01*
X8789110Y-11468674D02*
X8808158Y-11459150D01*
X8808158Y-11459150D02*
X8836729Y-11459150D01*
X8836729Y-11459150D02*
X8855777Y-11468674D01*
X8855777Y-11468674D02*
X8865301Y-11487722D01*
X8865301Y-11487722D02*
X8865301Y-11592484D01*
X8865301Y-11487722D02*
X8874825Y-11468674D01*
X8874825Y-11468674D02*
X8893872Y-11459150D01*
X8893872Y-11459150D02*
X8922444Y-11459150D01*
X8922444Y-11459150D02*
X8941491Y-11468674D01*
X8941491Y-11468674D02*
X8951015Y-11487722D01*
X8951015Y-11487722D02*
X8951015Y-11592484D01*
X9341491Y-11382960D02*
X9170063Y-11640103D01*
X9598634Y-11392484D02*
X9617682Y-11392484D01*
X9617682Y-11392484D02*
X9636729Y-11402008D01*
X9636729Y-11402008D02*
X9646253Y-11411531D01*
X9646253Y-11411531D02*
X9655777Y-11430579D01*
X9655777Y-11430579D02*
X9665301Y-11468674D01*
X9665301Y-11468674D02*
X9665301Y-11516293D01*
X9665301Y-11516293D02*
X9655777Y-11554388D01*
X9655777Y-11554388D02*
X9646253Y-11573436D01*
X9646253Y-11573436D02*
X9636729Y-11582960D01*
X9636729Y-11582960D02*
X9617682Y-11592484D01*
X9617682Y-11592484D02*
X9598634Y-11592484D01*
X9598634Y-11592484D02*
X9579587Y-11582960D01*
X9579587Y-11582960D02*
X9570063Y-11573436D01*
X9570063Y-11573436D02*
X9560539Y-11554388D01*
X9560539Y-11554388D02*
X9551015Y-11516293D01*
X9551015Y-11516293D02*
X9551015Y-11468674D01*
X9551015Y-11468674D02*
X9560539Y-11430579D01*
X9560539Y-11430579D02*
X9570063Y-11411531D01*
X9570063Y-11411531D02*
X9579587Y-11402008D01*
X9579587Y-11402008D02*
X9598634Y-11392484D01*
X9751015Y-11573436D02*
X9760539Y-11582960D01*
X9760539Y-11582960D02*
X9751015Y-11592484D01*
X9751015Y-11592484D02*
X9741491Y-11582960D01*
X9741491Y-11582960D02*
X9751015Y-11573436D01*
X9751015Y-11573436D02*
X9751015Y-11592484D01*
X9884348Y-11392484D02*
X9903396Y-11392484D01*
X9903396Y-11392484D02*
X9922444Y-11402008D01*
X9922444Y-11402008D02*
X9931968Y-11411531D01*
X9931968Y-11411531D02*
X9941491Y-11430579D01*
X9941491Y-11430579D02*
X9951015Y-11468674D01*
X9951015Y-11468674D02*
X9951015Y-11516293D01*
X9951015Y-11516293D02*
X9941491Y-11554388D01*
X9941491Y-11554388D02*
X9931968Y-11573436D01*
X9931968Y-11573436D02*
X9922444Y-11582960D01*
X9922444Y-11582960D02*
X9903396Y-11592484D01*
X9903396Y-11592484D02*
X9884348Y-11592484D01*
X9884348Y-11592484D02*
X9865301Y-11582960D01*
X9865301Y-11582960D02*
X9855777Y-11573436D01*
X9855777Y-11573436D02*
X9846253Y-11554388D01*
X9846253Y-11554388D02*
X9836729Y-11516293D01*
X9836729Y-11516293D02*
X9836729Y-11468674D01*
X9836729Y-11468674D02*
X9846253Y-11430579D01*
X9846253Y-11430579D02*
X9855777Y-11411531D01*
X9855777Y-11411531D02*
X9865301Y-11402008D01*
X9865301Y-11402008D02*
X9884348Y-11392484D01*
X10017682Y-11392484D02*
X10141491Y-11392484D01*
X10141491Y-11392484D02*
X10074825Y-11468674D01*
X10074825Y-11468674D02*
X10103396Y-11468674D01*
X10103396Y-11468674D02*
X10122444Y-11478198D01*
X10122444Y-11478198D02*
X10131968Y-11487722D01*
X10131968Y-11487722D02*
X10141491Y-11506769D01*
X10141491Y-11506769D02*
X10141491Y-11554388D01*
X10141491Y-11554388D02*
X10131968Y-11573436D01*
X10131968Y-11573436D02*
X10122444Y-11582960D01*
X10122444Y-11582960D02*
X10103396Y-11592484D01*
X10103396Y-11592484D02*
X10046253Y-11592484D01*
X10046253Y-11592484D02*
X10027206Y-11582960D01*
X10027206Y-11582960D02*
X10017682Y-11573436D01*
X10208158Y-11392484D02*
X10341491Y-11392484D01*
X10341491Y-11392484D02*
X10255777Y-11592484D01*
X10503396Y-11459150D02*
X10503396Y-11592484D01*
X10455777Y-11382960D02*
X10408158Y-11525817D01*
X10408158Y-11525817D02*
X10531968Y-11525817D01*
X10598634Y-11392484D02*
X10598634Y-11430579D01*
X10674825Y-11392484D02*
X10674825Y-11430579D01*
X10970063Y-11668674D02*
X10960539Y-11659150D01*
X10960539Y-11659150D02*
X10941491Y-11630579D01*
X10941491Y-11630579D02*
X10931968Y-11611531D01*
X10931968Y-11611531D02*
X10922444Y-11582960D01*
X10922444Y-11582960D02*
X10912920Y-11535341D01*
X10912920Y-11535341D02*
X10912920Y-11497246D01*
X10912920Y-11497246D02*
X10922444Y-11449627D01*
X10922444Y-11449627D02*
X10931968Y-11421055D01*
X10931968Y-11421055D02*
X10941491Y-11402008D01*
X10941491Y-11402008D02*
X10960539Y-11373436D01*
X10960539Y-11373436D02*
X10970063Y-11363912D01*
X11074825Y-11478198D02*
X11055777Y-11468674D01*
X11055777Y-11468674D02*
X11046253Y-11459150D01*
X11046253Y-11459150D02*
X11036730Y-11440103D01*
X11036730Y-11440103D02*
X11036730Y-11430579D01*
X11036730Y-11430579D02*
X11046253Y-11411531D01*
X11046253Y-11411531D02*
X11055777Y-11402008D01*
X11055777Y-11402008D02*
X11074825Y-11392484D01*
X11074825Y-11392484D02*
X11112920Y-11392484D01*
X11112920Y-11392484D02*
X11131968Y-11402008D01*
X11131968Y-11402008D02*
X11141491Y-11411531D01*
X11141491Y-11411531D02*
X11151015Y-11430579D01*
X11151015Y-11430579D02*
X11151015Y-11440103D01*
X11151015Y-11440103D02*
X11141491Y-11459150D01*
X11141491Y-11459150D02*
X11131968Y-11468674D01*
X11131968Y-11468674D02*
X11112920Y-11478198D01*
X11112920Y-11478198D02*
X11074825Y-11478198D01*
X11074825Y-11478198D02*
X11055777Y-11487722D01*
X11055777Y-11487722D02*
X11046253Y-11497246D01*
X11046253Y-11497246D02*
X11036730Y-11516293D01*
X11036730Y-11516293D02*
X11036730Y-11554388D01*
X11036730Y-11554388D02*
X11046253Y-11573436D01*
X11046253Y-11573436D02*
X11055777Y-11582960D01*
X11055777Y-11582960D02*
X11074825Y-11592484D01*
X11074825Y-11592484D02*
X11112920Y-11592484D01*
X11112920Y-11592484D02*
X11131968Y-11582960D01*
X11131968Y-11582960D02*
X11141491Y-11573436D01*
X11141491Y-11573436D02*
X11151015Y-11554388D01*
X11151015Y-11554388D02*
X11151015Y-11516293D01*
X11151015Y-11516293D02*
X11141491Y-11497246D01*
X11141491Y-11497246D02*
X11131968Y-11487722D01*
X11131968Y-11487722D02*
X11112920Y-11478198D01*
X11389110Y-11592484D02*
X11389110Y-11392484D01*
X11474825Y-11592484D02*
X11474825Y-11487722D01*
X11474825Y-11487722D02*
X11465301Y-11468674D01*
X11465301Y-11468674D02*
X11446253Y-11459150D01*
X11446253Y-11459150D02*
X11417682Y-11459150D01*
X11417682Y-11459150D02*
X11398634Y-11468674D01*
X11398634Y-11468674D02*
X11389110Y-11478198D01*
X11598634Y-11592484D02*
X11579587Y-11582960D01*
X11579587Y-11582960D02*
X11570063Y-11573436D01*
X11570063Y-11573436D02*
X11560539Y-11554388D01*
X11560539Y-11554388D02*
X11560539Y-11497246D01*
X11560539Y-11497246D02*
X11570063Y-11478198D01*
X11570063Y-11478198D02*
X11579587Y-11468674D01*
X11579587Y-11468674D02*
X11598634Y-11459150D01*
X11598634Y-11459150D02*
X11627206Y-11459150D01*
X11627206Y-11459150D02*
X11646253Y-11468674D01*
X11646253Y-11468674D02*
X11655777Y-11478198D01*
X11655777Y-11478198D02*
X11665301Y-11497246D01*
X11665301Y-11497246D02*
X11665301Y-11554388D01*
X11665301Y-11554388D02*
X11655777Y-11573436D01*
X11655777Y-11573436D02*
X11646253Y-11582960D01*
X11646253Y-11582960D02*
X11627206Y-11592484D01*
X11627206Y-11592484D02*
X11598634Y-11592484D01*
X11779587Y-11592484D02*
X11760539Y-11582960D01*
X11760539Y-11582960D02*
X11751015Y-11563912D01*
X11751015Y-11563912D02*
X11751015Y-11392484D01*
X11931968Y-11582960D02*
X11912920Y-11592484D01*
X11912920Y-11592484D02*
X11874825Y-11592484D01*
X11874825Y-11592484D02*
X11855777Y-11582960D01*
X11855777Y-11582960D02*
X11846253Y-11563912D01*
X11846253Y-11563912D02*
X11846253Y-11487722D01*
X11846253Y-11487722D02*
X11855777Y-11468674D01*
X11855777Y-11468674D02*
X11874825Y-11459150D01*
X11874825Y-11459150D02*
X11912920Y-11459150D01*
X11912920Y-11459150D02*
X11931968Y-11468674D01*
X11931968Y-11468674D02*
X11941491Y-11487722D01*
X11941491Y-11487722D02*
X11941491Y-11506769D01*
X11941491Y-11506769D02*
X11846253Y-11525817D01*
X12017682Y-11582960D02*
X12036730Y-11592484D01*
X12036730Y-11592484D02*
X12074825Y-11592484D01*
X12074825Y-11592484D02*
X12093872Y-11582960D01*
X12093872Y-11582960D02*
X12103396Y-11563912D01*
X12103396Y-11563912D02*
X12103396Y-11554388D01*
X12103396Y-11554388D02*
X12093872Y-11535341D01*
X12093872Y-11535341D02*
X12074825Y-11525817D01*
X12074825Y-11525817D02*
X12046253Y-11525817D01*
X12046253Y-11525817D02*
X12027206Y-11516293D01*
X12027206Y-11516293D02*
X12017682Y-11497246D01*
X12017682Y-11497246D02*
X12017682Y-11487722D01*
X12017682Y-11487722D02*
X12027206Y-11468674D01*
X12027206Y-11468674D02*
X12046253Y-11459150D01*
X12046253Y-11459150D02*
X12074825Y-11459150D01*
X12074825Y-11459150D02*
X12093872Y-11468674D01*
X12170063Y-11668674D02*
X12179587Y-11659150D01*
X12179587Y-11659150D02*
X12198634Y-11630579D01*
X12198634Y-11630579D02*
X12208158Y-11611531D01*
X12208158Y-11611531D02*
X12217682Y-11582960D01*
X12217682Y-11582960D02*
X12227206Y-11535341D01*
X12227206Y-11535341D02*
X12227206Y-11497246D01*
X12227206Y-11497246D02*
X12217682Y-11449627D01*
X12217682Y-11449627D02*
X12208158Y-11421055D01*
X12208158Y-11421055D02*
X12198634Y-11402008D01*
X12198634Y-11402008D02*
X12179587Y-11373436D01*
X12179587Y-11373436D02*
X12170063Y-11363912D01*
D10*
X7296000Y-11715500D02*
X7395000Y-11814500D01*
X7395000Y-11715500D02*
X7296000Y-11814500D01*
X7395000Y-11765000D02*
G75*
G02*
X7296000Y-11765000I-49500J0D01*
G01*
X7296000Y-11765000D02*
G75*
G02*
X7395000Y-11765000I49500J0D01*
G01*
D11*
X7693872Y-11656484D02*
X7712920Y-11656484D01*
X7712920Y-11656484D02*
X7731967Y-11666008D01*
X7731967Y-11666008D02*
X7741491Y-11675531D01*
X7741491Y-11675531D02*
X7751015Y-11694579D01*
X7751015Y-11694579D02*
X7760539Y-11732674D01*
X7760539Y-11732674D02*
X7760539Y-11780293D01*
X7760539Y-11780293D02*
X7751015Y-11818388D01*
X7751015Y-11818388D02*
X7741491Y-11837436D01*
X7741491Y-11837436D02*
X7731967Y-11846960D01*
X7731967Y-11846960D02*
X7712920Y-11856484D01*
X7712920Y-11856484D02*
X7693872Y-11856484D01*
X7693872Y-11856484D02*
X7674824Y-11846960D01*
X7674824Y-11846960D02*
X7665301Y-11837436D01*
X7665301Y-11837436D02*
X7655777Y-11818388D01*
X7655777Y-11818388D02*
X7646253Y-11780293D01*
X7646253Y-11780293D02*
X7646253Y-11732674D01*
X7646253Y-11732674D02*
X7655777Y-11694579D01*
X7655777Y-11694579D02*
X7665301Y-11675531D01*
X7665301Y-11675531D02*
X7674824Y-11666008D01*
X7674824Y-11666008D02*
X7693872Y-11656484D01*
X7846253Y-11837436D02*
X7855777Y-11846960D01*
X7855777Y-11846960D02*
X7846253Y-11856484D01*
X7846253Y-11856484D02*
X7836729Y-11846960D01*
X7836729Y-11846960D02*
X7846253Y-11837436D01*
X7846253Y-11837436D02*
X7846253Y-11856484D01*
X7951015Y-11856484D02*
X7989110Y-11856484D01*
X7989110Y-11856484D02*
X8008158Y-11846960D01*
X8008158Y-11846960D02*
X8017682Y-11837436D01*
X8017682Y-11837436D02*
X8036729Y-11808865D01*
X8036729Y-11808865D02*
X8046253Y-11770769D01*
X8046253Y-11770769D02*
X8046253Y-11694579D01*
X8046253Y-11694579D02*
X8036729Y-11675531D01*
X8036729Y-11675531D02*
X8027205Y-11666008D01*
X8027205Y-11666008D02*
X8008158Y-11656484D01*
X8008158Y-11656484D02*
X7970062Y-11656484D01*
X7970062Y-11656484D02*
X7951015Y-11666008D01*
X7951015Y-11666008D02*
X7941491Y-11675531D01*
X7941491Y-11675531D02*
X7931967Y-11694579D01*
X7931967Y-11694579D02*
X7931967Y-11742198D01*
X7931967Y-11742198D02*
X7941491Y-11761246D01*
X7941491Y-11761246D02*
X7951015Y-11770769D01*
X7951015Y-11770769D02*
X7970062Y-11780293D01*
X7970062Y-11780293D02*
X8008158Y-11780293D01*
X8008158Y-11780293D02*
X8027205Y-11770769D01*
X8027205Y-11770769D02*
X8036729Y-11761246D01*
X8036729Y-11761246D02*
X8046253Y-11742198D01*
X8141491Y-11856484D02*
X8179586Y-11856484D01*
X8179586Y-11856484D02*
X8198634Y-11846960D01*
X8198634Y-11846960D02*
X8208158Y-11837436D01*
X8208158Y-11837436D02*
X8227205Y-11808865D01*
X8227205Y-11808865D02*
X8236729Y-11770769D01*
X8236729Y-11770769D02*
X8236729Y-11694579D01*
X8236729Y-11694579D02*
X8227205Y-11675531D01*
X8227205Y-11675531D02*
X8217682Y-11666008D01*
X8217682Y-11666008D02*
X8198634Y-11656484D01*
X8198634Y-11656484D02*
X8160539Y-11656484D01*
X8160539Y-11656484D02*
X8141491Y-11666008D01*
X8141491Y-11666008D02*
X8131967Y-11675531D01*
X8131967Y-11675531D02*
X8122443Y-11694579D01*
X8122443Y-11694579D02*
X8122443Y-11742198D01*
X8122443Y-11742198D02*
X8131967Y-11761246D01*
X8131967Y-11761246D02*
X8141491Y-11770769D01*
X8141491Y-11770769D02*
X8160539Y-11780293D01*
X8160539Y-11780293D02*
X8198634Y-11780293D01*
X8198634Y-11780293D02*
X8217682Y-11770769D01*
X8217682Y-11770769D02*
X8227205Y-11761246D01*
X8227205Y-11761246D02*
X8236729Y-11742198D01*
X8360539Y-11656484D02*
X8379586Y-11656484D01*
X8379586Y-11656484D02*
X8398634Y-11666008D01*
X8398634Y-11666008D02*
X8408158Y-11675531D01*
X8408158Y-11675531D02*
X8417682Y-11694579D01*
X8417682Y-11694579D02*
X8427205Y-11732674D01*
X8427205Y-11732674D02*
X8427205Y-11780293D01*
X8427205Y-11780293D02*
X8417682Y-11818388D01*
X8417682Y-11818388D02*
X8408158Y-11837436D01*
X8408158Y-11837436D02*
X8398634Y-11846960D01*
X8398634Y-11846960D02*
X8379586Y-11856484D01*
X8379586Y-11856484D02*
X8360539Y-11856484D01*
X8360539Y-11856484D02*
X8341491Y-11846960D01*
X8341491Y-11846960D02*
X8331967Y-11837436D01*
X8331967Y-11837436D02*
X8322443Y-11818388D01*
X8322443Y-11818388D02*
X8312920Y-11780293D01*
X8312920Y-11780293D02*
X8312920Y-11732674D01*
X8312920Y-11732674D02*
X8322443Y-11694579D01*
X8322443Y-11694579D02*
X8331967Y-11675531D01*
X8331967Y-11675531D02*
X8341491Y-11666008D01*
X8341491Y-11666008D02*
X8360539Y-11656484D01*
X8512920Y-11856484D02*
X8512920Y-11723150D01*
X8512920Y-11742198D02*
X8522444Y-11732674D01*
X8522444Y-11732674D02*
X8541491Y-11723150D01*
X8541491Y-11723150D02*
X8570063Y-11723150D01*
X8570063Y-11723150D02*
X8589110Y-11732674D01*
X8589110Y-11732674D02*
X8598634Y-11751722D01*
X8598634Y-11751722D02*
X8598634Y-11856484D01*
X8598634Y-11751722D02*
X8608158Y-11732674D01*
X8608158Y-11732674D02*
X8627205Y-11723150D01*
X8627205Y-11723150D02*
X8655777Y-11723150D01*
X8655777Y-11723150D02*
X8674825Y-11732674D01*
X8674825Y-11732674D02*
X8684348Y-11751722D01*
X8684348Y-11751722D02*
X8684348Y-11856484D01*
X8779586Y-11856484D02*
X8779586Y-11723150D01*
X8779586Y-11742198D02*
X8789110Y-11732674D01*
X8789110Y-11732674D02*
X8808158Y-11723150D01*
X8808158Y-11723150D02*
X8836729Y-11723150D01*
X8836729Y-11723150D02*
X8855777Y-11732674D01*
X8855777Y-11732674D02*
X8865301Y-11751722D01*
X8865301Y-11751722D02*
X8865301Y-11856484D01*
X8865301Y-11751722D02*
X8874825Y-11732674D01*
X8874825Y-11732674D02*
X8893872Y-11723150D01*
X8893872Y-11723150D02*
X8922444Y-11723150D01*
X8922444Y-11723150D02*
X8941491Y-11732674D01*
X8941491Y-11732674D02*
X8951015Y-11751722D01*
X8951015Y-11751722D02*
X8951015Y-11856484D01*
X9341491Y-11646960D02*
X9170063Y-11904103D01*
X9598634Y-11656484D02*
X9617682Y-11656484D01*
X9617682Y-11656484D02*
X9636729Y-11666008D01*
X9636729Y-11666008D02*
X9646253Y-11675531D01*
X9646253Y-11675531D02*
X9655777Y-11694579D01*
X9655777Y-11694579D02*
X9665301Y-11732674D01*
X9665301Y-11732674D02*
X9665301Y-11780293D01*
X9665301Y-11780293D02*
X9655777Y-11818388D01*
X9655777Y-11818388D02*
X9646253Y-11837436D01*
X9646253Y-11837436D02*
X9636729Y-11846960D01*
X9636729Y-11846960D02*
X9617682Y-11856484D01*
X9617682Y-11856484D02*
X9598634Y-11856484D01*
X9598634Y-11856484D02*
X9579587Y-11846960D01*
X9579587Y-11846960D02*
X9570063Y-11837436D01*
X9570063Y-11837436D02*
X9560539Y-11818388D01*
X9560539Y-11818388D02*
X9551015Y-11780293D01*
X9551015Y-11780293D02*
X9551015Y-11732674D01*
X9551015Y-11732674D02*
X9560539Y-11694579D01*
X9560539Y-11694579D02*
X9570063Y-11675531D01*
X9570063Y-11675531D02*
X9579587Y-11666008D01*
X9579587Y-11666008D02*
X9598634Y-11656484D01*
X9751015Y-11837436D02*
X9760539Y-11846960D01*
X9760539Y-11846960D02*
X9751015Y-11856484D01*
X9751015Y-11856484D02*
X9741491Y-11846960D01*
X9741491Y-11846960D02*
X9751015Y-11837436D01*
X9751015Y-11837436D02*
X9751015Y-11856484D01*
X9884348Y-11656484D02*
X9903396Y-11656484D01*
X9903396Y-11656484D02*
X9922444Y-11666008D01*
X9922444Y-11666008D02*
X9931968Y-11675531D01*
X9931968Y-11675531D02*
X9941491Y-11694579D01*
X9941491Y-11694579D02*
X9951015Y-11732674D01*
X9951015Y-11732674D02*
X9951015Y-11780293D01*
X9951015Y-11780293D02*
X9941491Y-11818388D01*
X9941491Y-11818388D02*
X9931968Y-11837436D01*
X9931968Y-11837436D02*
X9922444Y-11846960D01*
X9922444Y-11846960D02*
X9903396Y-11856484D01*
X9903396Y-11856484D02*
X9884348Y-11856484D01*
X9884348Y-11856484D02*
X9865301Y-11846960D01*
X9865301Y-11846960D02*
X9855777Y-11837436D01*
X9855777Y-11837436D02*
X9846253Y-11818388D01*
X9846253Y-11818388D02*
X9836729Y-11780293D01*
X9836729Y-11780293D02*
X9836729Y-11732674D01*
X9836729Y-11732674D02*
X9846253Y-11694579D01*
X9846253Y-11694579D02*
X9855777Y-11675531D01*
X9855777Y-11675531D02*
X9865301Y-11666008D01*
X9865301Y-11666008D02*
X9884348Y-11656484D01*
X10017682Y-11656484D02*
X10141491Y-11656484D01*
X10141491Y-11656484D02*
X10074825Y-11732674D01*
X10074825Y-11732674D02*
X10103396Y-11732674D01*
X10103396Y-11732674D02*
X10122444Y-11742198D01*
X10122444Y-11742198D02*
X10131968Y-11751722D01*
X10131968Y-11751722D02*
X10141491Y-11770769D01*
X10141491Y-11770769D02*
X10141491Y-11818388D01*
X10141491Y-11818388D02*
X10131968Y-11837436D01*
X10131968Y-11837436D02*
X10122444Y-11846960D01*
X10122444Y-11846960D02*
X10103396Y-11856484D01*
X10103396Y-11856484D02*
X10046253Y-11856484D01*
X10046253Y-11856484D02*
X10027206Y-11846960D01*
X10027206Y-11846960D02*
X10017682Y-11837436D01*
X10236729Y-11856484D02*
X10274825Y-11856484D01*
X10274825Y-11856484D02*
X10293872Y-11846960D01*
X10293872Y-11846960D02*
X10303396Y-11837436D01*
X10303396Y-11837436D02*
X10322444Y-11808865D01*
X10322444Y-11808865D02*
X10331968Y-11770769D01*
X10331968Y-11770769D02*
X10331968Y-11694579D01*
X10331968Y-11694579D02*
X10322444Y-11675531D01*
X10322444Y-11675531D02*
X10312920Y-11666008D01*
X10312920Y-11666008D02*
X10293872Y-11656484D01*
X10293872Y-11656484D02*
X10255777Y-11656484D01*
X10255777Y-11656484D02*
X10236729Y-11666008D01*
X10236729Y-11666008D02*
X10227206Y-11675531D01*
X10227206Y-11675531D02*
X10217682Y-11694579D01*
X10217682Y-11694579D02*
X10217682Y-11742198D01*
X10217682Y-11742198D02*
X10227206Y-11761246D01*
X10227206Y-11761246D02*
X10236729Y-11770769D01*
X10236729Y-11770769D02*
X10255777Y-11780293D01*
X10255777Y-11780293D02*
X10293872Y-11780293D01*
X10293872Y-11780293D02*
X10312920Y-11770769D01*
X10312920Y-11770769D02*
X10322444Y-11761246D01*
X10322444Y-11761246D02*
X10331968Y-11742198D01*
X10455777Y-11656484D02*
X10474825Y-11656484D01*
X10474825Y-11656484D02*
X10493872Y-11666008D01*
X10493872Y-11666008D02*
X10503396Y-11675531D01*
X10503396Y-11675531D02*
X10512920Y-11694579D01*
X10512920Y-11694579D02*
X10522444Y-11732674D01*
X10522444Y-11732674D02*
X10522444Y-11780293D01*
X10522444Y-11780293D02*
X10512920Y-11818388D01*
X10512920Y-11818388D02*
X10503396Y-11837436D01*
X10503396Y-11837436D02*
X10493872Y-11846960D01*
X10493872Y-11846960D02*
X10474825Y-11856484D01*
X10474825Y-11856484D02*
X10455777Y-11856484D01*
X10455777Y-11856484D02*
X10436729Y-11846960D01*
X10436729Y-11846960D02*
X10427206Y-11837436D01*
X10427206Y-11837436D02*
X10417682Y-11818388D01*
X10417682Y-11818388D02*
X10408158Y-11780293D01*
X10408158Y-11780293D02*
X10408158Y-11732674D01*
X10408158Y-11732674D02*
X10417682Y-11694579D01*
X10417682Y-11694579D02*
X10427206Y-11675531D01*
X10427206Y-11675531D02*
X10436729Y-11666008D01*
X10436729Y-11666008D02*
X10455777Y-11656484D01*
X10598634Y-11656484D02*
X10598634Y-11694579D01*
X10674825Y-11656484D02*
X10674825Y-11694579D01*
X10970063Y-11932674D02*
X10960539Y-11923150D01*
X10960539Y-11923150D02*
X10941491Y-11894579D01*
X10941491Y-11894579D02*
X10931968Y-11875531D01*
X10931968Y-11875531D02*
X10922444Y-11846960D01*
X10922444Y-11846960D02*
X10912920Y-11799341D01*
X10912920Y-11799341D02*
X10912920Y-11761246D01*
X10912920Y-11761246D02*
X10922444Y-11713627D01*
X10922444Y-11713627D02*
X10931968Y-11685055D01*
X10931968Y-11685055D02*
X10941491Y-11666008D01*
X10941491Y-11666008D02*
X10960539Y-11637436D01*
X10960539Y-11637436D02*
X10970063Y-11627912D01*
X11036730Y-11675531D02*
X11046253Y-11666008D01*
X11046253Y-11666008D02*
X11065301Y-11656484D01*
X11065301Y-11656484D02*
X11112920Y-11656484D01*
X11112920Y-11656484D02*
X11131968Y-11666008D01*
X11131968Y-11666008D02*
X11141491Y-11675531D01*
X11141491Y-11675531D02*
X11151015Y-11694579D01*
X11151015Y-11694579D02*
X11151015Y-11713627D01*
X11151015Y-11713627D02*
X11141491Y-11742198D01*
X11141491Y-11742198D02*
X11027206Y-11856484D01*
X11027206Y-11856484D02*
X11151015Y-11856484D01*
X11389110Y-11856484D02*
X11389110Y-11656484D01*
X11474825Y-11856484D02*
X11474825Y-11751722D01*
X11474825Y-11751722D02*
X11465301Y-11732674D01*
X11465301Y-11732674D02*
X11446253Y-11723150D01*
X11446253Y-11723150D02*
X11417682Y-11723150D01*
X11417682Y-11723150D02*
X11398634Y-11732674D01*
X11398634Y-11732674D02*
X11389110Y-11742198D01*
X11598634Y-11856484D02*
X11579587Y-11846960D01*
X11579587Y-11846960D02*
X11570063Y-11837436D01*
X11570063Y-11837436D02*
X11560539Y-11818388D01*
X11560539Y-11818388D02*
X11560539Y-11761246D01*
X11560539Y-11761246D02*
X11570063Y-11742198D01*
X11570063Y-11742198D02*
X11579587Y-11732674D01*
X11579587Y-11732674D02*
X11598634Y-11723150D01*
X11598634Y-11723150D02*
X11627206Y-11723150D01*
X11627206Y-11723150D02*
X11646253Y-11732674D01*
X11646253Y-11732674D02*
X11655777Y-11742198D01*
X11655777Y-11742198D02*
X11665301Y-11761246D01*
X11665301Y-11761246D02*
X11665301Y-11818388D01*
X11665301Y-11818388D02*
X11655777Y-11837436D01*
X11655777Y-11837436D02*
X11646253Y-11846960D01*
X11646253Y-11846960D02*
X11627206Y-11856484D01*
X11627206Y-11856484D02*
X11598634Y-11856484D01*
X11779587Y-11856484D02*
X11760539Y-11846960D01*
X11760539Y-11846960D02*
X11751015Y-11827912D01*
X11751015Y-11827912D02*
X11751015Y-11656484D01*
X11931968Y-11846960D02*
X11912920Y-11856484D01*
X11912920Y-11856484D02*
X11874825Y-11856484D01*
X11874825Y-11856484D02*
X11855777Y-11846960D01*
X11855777Y-11846960D02*
X11846253Y-11827912D01*
X11846253Y-11827912D02*
X11846253Y-11751722D01*
X11846253Y-11751722D02*
X11855777Y-11732674D01*
X11855777Y-11732674D02*
X11874825Y-11723150D01*
X11874825Y-11723150D02*
X11912920Y-11723150D01*
X11912920Y-11723150D02*
X11931968Y-11732674D01*
X11931968Y-11732674D02*
X11941491Y-11751722D01*
X11941491Y-11751722D02*
X11941491Y-11770769D01*
X11941491Y-11770769D02*
X11846253Y-11789817D01*
X12017682Y-11846960D02*
X12036730Y-11856484D01*
X12036730Y-11856484D02*
X12074825Y-11856484D01*
X12074825Y-11856484D02*
X12093872Y-11846960D01*
X12093872Y-11846960D02*
X12103396Y-11827912D01*
X12103396Y-11827912D02*
X12103396Y-11818388D01*
X12103396Y-11818388D02*
X12093872Y-11799341D01*
X12093872Y-11799341D02*
X12074825Y-11789817D01*
X12074825Y-11789817D02*
X12046253Y-11789817D01*
X12046253Y-11789817D02*
X12027206Y-11780293D01*
X12027206Y-11780293D02*
X12017682Y-11761246D01*
X12017682Y-11761246D02*
X12017682Y-11751722D01*
X12017682Y-11751722D02*
X12027206Y-11732674D01*
X12027206Y-11732674D02*
X12046253Y-11723150D01*
X12046253Y-11723150D02*
X12074825Y-11723150D01*
X12074825Y-11723150D02*
X12093872Y-11732674D01*
X12170063Y-11932674D02*
X12179587Y-11923150D01*
X12179587Y-11923150D02*
X12198634Y-11894579D01*
X12198634Y-11894579D02*
X12208158Y-11875531D01*
X12208158Y-11875531D02*
X12217682Y-11846960D01*
X12217682Y-11846960D02*
X12227206Y-11799341D01*
X12227206Y-11799341D02*
X12227206Y-11761246D01*
X12227206Y-11761246D02*
X12217682Y-11713627D01*
X12217682Y-11713627D02*
X12208158Y-11685055D01*
X12208158Y-11685055D02*
X12198634Y-11666008D01*
X12198634Y-11666008D02*
X12179587Y-11637436D01*
X12179587Y-11637436D02*
X12170063Y-11627912D01*
D10*
X7295000Y-11979000D02*
X7395000Y-12079000D01*
X7395000Y-11979000D02*
X7295000Y-12079000D01*
X7345000Y-11979000D02*
X7345000Y-12079000D01*
X7295000Y-12029000D02*
X7395000Y-12029000D01*
D11*
X7760539Y-12120484D02*
X7646253Y-12120484D01*
X7703396Y-12120484D02*
X7703396Y-11920484D01*
X7703396Y-11920484D02*
X7684348Y-11949055D01*
X7684348Y-11949055D02*
X7665301Y-11968103D01*
X7665301Y-11968103D02*
X7646253Y-11977627D01*
X7846253Y-12101436D02*
X7855777Y-12110960D01*
X7855777Y-12110960D02*
X7846253Y-12120484D01*
X7846253Y-12120484D02*
X7836729Y-12110960D01*
X7836729Y-12110960D02*
X7846253Y-12101436D01*
X7846253Y-12101436D02*
X7846253Y-12120484D01*
X7979586Y-11920484D02*
X7998634Y-11920484D01*
X7998634Y-11920484D02*
X8017682Y-11930008D01*
X8017682Y-11930008D02*
X8027205Y-11939531D01*
X8027205Y-11939531D02*
X8036729Y-11958579D01*
X8036729Y-11958579D02*
X8046253Y-11996674D01*
X8046253Y-11996674D02*
X8046253Y-12044293D01*
X8046253Y-12044293D02*
X8036729Y-12082388D01*
X8036729Y-12082388D02*
X8027205Y-12101436D01*
X8027205Y-12101436D02*
X8017682Y-12110960D01*
X8017682Y-12110960D02*
X7998634Y-12120484D01*
X7998634Y-12120484D02*
X7979586Y-12120484D01*
X7979586Y-12120484D02*
X7960539Y-12110960D01*
X7960539Y-12110960D02*
X7951015Y-12101436D01*
X7951015Y-12101436D02*
X7941491Y-12082388D01*
X7941491Y-12082388D02*
X7931967Y-12044293D01*
X7931967Y-12044293D02*
X7931967Y-11996674D01*
X7931967Y-11996674D02*
X7941491Y-11958579D01*
X7941491Y-11958579D02*
X7951015Y-11939531D01*
X7951015Y-11939531D02*
X7960539Y-11930008D01*
X7960539Y-11930008D02*
X7979586Y-11920484D01*
X8170062Y-11920484D02*
X8189110Y-11920484D01*
X8189110Y-11920484D02*
X8208158Y-11930008D01*
X8208158Y-11930008D02*
X8217682Y-11939531D01*
X8217682Y-11939531D02*
X8227205Y-11958579D01*
X8227205Y-11958579D02*
X8236729Y-11996674D01*
X8236729Y-11996674D02*
X8236729Y-12044293D01*
X8236729Y-12044293D02*
X8227205Y-12082388D01*
X8227205Y-12082388D02*
X8217682Y-12101436D01*
X8217682Y-12101436D02*
X8208158Y-12110960D01*
X8208158Y-12110960D02*
X8189110Y-12120484D01*
X8189110Y-12120484D02*
X8170062Y-12120484D01*
X8170062Y-12120484D02*
X8151015Y-12110960D01*
X8151015Y-12110960D02*
X8141491Y-12101436D01*
X8141491Y-12101436D02*
X8131967Y-12082388D01*
X8131967Y-12082388D02*
X8122443Y-12044293D01*
X8122443Y-12044293D02*
X8122443Y-11996674D01*
X8122443Y-11996674D02*
X8131967Y-11958579D01*
X8131967Y-11958579D02*
X8141491Y-11939531D01*
X8141491Y-11939531D02*
X8151015Y-11930008D01*
X8151015Y-11930008D02*
X8170062Y-11920484D01*
X8360539Y-11920484D02*
X8379586Y-11920484D01*
X8379586Y-11920484D02*
X8398634Y-11930008D01*
X8398634Y-11930008D02*
X8408158Y-11939531D01*
X8408158Y-11939531D02*
X8417682Y-11958579D01*
X8417682Y-11958579D02*
X8427205Y-11996674D01*
X8427205Y-11996674D02*
X8427205Y-12044293D01*
X8427205Y-12044293D02*
X8417682Y-12082388D01*
X8417682Y-12082388D02*
X8408158Y-12101436D01*
X8408158Y-12101436D02*
X8398634Y-12110960D01*
X8398634Y-12110960D02*
X8379586Y-12120484D01*
X8379586Y-12120484D02*
X8360539Y-12120484D01*
X8360539Y-12120484D02*
X8341491Y-12110960D01*
X8341491Y-12110960D02*
X8331967Y-12101436D01*
X8331967Y-12101436D02*
X8322443Y-12082388D01*
X8322443Y-12082388D02*
X8312920Y-12044293D01*
X8312920Y-12044293D02*
X8312920Y-11996674D01*
X8312920Y-11996674D02*
X8322443Y-11958579D01*
X8322443Y-11958579D02*
X8331967Y-11939531D01*
X8331967Y-11939531D02*
X8341491Y-11930008D01*
X8341491Y-11930008D02*
X8360539Y-11920484D01*
X8512920Y-12120484D02*
X8512920Y-11987150D01*
X8512920Y-12006198D02*
X8522444Y-11996674D01*
X8522444Y-11996674D02*
X8541491Y-11987150D01*
X8541491Y-11987150D02*
X8570063Y-11987150D01*
X8570063Y-11987150D02*
X8589110Y-11996674D01*
X8589110Y-11996674D02*
X8598634Y-12015722D01*
X8598634Y-12015722D02*
X8598634Y-12120484D01*
X8598634Y-12015722D02*
X8608158Y-11996674D01*
X8608158Y-11996674D02*
X8627205Y-11987150D01*
X8627205Y-11987150D02*
X8655777Y-11987150D01*
X8655777Y-11987150D02*
X8674825Y-11996674D01*
X8674825Y-11996674D02*
X8684348Y-12015722D01*
X8684348Y-12015722D02*
X8684348Y-12120484D01*
X8779586Y-12120484D02*
X8779586Y-11987150D01*
X8779586Y-12006198D02*
X8789110Y-11996674D01*
X8789110Y-11996674D02*
X8808158Y-11987150D01*
X8808158Y-11987150D02*
X8836729Y-11987150D01*
X8836729Y-11987150D02*
X8855777Y-11996674D01*
X8855777Y-11996674D02*
X8865301Y-12015722D01*
X8865301Y-12015722D02*
X8865301Y-12120484D01*
X8865301Y-12015722D02*
X8874825Y-11996674D01*
X8874825Y-11996674D02*
X8893872Y-11987150D01*
X8893872Y-11987150D02*
X8922444Y-11987150D01*
X8922444Y-11987150D02*
X8941491Y-11996674D01*
X8941491Y-11996674D02*
X8951015Y-12015722D01*
X8951015Y-12015722D02*
X8951015Y-12120484D01*
X9341491Y-11910960D02*
X9170063Y-12168103D01*
X9598634Y-11920484D02*
X9617682Y-11920484D01*
X9617682Y-11920484D02*
X9636729Y-11930008D01*
X9636729Y-11930008D02*
X9646253Y-11939531D01*
X9646253Y-11939531D02*
X9655777Y-11958579D01*
X9655777Y-11958579D02*
X9665301Y-11996674D01*
X9665301Y-11996674D02*
X9665301Y-12044293D01*
X9665301Y-12044293D02*
X9655777Y-12082388D01*
X9655777Y-12082388D02*
X9646253Y-12101436D01*
X9646253Y-12101436D02*
X9636729Y-12110960D01*
X9636729Y-12110960D02*
X9617682Y-12120484D01*
X9617682Y-12120484D02*
X9598634Y-12120484D01*
X9598634Y-12120484D02*
X9579587Y-12110960D01*
X9579587Y-12110960D02*
X9570063Y-12101436D01*
X9570063Y-12101436D02*
X9560539Y-12082388D01*
X9560539Y-12082388D02*
X9551015Y-12044293D01*
X9551015Y-12044293D02*
X9551015Y-11996674D01*
X9551015Y-11996674D02*
X9560539Y-11958579D01*
X9560539Y-11958579D02*
X9570063Y-11939531D01*
X9570063Y-11939531D02*
X9579587Y-11930008D01*
X9579587Y-11930008D02*
X9598634Y-11920484D01*
X9751015Y-12101436D02*
X9760539Y-12110960D01*
X9760539Y-12110960D02*
X9751015Y-12120484D01*
X9751015Y-12120484D02*
X9741491Y-12110960D01*
X9741491Y-12110960D02*
X9751015Y-12101436D01*
X9751015Y-12101436D02*
X9751015Y-12120484D01*
X9884348Y-11920484D02*
X9903396Y-11920484D01*
X9903396Y-11920484D02*
X9922444Y-11930008D01*
X9922444Y-11930008D02*
X9931968Y-11939531D01*
X9931968Y-11939531D02*
X9941491Y-11958579D01*
X9941491Y-11958579D02*
X9951015Y-11996674D01*
X9951015Y-11996674D02*
X9951015Y-12044293D01*
X9951015Y-12044293D02*
X9941491Y-12082388D01*
X9941491Y-12082388D02*
X9931968Y-12101436D01*
X9931968Y-12101436D02*
X9922444Y-12110960D01*
X9922444Y-12110960D02*
X9903396Y-12120484D01*
X9903396Y-12120484D02*
X9884348Y-12120484D01*
X9884348Y-12120484D02*
X9865301Y-12110960D01*
X9865301Y-12110960D02*
X9855777Y-12101436D01*
X9855777Y-12101436D02*
X9846253Y-12082388D01*
X9846253Y-12082388D02*
X9836729Y-12044293D01*
X9836729Y-12044293D02*
X9836729Y-11996674D01*
X9836729Y-11996674D02*
X9846253Y-11958579D01*
X9846253Y-11958579D02*
X9855777Y-11939531D01*
X9855777Y-11939531D02*
X9865301Y-11930008D01*
X9865301Y-11930008D02*
X9884348Y-11920484D01*
X10017682Y-11920484D02*
X10141491Y-11920484D01*
X10141491Y-11920484D02*
X10074825Y-11996674D01*
X10074825Y-11996674D02*
X10103396Y-11996674D01*
X10103396Y-11996674D02*
X10122444Y-12006198D01*
X10122444Y-12006198D02*
X10131968Y-12015722D01*
X10131968Y-12015722D02*
X10141491Y-12034769D01*
X10141491Y-12034769D02*
X10141491Y-12082388D01*
X10141491Y-12082388D02*
X10131968Y-12101436D01*
X10131968Y-12101436D02*
X10122444Y-12110960D01*
X10122444Y-12110960D02*
X10103396Y-12120484D01*
X10103396Y-12120484D02*
X10046253Y-12120484D01*
X10046253Y-12120484D02*
X10027206Y-12110960D01*
X10027206Y-12110960D02*
X10017682Y-12101436D01*
X10236729Y-12120484D02*
X10274825Y-12120484D01*
X10274825Y-12120484D02*
X10293872Y-12110960D01*
X10293872Y-12110960D02*
X10303396Y-12101436D01*
X10303396Y-12101436D02*
X10322444Y-12072865D01*
X10322444Y-12072865D02*
X10331968Y-12034769D01*
X10331968Y-12034769D02*
X10331968Y-11958579D01*
X10331968Y-11958579D02*
X10322444Y-11939531D01*
X10322444Y-11939531D02*
X10312920Y-11930008D01*
X10312920Y-11930008D02*
X10293872Y-11920484D01*
X10293872Y-11920484D02*
X10255777Y-11920484D01*
X10255777Y-11920484D02*
X10236729Y-11930008D01*
X10236729Y-11930008D02*
X10227206Y-11939531D01*
X10227206Y-11939531D02*
X10217682Y-11958579D01*
X10217682Y-11958579D02*
X10217682Y-12006198D01*
X10217682Y-12006198D02*
X10227206Y-12025246D01*
X10227206Y-12025246D02*
X10236729Y-12034769D01*
X10236729Y-12034769D02*
X10255777Y-12044293D01*
X10255777Y-12044293D02*
X10293872Y-12044293D01*
X10293872Y-12044293D02*
X10312920Y-12034769D01*
X10312920Y-12034769D02*
X10322444Y-12025246D01*
X10322444Y-12025246D02*
X10331968Y-12006198D01*
X10503396Y-11987150D02*
X10503396Y-12120484D01*
X10455777Y-11910960D02*
X10408158Y-12053817D01*
X10408158Y-12053817D02*
X10531968Y-12053817D01*
X10598634Y-11920484D02*
X10598634Y-11958579D01*
X10674825Y-11920484D02*
X10674825Y-11958579D01*
X10970063Y-12196674D02*
X10960539Y-12187150D01*
X10960539Y-12187150D02*
X10941491Y-12158579D01*
X10941491Y-12158579D02*
X10931968Y-12139531D01*
X10931968Y-12139531D02*
X10922444Y-12110960D01*
X10922444Y-12110960D02*
X10912920Y-12063341D01*
X10912920Y-12063341D02*
X10912920Y-12025246D01*
X10912920Y-12025246D02*
X10922444Y-11977627D01*
X10922444Y-11977627D02*
X10931968Y-11949055D01*
X10931968Y-11949055D02*
X10941491Y-11930008D01*
X10941491Y-11930008D02*
X10960539Y-11901436D01*
X10960539Y-11901436D02*
X10970063Y-11891912D01*
X11151015Y-12120484D02*
X11036730Y-12120484D01*
X11093872Y-12120484D02*
X11093872Y-11920484D01*
X11093872Y-11920484D02*
X11074825Y-11949055D01*
X11074825Y-11949055D02*
X11055777Y-11968103D01*
X11055777Y-11968103D02*
X11036730Y-11977627D01*
X11227206Y-11939531D02*
X11236729Y-11930008D01*
X11236729Y-11930008D02*
X11255777Y-11920484D01*
X11255777Y-11920484D02*
X11303396Y-11920484D01*
X11303396Y-11920484D02*
X11322444Y-11930008D01*
X11322444Y-11930008D02*
X11331968Y-11939531D01*
X11331968Y-11939531D02*
X11341491Y-11958579D01*
X11341491Y-11958579D02*
X11341491Y-11977627D01*
X11341491Y-11977627D02*
X11331968Y-12006198D01*
X11331968Y-12006198D02*
X11217682Y-12120484D01*
X11217682Y-12120484D02*
X11341491Y-12120484D01*
X11579587Y-12120484D02*
X11579587Y-11920484D01*
X11665301Y-12120484D02*
X11665301Y-12015722D01*
X11665301Y-12015722D02*
X11655777Y-11996674D01*
X11655777Y-11996674D02*
X11636730Y-11987150D01*
X11636730Y-11987150D02*
X11608158Y-11987150D01*
X11608158Y-11987150D02*
X11589110Y-11996674D01*
X11589110Y-11996674D02*
X11579587Y-12006198D01*
X11789110Y-12120484D02*
X11770063Y-12110960D01*
X11770063Y-12110960D02*
X11760539Y-12101436D01*
X11760539Y-12101436D02*
X11751015Y-12082388D01*
X11751015Y-12082388D02*
X11751015Y-12025246D01*
X11751015Y-12025246D02*
X11760539Y-12006198D01*
X11760539Y-12006198D02*
X11770063Y-11996674D01*
X11770063Y-11996674D02*
X11789110Y-11987150D01*
X11789110Y-11987150D02*
X11817682Y-11987150D01*
X11817682Y-11987150D02*
X11836730Y-11996674D01*
X11836730Y-11996674D02*
X11846253Y-12006198D01*
X11846253Y-12006198D02*
X11855777Y-12025246D01*
X11855777Y-12025246D02*
X11855777Y-12082388D01*
X11855777Y-12082388D02*
X11846253Y-12101436D01*
X11846253Y-12101436D02*
X11836730Y-12110960D01*
X11836730Y-12110960D02*
X11817682Y-12120484D01*
X11817682Y-12120484D02*
X11789110Y-12120484D01*
X11970063Y-12120484D02*
X11951015Y-12110960D01*
X11951015Y-12110960D02*
X11941491Y-12091912D01*
X11941491Y-12091912D02*
X11941491Y-11920484D01*
X12122444Y-12110960D02*
X12103396Y-12120484D01*
X12103396Y-12120484D02*
X12065301Y-12120484D01*
X12065301Y-12120484D02*
X12046253Y-12110960D01*
X12046253Y-12110960D02*
X12036730Y-12091912D01*
X12036730Y-12091912D02*
X12036730Y-12015722D01*
X12036730Y-12015722D02*
X12046253Y-11996674D01*
X12046253Y-11996674D02*
X12065301Y-11987150D01*
X12065301Y-11987150D02*
X12103396Y-11987150D01*
X12103396Y-11987150D02*
X12122444Y-11996674D01*
X12122444Y-11996674D02*
X12131968Y-12015722D01*
X12131968Y-12015722D02*
X12131968Y-12034769D01*
X12131968Y-12034769D02*
X12036730Y-12053817D01*
X12208158Y-12110960D02*
X12227206Y-12120484D01*
X12227206Y-12120484D02*
X12265301Y-12120484D01*
X12265301Y-12120484D02*
X12284349Y-12110960D01*
X12284349Y-12110960D02*
X12293872Y-12091912D01*
X12293872Y-12091912D02*
X12293872Y-12082388D01*
X12293872Y-12082388D02*
X12284349Y-12063341D01*
X12284349Y-12063341D02*
X12265301Y-12053817D01*
X12265301Y-12053817D02*
X12236730Y-12053817D01*
X12236730Y-12053817D02*
X12217682Y-12044293D01*
X12217682Y-12044293D02*
X12208158Y-12025246D01*
X12208158Y-12025246D02*
X12208158Y-12015722D01*
X12208158Y-12015722D02*
X12217682Y-11996674D01*
X12217682Y-11996674D02*
X12236730Y-11987150D01*
X12236730Y-11987150D02*
X12265301Y-11987150D01*
X12265301Y-11987150D02*
X12284349Y-11996674D01*
X12360539Y-12196674D02*
X12370063Y-12187150D01*
X12370063Y-12187150D02*
X12389111Y-12158579D01*
X12389111Y-12158579D02*
X12398634Y-12139531D01*
X12398634Y-12139531D02*
X12408158Y-12110960D01*
X12408158Y-12110960D02*
X12417682Y-12063341D01*
X12417682Y-12063341D02*
X12417682Y-12025246D01*
X12417682Y-12025246D02*
X12408158Y-11977627D01*
X12408158Y-11977627D02*
X12398634Y-11949055D01*
X12398634Y-11949055D02*
X12389111Y-11930008D01*
X12389111Y-11930008D02*
X12370063Y-11901436D01*
X12370063Y-11901436D02*
X12360539Y-11891912D01*
D12*
X7275000Y-12233000D02*
X7395000Y-12353000D01*
X7395000Y-12233000D02*
X7275000Y-12353000D01*
X7377427Y-12335427D02*
X7377427Y-12250573D01*
X7292573Y-12250573D01*
X7292573Y-12335427D01*
X7377427Y-12335427D01*
D11*
X7760539Y-12384484D02*
X7646253Y-12384484D01*
X7703396Y-12384484D02*
X7703396Y-12184484D01*
X7703396Y-12184484D02*
X7684348Y-12213055D01*
X7684348Y-12213055D02*
X7665301Y-12232103D01*
X7665301Y-12232103D02*
X7646253Y-12241627D01*
X7846253Y-12365436D02*
X7855777Y-12374960D01*
X7855777Y-12374960D02*
X7846253Y-12384484D01*
X7846253Y-12384484D02*
X7836729Y-12374960D01*
X7836729Y-12374960D02*
X7846253Y-12365436D01*
X7846253Y-12365436D02*
X7846253Y-12384484D01*
X7931967Y-12203531D02*
X7941491Y-12194008D01*
X7941491Y-12194008D02*
X7960539Y-12184484D01*
X7960539Y-12184484D02*
X8008158Y-12184484D01*
X8008158Y-12184484D02*
X8027205Y-12194008D01*
X8027205Y-12194008D02*
X8036729Y-12203531D01*
X8036729Y-12203531D02*
X8046253Y-12222579D01*
X8046253Y-12222579D02*
X8046253Y-12241627D01*
X8046253Y-12241627D02*
X8036729Y-12270198D01*
X8036729Y-12270198D02*
X7922443Y-12384484D01*
X7922443Y-12384484D02*
X8046253Y-12384484D01*
X8170062Y-12184484D02*
X8189110Y-12184484D01*
X8189110Y-12184484D02*
X8208158Y-12194008D01*
X8208158Y-12194008D02*
X8217682Y-12203531D01*
X8217682Y-12203531D02*
X8227205Y-12222579D01*
X8227205Y-12222579D02*
X8236729Y-12260674D01*
X8236729Y-12260674D02*
X8236729Y-12308293D01*
X8236729Y-12308293D02*
X8227205Y-12346388D01*
X8227205Y-12346388D02*
X8217682Y-12365436D01*
X8217682Y-12365436D02*
X8208158Y-12374960D01*
X8208158Y-12374960D02*
X8189110Y-12384484D01*
X8189110Y-12384484D02*
X8170062Y-12384484D01*
X8170062Y-12384484D02*
X8151015Y-12374960D01*
X8151015Y-12374960D02*
X8141491Y-12365436D01*
X8141491Y-12365436D02*
X8131967Y-12346388D01*
X8131967Y-12346388D02*
X8122443Y-12308293D01*
X8122443Y-12308293D02*
X8122443Y-12260674D01*
X8122443Y-12260674D02*
X8131967Y-12222579D01*
X8131967Y-12222579D02*
X8141491Y-12203531D01*
X8141491Y-12203531D02*
X8151015Y-12194008D01*
X8151015Y-12194008D02*
X8170062Y-12184484D01*
X8360539Y-12184484D02*
X8379586Y-12184484D01*
X8379586Y-12184484D02*
X8398634Y-12194008D01*
X8398634Y-12194008D02*
X8408158Y-12203531D01*
X8408158Y-12203531D02*
X8417682Y-12222579D01*
X8417682Y-12222579D02*
X8427205Y-12260674D01*
X8427205Y-12260674D02*
X8427205Y-12308293D01*
X8427205Y-12308293D02*
X8417682Y-12346388D01*
X8417682Y-12346388D02*
X8408158Y-12365436D01*
X8408158Y-12365436D02*
X8398634Y-12374960D01*
X8398634Y-12374960D02*
X8379586Y-12384484D01*
X8379586Y-12384484D02*
X8360539Y-12384484D01*
X8360539Y-12384484D02*
X8341491Y-12374960D01*
X8341491Y-12374960D02*
X8331967Y-12365436D01*
X8331967Y-12365436D02*
X8322443Y-12346388D01*
X8322443Y-12346388D02*
X8312920Y-12308293D01*
X8312920Y-12308293D02*
X8312920Y-12260674D01*
X8312920Y-12260674D02*
X8322443Y-12222579D01*
X8322443Y-12222579D02*
X8331967Y-12203531D01*
X8331967Y-12203531D02*
X8341491Y-12194008D01*
X8341491Y-12194008D02*
X8360539Y-12184484D01*
X8512920Y-12384484D02*
X8512920Y-12251150D01*
X8512920Y-12270198D02*
X8522444Y-12260674D01*
X8522444Y-12260674D02*
X8541491Y-12251150D01*
X8541491Y-12251150D02*
X8570063Y-12251150D01*
X8570063Y-12251150D02*
X8589110Y-12260674D01*
X8589110Y-12260674D02*
X8598634Y-12279722D01*
X8598634Y-12279722D02*
X8598634Y-12384484D01*
X8598634Y-12279722D02*
X8608158Y-12260674D01*
X8608158Y-12260674D02*
X8627205Y-12251150D01*
X8627205Y-12251150D02*
X8655777Y-12251150D01*
X8655777Y-12251150D02*
X8674825Y-12260674D01*
X8674825Y-12260674D02*
X8684348Y-12279722D01*
X8684348Y-12279722D02*
X8684348Y-12384484D01*
X8779586Y-12384484D02*
X8779586Y-12251150D01*
X8779586Y-12270198D02*
X8789110Y-12260674D01*
X8789110Y-12260674D02*
X8808158Y-12251150D01*
X8808158Y-12251150D02*
X8836729Y-12251150D01*
X8836729Y-12251150D02*
X8855777Y-12260674D01*
X8855777Y-12260674D02*
X8865301Y-12279722D01*
X8865301Y-12279722D02*
X8865301Y-12384484D01*
X8865301Y-12279722D02*
X8874825Y-12260674D01*
X8874825Y-12260674D02*
X8893872Y-12251150D01*
X8893872Y-12251150D02*
X8922444Y-12251150D01*
X8922444Y-12251150D02*
X8941491Y-12260674D01*
X8941491Y-12260674D02*
X8951015Y-12279722D01*
X8951015Y-12279722D02*
X8951015Y-12384484D01*
X9341491Y-12174960D02*
X9170063Y-12432103D01*
X9598634Y-12184484D02*
X9617682Y-12184484D01*
X9617682Y-12184484D02*
X9636729Y-12194008D01*
X9636729Y-12194008D02*
X9646253Y-12203531D01*
X9646253Y-12203531D02*
X9655777Y-12222579D01*
X9655777Y-12222579D02*
X9665301Y-12260674D01*
X9665301Y-12260674D02*
X9665301Y-12308293D01*
X9665301Y-12308293D02*
X9655777Y-12346388D01*
X9655777Y-12346388D02*
X9646253Y-12365436D01*
X9646253Y-12365436D02*
X9636729Y-12374960D01*
X9636729Y-12374960D02*
X9617682Y-12384484D01*
X9617682Y-12384484D02*
X9598634Y-12384484D01*
X9598634Y-12384484D02*
X9579587Y-12374960D01*
X9579587Y-12374960D02*
X9570063Y-12365436D01*
X9570063Y-12365436D02*
X9560539Y-12346388D01*
X9560539Y-12346388D02*
X9551015Y-12308293D01*
X9551015Y-12308293D02*
X9551015Y-12260674D01*
X9551015Y-12260674D02*
X9560539Y-12222579D01*
X9560539Y-12222579D02*
X9570063Y-12203531D01*
X9570063Y-12203531D02*
X9579587Y-12194008D01*
X9579587Y-12194008D02*
X9598634Y-12184484D01*
X9751015Y-12365436D02*
X9760539Y-12374960D01*
X9760539Y-12374960D02*
X9751015Y-12384484D01*
X9751015Y-12384484D02*
X9741491Y-12374960D01*
X9741491Y-12374960D02*
X9751015Y-12365436D01*
X9751015Y-12365436D02*
X9751015Y-12384484D01*
X9884348Y-12184484D02*
X9903396Y-12184484D01*
X9903396Y-12184484D02*
X9922444Y-12194008D01*
X9922444Y-12194008D02*
X9931968Y-12203531D01*
X9931968Y-12203531D02*
X9941491Y-12222579D01*
X9941491Y-12222579D02*
X9951015Y-12260674D01*
X9951015Y-12260674D02*
X9951015Y-12308293D01*
X9951015Y-12308293D02*
X9941491Y-12346388D01*
X9941491Y-12346388D02*
X9931968Y-12365436D01*
X9931968Y-12365436D02*
X9922444Y-12374960D01*
X9922444Y-12374960D02*
X9903396Y-12384484D01*
X9903396Y-12384484D02*
X9884348Y-12384484D01*
X9884348Y-12384484D02*
X9865301Y-12374960D01*
X9865301Y-12374960D02*
X9855777Y-12365436D01*
X9855777Y-12365436D02*
X9846253Y-12346388D01*
X9846253Y-12346388D02*
X9836729Y-12308293D01*
X9836729Y-12308293D02*
X9836729Y-12260674D01*
X9836729Y-12260674D02*
X9846253Y-12222579D01*
X9846253Y-12222579D02*
X9855777Y-12203531D01*
X9855777Y-12203531D02*
X9865301Y-12194008D01*
X9865301Y-12194008D02*
X9884348Y-12184484D01*
X10122444Y-12251150D02*
X10122444Y-12384484D01*
X10074825Y-12174960D02*
X10027206Y-12317817D01*
X10027206Y-12317817D02*
X10151015Y-12317817D01*
X10208158Y-12184484D02*
X10341491Y-12184484D01*
X10341491Y-12184484D02*
X10255777Y-12384484D01*
X10408158Y-12203531D02*
X10417682Y-12194008D01*
X10417682Y-12194008D02*
X10436729Y-12184484D01*
X10436729Y-12184484D02*
X10484349Y-12184484D01*
X10484349Y-12184484D02*
X10503396Y-12194008D01*
X10503396Y-12194008D02*
X10512920Y-12203531D01*
X10512920Y-12203531D02*
X10522444Y-12222579D01*
X10522444Y-12222579D02*
X10522444Y-12241627D01*
X10522444Y-12241627D02*
X10512920Y-12270198D01*
X10512920Y-12270198D02*
X10398634Y-12384484D01*
X10398634Y-12384484D02*
X10522444Y-12384484D01*
X10598634Y-12184484D02*
X10598634Y-12222579D01*
X10674825Y-12184484D02*
X10674825Y-12222579D01*
X10970063Y-12460674D02*
X10960539Y-12451150D01*
X10960539Y-12451150D02*
X10941491Y-12422579D01*
X10941491Y-12422579D02*
X10931968Y-12403531D01*
X10931968Y-12403531D02*
X10922444Y-12374960D01*
X10922444Y-12374960D02*
X10912920Y-12327341D01*
X10912920Y-12327341D02*
X10912920Y-12289246D01*
X10912920Y-12289246D02*
X10922444Y-12241627D01*
X10922444Y-12241627D02*
X10931968Y-12213055D01*
X10931968Y-12213055D02*
X10941491Y-12194008D01*
X10941491Y-12194008D02*
X10960539Y-12165436D01*
X10960539Y-12165436D02*
X10970063Y-12155912D01*
X11036730Y-12203531D02*
X11046253Y-12194008D01*
X11046253Y-12194008D02*
X11065301Y-12184484D01*
X11065301Y-12184484D02*
X11112920Y-12184484D01*
X11112920Y-12184484D02*
X11131968Y-12194008D01*
X11131968Y-12194008D02*
X11141491Y-12203531D01*
X11141491Y-12203531D02*
X11151015Y-12222579D01*
X11151015Y-12222579D02*
X11151015Y-12241627D01*
X11151015Y-12241627D02*
X11141491Y-12270198D01*
X11141491Y-12270198D02*
X11027206Y-12384484D01*
X11027206Y-12384484D02*
X11151015Y-12384484D01*
X11389110Y-12384484D02*
X11389110Y-12184484D01*
X11474825Y-12384484D02*
X11474825Y-12279722D01*
X11474825Y-12279722D02*
X11465301Y-12260674D01*
X11465301Y-12260674D02*
X11446253Y-12251150D01*
X11446253Y-12251150D02*
X11417682Y-12251150D01*
X11417682Y-12251150D02*
X11398634Y-12260674D01*
X11398634Y-12260674D02*
X11389110Y-12270198D01*
X11598634Y-12384484D02*
X11579587Y-12374960D01*
X11579587Y-12374960D02*
X11570063Y-12365436D01*
X11570063Y-12365436D02*
X11560539Y-12346388D01*
X11560539Y-12346388D02*
X11560539Y-12289246D01*
X11560539Y-12289246D02*
X11570063Y-12270198D01*
X11570063Y-12270198D02*
X11579587Y-12260674D01*
X11579587Y-12260674D02*
X11598634Y-12251150D01*
X11598634Y-12251150D02*
X11627206Y-12251150D01*
X11627206Y-12251150D02*
X11646253Y-12260674D01*
X11646253Y-12260674D02*
X11655777Y-12270198D01*
X11655777Y-12270198D02*
X11665301Y-12289246D01*
X11665301Y-12289246D02*
X11665301Y-12346388D01*
X11665301Y-12346388D02*
X11655777Y-12365436D01*
X11655777Y-12365436D02*
X11646253Y-12374960D01*
X11646253Y-12374960D02*
X11627206Y-12384484D01*
X11627206Y-12384484D02*
X11598634Y-12384484D01*
X11779587Y-12384484D02*
X11760539Y-12374960D01*
X11760539Y-12374960D02*
X11751015Y-12355912D01*
X11751015Y-12355912D02*
X11751015Y-12184484D01*
X11931968Y-12374960D02*
X11912920Y-12384484D01*
X11912920Y-12384484D02*
X11874825Y-12384484D01*
X11874825Y-12384484D02*
X11855777Y-12374960D01*
X11855777Y-12374960D02*
X11846253Y-12355912D01*
X11846253Y-12355912D02*
X11846253Y-12279722D01*
X11846253Y-12279722D02*
X11855777Y-12260674D01*
X11855777Y-12260674D02*
X11874825Y-12251150D01*
X11874825Y-12251150D02*
X11912920Y-12251150D01*
X11912920Y-12251150D02*
X11931968Y-12260674D01*
X11931968Y-12260674D02*
X11941491Y-12279722D01*
X11941491Y-12279722D02*
X11941491Y-12298769D01*
X11941491Y-12298769D02*
X11846253Y-12317817D01*
X12017682Y-12374960D02*
X12036730Y-12384484D01*
X12036730Y-12384484D02*
X12074825Y-12384484D01*
X12074825Y-12384484D02*
X12093872Y-12374960D01*
X12093872Y-12374960D02*
X12103396Y-12355912D01*
X12103396Y-12355912D02*
X12103396Y-12346388D01*
X12103396Y-12346388D02*
X12093872Y-12327341D01*
X12093872Y-12327341D02*
X12074825Y-12317817D01*
X12074825Y-12317817D02*
X12046253Y-12317817D01*
X12046253Y-12317817D02*
X12027206Y-12308293D01*
X12027206Y-12308293D02*
X12017682Y-12289246D01*
X12017682Y-12289246D02*
X12017682Y-12279722D01*
X12017682Y-12279722D02*
X12027206Y-12260674D01*
X12027206Y-12260674D02*
X12046253Y-12251150D01*
X12046253Y-12251150D02*
X12074825Y-12251150D01*
X12074825Y-12251150D02*
X12093872Y-12260674D01*
X12170063Y-12460674D02*
X12179587Y-12451150D01*
X12179587Y-12451150D02*
X12198634Y-12422579D01*
X12198634Y-12422579D02*
X12208158Y-12403531D01*
X12208158Y-12403531D02*
X12217682Y-12374960D01*
X12217682Y-12374960D02*
X12227206Y-12327341D01*
X12227206Y-12327341D02*
X12227206Y-12289246D01*
X12227206Y-12289246D02*
X12217682Y-12241627D01*
X12217682Y-12241627D02*
X12208158Y-12213055D01*
X12208158Y-12213055D02*
X12198634Y-12194008D01*
X12198634Y-12194008D02*
X12179587Y-12165436D01*
X12179587Y-12165436D02*
X12170063Y-12155912D01*
D13*
X7265000Y-12492000D02*
X7395000Y-12622000D01*
X7395000Y-12492000D02*
X7265000Y-12622000D01*
X7330000Y-12622000D02*
X7395000Y-12557000D01*
X7330000Y-12492000D01*
X7265000Y-12557000D01*
X7330000Y-12622000D01*
D11*
X7760539Y-12648484D02*
X7646253Y-12648484D01*
X7703396Y-12648484D02*
X7703396Y-12448484D01*
X7703396Y-12448484D02*
X7684348Y-12477055D01*
X7684348Y-12477055D02*
X7665301Y-12496103D01*
X7665301Y-12496103D02*
X7646253Y-12505627D01*
X7846253Y-12629436D02*
X7855777Y-12638960D01*
X7855777Y-12638960D02*
X7846253Y-12648484D01*
X7846253Y-12648484D02*
X7836729Y-12638960D01*
X7836729Y-12638960D02*
X7846253Y-12629436D01*
X7846253Y-12629436D02*
X7846253Y-12648484D01*
X7922443Y-12448484D02*
X8046253Y-12448484D01*
X8046253Y-12448484D02*
X7979586Y-12524674D01*
X7979586Y-12524674D02*
X8008158Y-12524674D01*
X8008158Y-12524674D02*
X8027205Y-12534198D01*
X8027205Y-12534198D02*
X8036729Y-12543722D01*
X8036729Y-12543722D02*
X8046253Y-12562769D01*
X8046253Y-12562769D02*
X8046253Y-12610388D01*
X8046253Y-12610388D02*
X8036729Y-12629436D01*
X8036729Y-12629436D02*
X8027205Y-12638960D01*
X8027205Y-12638960D02*
X8008158Y-12648484D01*
X8008158Y-12648484D02*
X7951015Y-12648484D01*
X7951015Y-12648484D02*
X7931967Y-12638960D01*
X7931967Y-12638960D02*
X7922443Y-12629436D01*
X8170062Y-12448484D02*
X8189110Y-12448484D01*
X8189110Y-12448484D02*
X8208158Y-12458008D01*
X8208158Y-12458008D02*
X8217682Y-12467531D01*
X8217682Y-12467531D02*
X8227205Y-12486579D01*
X8227205Y-12486579D02*
X8236729Y-12524674D01*
X8236729Y-12524674D02*
X8236729Y-12572293D01*
X8236729Y-12572293D02*
X8227205Y-12610388D01*
X8227205Y-12610388D02*
X8217682Y-12629436D01*
X8217682Y-12629436D02*
X8208158Y-12638960D01*
X8208158Y-12638960D02*
X8189110Y-12648484D01*
X8189110Y-12648484D02*
X8170062Y-12648484D01*
X8170062Y-12648484D02*
X8151015Y-12638960D01*
X8151015Y-12638960D02*
X8141491Y-12629436D01*
X8141491Y-12629436D02*
X8131967Y-12610388D01*
X8131967Y-12610388D02*
X8122443Y-12572293D01*
X8122443Y-12572293D02*
X8122443Y-12524674D01*
X8122443Y-12524674D02*
X8131967Y-12486579D01*
X8131967Y-12486579D02*
X8141491Y-12467531D01*
X8141491Y-12467531D02*
X8151015Y-12458008D01*
X8151015Y-12458008D02*
X8170062Y-12448484D01*
X8360539Y-12448484D02*
X8379586Y-12448484D01*
X8379586Y-12448484D02*
X8398634Y-12458008D01*
X8398634Y-12458008D02*
X8408158Y-12467531D01*
X8408158Y-12467531D02*
X8417682Y-12486579D01*
X8417682Y-12486579D02*
X8427205Y-12524674D01*
X8427205Y-12524674D02*
X8427205Y-12572293D01*
X8427205Y-12572293D02*
X8417682Y-12610388D01*
X8417682Y-12610388D02*
X8408158Y-12629436D01*
X8408158Y-12629436D02*
X8398634Y-12638960D01*
X8398634Y-12638960D02*
X8379586Y-12648484D01*
X8379586Y-12648484D02*
X8360539Y-12648484D01*
X8360539Y-12648484D02*
X8341491Y-12638960D01*
X8341491Y-12638960D02*
X8331967Y-12629436D01*
X8331967Y-12629436D02*
X8322443Y-12610388D01*
X8322443Y-12610388D02*
X8312920Y-12572293D01*
X8312920Y-12572293D02*
X8312920Y-12524674D01*
X8312920Y-12524674D02*
X8322443Y-12486579D01*
X8322443Y-12486579D02*
X8331967Y-12467531D01*
X8331967Y-12467531D02*
X8341491Y-12458008D01*
X8341491Y-12458008D02*
X8360539Y-12448484D01*
X8512920Y-12648484D02*
X8512920Y-12515150D01*
X8512920Y-12534198D02*
X8522444Y-12524674D01*
X8522444Y-12524674D02*
X8541491Y-12515150D01*
X8541491Y-12515150D02*
X8570063Y-12515150D01*
X8570063Y-12515150D02*
X8589110Y-12524674D01*
X8589110Y-12524674D02*
X8598634Y-12543722D01*
X8598634Y-12543722D02*
X8598634Y-12648484D01*
X8598634Y-12543722D02*
X8608158Y-12524674D01*
X8608158Y-12524674D02*
X8627205Y-12515150D01*
X8627205Y-12515150D02*
X8655777Y-12515150D01*
X8655777Y-12515150D02*
X8674825Y-12524674D01*
X8674825Y-12524674D02*
X8684348Y-12543722D01*
X8684348Y-12543722D02*
X8684348Y-12648484D01*
X8779586Y-12648484D02*
X8779586Y-12515150D01*
X8779586Y-12534198D02*
X8789110Y-12524674D01*
X8789110Y-12524674D02*
X8808158Y-12515150D01*
X8808158Y-12515150D02*
X8836729Y-12515150D01*
X8836729Y-12515150D02*
X8855777Y-12524674D01*
X8855777Y-12524674D02*
X8865301Y-12543722D01*
X8865301Y-12543722D02*
X8865301Y-12648484D01*
X8865301Y-12543722D02*
X8874825Y-12524674D01*
X8874825Y-12524674D02*
X8893872Y-12515150D01*
X8893872Y-12515150D02*
X8922444Y-12515150D01*
X8922444Y-12515150D02*
X8941491Y-12524674D01*
X8941491Y-12524674D02*
X8951015Y-12543722D01*
X8951015Y-12543722D02*
X8951015Y-12648484D01*
X9341491Y-12438960D02*
X9170063Y-12696103D01*
X9598634Y-12448484D02*
X9617682Y-12448484D01*
X9617682Y-12448484D02*
X9636729Y-12458008D01*
X9636729Y-12458008D02*
X9646253Y-12467531D01*
X9646253Y-12467531D02*
X9655777Y-12486579D01*
X9655777Y-12486579D02*
X9665301Y-12524674D01*
X9665301Y-12524674D02*
X9665301Y-12572293D01*
X9665301Y-12572293D02*
X9655777Y-12610388D01*
X9655777Y-12610388D02*
X9646253Y-12629436D01*
X9646253Y-12629436D02*
X9636729Y-12638960D01*
X9636729Y-12638960D02*
X9617682Y-12648484D01*
X9617682Y-12648484D02*
X9598634Y-12648484D01*
X9598634Y-12648484D02*
X9579587Y-12638960D01*
X9579587Y-12638960D02*
X9570063Y-12629436D01*
X9570063Y-12629436D02*
X9560539Y-12610388D01*
X9560539Y-12610388D02*
X9551015Y-12572293D01*
X9551015Y-12572293D02*
X9551015Y-12524674D01*
X9551015Y-12524674D02*
X9560539Y-12486579D01*
X9560539Y-12486579D02*
X9570063Y-12467531D01*
X9570063Y-12467531D02*
X9579587Y-12458008D01*
X9579587Y-12458008D02*
X9598634Y-12448484D01*
X9751015Y-12629436D02*
X9760539Y-12638960D01*
X9760539Y-12638960D02*
X9751015Y-12648484D01*
X9751015Y-12648484D02*
X9741491Y-12638960D01*
X9741491Y-12638960D02*
X9751015Y-12629436D01*
X9751015Y-12629436D02*
X9751015Y-12648484D01*
X9884348Y-12448484D02*
X9903396Y-12448484D01*
X9903396Y-12448484D02*
X9922444Y-12458008D01*
X9922444Y-12458008D02*
X9931968Y-12467531D01*
X9931968Y-12467531D02*
X9941491Y-12486579D01*
X9941491Y-12486579D02*
X9951015Y-12524674D01*
X9951015Y-12524674D02*
X9951015Y-12572293D01*
X9951015Y-12572293D02*
X9941491Y-12610388D01*
X9941491Y-12610388D02*
X9931968Y-12629436D01*
X9931968Y-12629436D02*
X9922444Y-12638960D01*
X9922444Y-12638960D02*
X9903396Y-12648484D01*
X9903396Y-12648484D02*
X9884348Y-12648484D01*
X9884348Y-12648484D02*
X9865301Y-12638960D01*
X9865301Y-12638960D02*
X9855777Y-12629436D01*
X9855777Y-12629436D02*
X9846253Y-12610388D01*
X9846253Y-12610388D02*
X9836729Y-12572293D01*
X9836729Y-12572293D02*
X9836729Y-12524674D01*
X9836729Y-12524674D02*
X9846253Y-12486579D01*
X9846253Y-12486579D02*
X9855777Y-12467531D01*
X9855777Y-12467531D02*
X9865301Y-12458008D01*
X9865301Y-12458008D02*
X9884348Y-12448484D01*
X10131968Y-12448484D02*
X10036729Y-12448484D01*
X10036729Y-12448484D02*
X10027206Y-12543722D01*
X10027206Y-12543722D02*
X10036729Y-12534198D01*
X10036729Y-12534198D02*
X10055777Y-12524674D01*
X10055777Y-12524674D02*
X10103396Y-12524674D01*
X10103396Y-12524674D02*
X10122444Y-12534198D01*
X10122444Y-12534198D02*
X10131968Y-12543722D01*
X10131968Y-12543722D02*
X10141491Y-12562769D01*
X10141491Y-12562769D02*
X10141491Y-12610388D01*
X10141491Y-12610388D02*
X10131968Y-12629436D01*
X10131968Y-12629436D02*
X10122444Y-12638960D01*
X10122444Y-12638960D02*
X10103396Y-12648484D01*
X10103396Y-12648484D02*
X10055777Y-12648484D01*
X10055777Y-12648484D02*
X10036729Y-12638960D01*
X10036729Y-12638960D02*
X10027206Y-12629436D01*
X10331968Y-12648484D02*
X10217682Y-12648484D01*
X10274825Y-12648484D02*
X10274825Y-12448484D01*
X10274825Y-12448484D02*
X10255777Y-12477055D01*
X10255777Y-12477055D02*
X10236729Y-12496103D01*
X10236729Y-12496103D02*
X10217682Y-12505627D01*
X10408158Y-12467531D02*
X10417682Y-12458008D01*
X10417682Y-12458008D02*
X10436729Y-12448484D01*
X10436729Y-12448484D02*
X10484349Y-12448484D01*
X10484349Y-12448484D02*
X10503396Y-12458008D01*
X10503396Y-12458008D02*
X10512920Y-12467531D01*
X10512920Y-12467531D02*
X10522444Y-12486579D01*
X10522444Y-12486579D02*
X10522444Y-12505627D01*
X10522444Y-12505627D02*
X10512920Y-12534198D01*
X10512920Y-12534198D02*
X10398634Y-12648484D01*
X10398634Y-12648484D02*
X10522444Y-12648484D01*
X10598634Y-12448484D02*
X10598634Y-12486579D01*
X10674825Y-12448484D02*
X10674825Y-12486579D01*
X10970063Y-12724674D02*
X10960539Y-12715150D01*
X10960539Y-12715150D02*
X10941491Y-12686579D01*
X10941491Y-12686579D02*
X10931968Y-12667531D01*
X10931968Y-12667531D02*
X10922444Y-12638960D01*
X10922444Y-12638960D02*
X10912920Y-12591341D01*
X10912920Y-12591341D02*
X10912920Y-12553246D01*
X10912920Y-12553246D02*
X10922444Y-12505627D01*
X10922444Y-12505627D02*
X10931968Y-12477055D01*
X10931968Y-12477055D02*
X10941491Y-12458008D01*
X10941491Y-12458008D02*
X10960539Y-12429436D01*
X10960539Y-12429436D02*
X10970063Y-12419912D01*
X11036730Y-12467531D02*
X11046253Y-12458008D01*
X11046253Y-12458008D02*
X11065301Y-12448484D01*
X11065301Y-12448484D02*
X11112920Y-12448484D01*
X11112920Y-12448484D02*
X11131968Y-12458008D01*
X11131968Y-12458008D02*
X11141491Y-12467531D01*
X11141491Y-12467531D02*
X11151015Y-12486579D01*
X11151015Y-12486579D02*
X11151015Y-12505627D01*
X11151015Y-12505627D02*
X11141491Y-12534198D01*
X11141491Y-12534198D02*
X11027206Y-12648484D01*
X11027206Y-12648484D02*
X11151015Y-12648484D01*
X11389110Y-12648484D02*
X11389110Y-12448484D01*
X11474825Y-12648484D02*
X11474825Y-12543722D01*
X11474825Y-12543722D02*
X11465301Y-12524674D01*
X11465301Y-12524674D02*
X11446253Y-12515150D01*
X11446253Y-12515150D02*
X11417682Y-12515150D01*
X11417682Y-12515150D02*
X11398634Y-12524674D01*
X11398634Y-12524674D02*
X11389110Y-12534198D01*
X11598634Y-12648484D02*
X11579587Y-12638960D01*
X11579587Y-12638960D02*
X11570063Y-12629436D01*
X11570063Y-12629436D02*
X11560539Y-12610388D01*
X11560539Y-12610388D02*
X11560539Y-12553246D01*
X11560539Y-12553246D02*
X11570063Y-12534198D01*
X11570063Y-12534198D02*
X11579587Y-12524674D01*
X11579587Y-12524674D02*
X11598634Y-12515150D01*
X11598634Y-12515150D02*
X11627206Y-12515150D01*
X11627206Y-12515150D02*
X11646253Y-12524674D01*
X11646253Y-12524674D02*
X11655777Y-12534198D01*
X11655777Y-12534198D02*
X11665301Y-12553246D01*
X11665301Y-12553246D02*
X11665301Y-12610388D01*
X11665301Y-12610388D02*
X11655777Y-12629436D01*
X11655777Y-12629436D02*
X11646253Y-12638960D01*
X11646253Y-12638960D02*
X11627206Y-12648484D01*
X11627206Y-12648484D02*
X11598634Y-12648484D01*
X11779587Y-12648484D02*
X11760539Y-12638960D01*
X11760539Y-12638960D02*
X11751015Y-12619912D01*
X11751015Y-12619912D02*
X11751015Y-12448484D01*
X11931968Y-12638960D02*
X11912920Y-12648484D01*
X11912920Y-12648484D02*
X11874825Y-12648484D01*
X11874825Y-12648484D02*
X11855777Y-12638960D01*
X11855777Y-12638960D02*
X11846253Y-12619912D01*
X11846253Y-12619912D02*
X11846253Y-12543722D01*
X11846253Y-12543722D02*
X11855777Y-12524674D01*
X11855777Y-12524674D02*
X11874825Y-12515150D01*
X11874825Y-12515150D02*
X11912920Y-12515150D01*
X11912920Y-12515150D02*
X11931968Y-12524674D01*
X11931968Y-12524674D02*
X11941491Y-12543722D01*
X11941491Y-12543722D02*
X11941491Y-12562769D01*
X11941491Y-12562769D02*
X11846253Y-12581817D01*
X12017682Y-12638960D02*
X12036730Y-12648484D01*
X12036730Y-12648484D02*
X12074825Y-12648484D01*
X12074825Y-12648484D02*
X12093872Y-12638960D01*
X12093872Y-12638960D02*
X12103396Y-12619912D01*
X12103396Y-12619912D02*
X12103396Y-12610388D01*
X12103396Y-12610388D02*
X12093872Y-12591341D01*
X12093872Y-12591341D02*
X12074825Y-12581817D01*
X12074825Y-12581817D02*
X12046253Y-12581817D01*
X12046253Y-12581817D02*
X12027206Y-12572293D01*
X12027206Y-12572293D02*
X12017682Y-12553246D01*
X12017682Y-12553246D02*
X12017682Y-12543722D01*
X12017682Y-12543722D02*
X12027206Y-12524674D01*
X12027206Y-12524674D02*
X12046253Y-12515150D01*
X12046253Y-12515150D02*
X12074825Y-12515150D01*
X12074825Y-12515150D02*
X12093872Y-12524674D01*
X12170063Y-12724674D02*
X12179587Y-12715150D01*
X12179587Y-12715150D02*
X12198634Y-12686579D01*
X12198634Y-12686579D02*
X12208158Y-12667531D01*
X12208158Y-12667531D02*
X12217682Y-12638960D01*
X12217682Y-12638960D02*
X12227206Y-12591341D01*
X12227206Y-12591341D02*
X12227206Y-12553246D01*
X12227206Y-12553246D02*
X12217682Y-12505627D01*
X12217682Y-12505627D02*
X12208158Y-12477055D01*
X12208158Y-12477055D02*
X12198634Y-12458008D01*
X12198634Y-12458008D02*
X12179587Y-12429436D01*
X12179587Y-12429436D02*
X12170063Y-12419912D01*
D14*
X7300000Y-12726000D02*
X7300000Y-12916000D01*
X7205000Y-12821000D02*
X7395000Y-12821000D01*
X7395000Y-12821000D02*
G75*
G02*
X7205000Y-12821000I-95000J0D01*
G01*
X7205000Y-12821000D02*
G75*
G02*
X7395000Y-12821000I95000J0D01*
G01*
D11*
X7760539Y-12912484D02*
X7646253Y-12912484D01*
X7703396Y-12912484D02*
X7703396Y-12712484D01*
X7703396Y-12712484D02*
X7684348Y-12741055D01*
X7684348Y-12741055D02*
X7665301Y-12760103D01*
X7665301Y-12760103D02*
X7646253Y-12769627D01*
X7846253Y-12893436D02*
X7855777Y-12902960D01*
X7855777Y-12902960D02*
X7846253Y-12912484D01*
X7846253Y-12912484D02*
X7836729Y-12902960D01*
X7836729Y-12902960D02*
X7846253Y-12893436D01*
X7846253Y-12893436D02*
X7846253Y-12912484D01*
X7951015Y-12912484D02*
X7989110Y-12912484D01*
X7989110Y-12912484D02*
X8008158Y-12902960D01*
X8008158Y-12902960D02*
X8017682Y-12893436D01*
X8017682Y-12893436D02*
X8036729Y-12864865D01*
X8036729Y-12864865D02*
X8046253Y-12826769D01*
X8046253Y-12826769D02*
X8046253Y-12750579D01*
X8046253Y-12750579D02*
X8036729Y-12731531D01*
X8036729Y-12731531D02*
X8027205Y-12722008D01*
X8027205Y-12722008D02*
X8008158Y-12712484D01*
X8008158Y-12712484D02*
X7970062Y-12712484D01*
X7970062Y-12712484D02*
X7951015Y-12722008D01*
X7951015Y-12722008D02*
X7941491Y-12731531D01*
X7941491Y-12731531D02*
X7931967Y-12750579D01*
X7931967Y-12750579D02*
X7931967Y-12798198D01*
X7931967Y-12798198D02*
X7941491Y-12817246D01*
X7941491Y-12817246D02*
X7951015Y-12826769D01*
X7951015Y-12826769D02*
X7970062Y-12836293D01*
X7970062Y-12836293D02*
X8008158Y-12836293D01*
X8008158Y-12836293D02*
X8027205Y-12826769D01*
X8027205Y-12826769D02*
X8036729Y-12817246D01*
X8036729Y-12817246D02*
X8046253Y-12798198D01*
X8170062Y-12712484D02*
X8189110Y-12712484D01*
X8189110Y-12712484D02*
X8208158Y-12722008D01*
X8208158Y-12722008D02*
X8217682Y-12731531D01*
X8217682Y-12731531D02*
X8227205Y-12750579D01*
X8227205Y-12750579D02*
X8236729Y-12788674D01*
X8236729Y-12788674D02*
X8236729Y-12836293D01*
X8236729Y-12836293D02*
X8227205Y-12874388D01*
X8227205Y-12874388D02*
X8217682Y-12893436D01*
X8217682Y-12893436D02*
X8208158Y-12902960D01*
X8208158Y-12902960D02*
X8189110Y-12912484D01*
X8189110Y-12912484D02*
X8170062Y-12912484D01*
X8170062Y-12912484D02*
X8151015Y-12902960D01*
X8151015Y-12902960D02*
X8141491Y-12893436D01*
X8141491Y-12893436D02*
X8131967Y-12874388D01*
X8131967Y-12874388D02*
X8122443Y-12836293D01*
X8122443Y-12836293D02*
X8122443Y-12788674D01*
X8122443Y-12788674D02*
X8131967Y-12750579D01*
X8131967Y-12750579D02*
X8141491Y-12731531D01*
X8141491Y-12731531D02*
X8151015Y-12722008D01*
X8151015Y-12722008D02*
X8170062Y-12712484D01*
X8360539Y-12712484D02*
X8379586Y-12712484D01*
X8379586Y-12712484D02*
X8398634Y-12722008D01*
X8398634Y-12722008D02*
X8408158Y-12731531D01*
X8408158Y-12731531D02*
X8417682Y-12750579D01*
X8417682Y-12750579D02*
X8427205Y-12788674D01*
X8427205Y-12788674D02*
X8427205Y-12836293D01*
X8427205Y-12836293D02*
X8417682Y-12874388D01*
X8417682Y-12874388D02*
X8408158Y-12893436D01*
X8408158Y-12893436D02*
X8398634Y-12902960D01*
X8398634Y-12902960D02*
X8379586Y-12912484D01*
X8379586Y-12912484D02*
X8360539Y-12912484D01*
X8360539Y-12912484D02*
X8341491Y-12902960D01*
X8341491Y-12902960D02*
X8331967Y-12893436D01*
X8331967Y-12893436D02*
X8322443Y-12874388D01*
X8322443Y-12874388D02*
X8312920Y-12836293D01*
X8312920Y-12836293D02*
X8312920Y-12788674D01*
X8312920Y-12788674D02*
X8322443Y-12750579D01*
X8322443Y-12750579D02*
X8331967Y-12731531D01*
X8331967Y-12731531D02*
X8341491Y-12722008D01*
X8341491Y-12722008D02*
X8360539Y-12712484D01*
X8512920Y-12912484D02*
X8512920Y-12779150D01*
X8512920Y-12798198D02*
X8522444Y-12788674D01*
X8522444Y-12788674D02*
X8541491Y-12779150D01*
X8541491Y-12779150D02*
X8570063Y-12779150D01*
X8570063Y-12779150D02*
X8589110Y-12788674D01*
X8589110Y-12788674D02*
X8598634Y-12807722D01*
X8598634Y-12807722D02*
X8598634Y-12912484D01*
X8598634Y-12807722D02*
X8608158Y-12788674D01*
X8608158Y-12788674D02*
X8627205Y-12779150D01*
X8627205Y-12779150D02*
X8655777Y-12779150D01*
X8655777Y-12779150D02*
X8674825Y-12788674D01*
X8674825Y-12788674D02*
X8684348Y-12807722D01*
X8684348Y-12807722D02*
X8684348Y-12912484D01*
X8779586Y-12912484D02*
X8779586Y-12779150D01*
X8779586Y-12798198D02*
X8789110Y-12788674D01*
X8789110Y-12788674D02*
X8808158Y-12779150D01*
X8808158Y-12779150D02*
X8836729Y-12779150D01*
X8836729Y-12779150D02*
X8855777Y-12788674D01*
X8855777Y-12788674D02*
X8865301Y-12807722D01*
X8865301Y-12807722D02*
X8865301Y-12912484D01*
X8865301Y-12807722D02*
X8874825Y-12788674D01*
X8874825Y-12788674D02*
X8893872Y-12779150D01*
X8893872Y-12779150D02*
X8922444Y-12779150D01*
X8922444Y-12779150D02*
X8941491Y-12788674D01*
X8941491Y-12788674D02*
X8951015Y-12807722D01*
X8951015Y-12807722D02*
X8951015Y-12912484D01*
X9341491Y-12702960D02*
X9170063Y-12960103D01*
X9598634Y-12712484D02*
X9617682Y-12712484D01*
X9617682Y-12712484D02*
X9636729Y-12722008D01*
X9636729Y-12722008D02*
X9646253Y-12731531D01*
X9646253Y-12731531D02*
X9655777Y-12750579D01*
X9655777Y-12750579D02*
X9665301Y-12788674D01*
X9665301Y-12788674D02*
X9665301Y-12836293D01*
X9665301Y-12836293D02*
X9655777Y-12874388D01*
X9655777Y-12874388D02*
X9646253Y-12893436D01*
X9646253Y-12893436D02*
X9636729Y-12902960D01*
X9636729Y-12902960D02*
X9617682Y-12912484D01*
X9617682Y-12912484D02*
X9598634Y-12912484D01*
X9598634Y-12912484D02*
X9579587Y-12902960D01*
X9579587Y-12902960D02*
X9570063Y-12893436D01*
X9570063Y-12893436D02*
X9560539Y-12874388D01*
X9560539Y-12874388D02*
X9551015Y-12836293D01*
X9551015Y-12836293D02*
X9551015Y-12788674D01*
X9551015Y-12788674D02*
X9560539Y-12750579D01*
X9560539Y-12750579D02*
X9570063Y-12731531D01*
X9570063Y-12731531D02*
X9579587Y-12722008D01*
X9579587Y-12722008D02*
X9598634Y-12712484D01*
X9751015Y-12893436D02*
X9760539Y-12902960D01*
X9760539Y-12902960D02*
X9751015Y-12912484D01*
X9751015Y-12912484D02*
X9741491Y-12902960D01*
X9741491Y-12902960D02*
X9751015Y-12893436D01*
X9751015Y-12893436D02*
X9751015Y-12912484D01*
X9884348Y-12712484D02*
X9903396Y-12712484D01*
X9903396Y-12712484D02*
X9922444Y-12722008D01*
X9922444Y-12722008D02*
X9931968Y-12731531D01*
X9931968Y-12731531D02*
X9941491Y-12750579D01*
X9941491Y-12750579D02*
X9951015Y-12788674D01*
X9951015Y-12788674D02*
X9951015Y-12836293D01*
X9951015Y-12836293D02*
X9941491Y-12874388D01*
X9941491Y-12874388D02*
X9931968Y-12893436D01*
X9931968Y-12893436D02*
X9922444Y-12902960D01*
X9922444Y-12902960D02*
X9903396Y-12912484D01*
X9903396Y-12912484D02*
X9884348Y-12912484D01*
X9884348Y-12912484D02*
X9865301Y-12902960D01*
X9865301Y-12902960D02*
X9855777Y-12893436D01*
X9855777Y-12893436D02*
X9846253Y-12874388D01*
X9846253Y-12874388D02*
X9836729Y-12836293D01*
X9836729Y-12836293D02*
X9836729Y-12788674D01*
X9836729Y-12788674D02*
X9846253Y-12750579D01*
X9846253Y-12750579D02*
X9855777Y-12731531D01*
X9855777Y-12731531D02*
X9865301Y-12722008D01*
X9865301Y-12722008D02*
X9884348Y-12712484D01*
X10017682Y-12712484D02*
X10151015Y-12712484D01*
X10151015Y-12712484D02*
X10065301Y-12912484D01*
X10312920Y-12779150D02*
X10312920Y-12912484D01*
X10265301Y-12702960D02*
X10217682Y-12845817D01*
X10217682Y-12845817D02*
X10341491Y-12845817D01*
X10446253Y-12798198D02*
X10427206Y-12788674D01*
X10427206Y-12788674D02*
X10417682Y-12779150D01*
X10417682Y-12779150D02*
X10408158Y-12760103D01*
X10408158Y-12760103D02*
X10408158Y-12750579D01*
X10408158Y-12750579D02*
X10417682Y-12731531D01*
X10417682Y-12731531D02*
X10427206Y-12722008D01*
X10427206Y-12722008D02*
X10446253Y-12712484D01*
X10446253Y-12712484D02*
X10484349Y-12712484D01*
X10484349Y-12712484D02*
X10503396Y-12722008D01*
X10503396Y-12722008D02*
X10512920Y-12731531D01*
X10512920Y-12731531D02*
X10522444Y-12750579D01*
X10522444Y-12750579D02*
X10522444Y-12760103D01*
X10522444Y-12760103D02*
X10512920Y-12779150D01*
X10512920Y-12779150D02*
X10503396Y-12788674D01*
X10503396Y-12788674D02*
X10484349Y-12798198D01*
X10484349Y-12798198D02*
X10446253Y-12798198D01*
X10446253Y-12798198D02*
X10427206Y-12807722D01*
X10427206Y-12807722D02*
X10417682Y-12817246D01*
X10417682Y-12817246D02*
X10408158Y-12836293D01*
X10408158Y-12836293D02*
X10408158Y-12874388D01*
X10408158Y-12874388D02*
X10417682Y-12893436D01*
X10417682Y-12893436D02*
X10427206Y-12902960D01*
X10427206Y-12902960D02*
X10446253Y-12912484D01*
X10446253Y-12912484D02*
X10484349Y-12912484D01*
X10484349Y-12912484D02*
X10503396Y-12902960D01*
X10503396Y-12902960D02*
X10512920Y-12893436D01*
X10512920Y-12893436D02*
X10522444Y-12874388D01*
X10522444Y-12874388D02*
X10522444Y-12836293D01*
X10522444Y-12836293D02*
X10512920Y-12817246D01*
X10512920Y-12817246D02*
X10503396Y-12807722D01*
X10503396Y-12807722D02*
X10484349Y-12798198D01*
X10598634Y-12712484D02*
X10598634Y-12750579D01*
X10674825Y-12712484D02*
X10674825Y-12750579D01*
X10970063Y-12988674D02*
X10960539Y-12979150D01*
X10960539Y-12979150D02*
X10941491Y-12950579D01*
X10941491Y-12950579D02*
X10931968Y-12931531D01*
X10931968Y-12931531D02*
X10922444Y-12902960D01*
X10922444Y-12902960D02*
X10912920Y-12855341D01*
X10912920Y-12855341D02*
X10912920Y-12817246D01*
X10912920Y-12817246D02*
X10922444Y-12769627D01*
X10922444Y-12769627D02*
X10931968Y-12741055D01*
X10931968Y-12741055D02*
X10941491Y-12722008D01*
X10941491Y-12722008D02*
X10960539Y-12693436D01*
X10960539Y-12693436D02*
X10970063Y-12683912D01*
X11131968Y-12779150D02*
X11131968Y-12912484D01*
X11084349Y-12702960D02*
X11036730Y-12845817D01*
X11036730Y-12845817D02*
X11160539Y-12845817D01*
X11389110Y-12912484D02*
X11389110Y-12712484D01*
X11474825Y-12912484D02*
X11474825Y-12807722D01*
X11474825Y-12807722D02*
X11465301Y-12788674D01*
X11465301Y-12788674D02*
X11446253Y-12779150D01*
X11446253Y-12779150D02*
X11417682Y-12779150D01*
X11417682Y-12779150D02*
X11398634Y-12788674D01*
X11398634Y-12788674D02*
X11389110Y-12798198D01*
X11598634Y-12912484D02*
X11579587Y-12902960D01*
X11579587Y-12902960D02*
X11570063Y-12893436D01*
X11570063Y-12893436D02*
X11560539Y-12874388D01*
X11560539Y-12874388D02*
X11560539Y-12817246D01*
X11560539Y-12817246D02*
X11570063Y-12798198D01*
X11570063Y-12798198D02*
X11579587Y-12788674D01*
X11579587Y-12788674D02*
X11598634Y-12779150D01*
X11598634Y-12779150D02*
X11627206Y-12779150D01*
X11627206Y-12779150D02*
X11646253Y-12788674D01*
X11646253Y-12788674D02*
X11655777Y-12798198D01*
X11655777Y-12798198D02*
X11665301Y-12817246D01*
X11665301Y-12817246D02*
X11665301Y-12874388D01*
X11665301Y-12874388D02*
X11655777Y-12893436D01*
X11655777Y-12893436D02*
X11646253Y-12902960D01*
X11646253Y-12902960D02*
X11627206Y-12912484D01*
X11627206Y-12912484D02*
X11598634Y-12912484D01*
X11779587Y-12912484D02*
X11760539Y-12902960D01*
X11760539Y-12902960D02*
X11751015Y-12883912D01*
X11751015Y-12883912D02*
X11751015Y-12712484D01*
X11931968Y-12902960D02*
X11912920Y-12912484D01*
X11912920Y-12912484D02*
X11874825Y-12912484D01*
X11874825Y-12912484D02*
X11855777Y-12902960D01*
X11855777Y-12902960D02*
X11846253Y-12883912D01*
X11846253Y-12883912D02*
X11846253Y-12807722D01*
X11846253Y-12807722D02*
X11855777Y-12788674D01*
X11855777Y-12788674D02*
X11874825Y-12779150D01*
X11874825Y-12779150D02*
X11912920Y-12779150D01*
X11912920Y-12779150D02*
X11931968Y-12788674D01*
X11931968Y-12788674D02*
X11941491Y-12807722D01*
X11941491Y-12807722D02*
X11941491Y-12826769D01*
X11941491Y-12826769D02*
X11846253Y-12845817D01*
X12017682Y-12902960D02*
X12036730Y-12912484D01*
X12036730Y-12912484D02*
X12074825Y-12912484D01*
X12074825Y-12912484D02*
X12093872Y-12902960D01*
X12093872Y-12902960D02*
X12103396Y-12883912D01*
X12103396Y-12883912D02*
X12103396Y-12874388D01*
X12103396Y-12874388D02*
X12093872Y-12855341D01*
X12093872Y-12855341D02*
X12074825Y-12845817D01*
X12074825Y-12845817D02*
X12046253Y-12845817D01*
X12046253Y-12845817D02*
X12027206Y-12836293D01*
X12027206Y-12836293D02*
X12017682Y-12817246D01*
X12017682Y-12817246D02*
X12017682Y-12807722D01*
X12017682Y-12807722D02*
X12027206Y-12788674D01*
X12027206Y-12788674D02*
X12046253Y-12779150D01*
X12046253Y-12779150D02*
X12074825Y-12779150D01*
X12074825Y-12779150D02*
X12093872Y-12788674D01*
X12170063Y-12988674D02*
X12179587Y-12979150D01*
X12179587Y-12979150D02*
X12198634Y-12950579D01*
X12198634Y-12950579D02*
X12208158Y-12931531D01*
X12208158Y-12931531D02*
X12217682Y-12902960D01*
X12217682Y-12902960D02*
X12227206Y-12855341D01*
X12227206Y-12855341D02*
X12227206Y-12817246D01*
X12227206Y-12817246D02*
X12217682Y-12769627D01*
X12217682Y-12769627D02*
X12208158Y-12741055D01*
X12208158Y-12741055D02*
X12198634Y-12722008D01*
X12198634Y-12722008D02*
X12179587Y-12693436D01*
X12179587Y-12693436D02*
X12170063Y-12683912D01*
X7365711Y-13201711D02*
X7365711Y-13060289D01*
X7224289Y-13060289D01*
X7224289Y-13201711D01*
X7365711Y-13201711D01*
X7395000Y-13131000D02*
G75*
G02*
X7195000Y-13131000I-100000J0D01*
G01*
X7195000Y-13131000D02*
G75*
G02*
X7395000Y-13131000I100000J0D01*
G01*
X7636729Y-13022484D02*
X7760539Y-13022484D01*
X7760539Y-13022484D02*
X7693872Y-13098674D01*
X7693872Y-13098674D02*
X7722443Y-13098674D01*
X7722443Y-13098674D02*
X7741491Y-13108198D01*
X7741491Y-13108198D02*
X7751015Y-13117722D01*
X7751015Y-13117722D02*
X7760539Y-13136769D01*
X7760539Y-13136769D02*
X7760539Y-13184388D01*
X7760539Y-13184388D02*
X7751015Y-13203436D01*
X7751015Y-13203436D02*
X7741491Y-13212960D01*
X7741491Y-13212960D02*
X7722443Y-13222484D01*
X7722443Y-13222484D02*
X7665301Y-13222484D01*
X7665301Y-13222484D02*
X7646253Y-13212960D01*
X7646253Y-13212960D02*
X7636729Y-13203436D01*
X7846253Y-13203436D02*
X7855777Y-13212960D01*
X7855777Y-13212960D02*
X7846253Y-13222484D01*
X7846253Y-13222484D02*
X7836729Y-13212960D01*
X7836729Y-13212960D02*
X7846253Y-13203436D01*
X7846253Y-13203436D02*
X7846253Y-13222484D01*
X7931967Y-13041531D02*
X7941491Y-13032008D01*
X7941491Y-13032008D02*
X7960539Y-13022484D01*
X7960539Y-13022484D02*
X8008158Y-13022484D01*
X8008158Y-13022484D02*
X8027205Y-13032008D01*
X8027205Y-13032008D02*
X8036729Y-13041531D01*
X8036729Y-13041531D02*
X8046253Y-13060579D01*
X8046253Y-13060579D02*
X8046253Y-13079627D01*
X8046253Y-13079627D02*
X8036729Y-13108198D01*
X8036729Y-13108198D02*
X7922443Y-13222484D01*
X7922443Y-13222484D02*
X8046253Y-13222484D01*
X8170062Y-13022484D02*
X8189110Y-13022484D01*
X8189110Y-13022484D02*
X8208158Y-13032008D01*
X8208158Y-13032008D02*
X8217682Y-13041531D01*
X8217682Y-13041531D02*
X8227205Y-13060579D01*
X8227205Y-13060579D02*
X8236729Y-13098674D01*
X8236729Y-13098674D02*
X8236729Y-13146293D01*
X8236729Y-13146293D02*
X8227205Y-13184388D01*
X8227205Y-13184388D02*
X8217682Y-13203436D01*
X8217682Y-13203436D02*
X8208158Y-13212960D01*
X8208158Y-13212960D02*
X8189110Y-13222484D01*
X8189110Y-13222484D02*
X8170062Y-13222484D01*
X8170062Y-13222484D02*
X8151015Y-13212960D01*
X8151015Y-13212960D02*
X8141491Y-13203436D01*
X8141491Y-13203436D02*
X8131967Y-13184388D01*
X8131967Y-13184388D02*
X8122443Y-13146293D01*
X8122443Y-13146293D02*
X8122443Y-13098674D01*
X8122443Y-13098674D02*
X8131967Y-13060579D01*
X8131967Y-13060579D02*
X8141491Y-13041531D01*
X8141491Y-13041531D02*
X8151015Y-13032008D01*
X8151015Y-13032008D02*
X8170062Y-13022484D01*
X8360539Y-13022484D02*
X8379586Y-13022484D01*
X8379586Y-13022484D02*
X8398634Y-13032008D01*
X8398634Y-13032008D02*
X8408158Y-13041531D01*
X8408158Y-13041531D02*
X8417682Y-13060579D01*
X8417682Y-13060579D02*
X8427205Y-13098674D01*
X8427205Y-13098674D02*
X8427205Y-13146293D01*
X8427205Y-13146293D02*
X8417682Y-13184388D01*
X8417682Y-13184388D02*
X8408158Y-13203436D01*
X8408158Y-13203436D02*
X8398634Y-13212960D01*
X8398634Y-13212960D02*
X8379586Y-13222484D01*
X8379586Y-13222484D02*
X8360539Y-13222484D01*
X8360539Y-13222484D02*
X8341491Y-13212960D01*
X8341491Y-13212960D02*
X8331967Y-13203436D01*
X8331967Y-13203436D02*
X8322443Y-13184388D01*
X8322443Y-13184388D02*
X8312920Y-13146293D01*
X8312920Y-13146293D02*
X8312920Y-13098674D01*
X8312920Y-13098674D02*
X8322443Y-13060579D01*
X8322443Y-13060579D02*
X8331967Y-13041531D01*
X8331967Y-13041531D02*
X8341491Y-13032008D01*
X8341491Y-13032008D02*
X8360539Y-13022484D01*
X8512920Y-13222484D02*
X8512920Y-13089150D01*
X8512920Y-13108198D02*
X8522444Y-13098674D01*
X8522444Y-13098674D02*
X8541491Y-13089150D01*
X8541491Y-13089150D02*
X8570063Y-13089150D01*
X8570063Y-13089150D02*
X8589110Y-13098674D01*
X8589110Y-13098674D02*
X8598634Y-13117722D01*
X8598634Y-13117722D02*
X8598634Y-13222484D01*
X8598634Y-13117722D02*
X8608158Y-13098674D01*
X8608158Y-13098674D02*
X8627205Y-13089150D01*
X8627205Y-13089150D02*
X8655777Y-13089150D01*
X8655777Y-13089150D02*
X8674825Y-13098674D01*
X8674825Y-13098674D02*
X8684348Y-13117722D01*
X8684348Y-13117722D02*
X8684348Y-13222484D01*
X8779586Y-13222484D02*
X8779586Y-13089150D01*
X8779586Y-13108198D02*
X8789110Y-13098674D01*
X8789110Y-13098674D02*
X8808158Y-13089150D01*
X8808158Y-13089150D02*
X8836729Y-13089150D01*
X8836729Y-13089150D02*
X8855777Y-13098674D01*
X8855777Y-13098674D02*
X8865301Y-13117722D01*
X8865301Y-13117722D02*
X8865301Y-13222484D01*
X8865301Y-13117722D02*
X8874825Y-13098674D01*
X8874825Y-13098674D02*
X8893872Y-13089150D01*
X8893872Y-13089150D02*
X8922444Y-13089150D01*
X8922444Y-13089150D02*
X8941491Y-13098674D01*
X8941491Y-13098674D02*
X8951015Y-13117722D01*
X8951015Y-13117722D02*
X8951015Y-13222484D01*
X9341491Y-13012960D02*
X9170063Y-13270103D01*
X9598634Y-13022484D02*
X9617682Y-13022484D01*
X9617682Y-13022484D02*
X9636729Y-13032008D01*
X9636729Y-13032008D02*
X9646253Y-13041531D01*
X9646253Y-13041531D02*
X9655777Y-13060579D01*
X9655777Y-13060579D02*
X9665301Y-13098674D01*
X9665301Y-13098674D02*
X9665301Y-13146293D01*
X9665301Y-13146293D02*
X9655777Y-13184388D01*
X9655777Y-13184388D02*
X9646253Y-13203436D01*
X9646253Y-13203436D02*
X9636729Y-13212960D01*
X9636729Y-13212960D02*
X9617682Y-13222484D01*
X9617682Y-13222484D02*
X9598634Y-13222484D01*
X9598634Y-13222484D02*
X9579587Y-13212960D01*
X9579587Y-13212960D02*
X9570063Y-13203436D01*
X9570063Y-13203436D02*
X9560539Y-13184388D01*
X9560539Y-13184388D02*
X9551015Y-13146293D01*
X9551015Y-13146293D02*
X9551015Y-13098674D01*
X9551015Y-13098674D02*
X9560539Y-13060579D01*
X9560539Y-13060579D02*
X9570063Y-13041531D01*
X9570063Y-13041531D02*
X9579587Y-13032008D01*
X9579587Y-13032008D02*
X9598634Y-13022484D01*
X9751015Y-13203436D02*
X9760539Y-13212960D01*
X9760539Y-13212960D02*
X9751015Y-13222484D01*
X9751015Y-13222484D02*
X9741491Y-13212960D01*
X9741491Y-13212960D02*
X9751015Y-13203436D01*
X9751015Y-13203436D02*
X9751015Y-13222484D01*
X9951015Y-13222484D02*
X9836729Y-13222484D01*
X9893872Y-13222484D02*
X9893872Y-13022484D01*
X9893872Y-13022484D02*
X9874825Y-13051055D01*
X9874825Y-13051055D02*
X9855777Y-13070103D01*
X9855777Y-13070103D02*
X9836729Y-13079627D01*
X10027206Y-13041531D02*
X10036729Y-13032008D01*
X10036729Y-13032008D02*
X10055777Y-13022484D01*
X10055777Y-13022484D02*
X10103396Y-13022484D01*
X10103396Y-13022484D02*
X10122444Y-13032008D01*
X10122444Y-13032008D02*
X10131968Y-13041531D01*
X10131968Y-13041531D02*
X10141491Y-13060579D01*
X10141491Y-13060579D02*
X10141491Y-13079627D01*
X10141491Y-13079627D02*
X10131968Y-13108198D01*
X10131968Y-13108198D02*
X10017682Y-13222484D01*
X10017682Y-13222484D02*
X10141491Y-13222484D01*
X10312920Y-13022484D02*
X10274825Y-13022484D01*
X10274825Y-13022484D02*
X10255777Y-13032008D01*
X10255777Y-13032008D02*
X10246253Y-13041531D01*
X10246253Y-13041531D02*
X10227206Y-13070103D01*
X10227206Y-13070103D02*
X10217682Y-13108198D01*
X10217682Y-13108198D02*
X10217682Y-13184388D01*
X10217682Y-13184388D02*
X10227206Y-13203436D01*
X10227206Y-13203436D02*
X10236729Y-13212960D01*
X10236729Y-13212960D02*
X10255777Y-13222484D01*
X10255777Y-13222484D02*
X10293872Y-13222484D01*
X10293872Y-13222484D02*
X10312920Y-13212960D01*
X10312920Y-13212960D02*
X10322444Y-13203436D01*
X10322444Y-13203436D02*
X10331968Y-13184388D01*
X10331968Y-13184388D02*
X10331968Y-13136769D01*
X10331968Y-13136769D02*
X10322444Y-13117722D01*
X10322444Y-13117722D02*
X10312920Y-13108198D01*
X10312920Y-13108198D02*
X10293872Y-13098674D01*
X10293872Y-13098674D02*
X10255777Y-13098674D01*
X10255777Y-13098674D02*
X10236729Y-13108198D01*
X10236729Y-13108198D02*
X10227206Y-13117722D01*
X10227206Y-13117722D02*
X10217682Y-13136769D01*
X10455777Y-13022484D02*
X10474825Y-13022484D01*
X10474825Y-13022484D02*
X10493872Y-13032008D01*
X10493872Y-13032008D02*
X10503396Y-13041531D01*
X10503396Y-13041531D02*
X10512920Y-13060579D01*
X10512920Y-13060579D02*
X10522444Y-13098674D01*
X10522444Y-13098674D02*
X10522444Y-13146293D01*
X10522444Y-13146293D02*
X10512920Y-13184388D01*
X10512920Y-13184388D02*
X10503396Y-13203436D01*
X10503396Y-13203436D02*
X10493872Y-13212960D01*
X10493872Y-13212960D02*
X10474825Y-13222484D01*
X10474825Y-13222484D02*
X10455777Y-13222484D01*
X10455777Y-13222484D02*
X10436729Y-13212960D01*
X10436729Y-13212960D02*
X10427206Y-13203436D01*
X10427206Y-13203436D02*
X10417682Y-13184388D01*
X10417682Y-13184388D02*
X10408158Y-13146293D01*
X10408158Y-13146293D02*
X10408158Y-13098674D01*
X10408158Y-13098674D02*
X10417682Y-13060579D01*
X10417682Y-13060579D02*
X10427206Y-13041531D01*
X10427206Y-13041531D02*
X10436729Y-13032008D01*
X10436729Y-13032008D02*
X10455777Y-13022484D01*
X10598634Y-13022484D02*
X10598634Y-13060579D01*
X10674825Y-13022484D02*
X10674825Y-13060579D01*
X10970063Y-13298674D02*
X10960539Y-13289150D01*
X10960539Y-13289150D02*
X10941491Y-13260579D01*
X10941491Y-13260579D02*
X10931968Y-13241531D01*
X10931968Y-13241531D02*
X10922444Y-13212960D01*
X10922444Y-13212960D02*
X10912920Y-13165341D01*
X10912920Y-13165341D02*
X10912920Y-13127246D01*
X10912920Y-13127246D02*
X10922444Y-13079627D01*
X10922444Y-13079627D02*
X10931968Y-13051055D01*
X10931968Y-13051055D02*
X10941491Y-13032008D01*
X10941491Y-13032008D02*
X10960539Y-13003436D01*
X10960539Y-13003436D02*
X10970063Y-12993912D01*
X11027206Y-13022484D02*
X11151015Y-13022484D01*
X11151015Y-13022484D02*
X11084349Y-13098674D01*
X11084349Y-13098674D02*
X11112920Y-13098674D01*
X11112920Y-13098674D02*
X11131968Y-13108198D01*
X11131968Y-13108198D02*
X11141491Y-13117722D01*
X11141491Y-13117722D02*
X11151015Y-13136769D01*
X11151015Y-13136769D02*
X11151015Y-13184388D01*
X11151015Y-13184388D02*
X11141491Y-13203436D01*
X11141491Y-13203436D02*
X11131968Y-13212960D01*
X11131968Y-13212960D02*
X11112920Y-13222484D01*
X11112920Y-13222484D02*
X11055777Y-13222484D01*
X11055777Y-13222484D02*
X11036730Y-13212960D01*
X11036730Y-13212960D02*
X11027206Y-13203436D01*
X11389110Y-13222484D02*
X11389110Y-13022484D01*
X11474825Y-13222484D02*
X11474825Y-13117722D01*
X11474825Y-13117722D02*
X11465301Y-13098674D01*
X11465301Y-13098674D02*
X11446253Y-13089150D01*
X11446253Y-13089150D02*
X11417682Y-13089150D01*
X11417682Y-13089150D02*
X11398634Y-13098674D01*
X11398634Y-13098674D02*
X11389110Y-13108198D01*
X11598634Y-13222484D02*
X11579587Y-13212960D01*
X11579587Y-13212960D02*
X11570063Y-13203436D01*
X11570063Y-13203436D02*
X11560539Y-13184388D01*
X11560539Y-13184388D02*
X11560539Y-13127246D01*
X11560539Y-13127246D02*
X11570063Y-13108198D01*
X11570063Y-13108198D02*
X11579587Y-13098674D01*
X11579587Y-13098674D02*
X11598634Y-13089150D01*
X11598634Y-13089150D02*
X11627206Y-13089150D01*
X11627206Y-13089150D02*
X11646253Y-13098674D01*
X11646253Y-13098674D02*
X11655777Y-13108198D01*
X11655777Y-13108198D02*
X11665301Y-13127246D01*
X11665301Y-13127246D02*
X11665301Y-13184388D01*
X11665301Y-13184388D02*
X11655777Y-13203436D01*
X11655777Y-13203436D02*
X11646253Y-13212960D01*
X11646253Y-13212960D02*
X11627206Y-13222484D01*
X11627206Y-13222484D02*
X11598634Y-13222484D01*
X11779587Y-13222484D02*
X11760539Y-13212960D01*
X11760539Y-13212960D02*
X11751015Y-13193912D01*
X11751015Y-13193912D02*
X11751015Y-13022484D01*
X11931968Y-13212960D02*
X11912920Y-13222484D01*
X11912920Y-13222484D02*
X11874825Y-13222484D01*
X11874825Y-13222484D02*
X11855777Y-13212960D01*
X11855777Y-13212960D02*
X11846253Y-13193912D01*
X11846253Y-13193912D02*
X11846253Y-13117722D01*
X11846253Y-13117722D02*
X11855777Y-13098674D01*
X11855777Y-13098674D02*
X11874825Y-13089150D01*
X11874825Y-13089150D02*
X11912920Y-13089150D01*
X11912920Y-13089150D02*
X11931968Y-13098674D01*
X11931968Y-13098674D02*
X11941491Y-13117722D01*
X11941491Y-13117722D02*
X11941491Y-13136769D01*
X11941491Y-13136769D02*
X11846253Y-13155817D01*
X12017682Y-13212960D02*
X12036730Y-13222484D01*
X12036730Y-13222484D02*
X12074825Y-13222484D01*
X12074825Y-13222484D02*
X12093872Y-13212960D01*
X12093872Y-13212960D02*
X12103396Y-13193912D01*
X12103396Y-13193912D02*
X12103396Y-13184388D01*
X12103396Y-13184388D02*
X12093872Y-13165341D01*
X12093872Y-13165341D02*
X12074825Y-13155817D01*
X12074825Y-13155817D02*
X12046253Y-13155817D01*
X12046253Y-13155817D02*
X12027206Y-13146293D01*
X12027206Y-13146293D02*
X12017682Y-13127246D01*
X12017682Y-13127246D02*
X12017682Y-13117722D01*
X12017682Y-13117722D02*
X12027206Y-13098674D01*
X12027206Y-13098674D02*
X12046253Y-13089150D01*
X12046253Y-13089150D02*
X12074825Y-13089150D01*
X12074825Y-13089150D02*
X12093872Y-13098674D01*
X12170063Y-13298674D02*
X12179587Y-13289150D01*
X12179587Y-13289150D02*
X12198634Y-13260579D01*
X12198634Y-13260579D02*
X12208158Y-13241531D01*
X12208158Y-13241531D02*
X12217682Y-13212960D01*
X12217682Y-13212960D02*
X12227206Y-13165341D01*
X12227206Y-13165341D02*
X12227206Y-13127246D01*
X12227206Y-13127246D02*
X12217682Y-13079627D01*
X12217682Y-13079627D02*
X12208158Y-13051055D01*
X12208158Y-13051055D02*
X12198634Y-13032008D01*
X12198634Y-13032008D02*
X12179587Y-13003436D01*
X12179587Y-13003436D02*
X12170063Y-12993912D01*
M02*
