%TF.GenerationSoftware,KiCad,Pcbnew,9.0.6*%
%TF.CreationDate,2025-11-27T17:01:01+01:00*%
%TF.ProjectId,thermal-ctrl,74686572-6d61-46c2-9d63-74726c2e6b69,1*%
%TF.SameCoordinates,Original*%
%TF.FileFunction,Soldermask,Top*%
%TF.FilePolarity,Negative*%
%FSLAX46Y46*%
G04 Gerber Fmt 4.6, Leading zero omitted, Abs format (unit mm)*
G04 Created by KiCad (PCBNEW 9.0.6) date 2025-11-27 17:01:01*
%MOMM*%
%LPD*%
G01*
G04 APERTURE LIST*
G04 Aperture macros list*
%AMRoundRect*
0 Rectangle with rounded corners*
0 $1 Rounding radius*
0 $2 $3 $4 $5 $6 $7 $8 $9 X,Y pos of 4 corners*
0 Add a 4 corners polygon primitive as box body*
4,1,4,$2,$3,$4,$5,$6,$7,$8,$9,$2,$3,0*
0 Add four circle primitives for the rounded corners*
1,1,$1+$1,$2,$3*
1,1,$1+$1,$4,$5*
1,1,$1+$1,$6,$7*
1,1,$1+$1,$8,$9*
0 Add four rect primitives between the rounded corners*
20,1,$1+$1,$2,$3,$4,$5,0*
20,1,$1+$1,$4,$5,$6,$7,0*
20,1,$1+$1,$6,$7,$8,$9,0*
20,1,$1+$1,$8,$9,$2,$3,0*%
%AMFreePoly0*
4,1,9,2.975000,-2.350000,1.425000,-2.350000,1.425000,-2.100000,-1.650000,-2.100000,-1.650000,2.100000,1.425000,2.100000,1.425000,2.350000,2.975000,2.350000,2.975000,-2.350000,2.975000,-2.350000,$1*%
G04 Aperture macros list end*
%ADD10RoundRect,0.218750X-0.218750X-0.256250X0.218750X-0.256250X0.218750X0.256250X-0.218750X0.256250X0*%
%ADD11RoundRect,0.250000X0.325000X1.100000X-0.325000X1.100000X-0.325000X-1.100000X0.325000X-1.100000X0*%
%ADD12R,0.800000X0.500000*%
%ADD13R,0.800000X0.400000*%
%ADD14R,0.500000X0.800000*%
%ADD15R,0.400000X0.800000*%
%ADD16RoundRect,0.225000X-0.250000X0.225000X-0.250000X-0.225000X0.250000X-0.225000X0.250000X0.225000X0*%
%ADD17RoundRect,0.175000X-0.175000X-0.400000X0.175000X-0.400000X0.175000X0.400000X-0.175000X0.400000X0*%
%ADD18FreePoly0,90.000000*%
%ADD19RoundRect,0.225000X0.225000X0.250000X-0.225000X0.250000X-0.225000X-0.250000X0.225000X-0.250000X0*%
%ADD20RoundRect,0.250000X-0.600000X-0.750000X0.600000X-0.750000X0.600000X0.750000X-0.600000X0.750000X0*%
%ADD21O,1.700000X2.000000*%
%ADD22RoundRect,0.250000X0.650000X1.550000X-0.650000X1.550000X-0.650000X-1.550000X0.650000X-1.550000X0*%
%ADD23O,1.800000X3.600000*%
%ADD24R,1.000000X1.000000*%
%ADD25C,1.000000*%
%ADD26RoundRect,0.200000X0.200000X0.275000X-0.200000X0.275000X-0.200000X-0.275000X0.200000X-0.275000X0*%
%ADD27RoundRect,0.250000X1.500000X0.550000X-1.500000X0.550000X-1.500000X-0.550000X1.500000X-0.550000X0*%
%ADD28RoundRect,0.050000X-0.362500X-0.050000X0.362500X-0.050000X0.362500X0.050000X-0.362500X0.050000X0*%
%ADD29R,1.550000X1.850000*%
%ADD30RoundRect,0.150000X0.150000X-0.512500X0.150000X0.512500X-0.150000X0.512500X-0.150000X-0.512500X0*%
%ADD31RoundRect,0.225000X-0.225000X-0.250000X0.225000X-0.250000X0.225000X0.250000X-0.225000X0.250000X0*%
%ADD32RoundRect,0.125000X0.125000X-0.537500X0.125000X0.537500X-0.125000X0.537500X-0.125000X-0.537500X0*%
%ADD33RoundRect,0.100000X0.637500X0.100000X-0.637500X0.100000X-0.637500X-0.100000X0.637500X-0.100000X0*%
%ADD34RoundRect,0.150000X-0.150000X0.512500X-0.150000X-0.512500X0.150000X-0.512500X0.150000X0.512500X0*%
%ADD35RoundRect,0.250000X-0.250000X-0.475000X0.250000X-0.475000X0.250000X0.475000X-0.250000X0.475000X0*%
%ADD36RoundRect,0.250000X0.725000X-0.600000X0.725000X0.600000X-0.725000X0.600000X-0.725000X-0.600000X0*%
%ADD37O,1.950000X1.700000*%
%ADD38RoundRect,0.112500X-0.112500X-0.237500X0.112500X-0.237500X0.112500X0.237500X-0.112500X0.237500X0*%
%ADD39C,3.600000*%
%ADD40C,5.700000*%
%ADD41C,1.750000*%
%ADD42C,2.100000*%
%ADD43R,3.100000X5.000000*%
%ADD44RoundRect,0.250000X0.750000X0.250000X-0.750000X0.250000X-0.750000X-0.250000X0.750000X-0.250000X0*%
%ADD45RoundRect,0.225000X0.250000X-0.225000X0.250000X0.225000X-0.250000X0.225000X-0.250000X-0.225000X0*%
%ADD46RoundRect,0.250000X0.250000X0.475000X-0.250000X0.475000X-0.250000X-0.475000X0.250000X-0.475000X0*%
%ADD47R,1.000000X2.700000*%
%ADD48RoundRect,0.175000X-0.400000X0.175000X-0.400000X-0.175000X0.400000X-0.175000X0.400000X0.175000X0*%
%ADD49FreePoly0,0.000000*%
%ADD50RoundRect,0.250000X0.425000X-0.362500X0.425000X0.362500X-0.425000X0.362500X-0.425000X-0.362500X0*%
%ADD51RoundRect,0.071429X0.103571X-0.541071X0.103571X0.541071X-0.103571X0.541071X-0.103571X-0.541071X0*%
%ADD52C,1.400000*%
%ADD53RoundRect,0.770000X-0.980000X-0.980000X0.980000X-0.980000X0.980000X0.980000X-0.980000X0.980000X0*%
%ADD54C,3.500000*%
%ADD55RoundRect,0.150000X0.512500X0.150000X-0.512500X0.150000X-0.512500X-0.150000X0.512500X-0.150000X0*%
%ADD56RoundRect,0.200000X-0.200000X-0.275000X0.200000X-0.275000X0.200000X0.275000X-0.200000X0.275000X0*%
%ADD57RoundRect,0.093750X-0.093750X-0.106250X0.093750X-0.106250X0.093750X0.106250X-0.093750X0.106250X0*%
%ADD58R,1.000000X1.600000*%
%ADD59RoundRect,0.100000X-0.225000X-0.100000X0.225000X-0.100000X0.225000X0.100000X-0.225000X0.100000X0*%
G04 APERTURE END LIST*
D10*
%TO.C,FB1*%
X97962500Y-88500000D03*
X99537500Y-88500000D03*
%TD*%
D11*
%TO.C,C4*%
X107225000Y-65750000D03*
X104275000Y-65750000D03*
%TD*%
D12*
%TO.C,RN4*%
X100900000Y-88400000D03*
D13*
X100900000Y-89200000D03*
X100900000Y-90000000D03*
D12*
X100900000Y-90800000D03*
X102700000Y-90800000D03*
D13*
X102700000Y-90000000D03*
X102700000Y-89200000D03*
D12*
X102700000Y-88400000D03*
%TD*%
D14*
%TO.C,RN3*%
X120050000Y-86950000D03*
D15*
X119250000Y-86950000D03*
X118450000Y-86950000D03*
D14*
X117650000Y-86950000D03*
X117650000Y-88750000D03*
D15*
X118450000Y-88750000D03*
X119250000Y-88750000D03*
D14*
X120050000Y-88750000D03*
%TD*%
D16*
%TO.C,C2*%
X86737500Y-85625000D03*
X86737500Y-87175000D03*
%TD*%
D17*
%TO.C,Q3*%
X89440000Y-71170000D03*
X90710000Y-71170000D03*
X91990000Y-71170000D03*
X93260000Y-71170000D03*
D18*
X91350000Y-67900000D03*
%TD*%
D19*
%TO.C,C9*%
X84175000Y-76000000D03*
X82625000Y-76000000D03*
%TD*%
D20*
%TO.C,J5*%
X117900000Y-57000000D03*
D21*
X120400000Y-57000000D03*
%TD*%
D22*
%TO.C,J2*%
X82250000Y-55750000D03*
D23*
X78750000Y-55750000D03*
%TD*%
D19*
%TO.C,C18*%
X82825000Y-86350000D03*
X81275000Y-86350000D03*
%TD*%
D24*
%TO.C,J3*%
X75880000Y-88740000D03*
D25*
X77150000Y-88740000D03*
X78420000Y-88740000D03*
X79690000Y-88740000D03*
%TD*%
D14*
%TO.C,RN1*%
X98650000Y-91100000D03*
X97650000Y-91100000D03*
X97650000Y-92900000D03*
X98650000Y-92900000D03*
%TD*%
D26*
%TO.C,R1*%
X88500000Y-91000000D03*
X86850000Y-91000000D03*
%TD*%
D27*
%TO.C,C22*%
X82350000Y-66250000D03*
X76750000Y-66250000D03*
%TD*%
D28*
%TO.C,U4*%
X82037500Y-72750000D03*
X82037500Y-73250000D03*
X82037500Y-73750000D03*
X82037500Y-74250000D03*
X84962500Y-74250000D03*
X84962500Y-73750000D03*
X84962500Y-73250000D03*
X84962500Y-72750000D03*
D29*
X83500000Y-73500000D03*
%TD*%
D30*
%TO.C,U5*%
X112300000Y-83137500D03*
X113250000Y-83137500D03*
X114200000Y-83137500D03*
X114200000Y-80862500D03*
X113250000Y-80862500D03*
X112300000Y-80862500D03*
%TD*%
D31*
%TO.C,C3*%
X76700000Y-75112500D03*
X78250000Y-75112500D03*
%TD*%
D32*
%TO.C,U1*%
X76525000Y-73387500D03*
X77175000Y-73387500D03*
X77825000Y-73387500D03*
X78475000Y-73387500D03*
X78475000Y-71112500D03*
X77825000Y-71112500D03*
X77175000Y-71112500D03*
X76525000Y-71112500D03*
%TD*%
D11*
%TO.C,C7*%
X100725000Y-69000000D03*
X97775000Y-69000000D03*
%TD*%
D33*
%TO.C,U2*%
X94462500Y-89325000D03*
X94462500Y-88675000D03*
X94462500Y-88025000D03*
X94462500Y-87375000D03*
X94462500Y-86725000D03*
X94462500Y-86075000D03*
X94462500Y-85425000D03*
X94462500Y-84775000D03*
X94462500Y-84125000D03*
X94462500Y-83475000D03*
X88737500Y-83475000D03*
X88737500Y-84125000D03*
X88737500Y-84775000D03*
X88737500Y-85425000D03*
X88737500Y-86075000D03*
X88737500Y-86725000D03*
X88737500Y-87375000D03*
X88737500Y-88025000D03*
X88737500Y-88675000D03*
X88737500Y-89325000D03*
%TD*%
D20*
%TO.C,J8*%
X117900000Y-77400000D03*
D21*
X120400000Y-77400000D03*
%TD*%
D20*
%TO.C,J7*%
X117900000Y-70600000D03*
D21*
X120400000Y-70600000D03*
%TD*%
D19*
%TO.C,C10*%
X114025000Y-79000000D03*
X112475000Y-79000000D03*
%TD*%
D34*
%TO.C,D1*%
X119700000Y-82662500D03*
X118750000Y-82662500D03*
X117800000Y-82662500D03*
X117800000Y-84937500D03*
X119700000Y-84937500D03*
%TD*%
D35*
%TO.C,C14*%
X83100000Y-80850000D03*
X85000000Y-80850000D03*
%TD*%
D12*
%TO.C,RN2*%
X100000000Y-87000000D03*
D13*
X100000000Y-86200000D03*
X100000000Y-85400000D03*
D12*
X100000000Y-84600000D03*
X98200000Y-84600000D03*
D13*
X98200000Y-85400000D03*
X98200000Y-86200000D03*
D12*
X98200000Y-87000000D03*
%TD*%
D11*
%TO.C,C5*%
X107225000Y-69000000D03*
X104275000Y-69000000D03*
%TD*%
D36*
%TO.C,J10*%
X106250000Y-94500000D03*
D37*
X106250000Y-92000000D03*
X106250000Y-89500000D03*
X106250000Y-87000000D03*
%TD*%
D38*
%TO.C,D2*%
X79950000Y-60750000D03*
X81250000Y-60750000D03*
X80600000Y-58750000D03*
%TD*%
D20*
%TO.C,J6*%
X117900000Y-63800000D03*
D21*
X120400000Y-63800000D03*
%TD*%
D11*
%TO.C,C6*%
X100700000Y-65750000D03*
X97750000Y-65750000D03*
%TD*%
D39*
%TO.C,H3*%
X120000000Y-94000000D03*
D40*
X120000000Y-94000000D03*
%TD*%
D41*
%TO.C,SW1*%
X89585000Y-96360000D03*
X85085000Y-96360000D03*
D42*
X90835000Y-93870000D03*
X83825000Y-93870000D03*
%TD*%
D43*
%TO.C,L1*%
X97950000Y-77250000D03*
X109050000Y-77250000D03*
%TD*%
D44*
%TO.C,D12*%
X96430000Y-95725000D03*
X93430000Y-95725000D03*
%TD*%
D45*
%TO.C,C1*%
X96237500Y-88375000D03*
X96237500Y-86825000D03*
%TD*%
D46*
%TO.C,C15*%
X80750000Y-80600000D03*
X78850000Y-80600000D03*
%TD*%
D47*
%TO.C,L2*%
X81000000Y-83600000D03*
X78800000Y-83600000D03*
%TD*%
D48*
%TO.C,Q2*%
X88380000Y-75240000D03*
X88380000Y-76510000D03*
X88380000Y-77790000D03*
X88380000Y-79060000D03*
D49*
X91650000Y-77150000D03*
%TD*%
D50*
%TO.C,R3*%
X111230000Y-72062500D03*
X113230000Y-72062500D03*
D51*
X112230000Y-72062500D03*
X112230000Y-66137500D03*
D50*
X111230000Y-66150000D03*
X113230000Y-66137500D03*
%TD*%
D39*
%TO.C,H1*%
X120000000Y-51000000D03*
D40*
X120000000Y-51000000D03*
%TD*%
D52*
%TO.C,J4*%
X87000000Y-50780000D03*
X98000000Y-50780000D03*
D53*
X95000000Y-60780000D03*
D54*
X90000000Y-60780000D03*
%TD*%
D55*
%TO.C,U7*%
X85075000Y-84600000D03*
X85075000Y-83650000D03*
X85075000Y-82700000D03*
X82800000Y-82700000D03*
X82800000Y-83650000D03*
X82800000Y-84600000D03*
%TD*%
D36*
%TO.C,J9*%
X113000000Y-94500000D03*
D37*
X113000000Y-92000000D03*
X113000000Y-89500000D03*
X113000000Y-87000000D03*
%TD*%
D56*
%TO.C,R2*%
X82550000Y-77600000D03*
X84200000Y-77600000D03*
%TD*%
D57*
%TO.C,U8*%
X83112500Y-61000000D03*
X83112500Y-61650000D03*
X83112500Y-62300000D03*
X84887500Y-62300000D03*
X84887500Y-61650000D03*
X84887500Y-61000000D03*
D58*
X84000000Y-61650000D03*
%TD*%
D59*
%TO.C,U3*%
X94400000Y-90900000D03*
X94400000Y-91550000D03*
X94400000Y-92200000D03*
X96300000Y-92200000D03*
X96300000Y-90900000D03*
%TD*%
D39*
%TO.C,H2*%
X78000000Y-94000000D03*
D40*
X78000000Y-94000000D03*
%TD*%
D31*
%TO.C,C8*%
X82825000Y-71000000D03*
X84375000Y-71000000D03*
%TD*%
D12*
%TO.C,RN5*%
X82092000Y-90272000D03*
X82092000Y-91272000D03*
X83892000Y-91272000D03*
X83892000Y-90272000D03*
%TD*%
D46*
%TO.C,C16*%
X80750000Y-78600000D03*
X78850000Y-78600000D03*
%TD*%
D52*
%TO.C,J1*%
X101500000Y-56780000D03*
X112500000Y-56780000D03*
D53*
X104500000Y-61780000D03*
D54*
X109500000Y-61780000D03*
%TD*%
M02*
