%TF.GenerationSoftware,KiCad,Pcbnew,9.0.6*%
%TF.CreationDate,2025-11-27T17:01:00+01:00*%
%TF.ProjectId,thermal-ctrl,74686572-6d61-46c2-9d63-74726c2e6b69,1*%
%TF.SameCoordinates,Original*%
%TF.FileFunction,Legend,Top*%
%TF.FilePolarity,Positive*%
%FSLAX46Y46*%
G04 Gerber Fmt 4.6, Leading zero omitted, Abs format (unit mm)*
G04 Created by KiCad (PCBNEW 9.0.6) date 2025-11-27 17:01:00*
%MOMM*%
%LPD*%
G01*
G04 APERTURE LIST*
%ADD10C,0.200000*%
%ADD11C,0.250000*%
%ADD12C,0.150000*%
%ADD13C,0.120000*%
G04 APERTURE END LIST*
D10*
X84091101Y-58491980D02*
X84043482Y-58539600D01*
X84043482Y-58539600D02*
X83900625Y-58587219D01*
X83900625Y-58587219D02*
X83805387Y-58587219D01*
X83805387Y-58587219D02*
X83662530Y-58539600D01*
X83662530Y-58539600D02*
X83567292Y-58444361D01*
X83567292Y-58444361D02*
X83519673Y-58349123D01*
X83519673Y-58349123D02*
X83472054Y-58158647D01*
X83472054Y-58158647D02*
X83472054Y-58015790D01*
X83472054Y-58015790D02*
X83519673Y-57825314D01*
X83519673Y-57825314D02*
X83567292Y-57730076D01*
X83567292Y-57730076D02*
X83662530Y-57634838D01*
X83662530Y-57634838D02*
X83805387Y-57587219D01*
X83805387Y-57587219D02*
X83900625Y-57587219D01*
X83900625Y-57587219D02*
X84043482Y-57634838D01*
X84043482Y-57634838D02*
X84091101Y-57682457D01*
X84472054Y-58301504D02*
X84948244Y-58301504D01*
X84376816Y-58587219D02*
X84710149Y-57587219D01*
X84710149Y-57587219D02*
X85043482Y-58587219D01*
X85376816Y-58587219D02*
X85376816Y-57587219D01*
X85376816Y-57587219D02*
X85948244Y-58587219D01*
X85948244Y-58587219D02*
X85948244Y-57587219D01*
X86900625Y-58587219D02*
X86424435Y-58587219D01*
X86424435Y-58587219D02*
X86424435Y-57587219D01*
X75105890Y-58529199D02*
X75058271Y-58576819D01*
X75058271Y-58576819D02*
X74915414Y-58624438D01*
X74915414Y-58624438D02*
X74820176Y-58624438D01*
X74820176Y-58624438D02*
X74677319Y-58576819D01*
X74677319Y-58576819D02*
X74582081Y-58481580D01*
X74582081Y-58481580D02*
X74534462Y-58386342D01*
X74534462Y-58386342D02*
X74486843Y-58195866D01*
X74486843Y-58195866D02*
X74486843Y-58053009D01*
X74486843Y-58053009D02*
X74534462Y-57862533D01*
X74534462Y-57862533D02*
X74582081Y-57767295D01*
X74582081Y-57767295D02*
X74677319Y-57672057D01*
X74677319Y-57672057D02*
X74820176Y-57624438D01*
X74820176Y-57624438D02*
X74915414Y-57624438D01*
X74915414Y-57624438D02*
X75058271Y-57672057D01*
X75058271Y-57672057D02*
X75105890Y-57719676D01*
X75486843Y-58338723D02*
X75963033Y-58338723D01*
X75391605Y-58624438D02*
X75724938Y-57624438D01*
X75724938Y-57624438D02*
X76058271Y-58624438D01*
X76391605Y-58624438D02*
X76391605Y-57624438D01*
X76391605Y-57624438D02*
X76963033Y-58624438D01*
X76963033Y-58624438D02*
X76963033Y-57624438D01*
X77439224Y-58624438D02*
X77439224Y-57624438D01*
X77439224Y-58100628D02*
X78010652Y-58100628D01*
X78010652Y-58624438D02*
X78010652Y-57624438D01*
D11*
X75377238Y-86543622D02*
X75329619Y-86638860D01*
X75329619Y-86638860D02*
X75329619Y-86781717D01*
X75329619Y-86781717D02*
X75377238Y-86924574D01*
X75377238Y-86924574D02*
X75472476Y-87019812D01*
X75472476Y-87019812D02*
X75567714Y-87067431D01*
X75567714Y-87067431D02*
X75758190Y-87115050D01*
X75758190Y-87115050D02*
X75901047Y-87115050D01*
X75901047Y-87115050D02*
X76091523Y-87067431D01*
X76091523Y-87067431D02*
X76186761Y-87019812D01*
X76186761Y-87019812D02*
X76282000Y-86924574D01*
X76282000Y-86924574D02*
X76329619Y-86781717D01*
X76329619Y-86781717D02*
X76329619Y-86686479D01*
X76329619Y-86686479D02*
X76282000Y-86543622D01*
X76282000Y-86543622D02*
X76234380Y-86496003D01*
X76234380Y-86496003D02*
X75901047Y-86496003D01*
X75901047Y-86496003D02*
X75901047Y-86686479D01*
X76329619Y-86067431D02*
X75329619Y-86067431D01*
X75329619Y-86067431D02*
X76329619Y-85496003D01*
X76329619Y-85496003D02*
X75329619Y-85496003D01*
X76329619Y-85019812D02*
X75329619Y-85019812D01*
X75329619Y-85019812D02*
X75329619Y-84781717D01*
X75329619Y-84781717D02*
X75377238Y-84638860D01*
X75377238Y-84638860D02*
X75472476Y-84543622D01*
X75472476Y-84543622D02*
X75567714Y-84496003D01*
X75567714Y-84496003D02*
X75758190Y-84448384D01*
X75758190Y-84448384D02*
X75901047Y-84448384D01*
X75901047Y-84448384D02*
X76091523Y-84496003D01*
X76091523Y-84496003D02*
X76186761Y-84543622D01*
X76186761Y-84543622D02*
X76282000Y-84638860D01*
X76282000Y-84638860D02*
X76329619Y-84781717D01*
X76329619Y-84781717D02*
X76329619Y-85019812D01*
D12*
X97916666Y-89746009D02*
X97583333Y-89746009D01*
X97583333Y-90269819D02*
X97583333Y-89269819D01*
X97583333Y-89269819D02*
X98059523Y-89269819D01*
X98773809Y-89746009D02*
X98916666Y-89793628D01*
X98916666Y-89793628D02*
X98964285Y-89841247D01*
X98964285Y-89841247D02*
X99011904Y-89936485D01*
X99011904Y-89936485D02*
X99011904Y-90079342D01*
X99011904Y-90079342D02*
X98964285Y-90174580D01*
X98964285Y-90174580D02*
X98916666Y-90222200D01*
X98916666Y-90222200D02*
X98821428Y-90269819D01*
X98821428Y-90269819D02*
X98440476Y-90269819D01*
X98440476Y-90269819D02*
X98440476Y-89269819D01*
X98440476Y-89269819D02*
X98773809Y-89269819D01*
X98773809Y-89269819D02*
X98869047Y-89317438D01*
X98869047Y-89317438D02*
X98916666Y-89365057D01*
X98916666Y-89365057D02*
X98964285Y-89460295D01*
X98964285Y-89460295D02*
X98964285Y-89555533D01*
X98964285Y-89555533D02*
X98916666Y-89650771D01*
X98916666Y-89650771D02*
X98869047Y-89698390D01*
X98869047Y-89698390D02*
X98773809Y-89746009D01*
X98773809Y-89746009D02*
X98440476Y-89746009D01*
X99964285Y-90269819D02*
X99392857Y-90269819D01*
X99678571Y-90269819D02*
X99678571Y-89269819D01*
X99678571Y-89269819D02*
X99583333Y-89412676D01*
X99583333Y-89412676D02*
X99488095Y-89507914D01*
X99488095Y-89507914D02*
X99392857Y-89555533D01*
X103224580Y-65916666D02*
X103272200Y-65964285D01*
X103272200Y-65964285D02*
X103319819Y-66107142D01*
X103319819Y-66107142D02*
X103319819Y-66202380D01*
X103319819Y-66202380D02*
X103272200Y-66345237D01*
X103272200Y-66345237D02*
X103176961Y-66440475D01*
X103176961Y-66440475D02*
X103081723Y-66488094D01*
X103081723Y-66488094D02*
X102891247Y-66535713D01*
X102891247Y-66535713D02*
X102748390Y-66535713D01*
X102748390Y-66535713D02*
X102557914Y-66488094D01*
X102557914Y-66488094D02*
X102462676Y-66440475D01*
X102462676Y-66440475D02*
X102367438Y-66345237D01*
X102367438Y-66345237D02*
X102319819Y-66202380D01*
X102319819Y-66202380D02*
X102319819Y-66107142D01*
X102319819Y-66107142D02*
X102367438Y-65964285D01*
X102367438Y-65964285D02*
X102415057Y-65916666D01*
X102653152Y-65059523D02*
X103319819Y-65059523D01*
X102272200Y-65297618D02*
X102986485Y-65535713D01*
X102986485Y-65535713D02*
X102986485Y-64916666D01*
X102254819Y-93569160D02*
X101778628Y-93902493D01*
X102254819Y-94140588D02*
X101254819Y-94140588D01*
X101254819Y-94140588D02*
X101254819Y-93759636D01*
X101254819Y-93759636D02*
X101302438Y-93664398D01*
X101302438Y-93664398D02*
X101350057Y-93616779D01*
X101350057Y-93616779D02*
X101445295Y-93569160D01*
X101445295Y-93569160D02*
X101588152Y-93569160D01*
X101588152Y-93569160D02*
X101683390Y-93616779D01*
X101683390Y-93616779D02*
X101731009Y-93664398D01*
X101731009Y-93664398D02*
X101778628Y-93759636D01*
X101778628Y-93759636D02*
X101778628Y-94140588D01*
X102254819Y-93140588D02*
X101254819Y-93140588D01*
X101254819Y-93140588D02*
X102254819Y-92569160D01*
X102254819Y-92569160D02*
X101254819Y-92569160D01*
X101588152Y-91664398D02*
X102254819Y-91664398D01*
X101207200Y-91902493D02*
X101921485Y-92140588D01*
X101921485Y-92140588D02*
X101921485Y-91521541D01*
X122104819Y-88540476D02*
X121628628Y-88873809D01*
X122104819Y-89111904D02*
X121104819Y-89111904D01*
X121104819Y-89111904D02*
X121104819Y-88730952D01*
X121104819Y-88730952D02*
X121152438Y-88635714D01*
X121152438Y-88635714D02*
X121200057Y-88588095D01*
X121200057Y-88588095D02*
X121295295Y-88540476D01*
X121295295Y-88540476D02*
X121438152Y-88540476D01*
X121438152Y-88540476D02*
X121533390Y-88588095D01*
X121533390Y-88588095D02*
X121581009Y-88635714D01*
X121581009Y-88635714D02*
X121628628Y-88730952D01*
X121628628Y-88730952D02*
X121628628Y-89111904D01*
X122104819Y-88111904D02*
X121104819Y-88111904D01*
X121104819Y-88111904D02*
X122104819Y-87540476D01*
X122104819Y-87540476D02*
X121104819Y-87540476D01*
X121104819Y-87159523D02*
X121104819Y-86540476D01*
X121104819Y-86540476D02*
X121485771Y-86873809D01*
X121485771Y-86873809D02*
X121485771Y-86730952D01*
X121485771Y-86730952D02*
X121533390Y-86635714D01*
X121533390Y-86635714D02*
X121581009Y-86588095D01*
X121581009Y-86588095D02*
X121676247Y-86540476D01*
X121676247Y-86540476D02*
X121914342Y-86540476D01*
X121914342Y-86540476D02*
X122009580Y-86588095D01*
X122009580Y-86588095D02*
X122057200Y-86635714D01*
X122057200Y-86635714D02*
X122104819Y-86730952D01*
X122104819Y-86730952D02*
X122104819Y-87016666D01*
X122104819Y-87016666D02*
X122057200Y-87111904D01*
X122057200Y-87111904D02*
X122009580Y-87159523D01*
X87097080Y-84266792D02*
X87144700Y-84314411D01*
X87144700Y-84314411D02*
X87192319Y-84457268D01*
X87192319Y-84457268D02*
X87192319Y-84552506D01*
X87192319Y-84552506D02*
X87144700Y-84695363D01*
X87144700Y-84695363D02*
X87049461Y-84790601D01*
X87049461Y-84790601D02*
X86954223Y-84838220D01*
X86954223Y-84838220D02*
X86763747Y-84885839D01*
X86763747Y-84885839D02*
X86620890Y-84885839D01*
X86620890Y-84885839D02*
X86430414Y-84838220D01*
X86430414Y-84838220D02*
X86335176Y-84790601D01*
X86335176Y-84790601D02*
X86239938Y-84695363D01*
X86239938Y-84695363D02*
X86192319Y-84552506D01*
X86192319Y-84552506D02*
X86192319Y-84457268D01*
X86192319Y-84457268D02*
X86239938Y-84314411D01*
X86239938Y-84314411D02*
X86287557Y-84266792D01*
X86287557Y-83885839D02*
X86239938Y-83838220D01*
X86239938Y-83838220D02*
X86192319Y-83742982D01*
X86192319Y-83742982D02*
X86192319Y-83504887D01*
X86192319Y-83504887D02*
X86239938Y-83409649D01*
X86239938Y-83409649D02*
X86287557Y-83362030D01*
X86287557Y-83362030D02*
X86382795Y-83314411D01*
X86382795Y-83314411D02*
X86478033Y-83314411D01*
X86478033Y-83314411D02*
X86620890Y-83362030D01*
X86620890Y-83362030D02*
X87192319Y-83933458D01*
X87192319Y-83933458D02*
X87192319Y-83314411D01*
X88420057Y-68675238D02*
X88372438Y-68770476D01*
X88372438Y-68770476D02*
X88277200Y-68865714D01*
X88277200Y-68865714D02*
X88134342Y-69008571D01*
X88134342Y-69008571D02*
X88086723Y-69103809D01*
X88086723Y-69103809D02*
X88086723Y-69199047D01*
X88324819Y-69151428D02*
X88277200Y-69246666D01*
X88277200Y-69246666D02*
X88181961Y-69341904D01*
X88181961Y-69341904D02*
X87991485Y-69389523D01*
X87991485Y-69389523D02*
X87658152Y-69389523D01*
X87658152Y-69389523D02*
X87467676Y-69341904D01*
X87467676Y-69341904D02*
X87372438Y-69246666D01*
X87372438Y-69246666D02*
X87324819Y-69151428D01*
X87324819Y-69151428D02*
X87324819Y-68960952D01*
X87324819Y-68960952D02*
X87372438Y-68865714D01*
X87372438Y-68865714D02*
X87467676Y-68770476D01*
X87467676Y-68770476D02*
X87658152Y-68722857D01*
X87658152Y-68722857D02*
X87991485Y-68722857D01*
X87991485Y-68722857D02*
X88181961Y-68770476D01*
X88181961Y-68770476D02*
X88277200Y-68865714D01*
X88277200Y-68865714D02*
X88324819Y-68960952D01*
X88324819Y-68960952D02*
X88324819Y-69151428D01*
X87324819Y-68389523D02*
X87324819Y-67770476D01*
X87324819Y-67770476D02*
X87705771Y-68103809D01*
X87705771Y-68103809D02*
X87705771Y-67960952D01*
X87705771Y-67960952D02*
X87753390Y-67865714D01*
X87753390Y-67865714D02*
X87801009Y-67818095D01*
X87801009Y-67818095D02*
X87896247Y-67770476D01*
X87896247Y-67770476D02*
X88134342Y-67770476D01*
X88134342Y-67770476D02*
X88229580Y-67818095D01*
X88229580Y-67818095D02*
X88277200Y-67865714D01*
X88277200Y-67865714D02*
X88324819Y-67960952D01*
X88324819Y-67960952D02*
X88324819Y-68246666D01*
X88324819Y-68246666D02*
X88277200Y-68341904D01*
X88277200Y-68341904D02*
X88229580Y-68389523D01*
X85533207Y-76359580D02*
X85485588Y-76407200D01*
X85485588Y-76407200D02*
X85342731Y-76454819D01*
X85342731Y-76454819D02*
X85247493Y-76454819D01*
X85247493Y-76454819D02*
X85104636Y-76407200D01*
X85104636Y-76407200D02*
X85009398Y-76311961D01*
X85009398Y-76311961D02*
X84961779Y-76216723D01*
X84961779Y-76216723D02*
X84914160Y-76026247D01*
X84914160Y-76026247D02*
X84914160Y-75883390D01*
X84914160Y-75883390D02*
X84961779Y-75692914D01*
X84961779Y-75692914D02*
X85009398Y-75597676D01*
X85009398Y-75597676D02*
X85104636Y-75502438D01*
X85104636Y-75502438D02*
X85247493Y-75454819D01*
X85247493Y-75454819D02*
X85342731Y-75454819D01*
X85342731Y-75454819D02*
X85485588Y-75502438D01*
X85485588Y-75502438D02*
X85533207Y-75550057D01*
X86009398Y-76454819D02*
X86199874Y-76454819D01*
X86199874Y-76454819D02*
X86295112Y-76407200D01*
X86295112Y-76407200D02*
X86342731Y-76359580D01*
X86342731Y-76359580D02*
X86437969Y-76216723D01*
X86437969Y-76216723D02*
X86485588Y-76026247D01*
X86485588Y-76026247D02*
X86485588Y-75645295D01*
X86485588Y-75645295D02*
X86437969Y-75550057D01*
X86437969Y-75550057D02*
X86390350Y-75502438D01*
X86390350Y-75502438D02*
X86295112Y-75454819D01*
X86295112Y-75454819D02*
X86104636Y-75454819D01*
X86104636Y-75454819D02*
X86009398Y-75502438D01*
X86009398Y-75502438D02*
X85961779Y-75550057D01*
X85961779Y-75550057D02*
X85914160Y-75645295D01*
X85914160Y-75645295D02*
X85914160Y-75883390D01*
X85914160Y-75883390D02*
X85961779Y-75978628D01*
X85961779Y-75978628D02*
X86009398Y-76026247D01*
X86009398Y-76026247D02*
X86104636Y-76073866D01*
X86104636Y-76073866D02*
X86295112Y-76073866D01*
X86295112Y-76073866D02*
X86390350Y-76026247D01*
X86390350Y-76026247D02*
X86437969Y-75978628D01*
X86437969Y-75978628D02*
X86485588Y-75883390D01*
X115572493Y-53019819D02*
X115572493Y-53734104D01*
X115572493Y-53734104D02*
X115524874Y-53876961D01*
X115524874Y-53876961D02*
X115429636Y-53972200D01*
X115429636Y-53972200D02*
X115286779Y-54019819D01*
X115286779Y-54019819D02*
X115191541Y-54019819D01*
X116524874Y-53019819D02*
X116048684Y-53019819D01*
X116048684Y-53019819D02*
X116001065Y-53496009D01*
X116001065Y-53496009D02*
X116048684Y-53448390D01*
X116048684Y-53448390D02*
X116143922Y-53400771D01*
X116143922Y-53400771D02*
X116382017Y-53400771D01*
X116382017Y-53400771D02*
X116477255Y-53448390D01*
X116477255Y-53448390D02*
X116524874Y-53496009D01*
X116524874Y-53496009D02*
X116572493Y-53591247D01*
X116572493Y-53591247D02*
X116572493Y-53829342D01*
X116572493Y-53829342D02*
X116524874Y-53924580D01*
X116524874Y-53924580D02*
X116477255Y-53972200D01*
X116477255Y-53972200D02*
X116382017Y-54019819D01*
X116382017Y-54019819D02*
X116143922Y-54019819D01*
X116143922Y-54019819D02*
X116048684Y-53972200D01*
X116048684Y-53972200D02*
X116001065Y-53924580D01*
X74869819Y-56677506D02*
X75584104Y-56677506D01*
X75584104Y-56677506D02*
X75726961Y-56725125D01*
X75726961Y-56725125D02*
X75822200Y-56820363D01*
X75822200Y-56820363D02*
X75869819Y-56963220D01*
X75869819Y-56963220D02*
X75869819Y-57058458D01*
X74965057Y-56248934D02*
X74917438Y-56201315D01*
X74917438Y-56201315D02*
X74869819Y-56106077D01*
X74869819Y-56106077D02*
X74869819Y-55867982D01*
X74869819Y-55867982D02*
X74917438Y-55772744D01*
X74917438Y-55772744D02*
X74965057Y-55725125D01*
X74965057Y-55725125D02*
X75060295Y-55677506D01*
X75060295Y-55677506D02*
X75155533Y-55677506D01*
X75155533Y-55677506D02*
X75298390Y-55725125D01*
X75298390Y-55725125D02*
X75869819Y-56296553D01*
X75869819Y-56296553D02*
X75869819Y-55677506D01*
X78376077Y-86709580D02*
X78328458Y-86757200D01*
X78328458Y-86757200D02*
X78185601Y-86804819D01*
X78185601Y-86804819D02*
X78090363Y-86804819D01*
X78090363Y-86804819D02*
X77947506Y-86757200D01*
X77947506Y-86757200D02*
X77852268Y-86661961D01*
X77852268Y-86661961D02*
X77804649Y-86566723D01*
X77804649Y-86566723D02*
X77757030Y-86376247D01*
X77757030Y-86376247D02*
X77757030Y-86233390D01*
X77757030Y-86233390D02*
X77804649Y-86042914D01*
X77804649Y-86042914D02*
X77852268Y-85947676D01*
X77852268Y-85947676D02*
X77947506Y-85852438D01*
X77947506Y-85852438D02*
X78090363Y-85804819D01*
X78090363Y-85804819D02*
X78185601Y-85804819D01*
X78185601Y-85804819D02*
X78328458Y-85852438D01*
X78328458Y-85852438D02*
X78376077Y-85900057D01*
X79328458Y-86804819D02*
X78757030Y-86804819D01*
X79042744Y-86804819D02*
X79042744Y-85804819D01*
X79042744Y-85804819D02*
X78947506Y-85947676D01*
X78947506Y-85947676D02*
X78852268Y-86042914D01*
X78852268Y-86042914D02*
X78757030Y-86090533D01*
X79899887Y-86233390D02*
X79804649Y-86185771D01*
X79804649Y-86185771D02*
X79757030Y-86138152D01*
X79757030Y-86138152D02*
X79709411Y-86042914D01*
X79709411Y-86042914D02*
X79709411Y-85995295D01*
X79709411Y-85995295D02*
X79757030Y-85900057D01*
X79757030Y-85900057D02*
X79804649Y-85852438D01*
X79804649Y-85852438D02*
X79899887Y-85804819D01*
X79899887Y-85804819D02*
X80090363Y-85804819D01*
X80090363Y-85804819D02*
X80185601Y-85852438D01*
X80185601Y-85852438D02*
X80233220Y-85900057D01*
X80233220Y-85900057D02*
X80280839Y-85995295D01*
X80280839Y-85995295D02*
X80280839Y-86042914D01*
X80280839Y-86042914D02*
X80233220Y-86138152D01*
X80233220Y-86138152D02*
X80185601Y-86185771D01*
X80185601Y-86185771D02*
X80090363Y-86233390D01*
X80090363Y-86233390D02*
X79899887Y-86233390D01*
X79899887Y-86233390D02*
X79804649Y-86281009D01*
X79804649Y-86281009D02*
X79757030Y-86328628D01*
X79757030Y-86328628D02*
X79709411Y-86423866D01*
X79709411Y-86423866D02*
X79709411Y-86614342D01*
X79709411Y-86614342D02*
X79757030Y-86709580D01*
X79757030Y-86709580D02*
X79804649Y-86757200D01*
X79804649Y-86757200D02*
X79899887Y-86804819D01*
X79899887Y-86804819D02*
X80090363Y-86804819D01*
X80090363Y-86804819D02*
X80185601Y-86757200D01*
X80185601Y-86757200D02*
X80233220Y-86709580D01*
X80233220Y-86709580D02*
X80280839Y-86614342D01*
X80280839Y-86614342D02*
X80280839Y-86423866D01*
X80280839Y-86423866D02*
X80233220Y-86328628D01*
X80233220Y-86328628D02*
X80185601Y-86281009D01*
X80185601Y-86281009D02*
X80090363Y-86233390D01*
X80869819Y-89073333D02*
X81584104Y-89073333D01*
X81584104Y-89073333D02*
X81726961Y-89120952D01*
X81726961Y-89120952D02*
X81822200Y-89216190D01*
X81822200Y-89216190D02*
X81869819Y-89359047D01*
X81869819Y-89359047D02*
X81869819Y-89454285D01*
X80869819Y-88692380D02*
X80869819Y-88073333D01*
X80869819Y-88073333D02*
X81250771Y-88406666D01*
X81250771Y-88406666D02*
X81250771Y-88263809D01*
X81250771Y-88263809D02*
X81298390Y-88168571D01*
X81298390Y-88168571D02*
X81346009Y-88120952D01*
X81346009Y-88120952D02*
X81441247Y-88073333D01*
X81441247Y-88073333D02*
X81679342Y-88073333D01*
X81679342Y-88073333D02*
X81774580Y-88120952D01*
X81774580Y-88120952D02*
X81822200Y-88168571D01*
X81822200Y-88168571D02*
X81869819Y-88263809D01*
X81869819Y-88263809D02*
X81869819Y-88549523D01*
X81869819Y-88549523D02*
X81822200Y-88644761D01*
X81822200Y-88644761D02*
X81774580Y-88692380D01*
X97459523Y-94589819D02*
X97126190Y-94113628D01*
X96888095Y-94589819D02*
X96888095Y-93589819D01*
X96888095Y-93589819D02*
X97269047Y-93589819D01*
X97269047Y-93589819D02*
X97364285Y-93637438D01*
X97364285Y-93637438D02*
X97411904Y-93685057D01*
X97411904Y-93685057D02*
X97459523Y-93780295D01*
X97459523Y-93780295D02*
X97459523Y-93923152D01*
X97459523Y-93923152D02*
X97411904Y-94018390D01*
X97411904Y-94018390D02*
X97364285Y-94066009D01*
X97364285Y-94066009D02*
X97269047Y-94113628D01*
X97269047Y-94113628D02*
X96888095Y-94113628D01*
X97888095Y-94589819D02*
X97888095Y-93589819D01*
X97888095Y-93589819D02*
X98459523Y-94589819D01*
X98459523Y-94589819D02*
X98459523Y-93589819D01*
X99459523Y-94589819D02*
X98888095Y-94589819D01*
X99173809Y-94589819D02*
X99173809Y-93589819D01*
X99173809Y-93589819D02*
X99078571Y-93732676D01*
X99078571Y-93732676D02*
X98983333Y-93827914D01*
X98983333Y-93827914D02*
X98888095Y-93875533D01*
X88583207Y-92769819D02*
X88249874Y-92293628D01*
X88011779Y-92769819D02*
X88011779Y-91769819D01*
X88011779Y-91769819D02*
X88392731Y-91769819D01*
X88392731Y-91769819D02*
X88487969Y-91817438D01*
X88487969Y-91817438D02*
X88535588Y-91865057D01*
X88535588Y-91865057D02*
X88583207Y-91960295D01*
X88583207Y-91960295D02*
X88583207Y-92103152D01*
X88583207Y-92103152D02*
X88535588Y-92198390D01*
X88535588Y-92198390D02*
X88487969Y-92246009D01*
X88487969Y-92246009D02*
X88392731Y-92293628D01*
X88392731Y-92293628D02*
X88011779Y-92293628D01*
X89535588Y-92769819D02*
X88964160Y-92769819D01*
X89249874Y-92769819D02*
X89249874Y-91769819D01*
X89249874Y-91769819D02*
X89154636Y-91912676D01*
X89154636Y-91912676D02*
X89059398Y-92007914D01*
X89059398Y-92007914D02*
X88964160Y-92055533D01*
X85294580Y-66892857D02*
X85342200Y-66940476D01*
X85342200Y-66940476D02*
X85389819Y-67083333D01*
X85389819Y-67083333D02*
X85389819Y-67178571D01*
X85389819Y-67178571D02*
X85342200Y-67321428D01*
X85342200Y-67321428D02*
X85246961Y-67416666D01*
X85246961Y-67416666D02*
X85151723Y-67464285D01*
X85151723Y-67464285D02*
X84961247Y-67511904D01*
X84961247Y-67511904D02*
X84818390Y-67511904D01*
X84818390Y-67511904D02*
X84627914Y-67464285D01*
X84627914Y-67464285D02*
X84532676Y-67416666D01*
X84532676Y-67416666D02*
X84437438Y-67321428D01*
X84437438Y-67321428D02*
X84389819Y-67178571D01*
X84389819Y-67178571D02*
X84389819Y-67083333D01*
X84389819Y-67083333D02*
X84437438Y-66940476D01*
X84437438Y-66940476D02*
X84485057Y-66892857D01*
X84485057Y-66511904D02*
X84437438Y-66464285D01*
X84437438Y-66464285D02*
X84389819Y-66369047D01*
X84389819Y-66369047D02*
X84389819Y-66130952D01*
X84389819Y-66130952D02*
X84437438Y-66035714D01*
X84437438Y-66035714D02*
X84485057Y-65988095D01*
X84485057Y-65988095D02*
X84580295Y-65940476D01*
X84580295Y-65940476D02*
X84675533Y-65940476D01*
X84675533Y-65940476D02*
X84818390Y-65988095D01*
X84818390Y-65988095D02*
X85389819Y-66559523D01*
X85389819Y-66559523D02*
X85389819Y-65940476D01*
X84485057Y-65559523D02*
X84437438Y-65511904D01*
X84437438Y-65511904D02*
X84389819Y-65416666D01*
X84389819Y-65416666D02*
X84389819Y-65178571D01*
X84389819Y-65178571D02*
X84437438Y-65083333D01*
X84437438Y-65083333D02*
X84485057Y-65035714D01*
X84485057Y-65035714D02*
X84580295Y-64988095D01*
X84580295Y-64988095D02*
X84675533Y-64988095D01*
X84675533Y-64988095D02*
X84818390Y-65035714D01*
X84818390Y-65035714D02*
X85389819Y-65607142D01*
X85389819Y-65607142D02*
X85389819Y-64988095D01*
X85476619Y-72142704D02*
X86286142Y-72142704D01*
X86286142Y-72142704D02*
X86381380Y-72095085D01*
X86381380Y-72095085D02*
X86429000Y-72047466D01*
X86429000Y-72047466D02*
X86476619Y-71952228D01*
X86476619Y-71952228D02*
X86476619Y-71761752D01*
X86476619Y-71761752D02*
X86429000Y-71666514D01*
X86429000Y-71666514D02*
X86381380Y-71618895D01*
X86381380Y-71618895D02*
X86286142Y-71571276D01*
X86286142Y-71571276D02*
X85476619Y-71571276D01*
X85809952Y-70666514D02*
X86476619Y-70666514D01*
X85429000Y-70904609D02*
X86143285Y-71142704D01*
X86143285Y-71142704D02*
X86143285Y-70523657D01*
X110304819Y-82761904D02*
X111114342Y-82761904D01*
X111114342Y-82761904D02*
X111209580Y-82714285D01*
X111209580Y-82714285D02*
X111257200Y-82666666D01*
X111257200Y-82666666D02*
X111304819Y-82571428D01*
X111304819Y-82571428D02*
X111304819Y-82380952D01*
X111304819Y-82380952D02*
X111257200Y-82285714D01*
X111257200Y-82285714D02*
X111209580Y-82238095D01*
X111209580Y-82238095D02*
X111114342Y-82190476D01*
X111114342Y-82190476D02*
X110304819Y-82190476D01*
X110304819Y-81238095D02*
X110304819Y-81714285D01*
X110304819Y-81714285D02*
X110781009Y-81761904D01*
X110781009Y-81761904D02*
X110733390Y-81714285D01*
X110733390Y-81714285D02*
X110685771Y-81619047D01*
X110685771Y-81619047D02*
X110685771Y-81380952D01*
X110685771Y-81380952D02*
X110733390Y-81285714D01*
X110733390Y-81285714D02*
X110781009Y-81238095D01*
X110781009Y-81238095D02*
X110876247Y-81190476D01*
X110876247Y-81190476D02*
X111114342Y-81190476D01*
X111114342Y-81190476D02*
X111209580Y-81238095D01*
X111209580Y-81238095D02*
X111257200Y-81285714D01*
X111257200Y-81285714D02*
X111304819Y-81380952D01*
X111304819Y-81380952D02*
X111304819Y-81619047D01*
X111304819Y-81619047D02*
X111257200Y-81714285D01*
X111257200Y-81714285D02*
X111209580Y-81761904D01*
X75769580Y-75279166D02*
X75817200Y-75326785D01*
X75817200Y-75326785D02*
X75864819Y-75469642D01*
X75864819Y-75469642D02*
X75864819Y-75564880D01*
X75864819Y-75564880D02*
X75817200Y-75707737D01*
X75817200Y-75707737D02*
X75721961Y-75802975D01*
X75721961Y-75802975D02*
X75626723Y-75850594D01*
X75626723Y-75850594D02*
X75436247Y-75898213D01*
X75436247Y-75898213D02*
X75293390Y-75898213D01*
X75293390Y-75898213D02*
X75102914Y-75850594D01*
X75102914Y-75850594D02*
X75007676Y-75802975D01*
X75007676Y-75802975D02*
X74912438Y-75707737D01*
X74912438Y-75707737D02*
X74864819Y-75564880D01*
X74864819Y-75564880D02*
X74864819Y-75469642D01*
X74864819Y-75469642D02*
X74912438Y-75326785D01*
X74912438Y-75326785D02*
X74960057Y-75279166D01*
X74864819Y-74945832D02*
X74864819Y-74326785D01*
X74864819Y-74326785D02*
X75245771Y-74660118D01*
X75245771Y-74660118D02*
X75245771Y-74517261D01*
X75245771Y-74517261D02*
X75293390Y-74422023D01*
X75293390Y-74422023D02*
X75341009Y-74374404D01*
X75341009Y-74374404D02*
X75436247Y-74326785D01*
X75436247Y-74326785D02*
X75674342Y-74326785D01*
X75674342Y-74326785D02*
X75769580Y-74374404D01*
X75769580Y-74374404D02*
X75817200Y-74422023D01*
X75817200Y-74422023D02*
X75864819Y-74517261D01*
X75864819Y-74517261D02*
X75864819Y-74802975D01*
X75864819Y-74802975D02*
X75817200Y-74898213D01*
X75817200Y-74898213D02*
X75769580Y-74945832D01*
X74554819Y-73011904D02*
X75364342Y-73011904D01*
X75364342Y-73011904D02*
X75459580Y-72964285D01*
X75459580Y-72964285D02*
X75507200Y-72916666D01*
X75507200Y-72916666D02*
X75554819Y-72821428D01*
X75554819Y-72821428D02*
X75554819Y-72630952D01*
X75554819Y-72630952D02*
X75507200Y-72535714D01*
X75507200Y-72535714D02*
X75459580Y-72488095D01*
X75459580Y-72488095D02*
X75364342Y-72440476D01*
X75364342Y-72440476D02*
X74554819Y-72440476D01*
X75554819Y-71440476D02*
X75554819Y-72011904D01*
X75554819Y-71726190D02*
X74554819Y-71726190D01*
X74554819Y-71726190D02*
X74697676Y-71821428D01*
X74697676Y-71821428D02*
X74792914Y-71916666D01*
X74792914Y-71916666D02*
X74840533Y-72011904D01*
X96724580Y-69166666D02*
X96772200Y-69214285D01*
X96772200Y-69214285D02*
X96819819Y-69357142D01*
X96819819Y-69357142D02*
X96819819Y-69452380D01*
X96819819Y-69452380D02*
X96772200Y-69595237D01*
X96772200Y-69595237D02*
X96676961Y-69690475D01*
X96676961Y-69690475D02*
X96581723Y-69738094D01*
X96581723Y-69738094D02*
X96391247Y-69785713D01*
X96391247Y-69785713D02*
X96248390Y-69785713D01*
X96248390Y-69785713D02*
X96057914Y-69738094D01*
X96057914Y-69738094D02*
X95962676Y-69690475D01*
X95962676Y-69690475D02*
X95867438Y-69595237D01*
X95867438Y-69595237D02*
X95819819Y-69452380D01*
X95819819Y-69452380D02*
X95819819Y-69357142D01*
X95819819Y-69357142D02*
X95867438Y-69214285D01*
X95867438Y-69214285D02*
X95915057Y-69166666D01*
X95819819Y-68833332D02*
X95819819Y-68166666D01*
X95819819Y-68166666D02*
X96819819Y-68595237D01*
X90838095Y-90165819D02*
X90838095Y-90975342D01*
X90838095Y-90975342D02*
X90885714Y-91070580D01*
X90885714Y-91070580D02*
X90933333Y-91118200D01*
X90933333Y-91118200D02*
X91028571Y-91165819D01*
X91028571Y-91165819D02*
X91219047Y-91165819D01*
X91219047Y-91165819D02*
X91314285Y-91118200D01*
X91314285Y-91118200D02*
X91361904Y-91070580D01*
X91361904Y-91070580D02*
X91409523Y-90975342D01*
X91409523Y-90975342D02*
X91409523Y-90165819D01*
X91838095Y-90261057D02*
X91885714Y-90213438D01*
X91885714Y-90213438D02*
X91980952Y-90165819D01*
X91980952Y-90165819D02*
X92219047Y-90165819D01*
X92219047Y-90165819D02*
X92314285Y-90213438D01*
X92314285Y-90213438D02*
X92361904Y-90261057D01*
X92361904Y-90261057D02*
X92409523Y-90356295D01*
X92409523Y-90356295D02*
X92409523Y-90451533D01*
X92409523Y-90451533D02*
X92361904Y-90594390D01*
X92361904Y-90594390D02*
X91790476Y-91165819D01*
X91790476Y-91165819D02*
X92409523Y-91165819D01*
X113819819Y-75839160D02*
X114534104Y-75839160D01*
X114534104Y-75839160D02*
X114676961Y-75886779D01*
X114676961Y-75886779D02*
X114772200Y-75982017D01*
X114772200Y-75982017D02*
X114819819Y-76124874D01*
X114819819Y-76124874D02*
X114819819Y-76220112D01*
X114248390Y-75220112D02*
X114200771Y-75315350D01*
X114200771Y-75315350D02*
X114153152Y-75362969D01*
X114153152Y-75362969D02*
X114057914Y-75410588D01*
X114057914Y-75410588D02*
X114010295Y-75410588D01*
X114010295Y-75410588D02*
X113915057Y-75362969D01*
X113915057Y-75362969D02*
X113867438Y-75315350D01*
X113867438Y-75315350D02*
X113819819Y-75220112D01*
X113819819Y-75220112D02*
X113819819Y-75029636D01*
X113819819Y-75029636D02*
X113867438Y-74934398D01*
X113867438Y-74934398D02*
X113915057Y-74886779D01*
X113915057Y-74886779D02*
X114010295Y-74839160D01*
X114010295Y-74839160D02*
X114057914Y-74839160D01*
X114057914Y-74839160D02*
X114153152Y-74886779D01*
X114153152Y-74886779D02*
X114200771Y-74934398D01*
X114200771Y-74934398D02*
X114248390Y-75029636D01*
X114248390Y-75029636D02*
X114248390Y-75220112D01*
X114248390Y-75220112D02*
X114296009Y-75315350D01*
X114296009Y-75315350D02*
X114343628Y-75362969D01*
X114343628Y-75362969D02*
X114438866Y-75410588D01*
X114438866Y-75410588D02*
X114629342Y-75410588D01*
X114629342Y-75410588D02*
X114724580Y-75362969D01*
X114724580Y-75362969D02*
X114772200Y-75315350D01*
X114772200Y-75315350D02*
X114819819Y-75220112D01*
X114819819Y-75220112D02*
X114819819Y-75029636D01*
X114819819Y-75029636D02*
X114772200Y-74934398D01*
X114772200Y-74934398D02*
X114724580Y-74886779D01*
X114724580Y-74886779D02*
X114629342Y-74839160D01*
X114629342Y-74839160D02*
X114438866Y-74839160D01*
X114438866Y-74839160D02*
X114343628Y-74886779D01*
X114343628Y-74886779D02*
X114296009Y-74934398D01*
X114296009Y-74934398D02*
X114248390Y-75029636D01*
X114069819Y-73777506D02*
X114784104Y-73777506D01*
X114784104Y-73777506D02*
X114926961Y-73825125D01*
X114926961Y-73825125D02*
X115022200Y-73920363D01*
X115022200Y-73920363D02*
X115069819Y-74063220D01*
X115069819Y-74063220D02*
X115069819Y-74158458D01*
X114069819Y-73396553D02*
X114069819Y-72729887D01*
X114069819Y-72729887D02*
X115069819Y-73158458D01*
X112607142Y-78044580D02*
X112559523Y-78092200D01*
X112559523Y-78092200D02*
X112416666Y-78139819D01*
X112416666Y-78139819D02*
X112321428Y-78139819D01*
X112321428Y-78139819D02*
X112178571Y-78092200D01*
X112178571Y-78092200D02*
X112083333Y-77996961D01*
X112083333Y-77996961D02*
X112035714Y-77901723D01*
X112035714Y-77901723D02*
X111988095Y-77711247D01*
X111988095Y-77711247D02*
X111988095Y-77568390D01*
X111988095Y-77568390D02*
X112035714Y-77377914D01*
X112035714Y-77377914D02*
X112083333Y-77282676D01*
X112083333Y-77282676D02*
X112178571Y-77187438D01*
X112178571Y-77187438D02*
X112321428Y-77139819D01*
X112321428Y-77139819D02*
X112416666Y-77139819D01*
X112416666Y-77139819D02*
X112559523Y-77187438D01*
X112559523Y-77187438D02*
X112607142Y-77235057D01*
X113559523Y-78139819D02*
X112988095Y-78139819D01*
X113273809Y-78139819D02*
X113273809Y-77139819D01*
X113273809Y-77139819D02*
X113178571Y-77282676D01*
X113178571Y-77282676D02*
X113083333Y-77377914D01*
X113083333Y-77377914D02*
X112988095Y-77425533D01*
X114178571Y-77139819D02*
X114273809Y-77139819D01*
X114273809Y-77139819D02*
X114369047Y-77187438D01*
X114369047Y-77187438D02*
X114416666Y-77235057D01*
X114416666Y-77235057D02*
X114464285Y-77330295D01*
X114464285Y-77330295D02*
X114511904Y-77520771D01*
X114511904Y-77520771D02*
X114511904Y-77758866D01*
X114511904Y-77758866D02*
X114464285Y-77949342D01*
X114464285Y-77949342D02*
X114416666Y-78044580D01*
X114416666Y-78044580D02*
X114369047Y-78092200D01*
X114369047Y-78092200D02*
X114273809Y-78139819D01*
X114273809Y-78139819D02*
X114178571Y-78139819D01*
X114178571Y-78139819D02*
X114083333Y-78092200D01*
X114083333Y-78092200D02*
X114035714Y-78044580D01*
X114035714Y-78044580D02*
X113988095Y-77949342D01*
X113988095Y-77949342D02*
X113940476Y-77758866D01*
X113940476Y-77758866D02*
X113940476Y-77520771D01*
X113940476Y-77520771D02*
X113988095Y-77330295D01*
X113988095Y-77330295D02*
X114035714Y-77235057D01*
X114035714Y-77235057D02*
X114083333Y-77187438D01*
X114083333Y-77187438D02*
X114178571Y-77139819D01*
X121604819Y-84538094D02*
X120604819Y-84538094D01*
X120604819Y-84538094D02*
X120604819Y-84299999D01*
X120604819Y-84299999D02*
X120652438Y-84157142D01*
X120652438Y-84157142D02*
X120747676Y-84061904D01*
X120747676Y-84061904D02*
X120842914Y-84014285D01*
X120842914Y-84014285D02*
X121033390Y-83966666D01*
X121033390Y-83966666D02*
X121176247Y-83966666D01*
X121176247Y-83966666D02*
X121366723Y-84014285D01*
X121366723Y-84014285D02*
X121461961Y-84061904D01*
X121461961Y-84061904D02*
X121557200Y-84157142D01*
X121557200Y-84157142D02*
X121604819Y-84299999D01*
X121604819Y-84299999D02*
X121604819Y-84538094D01*
X121604819Y-83014285D02*
X121604819Y-83585713D01*
X121604819Y-83299999D02*
X120604819Y-83299999D01*
X120604819Y-83299999D02*
X120747676Y-83395237D01*
X120747676Y-83395237D02*
X120842914Y-83490475D01*
X120842914Y-83490475D02*
X120890533Y-83585713D01*
X83407142Y-79644580D02*
X83359523Y-79692200D01*
X83359523Y-79692200D02*
X83216666Y-79739819D01*
X83216666Y-79739819D02*
X83121428Y-79739819D01*
X83121428Y-79739819D02*
X82978571Y-79692200D01*
X82978571Y-79692200D02*
X82883333Y-79596961D01*
X82883333Y-79596961D02*
X82835714Y-79501723D01*
X82835714Y-79501723D02*
X82788095Y-79311247D01*
X82788095Y-79311247D02*
X82788095Y-79168390D01*
X82788095Y-79168390D02*
X82835714Y-78977914D01*
X82835714Y-78977914D02*
X82883333Y-78882676D01*
X82883333Y-78882676D02*
X82978571Y-78787438D01*
X82978571Y-78787438D02*
X83121428Y-78739819D01*
X83121428Y-78739819D02*
X83216666Y-78739819D01*
X83216666Y-78739819D02*
X83359523Y-78787438D01*
X83359523Y-78787438D02*
X83407142Y-78835057D01*
X84359523Y-79739819D02*
X83788095Y-79739819D01*
X84073809Y-79739819D02*
X84073809Y-78739819D01*
X84073809Y-78739819D02*
X83978571Y-78882676D01*
X83978571Y-78882676D02*
X83883333Y-78977914D01*
X83883333Y-78977914D02*
X83788095Y-79025533D01*
X85216666Y-79073152D02*
X85216666Y-79739819D01*
X84978571Y-78692200D02*
X84740476Y-79406485D01*
X84740476Y-79406485D02*
X85359523Y-79406485D01*
X101689819Y-86490476D02*
X101213628Y-86823809D01*
X101689819Y-87061904D02*
X100689819Y-87061904D01*
X100689819Y-87061904D02*
X100689819Y-86680952D01*
X100689819Y-86680952D02*
X100737438Y-86585714D01*
X100737438Y-86585714D02*
X100785057Y-86538095D01*
X100785057Y-86538095D02*
X100880295Y-86490476D01*
X100880295Y-86490476D02*
X101023152Y-86490476D01*
X101023152Y-86490476D02*
X101118390Y-86538095D01*
X101118390Y-86538095D02*
X101166009Y-86585714D01*
X101166009Y-86585714D02*
X101213628Y-86680952D01*
X101213628Y-86680952D02*
X101213628Y-87061904D01*
X101689819Y-86061904D02*
X100689819Y-86061904D01*
X100689819Y-86061904D02*
X101689819Y-85490476D01*
X101689819Y-85490476D02*
X100689819Y-85490476D01*
X100785057Y-85061904D02*
X100737438Y-85014285D01*
X100737438Y-85014285D02*
X100689819Y-84919047D01*
X100689819Y-84919047D02*
X100689819Y-84680952D01*
X100689819Y-84680952D02*
X100737438Y-84585714D01*
X100737438Y-84585714D02*
X100785057Y-84538095D01*
X100785057Y-84538095D02*
X100880295Y-84490476D01*
X100880295Y-84490476D02*
X100975533Y-84490476D01*
X100975533Y-84490476D02*
X101118390Y-84538095D01*
X101118390Y-84538095D02*
X101689819Y-85109523D01*
X101689819Y-85109523D02*
X101689819Y-84490476D01*
X103224580Y-69166666D02*
X103272200Y-69214285D01*
X103272200Y-69214285D02*
X103319819Y-69357142D01*
X103319819Y-69357142D02*
X103319819Y-69452380D01*
X103319819Y-69452380D02*
X103272200Y-69595237D01*
X103272200Y-69595237D02*
X103176961Y-69690475D01*
X103176961Y-69690475D02*
X103081723Y-69738094D01*
X103081723Y-69738094D02*
X102891247Y-69785713D01*
X102891247Y-69785713D02*
X102748390Y-69785713D01*
X102748390Y-69785713D02*
X102557914Y-69738094D01*
X102557914Y-69738094D02*
X102462676Y-69690475D01*
X102462676Y-69690475D02*
X102367438Y-69595237D01*
X102367438Y-69595237D02*
X102319819Y-69452380D01*
X102319819Y-69452380D02*
X102319819Y-69357142D01*
X102319819Y-69357142D02*
X102367438Y-69214285D01*
X102367438Y-69214285D02*
X102415057Y-69166666D01*
X102319819Y-68261904D02*
X102319819Y-68738094D01*
X102319819Y-68738094D02*
X102796009Y-68785713D01*
X102796009Y-68785713D02*
X102748390Y-68738094D01*
X102748390Y-68738094D02*
X102700771Y-68642856D01*
X102700771Y-68642856D02*
X102700771Y-68404761D01*
X102700771Y-68404761D02*
X102748390Y-68309523D01*
X102748390Y-68309523D02*
X102796009Y-68261904D01*
X102796009Y-68261904D02*
X102891247Y-68214285D01*
X102891247Y-68214285D02*
X103129342Y-68214285D01*
X103129342Y-68214285D02*
X103224580Y-68261904D01*
X103224580Y-68261904D02*
X103272200Y-68309523D01*
X103272200Y-68309523D02*
X103319819Y-68404761D01*
X103319819Y-68404761D02*
X103319819Y-68642856D01*
X103319819Y-68642856D02*
X103272200Y-68738094D01*
X103272200Y-68738094D02*
X103224580Y-68785713D01*
X102569819Y-93409523D02*
X103284104Y-93409523D01*
X103284104Y-93409523D02*
X103426961Y-93457142D01*
X103426961Y-93457142D02*
X103522200Y-93552380D01*
X103522200Y-93552380D02*
X103569819Y-93695237D01*
X103569819Y-93695237D02*
X103569819Y-93790475D01*
X103569819Y-92409523D02*
X103569819Y-92980951D01*
X103569819Y-92695237D02*
X102569819Y-92695237D01*
X102569819Y-92695237D02*
X102712676Y-92790475D01*
X102712676Y-92790475D02*
X102807914Y-92885713D01*
X102807914Y-92885713D02*
X102855533Y-92980951D01*
X102569819Y-91790475D02*
X102569819Y-91695237D01*
X102569819Y-91695237D02*
X102617438Y-91599999D01*
X102617438Y-91599999D02*
X102665057Y-91552380D01*
X102665057Y-91552380D02*
X102760295Y-91504761D01*
X102760295Y-91504761D02*
X102950771Y-91457142D01*
X102950771Y-91457142D02*
X103188866Y-91457142D01*
X103188866Y-91457142D02*
X103379342Y-91504761D01*
X103379342Y-91504761D02*
X103474580Y-91552380D01*
X103474580Y-91552380D02*
X103522200Y-91599999D01*
X103522200Y-91599999D02*
X103569819Y-91695237D01*
X103569819Y-91695237D02*
X103569819Y-91790475D01*
X103569819Y-91790475D02*
X103522200Y-91885713D01*
X103522200Y-91885713D02*
X103474580Y-91933332D01*
X103474580Y-91933332D02*
X103379342Y-91980951D01*
X103379342Y-91980951D02*
X103188866Y-92028570D01*
X103188866Y-92028570D02*
X102950771Y-92028570D01*
X102950771Y-92028570D02*
X102760295Y-91980951D01*
X102760295Y-91980951D02*
X102665057Y-91933332D01*
X102665057Y-91933332D02*
X102617438Y-91885713D01*
X102617438Y-91885713D02*
X102569819Y-91790475D01*
X78804819Y-60538094D02*
X77804819Y-60538094D01*
X77804819Y-60538094D02*
X77804819Y-60299999D01*
X77804819Y-60299999D02*
X77852438Y-60157142D01*
X77852438Y-60157142D02*
X77947676Y-60061904D01*
X77947676Y-60061904D02*
X78042914Y-60014285D01*
X78042914Y-60014285D02*
X78233390Y-59966666D01*
X78233390Y-59966666D02*
X78376247Y-59966666D01*
X78376247Y-59966666D02*
X78566723Y-60014285D01*
X78566723Y-60014285D02*
X78661961Y-60061904D01*
X78661961Y-60061904D02*
X78757200Y-60157142D01*
X78757200Y-60157142D02*
X78804819Y-60299999D01*
X78804819Y-60299999D02*
X78804819Y-60538094D01*
X77900057Y-59585713D02*
X77852438Y-59538094D01*
X77852438Y-59538094D02*
X77804819Y-59442856D01*
X77804819Y-59442856D02*
X77804819Y-59204761D01*
X77804819Y-59204761D02*
X77852438Y-59109523D01*
X77852438Y-59109523D02*
X77900057Y-59061904D01*
X77900057Y-59061904D02*
X77995295Y-59014285D01*
X77995295Y-59014285D02*
X78090533Y-59014285D01*
X78090533Y-59014285D02*
X78233390Y-59061904D01*
X78233390Y-59061904D02*
X78804819Y-59633332D01*
X78804819Y-59633332D02*
X78804819Y-59014285D01*
X113819819Y-62239160D02*
X114534104Y-62239160D01*
X114534104Y-62239160D02*
X114676961Y-62286779D01*
X114676961Y-62286779D02*
X114772200Y-62382017D01*
X114772200Y-62382017D02*
X114819819Y-62524874D01*
X114819819Y-62524874D02*
X114819819Y-62620112D01*
X113819819Y-61334398D02*
X113819819Y-61524874D01*
X113819819Y-61524874D02*
X113867438Y-61620112D01*
X113867438Y-61620112D02*
X113915057Y-61667731D01*
X113915057Y-61667731D02*
X114057914Y-61762969D01*
X114057914Y-61762969D02*
X114248390Y-61810588D01*
X114248390Y-61810588D02*
X114629342Y-61810588D01*
X114629342Y-61810588D02*
X114724580Y-61762969D01*
X114724580Y-61762969D02*
X114772200Y-61715350D01*
X114772200Y-61715350D02*
X114819819Y-61620112D01*
X114819819Y-61620112D02*
X114819819Y-61429636D01*
X114819819Y-61429636D02*
X114772200Y-61334398D01*
X114772200Y-61334398D02*
X114724580Y-61286779D01*
X114724580Y-61286779D02*
X114629342Y-61239160D01*
X114629342Y-61239160D02*
X114391247Y-61239160D01*
X114391247Y-61239160D02*
X114296009Y-61286779D01*
X114296009Y-61286779D02*
X114248390Y-61334398D01*
X114248390Y-61334398D02*
X114200771Y-61429636D01*
X114200771Y-61429636D02*
X114200771Y-61620112D01*
X114200771Y-61620112D02*
X114248390Y-61715350D01*
X114248390Y-61715350D02*
X114296009Y-61762969D01*
X114296009Y-61762969D02*
X114391247Y-61810588D01*
X96699580Y-65916666D02*
X96747200Y-65964285D01*
X96747200Y-65964285D02*
X96794819Y-66107142D01*
X96794819Y-66107142D02*
X96794819Y-66202380D01*
X96794819Y-66202380D02*
X96747200Y-66345237D01*
X96747200Y-66345237D02*
X96651961Y-66440475D01*
X96651961Y-66440475D02*
X96556723Y-66488094D01*
X96556723Y-66488094D02*
X96366247Y-66535713D01*
X96366247Y-66535713D02*
X96223390Y-66535713D01*
X96223390Y-66535713D02*
X96032914Y-66488094D01*
X96032914Y-66488094D02*
X95937676Y-66440475D01*
X95937676Y-66440475D02*
X95842438Y-66345237D01*
X95842438Y-66345237D02*
X95794819Y-66202380D01*
X95794819Y-66202380D02*
X95794819Y-66107142D01*
X95794819Y-66107142D02*
X95842438Y-65964285D01*
X95842438Y-65964285D02*
X95890057Y-65916666D01*
X95794819Y-65059523D02*
X95794819Y-65249999D01*
X95794819Y-65249999D02*
X95842438Y-65345237D01*
X95842438Y-65345237D02*
X95890057Y-65392856D01*
X95890057Y-65392856D02*
X96032914Y-65488094D01*
X96032914Y-65488094D02*
X96223390Y-65535713D01*
X96223390Y-65535713D02*
X96604342Y-65535713D01*
X96604342Y-65535713D02*
X96699580Y-65488094D01*
X96699580Y-65488094D02*
X96747200Y-65440475D01*
X96747200Y-65440475D02*
X96794819Y-65345237D01*
X96794819Y-65345237D02*
X96794819Y-65154761D01*
X96794819Y-65154761D02*
X96747200Y-65059523D01*
X96747200Y-65059523D02*
X96699580Y-65011904D01*
X96699580Y-65011904D02*
X96604342Y-64964285D01*
X96604342Y-64964285D02*
X96366247Y-64964285D01*
X96366247Y-64964285D02*
X96271009Y-65011904D01*
X96271009Y-65011904D02*
X96223390Y-65059523D01*
X96223390Y-65059523D02*
X96175771Y-65154761D01*
X96175771Y-65154761D02*
X96175771Y-65345237D01*
X96175771Y-65345237D02*
X96223390Y-65440475D01*
X96223390Y-65440475D02*
X96271009Y-65488094D01*
X96271009Y-65488094D02*
X96366247Y-65535713D01*
X86001667Y-95087200D02*
X86144524Y-95134819D01*
X86144524Y-95134819D02*
X86382619Y-95134819D01*
X86382619Y-95134819D02*
X86477857Y-95087200D01*
X86477857Y-95087200D02*
X86525476Y-95039580D01*
X86525476Y-95039580D02*
X86573095Y-94944342D01*
X86573095Y-94944342D02*
X86573095Y-94849104D01*
X86573095Y-94849104D02*
X86525476Y-94753866D01*
X86525476Y-94753866D02*
X86477857Y-94706247D01*
X86477857Y-94706247D02*
X86382619Y-94658628D01*
X86382619Y-94658628D02*
X86192143Y-94611009D01*
X86192143Y-94611009D02*
X86096905Y-94563390D01*
X86096905Y-94563390D02*
X86049286Y-94515771D01*
X86049286Y-94515771D02*
X86001667Y-94420533D01*
X86001667Y-94420533D02*
X86001667Y-94325295D01*
X86001667Y-94325295D02*
X86049286Y-94230057D01*
X86049286Y-94230057D02*
X86096905Y-94182438D01*
X86096905Y-94182438D02*
X86192143Y-94134819D01*
X86192143Y-94134819D02*
X86430238Y-94134819D01*
X86430238Y-94134819D02*
X86573095Y-94182438D01*
X86906429Y-94134819D02*
X87144524Y-95134819D01*
X87144524Y-95134819D02*
X87335000Y-94420533D01*
X87335000Y-94420533D02*
X87525476Y-95134819D01*
X87525476Y-95134819D02*
X87763572Y-94134819D01*
X88668333Y-95134819D02*
X88096905Y-95134819D01*
X88382619Y-95134819D02*
X88382619Y-94134819D01*
X88382619Y-94134819D02*
X88287381Y-94277676D01*
X88287381Y-94277676D02*
X88192143Y-94372914D01*
X88192143Y-94372914D02*
X88096905Y-94420533D01*
X96819819Y-73687030D02*
X96819819Y-74163220D01*
X96819819Y-74163220D02*
X95819819Y-74163220D01*
X96819819Y-72829887D02*
X96819819Y-73401315D01*
X96819819Y-73115601D02*
X95819819Y-73115601D01*
X95819819Y-73115601D02*
X95962676Y-73210839D01*
X95962676Y-73210839D02*
X96057914Y-73306077D01*
X96057914Y-73306077D02*
X96105533Y-73401315D01*
X97806779Y-96179819D02*
X97806779Y-95179819D01*
X97806779Y-95179819D02*
X98044874Y-95179819D01*
X98044874Y-95179819D02*
X98187731Y-95227438D01*
X98187731Y-95227438D02*
X98282969Y-95322676D01*
X98282969Y-95322676D02*
X98330588Y-95417914D01*
X98330588Y-95417914D02*
X98378207Y-95608390D01*
X98378207Y-95608390D02*
X98378207Y-95751247D01*
X98378207Y-95751247D02*
X98330588Y-95941723D01*
X98330588Y-95941723D02*
X98282969Y-96036961D01*
X98282969Y-96036961D02*
X98187731Y-96132200D01*
X98187731Y-96132200D02*
X98044874Y-96179819D01*
X98044874Y-96179819D02*
X97806779Y-96179819D01*
X99330588Y-96179819D02*
X98759160Y-96179819D01*
X99044874Y-96179819D02*
X99044874Y-95179819D01*
X99044874Y-95179819D02*
X98949636Y-95322676D01*
X98949636Y-95322676D02*
X98854398Y-95417914D01*
X98854398Y-95417914D02*
X98759160Y-95465533D01*
X99711541Y-95275057D02*
X99759160Y-95227438D01*
X99759160Y-95227438D02*
X99854398Y-95179819D01*
X99854398Y-95179819D02*
X100092493Y-95179819D01*
X100092493Y-95179819D02*
X100187731Y-95227438D01*
X100187731Y-95227438D02*
X100235350Y-95275057D01*
X100235350Y-95275057D02*
X100282969Y-95370295D01*
X100282969Y-95370295D02*
X100282969Y-95465533D01*
X100282969Y-95465533D02*
X100235350Y-95608390D01*
X100235350Y-95608390D02*
X99663922Y-96179819D01*
X99663922Y-96179819D02*
X100282969Y-96179819D01*
X96597080Y-85466792D02*
X96644700Y-85514411D01*
X96644700Y-85514411D02*
X96692319Y-85657268D01*
X96692319Y-85657268D02*
X96692319Y-85752506D01*
X96692319Y-85752506D02*
X96644700Y-85895363D01*
X96644700Y-85895363D02*
X96549461Y-85990601D01*
X96549461Y-85990601D02*
X96454223Y-86038220D01*
X96454223Y-86038220D02*
X96263747Y-86085839D01*
X96263747Y-86085839D02*
X96120890Y-86085839D01*
X96120890Y-86085839D02*
X95930414Y-86038220D01*
X95930414Y-86038220D02*
X95835176Y-85990601D01*
X95835176Y-85990601D02*
X95739938Y-85895363D01*
X95739938Y-85895363D02*
X95692319Y-85752506D01*
X95692319Y-85752506D02*
X95692319Y-85657268D01*
X95692319Y-85657268D02*
X95739938Y-85514411D01*
X95739938Y-85514411D02*
X95787557Y-85466792D01*
X96692319Y-84514411D02*
X96692319Y-85085839D01*
X96692319Y-84800125D02*
X95692319Y-84800125D01*
X95692319Y-84800125D02*
X95835176Y-84895363D01*
X95835176Y-84895363D02*
X95930414Y-84990601D01*
X95930414Y-84990601D02*
X95978033Y-85085839D01*
X76156077Y-80959580D02*
X76108458Y-81007200D01*
X76108458Y-81007200D02*
X75965601Y-81054819D01*
X75965601Y-81054819D02*
X75870363Y-81054819D01*
X75870363Y-81054819D02*
X75727506Y-81007200D01*
X75727506Y-81007200D02*
X75632268Y-80911961D01*
X75632268Y-80911961D02*
X75584649Y-80816723D01*
X75584649Y-80816723D02*
X75537030Y-80626247D01*
X75537030Y-80626247D02*
X75537030Y-80483390D01*
X75537030Y-80483390D02*
X75584649Y-80292914D01*
X75584649Y-80292914D02*
X75632268Y-80197676D01*
X75632268Y-80197676D02*
X75727506Y-80102438D01*
X75727506Y-80102438D02*
X75870363Y-80054819D01*
X75870363Y-80054819D02*
X75965601Y-80054819D01*
X75965601Y-80054819D02*
X76108458Y-80102438D01*
X76108458Y-80102438D02*
X76156077Y-80150057D01*
X77108458Y-81054819D02*
X76537030Y-81054819D01*
X76822744Y-81054819D02*
X76822744Y-80054819D01*
X76822744Y-80054819D02*
X76727506Y-80197676D01*
X76727506Y-80197676D02*
X76632268Y-80292914D01*
X76632268Y-80292914D02*
X76537030Y-80340533D01*
X78013220Y-80054819D02*
X77537030Y-80054819D01*
X77537030Y-80054819D02*
X77489411Y-80531009D01*
X77489411Y-80531009D02*
X77537030Y-80483390D01*
X77537030Y-80483390D02*
X77632268Y-80435771D01*
X77632268Y-80435771D02*
X77870363Y-80435771D01*
X77870363Y-80435771D02*
X77965601Y-80483390D01*
X77965601Y-80483390D02*
X78013220Y-80531009D01*
X78013220Y-80531009D02*
X78060839Y-80626247D01*
X78060839Y-80626247D02*
X78060839Y-80864342D01*
X78060839Y-80864342D02*
X78013220Y-80959580D01*
X78013220Y-80959580D02*
X77965601Y-81007200D01*
X77965601Y-81007200D02*
X77870363Y-81054819D01*
X77870363Y-81054819D02*
X77632268Y-81054819D01*
X77632268Y-81054819D02*
X77537030Y-81007200D01*
X77537030Y-81007200D02*
X77489411Y-80959580D01*
X76903696Y-84054819D02*
X76427506Y-84054819D01*
X76427506Y-84054819D02*
X76427506Y-83054819D01*
X77189411Y-83150057D02*
X77237030Y-83102438D01*
X77237030Y-83102438D02*
X77332268Y-83054819D01*
X77332268Y-83054819D02*
X77570363Y-83054819D01*
X77570363Y-83054819D02*
X77665601Y-83102438D01*
X77665601Y-83102438D02*
X77713220Y-83150057D01*
X77713220Y-83150057D02*
X77760839Y-83245295D01*
X77760839Y-83245295D02*
X77760839Y-83340533D01*
X77760839Y-83340533D02*
X77713220Y-83483390D01*
X77713220Y-83483390D02*
X77141792Y-84054819D01*
X77141792Y-84054819D02*
X77760839Y-84054819D01*
X90874761Y-74220057D02*
X90779523Y-74172438D01*
X90779523Y-74172438D02*
X90684285Y-74077200D01*
X90684285Y-74077200D02*
X90541428Y-73934342D01*
X90541428Y-73934342D02*
X90446190Y-73886723D01*
X90446190Y-73886723D02*
X90350952Y-73886723D01*
X90398571Y-74124819D02*
X90303333Y-74077200D01*
X90303333Y-74077200D02*
X90208095Y-73981961D01*
X90208095Y-73981961D02*
X90160476Y-73791485D01*
X90160476Y-73791485D02*
X90160476Y-73458152D01*
X90160476Y-73458152D02*
X90208095Y-73267676D01*
X90208095Y-73267676D02*
X90303333Y-73172438D01*
X90303333Y-73172438D02*
X90398571Y-73124819D01*
X90398571Y-73124819D02*
X90589047Y-73124819D01*
X90589047Y-73124819D02*
X90684285Y-73172438D01*
X90684285Y-73172438D02*
X90779523Y-73267676D01*
X90779523Y-73267676D02*
X90827142Y-73458152D01*
X90827142Y-73458152D02*
X90827142Y-73791485D01*
X90827142Y-73791485D02*
X90779523Y-73981961D01*
X90779523Y-73981961D02*
X90684285Y-74077200D01*
X90684285Y-74077200D02*
X90589047Y-74124819D01*
X90589047Y-74124819D02*
X90398571Y-74124819D01*
X91208095Y-73220057D02*
X91255714Y-73172438D01*
X91255714Y-73172438D02*
X91350952Y-73124819D01*
X91350952Y-73124819D02*
X91589047Y-73124819D01*
X91589047Y-73124819D02*
X91684285Y-73172438D01*
X91684285Y-73172438D02*
X91731904Y-73220057D01*
X91731904Y-73220057D02*
X91779523Y-73315295D01*
X91779523Y-73315295D02*
X91779523Y-73410533D01*
X91779523Y-73410533D02*
X91731904Y-73553390D01*
X91731904Y-73553390D02*
X91160476Y-74124819D01*
X91160476Y-74124819D02*
X91779523Y-74124819D01*
X110054819Y-69266666D02*
X109578628Y-69599999D01*
X110054819Y-69838094D02*
X109054819Y-69838094D01*
X109054819Y-69838094D02*
X109054819Y-69457142D01*
X109054819Y-69457142D02*
X109102438Y-69361904D01*
X109102438Y-69361904D02*
X109150057Y-69314285D01*
X109150057Y-69314285D02*
X109245295Y-69266666D01*
X109245295Y-69266666D02*
X109388152Y-69266666D01*
X109388152Y-69266666D02*
X109483390Y-69314285D01*
X109483390Y-69314285D02*
X109531009Y-69361904D01*
X109531009Y-69361904D02*
X109578628Y-69457142D01*
X109578628Y-69457142D02*
X109578628Y-69838094D01*
X109054819Y-68933332D02*
X109054819Y-68314285D01*
X109054819Y-68314285D02*
X109435771Y-68647618D01*
X109435771Y-68647618D02*
X109435771Y-68504761D01*
X109435771Y-68504761D02*
X109483390Y-68409523D01*
X109483390Y-68409523D02*
X109531009Y-68361904D01*
X109531009Y-68361904D02*
X109626247Y-68314285D01*
X109626247Y-68314285D02*
X109864342Y-68314285D01*
X109864342Y-68314285D02*
X109959580Y-68361904D01*
X109959580Y-68361904D02*
X110007200Y-68409523D01*
X110007200Y-68409523D02*
X110054819Y-68504761D01*
X110054819Y-68504761D02*
X110054819Y-68790475D01*
X110054819Y-68790475D02*
X110007200Y-68885713D01*
X110007200Y-68885713D02*
X109959580Y-68933332D01*
X86169819Y-56077506D02*
X86884104Y-56077506D01*
X86884104Y-56077506D02*
X87026961Y-56125125D01*
X87026961Y-56125125D02*
X87122200Y-56220363D01*
X87122200Y-56220363D02*
X87169819Y-56363220D01*
X87169819Y-56363220D02*
X87169819Y-56458458D01*
X86503152Y-55172744D02*
X87169819Y-55172744D01*
X86122200Y-55410839D02*
X86836485Y-55648934D01*
X86836485Y-55648934D02*
X86836485Y-55029887D01*
X97428571Y-60894700D02*
X98571429Y-60894700D01*
X86428571Y-60894700D02*
X87571429Y-60894700D01*
X87000000Y-61466128D02*
X87000000Y-60323271D01*
X83866779Y-85949419D02*
X83866779Y-86758942D01*
X83866779Y-86758942D02*
X83914398Y-86854180D01*
X83914398Y-86854180D02*
X83962017Y-86901800D01*
X83962017Y-86901800D02*
X84057255Y-86949419D01*
X84057255Y-86949419D02*
X84247731Y-86949419D01*
X84247731Y-86949419D02*
X84342969Y-86901800D01*
X84342969Y-86901800D02*
X84390588Y-86854180D01*
X84390588Y-86854180D02*
X84438207Y-86758942D01*
X84438207Y-86758942D02*
X84438207Y-85949419D01*
X84819160Y-85949419D02*
X85485826Y-85949419D01*
X85485826Y-85949419D02*
X85057255Y-86949419D01*
X116739819Y-90833333D02*
X117454104Y-90833333D01*
X117454104Y-90833333D02*
X117596961Y-90880952D01*
X117596961Y-90880952D02*
X117692200Y-90976190D01*
X117692200Y-90976190D02*
X117739819Y-91119047D01*
X117739819Y-91119047D02*
X117739819Y-91214285D01*
X117739819Y-90309523D02*
X117739819Y-90119047D01*
X117739819Y-90119047D02*
X117692200Y-90023809D01*
X117692200Y-90023809D02*
X117644580Y-89976190D01*
X117644580Y-89976190D02*
X117501723Y-89880952D01*
X117501723Y-89880952D02*
X117311247Y-89833333D01*
X117311247Y-89833333D02*
X116930295Y-89833333D01*
X116930295Y-89833333D02*
X116835057Y-89880952D01*
X116835057Y-89880952D02*
X116787438Y-89928571D01*
X116787438Y-89928571D02*
X116739819Y-90023809D01*
X116739819Y-90023809D02*
X116739819Y-90214285D01*
X116739819Y-90214285D02*
X116787438Y-90309523D01*
X116787438Y-90309523D02*
X116835057Y-90357142D01*
X116835057Y-90357142D02*
X116930295Y-90404761D01*
X116930295Y-90404761D02*
X117168390Y-90404761D01*
X117168390Y-90404761D02*
X117263628Y-90357142D01*
X117263628Y-90357142D02*
X117311247Y-90309523D01*
X117311247Y-90309523D02*
X117358866Y-90214285D01*
X117358866Y-90214285D02*
X117358866Y-90023809D01*
X117358866Y-90023809D02*
X117311247Y-89928571D01*
X117311247Y-89928571D02*
X117263628Y-89880952D01*
X117263628Y-89880952D02*
X117168390Y-89833333D01*
X85508207Y-78054819D02*
X85174874Y-77578628D01*
X84936779Y-78054819D02*
X84936779Y-77054819D01*
X84936779Y-77054819D02*
X85317731Y-77054819D01*
X85317731Y-77054819D02*
X85412969Y-77102438D01*
X85412969Y-77102438D02*
X85460588Y-77150057D01*
X85460588Y-77150057D02*
X85508207Y-77245295D01*
X85508207Y-77245295D02*
X85508207Y-77388152D01*
X85508207Y-77388152D02*
X85460588Y-77483390D01*
X85460588Y-77483390D02*
X85412969Y-77531009D01*
X85412969Y-77531009D02*
X85317731Y-77578628D01*
X85317731Y-77578628D02*
X84936779Y-77578628D01*
X85889160Y-77150057D02*
X85936779Y-77102438D01*
X85936779Y-77102438D02*
X86032017Y-77054819D01*
X86032017Y-77054819D02*
X86270112Y-77054819D01*
X86270112Y-77054819D02*
X86365350Y-77102438D01*
X86365350Y-77102438D02*
X86412969Y-77150057D01*
X86412969Y-77150057D02*
X86460588Y-77245295D01*
X86460588Y-77245295D02*
X86460588Y-77340533D01*
X86460588Y-77340533D02*
X86412969Y-77483390D01*
X86412969Y-77483390D02*
X85841541Y-78054819D01*
X85841541Y-78054819D02*
X86460588Y-78054819D01*
X83238095Y-59154819D02*
X83238095Y-59964342D01*
X83238095Y-59964342D02*
X83285714Y-60059580D01*
X83285714Y-60059580D02*
X83333333Y-60107200D01*
X83333333Y-60107200D02*
X83428571Y-60154819D01*
X83428571Y-60154819D02*
X83619047Y-60154819D01*
X83619047Y-60154819D02*
X83714285Y-60107200D01*
X83714285Y-60107200D02*
X83761904Y-60059580D01*
X83761904Y-60059580D02*
X83809523Y-59964342D01*
X83809523Y-59964342D02*
X83809523Y-59154819D01*
X84428571Y-59583390D02*
X84333333Y-59535771D01*
X84333333Y-59535771D02*
X84285714Y-59488152D01*
X84285714Y-59488152D02*
X84238095Y-59392914D01*
X84238095Y-59392914D02*
X84238095Y-59345295D01*
X84238095Y-59345295D02*
X84285714Y-59250057D01*
X84285714Y-59250057D02*
X84333333Y-59202438D01*
X84333333Y-59202438D02*
X84428571Y-59154819D01*
X84428571Y-59154819D02*
X84619047Y-59154819D01*
X84619047Y-59154819D02*
X84714285Y-59202438D01*
X84714285Y-59202438D02*
X84761904Y-59250057D01*
X84761904Y-59250057D02*
X84809523Y-59345295D01*
X84809523Y-59345295D02*
X84809523Y-59392914D01*
X84809523Y-59392914D02*
X84761904Y-59488152D01*
X84761904Y-59488152D02*
X84714285Y-59535771D01*
X84714285Y-59535771D02*
X84619047Y-59583390D01*
X84619047Y-59583390D02*
X84428571Y-59583390D01*
X84428571Y-59583390D02*
X84333333Y-59631009D01*
X84333333Y-59631009D02*
X84285714Y-59678628D01*
X84285714Y-59678628D02*
X84238095Y-59773866D01*
X84238095Y-59773866D02*
X84238095Y-59964342D01*
X84238095Y-59964342D02*
X84285714Y-60059580D01*
X84285714Y-60059580D02*
X84333333Y-60107200D01*
X84333333Y-60107200D02*
X84428571Y-60154819D01*
X84428571Y-60154819D02*
X84619047Y-60154819D01*
X84619047Y-60154819D02*
X84714285Y-60107200D01*
X84714285Y-60107200D02*
X84761904Y-60059580D01*
X84761904Y-60059580D02*
X84809523Y-59964342D01*
X84809523Y-59964342D02*
X84809523Y-59773866D01*
X84809523Y-59773866D02*
X84761904Y-59678628D01*
X84761904Y-59678628D02*
X84714285Y-59631009D01*
X84714285Y-59631009D02*
X84619047Y-59583390D01*
X94588095Y-92989819D02*
X94588095Y-93799342D01*
X94588095Y-93799342D02*
X94635714Y-93894580D01*
X94635714Y-93894580D02*
X94683333Y-93942200D01*
X94683333Y-93942200D02*
X94778571Y-93989819D01*
X94778571Y-93989819D02*
X94969047Y-93989819D01*
X94969047Y-93989819D02*
X95064285Y-93942200D01*
X95064285Y-93942200D02*
X95111904Y-93894580D01*
X95111904Y-93894580D02*
X95159523Y-93799342D01*
X95159523Y-93799342D02*
X95159523Y-92989819D01*
X95540476Y-92989819D02*
X96159523Y-92989819D01*
X96159523Y-92989819D02*
X95826190Y-93370771D01*
X95826190Y-93370771D02*
X95969047Y-93370771D01*
X95969047Y-93370771D02*
X96064285Y-93418390D01*
X96064285Y-93418390D02*
X96111904Y-93466009D01*
X96111904Y-93466009D02*
X96159523Y-93561247D01*
X96159523Y-93561247D02*
X96159523Y-93799342D01*
X96159523Y-93799342D02*
X96111904Y-93894580D01*
X96111904Y-93894580D02*
X96064285Y-93942200D01*
X96064285Y-93942200D02*
X95969047Y-93989819D01*
X95969047Y-93989819D02*
X95683333Y-93989819D01*
X95683333Y-93989819D02*
X95588095Y-93942200D01*
X95588095Y-93942200D02*
X95540476Y-93894580D01*
X83433333Y-69929580D02*
X83385714Y-69977200D01*
X83385714Y-69977200D02*
X83242857Y-70024819D01*
X83242857Y-70024819D02*
X83147619Y-70024819D01*
X83147619Y-70024819D02*
X83004762Y-69977200D01*
X83004762Y-69977200D02*
X82909524Y-69881961D01*
X82909524Y-69881961D02*
X82861905Y-69786723D01*
X82861905Y-69786723D02*
X82814286Y-69596247D01*
X82814286Y-69596247D02*
X82814286Y-69453390D01*
X82814286Y-69453390D02*
X82861905Y-69262914D01*
X82861905Y-69262914D02*
X82909524Y-69167676D01*
X82909524Y-69167676D02*
X83004762Y-69072438D01*
X83004762Y-69072438D02*
X83147619Y-69024819D01*
X83147619Y-69024819D02*
X83242857Y-69024819D01*
X83242857Y-69024819D02*
X83385714Y-69072438D01*
X83385714Y-69072438D02*
X83433333Y-69120057D01*
X84004762Y-69453390D02*
X83909524Y-69405771D01*
X83909524Y-69405771D02*
X83861905Y-69358152D01*
X83861905Y-69358152D02*
X83814286Y-69262914D01*
X83814286Y-69262914D02*
X83814286Y-69215295D01*
X83814286Y-69215295D02*
X83861905Y-69120057D01*
X83861905Y-69120057D02*
X83909524Y-69072438D01*
X83909524Y-69072438D02*
X84004762Y-69024819D01*
X84004762Y-69024819D02*
X84195238Y-69024819D01*
X84195238Y-69024819D02*
X84290476Y-69072438D01*
X84290476Y-69072438D02*
X84338095Y-69120057D01*
X84338095Y-69120057D02*
X84385714Y-69215295D01*
X84385714Y-69215295D02*
X84385714Y-69262914D01*
X84385714Y-69262914D02*
X84338095Y-69358152D01*
X84338095Y-69358152D02*
X84290476Y-69405771D01*
X84290476Y-69405771D02*
X84195238Y-69453390D01*
X84195238Y-69453390D02*
X84004762Y-69453390D01*
X84004762Y-69453390D02*
X83909524Y-69501009D01*
X83909524Y-69501009D02*
X83861905Y-69548628D01*
X83861905Y-69548628D02*
X83814286Y-69643866D01*
X83814286Y-69643866D02*
X83814286Y-69834342D01*
X83814286Y-69834342D02*
X83861905Y-69929580D01*
X83861905Y-69929580D02*
X83909524Y-69977200D01*
X83909524Y-69977200D02*
X84004762Y-70024819D01*
X84004762Y-70024819D02*
X84195238Y-70024819D01*
X84195238Y-70024819D02*
X84290476Y-69977200D01*
X84290476Y-69977200D02*
X84338095Y-69929580D01*
X84338095Y-69929580D02*
X84385714Y-69834342D01*
X84385714Y-69834342D02*
X84385714Y-69643866D01*
X84385714Y-69643866D02*
X84338095Y-69548628D01*
X84338095Y-69548628D02*
X84290476Y-69501009D01*
X84290476Y-69501009D02*
X84195238Y-69453390D01*
X85581819Y-91462476D02*
X85105628Y-91795809D01*
X85581819Y-92033904D02*
X84581819Y-92033904D01*
X84581819Y-92033904D02*
X84581819Y-91652952D01*
X84581819Y-91652952D02*
X84629438Y-91557714D01*
X84629438Y-91557714D02*
X84677057Y-91510095D01*
X84677057Y-91510095D02*
X84772295Y-91462476D01*
X84772295Y-91462476D02*
X84915152Y-91462476D01*
X84915152Y-91462476D02*
X85010390Y-91510095D01*
X85010390Y-91510095D02*
X85058009Y-91557714D01*
X85058009Y-91557714D02*
X85105628Y-91652952D01*
X85105628Y-91652952D02*
X85105628Y-92033904D01*
X85581819Y-91033904D02*
X84581819Y-91033904D01*
X84581819Y-91033904D02*
X85581819Y-90462476D01*
X85581819Y-90462476D02*
X84581819Y-90462476D01*
X84581819Y-89510095D02*
X84581819Y-89986285D01*
X84581819Y-89986285D02*
X85058009Y-90033904D01*
X85058009Y-90033904D02*
X85010390Y-89986285D01*
X85010390Y-89986285D02*
X84962771Y-89891047D01*
X84962771Y-89891047D02*
X84962771Y-89652952D01*
X84962771Y-89652952D02*
X85010390Y-89557714D01*
X85010390Y-89557714D02*
X85058009Y-89510095D01*
X85058009Y-89510095D02*
X85153247Y-89462476D01*
X85153247Y-89462476D02*
X85391342Y-89462476D01*
X85391342Y-89462476D02*
X85486580Y-89510095D01*
X85486580Y-89510095D02*
X85534200Y-89557714D01*
X85534200Y-89557714D02*
X85581819Y-89652952D01*
X85581819Y-89652952D02*
X85581819Y-89891047D01*
X85581819Y-89891047D02*
X85534200Y-89986285D01*
X85534200Y-89986285D02*
X85486580Y-90033904D01*
X76156077Y-78959580D02*
X76108458Y-79007200D01*
X76108458Y-79007200D02*
X75965601Y-79054819D01*
X75965601Y-79054819D02*
X75870363Y-79054819D01*
X75870363Y-79054819D02*
X75727506Y-79007200D01*
X75727506Y-79007200D02*
X75632268Y-78911961D01*
X75632268Y-78911961D02*
X75584649Y-78816723D01*
X75584649Y-78816723D02*
X75537030Y-78626247D01*
X75537030Y-78626247D02*
X75537030Y-78483390D01*
X75537030Y-78483390D02*
X75584649Y-78292914D01*
X75584649Y-78292914D02*
X75632268Y-78197676D01*
X75632268Y-78197676D02*
X75727506Y-78102438D01*
X75727506Y-78102438D02*
X75870363Y-78054819D01*
X75870363Y-78054819D02*
X75965601Y-78054819D01*
X75965601Y-78054819D02*
X76108458Y-78102438D01*
X76108458Y-78102438D02*
X76156077Y-78150057D01*
X77108458Y-79054819D02*
X76537030Y-79054819D01*
X76822744Y-79054819D02*
X76822744Y-78054819D01*
X76822744Y-78054819D02*
X76727506Y-78197676D01*
X76727506Y-78197676D02*
X76632268Y-78292914D01*
X76632268Y-78292914D02*
X76537030Y-78340533D01*
X77965601Y-78054819D02*
X77775125Y-78054819D01*
X77775125Y-78054819D02*
X77679887Y-78102438D01*
X77679887Y-78102438D02*
X77632268Y-78150057D01*
X77632268Y-78150057D02*
X77537030Y-78292914D01*
X77537030Y-78292914D02*
X77489411Y-78483390D01*
X77489411Y-78483390D02*
X77489411Y-78864342D01*
X77489411Y-78864342D02*
X77537030Y-78959580D01*
X77537030Y-78959580D02*
X77584649Y-79007200D01*
X77584649Y-79007200D02*
X77679887Y-79054819D01*
X77679887Y-79054819D02*
X77870363Y-79054819D01*
X77870363Y-79054819D02*
X77965601Y-79007200D01*
X77965601Y-79007200D02*
X78013220Y-78959580D01*
X78013220Y-78959580D02*
X78060839Y-78864342D01*
X78060839Y-78864342D02*
X78060839Y-78626247D01*
X78060839Y-78626247D02*
X78013220Y-78531009D01*
X78013220Y-78531009D02*
X77965601Y-78483390D01*
X77965601Y-78483390D02*
X77870363Y-78435771D01*
X77870363Y-78435771D02*
X77679887Y-78435771D01*
X77679887Y-78435771D02*
X77584649Y-78483390D01*
X77584649Y-78483390D02*
X77537030Y-78531009D01*
X77537030Y-78531009D02*
X77489411Y-78626247D01*
X100569819Y-54777506D02*
X101284104Y-54777506D01*
X101284104Y-54777506D02*
X101426961Y-54825125D01*
X101426961Y-54825125D02*
X101522200Y-54920363D01*
X101522200Y-54920363D02*
X101569819Y-55063220D01*
X101569819Y-55063220D02*
X101569819Y-55158458D01*
X101569819Y-53777506D02*
X101569819Y-54348934D01*
X101569819Y-54063220D02*
X100569819Y-54063220D01*
X100569819Y-54063220D02*
X100712676Y-54158458D01*
X100712676Y-54158458D02*
X100807914Y-54253696D01*
X100807914Y-54253696D02*
X100855533Y-54348934D01*
X111928571Y-61894700D02*
X113071429Y-61894700D01*
X112500000Y-62466128D02*
X112500000Y-61323271D01*
X100928571Y-61894700D02*
X102071429Y-61894700D01*
D13*
%TO.C,FB1*%
X98587221Y-87990000D02*
X98912779Y-87990000D01*
X98587221Y-89010000D02*
X98912779Y-89010000D01*
%TO.C,C4*%
X106461252Y-64390000D02*
X105038748Y-64390000D01*
X106461252Y-67110000D02*
X105038748Y-67110000D01*
%TO.C,RN4*%
X102300000Y-87920000D02*
X101300000Y-87920000D01*
X102300000Y-91280000D02*
X101300000Y-91280000D01*
%TO.C,RN3*%
X117170000Y-88350000D02*
X117170000Y-87350000D01*
X120530000Y-88350000D02*
X120530000Y-87350000D01*
%TO.C,C2*%
X86227500Y-86259420D02*
X86227500Y-86540580D01*
X87247500Y-86259420D02*
X87247500Y-86540580D01*
%TO.C,Q3*%
X88750000Y-66350000D02*
X88750000Y-70650000D01*
X93950000Y-70650000D02*
X93950000Y-66350000D01*
X88826703Y-71230000D02*
X88496703Y-71470000D01*
X88496703Y-70990000D01*
X88826703Y-71230000D01*
G36*
X88826703Y-71230000D02*
G01*
X88496703Y-71470000D01*
X88496703Y-70990000D01*
X88826703Y-71230000D01*
G37*
%TO.C,C9*%
X83540580Y-75490000D02*
X83259420Y-75490000D01*
X83540580Y-76510000D02*
X83259420Y-76510000D01*
%TO.C,J5*%
X115050000Y-54250000D02*
X115050000Y-55500000D01*
X115340000Y-54540000D02*
X115340000Y-60510000D01*
X115340000Y-60510000D02*
X122960000Y-60510000D01*
X115350000Y-54550000D02*
X115350000Y-55300000D01*
X115350000Y-55300000D02*
X117150000Y-55300000D01*
X115350000Y-56800000D02*
X116100000Y-56800000D01*
X116100000Y-56800000D02*
X116100000Y-59750000D01*
X116100000Y-59750000D02*
X119150000Y-59750000D01*
X116300000Y-54250000D02*
X115050000Y-54250000D01*
X117150000Y-54550000D02*
X115350000Y-54550000D01*
X117150000Y-55300000D02*
X117150000Y-54550000D01*
X118650000Y-54550000D02*
X118650000Y-55300000D01*
X118650000Y-55300000D02*
X119650000Y-55300000D01*
X119650000Y-54550000D02*
X118650000Y-54550000D01*
X119650000Y-55300000D02*
X119650000Y-54550000D01*
X121150000Y-54550000D02*
X121150000Y-55300000D01*
X121150000Y-55300000D02*
X122950000Y-55300000D01*
X122200000Y-56800000D02*
X122200000Y-59750000D01*
X122200000Y-59750000D02*
X119150000Y-59750000D01*
X122950000Y-54550000D02*
X121150000Y-54550000D01*
X122950000Y-55300000D02*
X122950000Y-54550000D01*
X122950000Y-56800000D02*
X122200000Y-56800000D01*
X122960000Y-54540000D02*
X115340000Y-54540000D01*
X122960000Y-60510000D02*
X122960000Y-54540000D01*
%TO.C,J2*%
X76190000Y-47640000D02*
X76190000Y-57060000D01*
X76190000Y-57060000D02*
X77700000Y-57060000D01*
X81200000Y-57060000D02*
X79800000Y-57060000D01*
X81950000Y-58350000D02*
X82250000Y-57750000D01*
X82250000Y-57750000D02*
X82550000Y-58350000D01*
X82550000Y-58350000D02*
X81950000Y-58350000D01*
X84810000Y-47640000D02*
X76190000Y-47640000D01*
X84810000Y-50950000D02*
X76190000Y-50950000D01*
X84810000Y-57060000D02*
X83300000Y-57060000D01*
X84810000Y-57060000D02*
X84810000Y-47640000D01*
%TO.C,C18*%
X82190580Y-85840000D02*
X81909420Y-85840000D01*
X82190580Y-86860000D02*
X81909420Y-86860000D01*
%TO.C,J3*%
X75070000Y-89900000D02*
X75070000Y-88740000D01*
X75880000Y-89900000D02*
X75070000Y-89900000D01*
X76690000Y-87580000D02*
X80435000Y-87580000D01*
X76690000Y-88073292D02*
X76690000Y-87580000D01*
X76690000Y-89900000D02*
X76690000Y-89406708D01*
X76690000Y-89900000D02*
X80435000Y-89900000D01*
X80435000Y-88422077D02*
X80435000Y-87580000D01*
X80435000Y-89900000D02*
X80435000Y-89057923D01*
%TO.C,RN1*%
X97180000Y-92500000D02*
X97180000Y-91500000D01*
X99120000Y-92500000D02*
X99120000Y-91500000D01*
%TO.C,R1*%
X87912258Y-90477500D02*
X87437742Y-90477500D01*
X87912258Y-91522500D02*
X87437742Y-91522500D01*
%TO.C,C22*%
X76140000Y-62840000D02*
X76140000Y-65190000D01*
X76140000Y-69660000D02*
X76140000Y-67310000D01*
X81895563Y-62840000D02*
X76140000Y-62840000D01*
X81895563Y-69660000D02*
X76140000Y-69660000D01*
X82960000Y-63904437D02*
X81895563Y-62840000D01*
X82960000Y-63904437D02*
X82960000Y-65190000D01*
X82960000Y-68595563D02*
X81895563Y-69660000D01*
X82960000Y-68595563D02*
X82960000Y-67310000D01*
X83593750Y-68491250D02*
X83593750Y-67703750D01*
X83987500Y-68097500D02*
X83200000Y-68097500D01*
%TO.C,U4*%
X82000000Y-71890000D02*
X85000000Y-71890000D01*
X82000000Y-75110000D02*
X85000000Y-75110000D01*
X81450000Y-72480000D02*
X80970000Y-72480000D01*
X81450000Y-72000000D01*
X81450000Y-72480000D01*
G36*
X81450000Y-72480000D02*
G01*
X80970000Y-72480000D01*
X81450000Y-72000000D01*
X81450000Y-72480000D01*
G37*
%TO.C,U5*%
X111690000Y-82000000D02*
X111690000Y-81200000D01*
X111690000Y-82000000D02*
X111690000Y-82800000D01*
X114810000Y-82000000D02*
X114810000Y-81200000D01*
X114810000Y-82000000D02*
X114810000Y-82800000D01*
X111740000Y-83300000D02*
X111410000Y-83540000D01*
X111410000Y-83060000D01*
X111740000Y-83300000D01*
G36*
X111740000Y-83300000D02*
G01*
X111410000Y-83540000D01*
X111410000Y-83060000D01*
X111740000Y-83300000D01*
G37*
%TO.C,C3*%
X77334420Y-74602500D02*
X77615580Y-74602500D01*
X77334420Y-75622500D02*
X77615580Y-75622500D01*
%TO.C,U1*%
X75940000Y-72250000D02*
X75940000Y-71450000D01*
X75940000Y-72250000D02*
X75940000Y-73050000D01*
X79060000Y-72250000D02*
X79060000Y-71450000D01*
X79060000Y-72250000D02*
X79060000Y-73050000D01*
X76015000Y-73550000D02*
X75685000Y-73790000D01*
X75685000Y-73310000D01*
X76015000Y-73550000D01*
G36*
X76015000Y-73550000D02*
G01*
X75685000Y-73790000D01*
X75685000Y-73310000D01*
X76015000Y-73550000D01*
G37*
%TO.C,C7*%
X99961252Y-67640000D02*
X98538748Y-67640000D01*
X99961252Y-70360000D02*
X98538748Y-70360000D01*
%TO.C,U2*%
X91600000Y-83015000D02*
X89400000Y-83015000D01*
X91600000Y-83015000D02*
X93800000Y-83015000D01*
X91600000Y-89785000D02*
X89400000Y-89785000D01*
X91600000Y-89785000D02*
X93800000Y-89785000D01*
X95790000Y-89565000D02*
X95460000Y-89325000D01*
X95790000Y-89085000D01*
X95790000Y-89565000D01*
G36*
X95790000Y-89565000D02*
G01*
X95460000Y-89325000D01*
X95790000Y-89085000D01*
X95790000Y-89565000D01*
G37*
%TO.C,J8*%
X115050000Y-74650000D02*
X115050000Y-75900000D01*
X115340000Y-74940000D02*
X115340000Y-80910000D01*
X115340000Y-80910000D02*
X122960000Y-80910000D01*
X115350000Y-74950000D02*
X115350000Y-75700000D01*
X115350000Y-75700000D02*
X117150000Y-75700000D01*
X115350000Y-77200000D02*
X116100000Y-77200000D01*
X116100000Y-77200000D02*
X116100000Y-80150000D01*
X116100000Y-80150000D02*
X119150000Y-80150000D01*
X116300000Y-74650000D02*
X115050000Y-74650000D01*
X117150000Y-74950000D02*
X115350000Y-74950000D01*
X117150000Y-75700000D02*
X117150000Y-74950000D01*
X118650000Y-74950000D02*
X118650000Y-75700000D01*
X118650000Y-75700000D02*
X119650000Y-75700000D01*
X119650000Y-74950000D02*
X118650000Y-74950000D01*
X119650000Y-75700000D02*
X119650000Y-74950000D01*
X121150000Y-74950000D02*
X121150000Y-75700000D01*
X121150000Y-75700000D02*
X122950000Y-75700000D01*
X122200000Y-77200000D02*
X122200000Y-80150000D01*
X122200000Y-80150000D02*
X119150000Y-80150000D01*
X122950000Y-74950000D02*
X121150000Y-74950000D01*
X122950000Y-75700000D02*
X122950000Y-74950000D01*
X122950000Y-77200000D02*
X122200000Y-77200000D01*
X122960000Y-74940000D02*
X115340000Y-74940000D01*
X122960000Y-80910000D02*
X122960000Y-74940000D01*
%TO.C,J7*%
X115050000Y-67850000D02*
X115050000Y-69100000D01*
X115340000Y-68140000D02*
X115340000Y-74110000D01*
X115340000Y-74110000D02*
X122960000Y-74110000D01*
X115350000Y-68150000D02*
X115350000Y-68900000D01*
X115350000Y-68900000D02*
X117150000Y-68900000D01*
X115350000Y-70400000D02*
X116100000Y-70400000D01*
X116100000Y-70400000D02*
X116100000Y-73350000D01*
X116100000Y-73350000D02*
X119150000Y-73350000D01*
X116300000Y-67850000D02*
X115050000Y-67850000D01*
X117150000Y-68150000D02*
X115350000Y-68150000D01*
X117150000Y-68900000D02*
X117150000Y-68150000D01*
X118650000Y-68150000D02*
X118650000Y-68900000D01*
X118650000Y-68900000D02*
X119650000Y-68900000D01*
X119650000Y-68150000D02*
X118650000Y-68150000D01*
X119650000Y-68900000D02*
X119650000Y-68150000D01*
X121150000Y-68150000D02*
X121150000Y-68900000D01*
X121150000Y-68900000D02*
X122950000Y-68900000D01*
X122200000Y-70400000D02*
X122200000Y-73350000D01*
X122200000Y-73350000D02*
X119150000Y-73350000D01*
X122950000Y-68150000D02*
X121150000Y-68150000D01*
X122950000Y-68900000D02*
X122950000Y-68150000D01*
X122950000Y-70400000D02*
X122200000Y-70400000D01*
X122960000Y-68140000D02*
X115340000Y-68140000D01*
X122960000Y-74110000D02*
X122960000Y-68140000D01*
%TO.C,C10*%
X113390580Y-78490000D02*
X113109420Y-78490000D01*
X113390580Y-79510000D02*
X113109420Y-79510000D01*
%TO.C,D1*%
X117190000Y-83800000D02*
X117190000Y-83000000D01*
X117190000Y-83800000D02*
X117190000Y-84600000D01*
X120310000Y-83800000D02*
X120310000Y-83000000D01*
X120310000Y-83800000D02*
X120310000Y-84600000D01*
X120590000Y-82740000D02*
X120260000Y-82500000D01*
X120590000Y-82260000D01*
X120590000Y-82740000D01*
G36*
X120590000Y-82740000D02*
G01*
X120260000Y-82500000D01*
X120590000Y-82260000D01*
X120590000Y-82740000D01*
G37*
%TO.C,C14*%
X83788748Y-80115000D02*
X84311252Y-80115000D01*
X83788748Y-81585000D02*
X84311252Y-81585000D01*
%TO.C,RN2*%
X98600000Y-84120000D02*
X99600000Y-84120000D01*
X98600000Y-87480000D02*
X99600000Y-87480000D01*
%TO.C,C5*%
X106461252Y-67640000D02*
X105038748Y-67640000D01*
X106461252Y-70360000D02*
X105038748Y-70360000D01*
%TO.C,J10*%
X103500000Y-96100000D02*
X103500000Y-97350000D01*
X103500000Y-97350000D02*
X104750000Y-97350000D01*
X103790000Y-84440000D02*
X103790000Y-97060000D01*
X103790000Y-97060000D02*
X109760000Y-97060000D01*
X103800000Y-84450000D02*
X103800000Y-86250000D01*
X103800000Y-86250000D02*
X104550000Y-86250000D01*
X103800000Y-87750000D02*
X103800000Y-93750000D01*
X103800000Y-93750000D02*
X104550000Y-93750000D01*
X103800000Y-95250000D02*
X103800000Y-97050000D01*
X103800000Y-97050000D02*
X104550000Y-97050000D01*
X104550000Y-84450000D02*
X103800000Y-84450000D01*
X104550000Y-86250000D02*
X104550000Y-84450000D01*
X104550000Y-87750000D02*
X103800000Y-87750000D01*
X104550000Y-93750000D02*
X104550000Y-87750000D01*
X104550000Y-95250000D02*
X103800000Y-95250000D01*
X104550000Y-97050000D02*
X104550000Y-95250000D01*
X106050000Y-84450000D02*
X106050000Y-85200000D01*
X106050000Y-85200000D02*
X109000000Y-85200000D01*
X106050000Y-96300000D02*
X109000000Y-96300000D01*
X106050000Y-97050000D02*
X106050000Y-96300000D01*
X109000000Y-85200000D02*
X109000000Y-90750000D01*
X109000000Y-96300000D02*
X109000000Y-90750000D01*
X109760000Y-84440000D02*
X103790000Y-84440000D01*
X109760000Y-97060000D02*
X109760000Y-84440000D01*
%TO.C,D2*%
X79440000Y-59020000D02*
X80100000Y-59020000D01*
X79440000Y-60430000D02*
X79440000Y-59020000D01*
X81100000Y-59020000D02*
X81760000Y-59020000D01*
X81760000Y-60430000D02*
X81760000Y-59020000D01*
X79460000Y-60800000D02*
X79130000Y-61040000D01*
X79130000Y-60560000D01*
X79460000Y-60800000D01*
G36*
X79460000Y-60800000D02*
G01*
X79130000Y-61040000D01*
X79130000Y-60560000D01*
X79460000Y-60800000D01*
G37*
%TO.C,J6*%
X115050000Y-61050000D02*
X115050000Y-62300000D01*
X115340000Y-61340000D02*
X115340000Y-67310000D01*
X115340000Y-67310000D02*
X122960000Y-67310000D01*
X115350000Y-61350000D02*
X115350000Y-62100000D01*
X115350000Y-62100000D02*
X117150000Y-62100000D01*
X115350000Y-63600000D02*
X116100000Y-63600000D01*
X116100000Y-63600000D02*
X116100000Y-66550000D01*
X116100000Y-66550000D02*
X119150000Y-66550000D01*
X116300000Y-61050000D02*
X115050000Y-61050000D01*
X117150000Y-61350000D02*
X115350000Y-61350000D01*
X117150000Y-62100000D02*
X117150000Y-61350000D01*
X118650000Y-61350000D02*
X118650000Y-62100000D01*
X118650000Y-62100000D02*
X119650000Y-62100000D01*
X119650000Y-61350000D02*
X118650000Y-61350000D01*
X119650000Y-62100000D02*
X119650000Y-61350000D01*
X121150000Y-61350000D02*
X121150000Y-62100000D01*
X121150000Y-62100000D02*
X122950000Y-62100000D01*
X122200000Y-63600000D02*
X122200000Y-66550000D01*
X122200000Y-66550000D02*
X119150000Y-66550000D01*
X122950000Y-61350000D02*
X121150000Y-61350000D01*
X122950000Y-62100000D02*
X122950000Y-61350000D01*
X122950000Y-63600000D02*
X122200000Y-63600000D01*
X122960000Y-61340000D02*
X115340000Y-61340000D01*
X122960000Y-67310000D02*
X122960000Y-61340000D01*
%TO.C,C6*%
X99936252Y-64390000D02*
X98513748Y-64390000D01*
X99936252Y-67110000D02*
X98513748Y-67110000D01*
%TO.C,SW1*%
X83475000Y-92560000D02*
X83475000Y-92050000D01*
X83475000Y-97260000D02*
X83475000Y-95160000D01*
X83995000Y-92050000D02*
X83475000Y-92050000D01*
X83995000Y-92560000D02*
X83995000Y-92050000D01*
X83995000Y-95390000D02*
X83995000Y-95160000D01*
X84535000Y-95390000D02*
X83995000Y-95390000D01*
X89035000Y-95390000D02*
X85635000Y-95390000D01*
X90675000Y-92560000D02*
X90675000Y-92050000D01*
X90675000Y-95390000D02*
X90135000Y-95390000D01*
X90675000Y-95390000D02*
X90675000Y-95160000D01*
X91195000Y-92050000D02*
X90675000Y-92050000D01*
X91195000Y-92560000D02*
X91195000Y-92050000D01*
X91195000Y-97260000D02*
X91195000Y-95160000D01*
%TO.C,L1*%
X97050000Y-71500000D02*
X97050000Y-74450000D01*
X97050000Y-80050000D02*
X97050000Y-82950000D01*
X97750000Y-70850000D02*
X109250000Y-70850000D01*
X109250000Y-83650000D02*
X97750000Y-83650000D01*
X109950000Y-71550000D02*
X109950000Y-74450000D01*
X109950000Y-80050000D02*
X109950000Y-82950000D01*
X97050000Y-71550000D02*
G75*
G02*
X97750000Y-70850000I699999J1D01*
G01*
X97750000Y-83650000D02*
G75*
G02*
X97050000Y-82950000I-1J699999D01*
G01*
X109250000Y-70850000D02*
G75*
G02*
X109950000Y-71550000I0J-700000D01*
G01*
X109950000Y-82950000D02*
G75*
G02*
X109250000Y-83650000I-700000J0D01*
G01*
%TO.C,D12*%
X93730000Y-96500000D02*
X93730000Y-97175000D01*
X93730000Y-97175000D02*
X93930000Y-97175000D01*
X93980000Y-97425000D02*
X93930000Y-97175000D01*
X95155000Y-95375000D02*
X94705000Y-95375000D01*
X95930000Y-97175000D02*
X95880000Y-97425000D01*
X95930000Y-97175000D02*
X96130000Y-97175000D01*
X96130000Y-96500000D02*
X96130000Y-97175000D01*
X96130000Y-96500000D02*
X97130000Y-96500000D01*
X95880000Y-97425000D02*
G75*
G02*
X93980000Y-97425000I-950000J0D01*
G01*
%TO.C,C1*%
X95727500Y-87740580D02*
X95727500Y-87459420D01*
X96747500Y-87740580D02*
X96747500Y-87459420D01*
%TO.C,C15*%
X80061252Y-79865000D02*
X79538748Y-79865000D01*
X80061252Y-81335000D02*
X79538748Y-81335000D01*
%TO.C,L2*%
X78400000Y-81900000D02*
X81400000Y-81900000D01*
X78400000Y-85300000D02*
X81400000Y-85300000D01*
%TO.C,Q2*%
X88900000Y-79750000D02*
X93200000Y-79750000D01*
X93200000Y-74550000D02*
X88900000Y-74550000D01*
X88320000Y-74626703D02*
X88080000Y-74296703D01*
X88560000Y-74296703D01*
X88320000Y-74626703D01*
G36*
X88320000Y-74626703D02*
G01*
X88080000Y-74296703D01*
X88560000Y-74296703D01*
X88320000Y-74626703D01*
G37*
%TO.C,R3*%
X110520000Y-71277064D02*
X110520000Y-66922936D01*
X113940000Y-71277064D02*
X113940000Y-66922936D01*
%TO.C,J4*%
X86850000Y-49670000D02*
X87440000Y-49670000D01*
X86850000Y-51890000D02*
X87440000Y-51890000D01*
X87440000Y-47570000D02*
X87440000Y-49670000D01*
X87440000Y-47570000D02*
X97560000Y-47570000D01*
X87440000Y-51890000D02*
X87440000Y-56790000D01*
X87440000Y-56790000D02*
X97560000Y-56790000D01*
X97560000Y-47570000D02*
X97560000Y-49670000D01*
X97560000Y-49670000D02*
X98150000Y-49670000D01*
X97560000Y-51890000D02*
X97560000Y-56790000D01*
X97560000Y-51890000D02*
X98150000Y-51890000D01*
X86850000Y-51890000D02*
G75*
G02*
X86850000Y-49670000I0J1110000D01*
G01*
X98150000Y-49670000D02*
G75*
G02*
X98150000Y-51890000I0J-1110000D01*
G01*
%TO.C,U7*%
X83937500Y-82090000D02*
X83137500Y-82090000D01*
X83937500Y-82090000D02*
X84737500Y-82090000D01*
X83937500Y-85210000D02*
X83137500Y-85210000D01*
X83937500Y-85210000D02*
X84737500Y-85210000D01*
X85477500Y-85490000D02*
X84997500Y-85490000D01*
X85237500Y-85160000D01*
X85477500Y-85490000D01*
G36*
X85477500Y-85490000D02*
G01*
X84997500Y-85490000D01*
X85237500Y-85160000D01*
X85477500Y-85490000D01*
G37*
%TO.C,J9*%
X110250000Y-96100000D02*
X110250000Y-97350000D01*
X110250000Y-97350000D02*
X111500000Y-97350000D01*
X110540000Y-84440000D02*
X110540000Y-97060000D01*
X110540000Y-97060000D02*
X116510000Y-97060000D01*
X110550000Y-84450000D02*
X110550000Y-86250000D01*
X110550000Y-86250000D02*
X111300000Y-86250000D01*
X110550000Y-87750000D02*
X110550000Y-93750000D01*
X110550000Y-93750000D02*
X111300000Y-93750000D01*
X110550000Y-95250000D02*
X110550000Y-97050000D01*
X110550000Y-97050000D02*
X111300000Y-97050000D01*
X111300000Y-84450000D02*
X110550000Y-84450000D01*
X111300000Y-86250000D02*
X111300000Y-84450000D01*
X111300000Y-87750000D02*
X110550000Y-87750000D01*
X111300000Y-93750000D02*
X111300000Y-87750000D01*
X111300000Y-95250000D02*
X110550000Y-95250000D01*
X111300000Y-97050000D02*
X111300000Y-95250000D01*
X112800000Y-84450000D02*
X112800000Y-85200000D01*
X112800000Y-85200000D02*
X115750000Y-85200000D01*
X112800000Y-96300000D02*
X115750000Y-96300000D01*
X112800000Y-97050000D02*
X112800000Y-96300000D01*
X115750000Y-85200000D02*
X115750000Y-90750000D01*
X115750000Y-96300000D02*
X115750000Y-90750000D01*
X116510000Y-84440000D02*
X110540000Y-84440000D01*
X116510000Y-97060000D02*
X116510000Y-84440000D01*
%TO.C,R2*%
X83137742Y-77077500D02*
X83612258Y-77077500D01*
X83137742Y-78122500D02*
X83612258Y-78122500D01*
%TO.C,U8*%
X83000000Y-60540000D02*
X85000000Y-60540000D01*
X83000000Y-62760000D02*
X85000000Y-62760000D01*
X82760000Y-60640000D02*
X82480000Y-60640000D01*
X82760000Y-60360000D01*
X82760000Y-60640000D01*
G36*
X82760000Y-60640000D02*
G01*
X82480000Y-60640000D01*
X82760000Y-60360000D01*
X82760000Y-60640000D01*
G37*
%TO.C,U3*%
X94640000Y-90390000D02*
X96050000Y-90390000D01*
X94650000Y-92710000D02*
X96050000Y-92710000D01*
X94270000Y-90440000D02*
X94030000Y-90110000D01*
X94510000Y-90110000D01*
X94270000Y-90440000D01*
G36*
X94270000Y-90440000D02*
G01*
X94030000Y-90110000D01*
X94510000Y-90110000D01*
X94270000Y-90440000D01*
G37*
%TO.C,C8*%
X83459420Y-70490000D02*
X83740580Y-70490000D01*
X83459420Y-71510000D02*
X83740580Y-71510000D01*
%TO.C,RN5*%
X83492000Y-89802000D02*
X82492000Y-89802000D01*
X83492000Y-91742000D02*
X82492000Y-91742000D01*
%TO.C,C16*%
X80061252Y-77865000D02*
X79538748Y-77865000D01*
X80061252Y-79335000D02*
X79538748Y-79335000D01*
%TO.C,J1*%
X101240000Y-55670000D02*
X101940000Y-55670000D01*
X101240000Y-57890000D02*
X112760000Y-57890000D01*
X101940000Y-53620000D02*
X101940000Y-55670000D01*
X101940000Y-53620000D02*
X102470000Y-53620000D01*
X102470000Y-47620000D02*
X102470000Y-53620000D01*
X102470000Y-47620000D02*
X111500000Y-47620000D01*
X111530000Y-47620000D02*
X111530000Y-53620000D01*
X111530000Y-53620000D02*
X112060000Y-53620000D01*
X112060000Y-53620000D02*
X112060000Y-55670000D01*
X112060000Y-55670000D02*
X112760000Y-55670000D01*
X101178271Y-57876635D02*
G75*
G02*
X101350000Y-55670000I171730J1096635D01*
G01*
X112650000Y-55670000D02*
G75*
G02*
X112650000Y-57890000I0J-1110000D01*
G01*
%TD*%
M02*
