M48
; DRILL file {KiCad 9.0.6} date 2025-11-27T17:01:59+0100
; FORMAT={-:-/ absolute / inch / decimal}
; #@! TF.CreationDate,2025-11-27T17:01:59+01:00
; #@! TF.GenerationSoftware,Kicad,Pcbnew,9.0.6
; #@! TF.FileFunction,Plated,1,6,PTH
FMAT,2
INCH
; #@! TA.AperFunction,Plated,PTH,ViaDrill
T1C0.0118
; #@! TA.AperFunction,Plated,PTH,ViaDrill
T2C0.0157
; #@! TA.AperFunction,Plated,PTH,ViaDrill
T3C0.0197
; #@! TA.AperFunction,Plated,PTH,ComponentDrill
T4C0.0256
; #@! TA.AperFunction,Plated,PTH,ComponentDrill
T5C0.0374
; #@! TA.AperFunction,Plated,PTH,ComponentDrill
T6C0.0390
; #@! TA.AperFunction,Plated,PTH,ComponentDrill
T7C0.0394
; #@! TA.AperFunction,Plated,PTH,ComponentDrill
T8C0.0472
; #@! TA.AperFunction,Plated,PTH,ComponentDrill
T9C0.0512
; #@! TA.AperFunction,Plated,PTH,ComponentDrill
T10C0.0748
; #@! TA.AperFunction,Plated,PTH,ComponentDrill
T11C0.1260
%
G90
G05
T1
X3.0108Y-2.9035
X3.0915Y-2.9035
X3.1732Y-2.2943
X3.1732Y-2.3179
X3.1732Y-2.3465
X3.1737Y-2.9093
X3.1913Y-2.8825
X3.232Y-3.5934
X3.25Y-3.0551
X3.2667Y-2.8642
X3.2667Y-2.9232
X3.2874Y-2.8937
X3.3028Y-3.5737
X3.3067Y-2.8642
X3.3067Y-2.9232
X3.4744Y-3.4656
X3.4843Y-3.5827
X3.4936Y-3.2864
X3.4936Y-3.3376
X3.4936Y-3.44
X3.5274Y-3.3637
X3.5374Y-3.3137
X3.5874Y-3.5737
X3.719Y-3.5167
X3.7913Y-3.5787
X3.7913Y-3.6299
X3.8445Y-3.6575
X3.8839Y-3.6575
X3.937Y-3.3307
X3.937Y-3.4252
X3.9724Y-3.5748
X4.0433Y-3.4803
X4.0433Y-3.5748
X4.1929Y-3.2441
X4.4185Y-2.8107
X4.4187Y-2.6305
X4.6949Y-3.4232
X4.7264Y-3.4232
T2
X3.0197Y-2.9572
X3.0807Y-2.9572
X3.1024Y-3.2913
X3.1043Y-3.0945
X3.1043Y-3.1732
X3.1595Y-2.9894
X3.1791Y-3.0945
X3.1791Y-3.1732
X3.2382Y-2.4016
X3.2382Y-2.4409
X3.2382Y-2.4803
X3.248Y-3.1142
X3.2598Y-3.2559
X3.2717Y-3.1831
X3.3071Y-2.4272
X3.314Y-2.9921
X3.3219Y-2.7953
X3.3465Y-3.1831
X3.3494Y-3.2559
X3.3497Y-3.3463
X3.4016Y-2.8898
X3.4149Y-3.3711
X3.4149Y-3.4321
X3.4331Y-2.937
X3.4331Y-2.9921
X3.4331Y-3.0472
X3.4795Y-2.9622
X3.4795Y-3.0122
X3.4795Y-3.0626
X3.5213Y-2.802
X3.5374Y-2.5906
X3.5374Y-2.6496
X3.5374Y-2.7087
X3.5669Y-2.6201
X3.5669Y-2.6791
X3.5713Y-2.802
X3.5728Y-2.9783
X3.5728Y-3.0374
X3.5728Y-3.0965
X3.5846Y-3.3898
X3.5965Y-2.5906
X3.5965Y-2.6496
X3.5965Y-2.7087
X3.6024Y-3.0079
X3.6024Y-3.0669
X3.6217Y-2.802
X3.626Y-2.6201
X3.626Y-2.6791
X3.6319Y-2.9783
X3.6319Y-3.0374
X3.6319Y-3.0965
X3.6555Y-2.5906
X3.6555Y-2.6496
X3.6555Y-2.7087
X3.6614Y-3.0079
X3.6614Y-3.0669
X3.6909Y-2.9783
X3.6909Y-3.0374
X3.6909Y-3.0965
X3.698Y-3.6043
X3.7889Y-3.4183
X3.7889Y-3.4793
X3.9188Y-3.4843
X4.4281Y-3.1102
X4.4577Y-3.3003
X4.4587Y-3.1543
X4.4892Y-3.1102
X4.5097Y-3.2731
X4.539Y-3.1922
X4.6752Y-3.2544
X4.6852Y-3.4643
T3
X2.9767Y-2.6083
X3.0217Y-2.6083
X3.0717Y-2.6083
X3.2441Y-2.5433
X3.2441Y-2.6693
X3.3386Y-2.6063
X3.8484Y-2.5886
X3.8494Y-2.7165
X3.8819Y-2.8583
X3.9646Y-2.5886
X3.9656Y-2.7165
X4.1053Y-2.5886
X4.1053Y-2.7165
X4.2215Y-2.5886
X4.2215Y-2.7165
T4
X2.9874Y-3.4937
X3.0374Y-3.4937
X3.0874Y-3.4937
X3.1374Y-3.4937
T5
X4.1831Y-3.4252
X4.1831Y-3.5236
X4.1831Y-3.622
X4.1831Y-3.7205
X4.4488Y-3.4252
X4.4488Y-3.5236
X4.4488Y-3.622
X4.4488Y-3.7205
T6
X3.3498Y-3.7937
X3.527Y-3.7937
T7
X3.4252Y-1.9992
X3.8583Y-1.9992
X3.9961Y-2.2354
X4.4291Y-2.2354
X4.6417Y-2.2441
X4.6417Y-2.5118
X4.6417Y-2.7795
X4.6417Y-3.0472
X4.7402Y-2.2441
X4.7402Y-2.5118
X4.7402Y-2.7795
X4.7402Y-3.0472
T8
X3.1004Y-2.1949
X3.2382Y-2.1949
T9
X3.3002Y-3.6957
X3.5762Y-3.6957
T10
X3.5433Y-2.3929
X3.7402Y-2.3929
X4.1142Y-2.4323
X4.311Y-2.4323
T11
X3.0709Y-3.7008
X4.7244Y-2.0079
X4.7244Y-3.7008
M30
