%TF.GenerationSoftware,KiCad,Pcbnew,9.0.6*%
%TF.CreationDate,2025-11-27T17:01:59+01:00*%
%TF.ProjectId,thermal-ctrl,74686572-6d61-46c2-9d63-74726c2e6b69,1*%
%TF.SameCoordinates,Original*%
%TF.FileFunction,Drillmap*%
%TF.FilePolarity,Positive*%
%FSLAX45Y45*%
G04 Gerber Fmt 4.5, Leading zero omitted, Abs format (unit mm)*
G04 Created by KiCad (PCBNEW 9.0.6) date 2025-11-27 17:01:59*
%MOMM*%
%LPD*%
G01*
G04 APERTURE LIST*
%ADD10C,0.100000*%
%ADD11C,0.200000*%
G04 APERTURE END LIST*
D10*
X12400000Y-5000000D02*
X12400000Y-9400000D01*
X12200000Y-4800000D02*
G75*
G02*
X12400000Y-5000000I0J-200000D01*
G01*
X12400000Y-9400000D02*
G75*
G02*
X12000000Y-9800000I-400000J0D01*
G01*
X7800000Y-9800000D02*
G75*
G02*
X7400000Y-9400000I0J400000D01*
G01*
X7400000Y-5000000D02*
G75*
G02*
X7600000Y-4800000I200000J0D01*
G01*
X7600000Y-4800000D02*
X12200000Y-4800000D01*
X12000000Y-9800000D02*
X7800000Y-9800000D01*
X7400000Y-9400000D02*
X7400000Y-5000000D01*
D11*
X7655777Y-10116484D02*
X7655777Y-9916484D01*
X7655777Y-9916484D02*
X7703396Y-9916484D01*
X7703396Y-9916484D02*
X7731967Y-9926008D01*
X7731967Y-9926008D02*
X7751015Y-9945055D01*
X7751015Y-9945055D02*
X7760539Y-9964103D01*
X7760539Y-9964103D02*
X7770062Y-10002198D01*
X7770062Y-10002198D02*
X7770062Y-10030770D01*
X7770062Y-10030770D02*
X7760539Y-10068865D01*
X7760539Y-10068865D02*
X7751015Y-10087912D01*
X7751015Y-10087912D02*
X7731967Y-10106960D01*
X7731967Y-10106960D02*
X7703396Y-10116484D01*
X7703396Y-10116484D02*
X7655777Y-10116484D01*
X7855777Y-10116484D02*
X7855777Y-9983150D01*
X7855777Y-10021246D02*
X7865301Y-10002198D01*
X7865301Y-10002198D02*
X7874824Y-9992674D01*
X7874824Y-9992674D02*
X7893872Y-9983150D01*
X7893872Y-9983150D02*
X7912920Y-9983150D01*
X7979586Y-10116484D02*
X7979586Y-9983150D01*
X7979586Y-9916484D02*
X7970062Y-9926008D01*
X7970062Y-9926008D02*
X7979586Y-9935531D01*
X7979586Y-9935531D02*
X7989110Y-9926008D01*
X7989110Y-9926008D02*
X7979586Y-9916484D01*
X7979586Y-9916484D02*
X7979586Y-9935531D01*
X8103396Y-10116484D02*
X8084348Y-10106960D01*
X8084348Y-10106960D02*
X8074824Y-10087912D01*
X8074824Y-10087912D02*
X8074824Y-9916484D01*
X8208158Y-10116484D02*
X8189110Y-10106960D01*
X8189110Y-10106960D02*
X8179586Y-10087912D01*
X8179586Y-10087912D02*
X8179586Y-9916484D01*
X8436729Y-10116484D02*
X8436729Y-9916484D01*
X8436729Y-9916484D02*
X8503396Y-10059341D01*
X8503396Y-10059341D02*
X8570063Y-9916484D01*
X8570063Y-9916484D02*
X8570063Y-10116484D01*
X8751015Y-10116484D02*
X8751015Y-10011722D01*
X8751015Y-10011722D02*
X8741491Y-9992674D01*
X8741491Y-9992674D02*
X8722444Y-9983150D01*
X8722444Y-9983150D02*
X8684348Y-9983150D01*
X8684348Y-9983150D02*
X8665301Y-9992674D01*
X8751015Y-10106960D02*
X8731967Y-10116484D01*
X8731967Y-10116484D02*
X8684348Y-10116484D01*
X8684348Y-10116484D02*
X8665301Y-10106960D01*
X8665301Y-10106960D02*
X8655777Y-10087912D01*
X8655777Y-10087912D02*
X8655777Y-10068865D01*
X8655777Y-10068865D02*
X8665301Y-10049817D01*
X8665301Y-10049817D02*
X8684348Y-10040293D01*
X8684348Y-10040293D02*
X8731967Y-10040293D01*
X8731967Y-10040293D02*
X8751015Y-10030770D01*
X8846253Y-9983150D02*
X8846253Y-10183150D01*
X8846253Y-9992674D02*
X8865301Y-9983150D01*
X8865301Y-9983150D02*
X8903396Y-9983150D01*
X8903396Y-9983150D02*
X8922444Y-9992674D01*
X8922444Y-9992674D02*
X8931967Y-10002198D01*
X8931967Y-10002198D02*
X8941491Y-10021246D01*
X8941491Y-10021246D02*
X8941491Y-10078389D01*
X8941491Y-10078389D02*
X8931967Y-10097436D01*
X8931967Y-10097436D02*
X8922444Y-10106960D01*
X8922444Y-10106960D02*
X8903396Y-10116484D01*
X8903396Y-10116484D02*
X8865301Y-10116484D01*
X8865301Y-10116484D02*
X8846253Y-10106960D01*
X9027205Y-10097436D02*
X9036729Y-10106960D01*
X9036729Y-10106960D02*
X9027205Y-10116484D01*
X9027205Y-10116484D02*
X9017682Y-10106960D01*
X9017682Y-10106960D02*
X9027205Y-10097436D01*
X9027205Y-10097436D02*
X9027205Y-10116484D01*
X9027205Y-9992674D02*
X9036729Y-10002198D01*
X9036729Y-10002198D02*
X9027205Y-10011722D01*
X9027205Y-10011722D02*
X9017682Y-10002198D01*
X9017682Y-10002198D02*
X9027205Y-9992674D01*
X9027205Y-9992674D02*
X9027205Y-10011722D01*
M02*
