%TF.GenerationSoftware,KiCad,Pcbnew,9.0.6*%
%TF.CreationDate,2025-11-27T17:01:01+01:00*%
%TF.ProjectId,thermal-ctrl,74686572-6d61-46c2-9d63-74726c2e6b69,1*%
%TF.SameCoordinates,Original*%
%TF.FileFunction,Legend,Bot*%
%TF.FilePolarity,Positive*%
%FSLAX46Y46*%
G04 Gerber Fmt 4.6, Leading zero omitted, Abs format (unit mm)*
G04 Created by KiCad (PCBNEW 9.0.6) date 2025-11-27 17:01:01*
%MOMM*%
%LPD*%
G01*
G04 APERTURE LIST*
%ADD10C,0.000000*%
%ADD11C,0.150000*%
%ADD12C,0.200000*%
%ADD13C,0.250000*%
G04 APERTURE END LIST*
D10*
G36*
X96098915Y-73373127D02*
G01*
X95283271Y-73373127D01*
X94068635Y-70559282D01*
X92851684Y-73373127D01*
X92038488Y-73373193D01*
X93662168Y-69614655D01*
X94475167Y-69614655D01*
X96098915Y-73373127D01*
G37*
G36*
X109444789Y-68670493D02*
G01*
X109475889Y-68672859D01*
X109506537Y-68676754D01*
X109536694Y-68682141D01*
X109566323Y-68688980D01*
X109595384Y-68697234D01*
X109623839Y-68706864D01*
X109651651Y-68717832D01*
X109678779Y-68730098D01*
X109705186Y-68743625D01*
X109730833Y-68758374D01*
X109755682Y-68774306D01*
X109779695Y-68791383D01*
X109802831Y-68809567D01*
X109825054Y-68828819D01*
X109846325Y-68849100D01*
X109866605Y-68870373D01*
X109885856Y-68892597D01*
X109904038Y-68915736D01*
X109921115Y-68939751D01*
X109937046Y-68964602D01*
X109951794Y-68990252D01*
X109965321Y-69016663D01*
X109977586Y-69043794D01*
X109988554Y-69071609D01*
X109998183Y-69100069D01*
X110006437Y-69129134D01*
X110013277Y-69158767D01*
X110018663Y-69188930D01*
X110022559Y-69219583D01*
X110024924Y-69250688D01*
X110025721Y-69282206D01*
X110025113Y-69309735D01*
X110023306Y-69336952D01*
X110020325Y-69363832D01*
X110016197Y-69390349D01*
X110010946Y-69416477D01*
X110004598Y-69442192D01*
X109997180Y-69467467D01*
X109988717Y-69492277D01*
X109979233Y-69516597D01*
X109968756Y-69540400D01*
X109957310Y-69563661D01*
X109944921Y-69586355D01*
X109931615Y-69608456D01*
X109917418Y-69629939D01*
X109886451Y-69670945D01*
X109852225Y-69709171D01*
X109814946Y-69744411D01*
X109774818Y-69776460D01*
X109732046Y-69805114D01*
X109709733Y-69818104D01*
X109686836Y-69830168D01*
X109663380Y-69841282D01*
X109639392Y-69851418D01*
X109614896Y-69860553D01*
X109589919Y-69868659D01*
X109564486Y-69875712D01*
X109538623Y-69881686D01*
X109538623Y-73458853D01*
X107874461Y-74980074D01*
X107950009Y-75085762D01*
X108021501Y-75194466D01*
X108088824Y-75306073D01*
X108151864Y-75420471D01*
X108210509Y-75537547D01*
X108264646Y-75657189D01*
X108314162Y-75779283D01*
X108358946Y-75903718D01*
X108398882Y-76030381D01*
X108433860Y-76159159D01*
X108463766Y-76289939D01*
X108488488Y-76422609D01*
X108507912Y-76557057D01*
X108521926Y-76693170D01*
X108530417Y-76830835D01*
X108533273Y-76969939D01*
X108530041Y-77117937D01*
X108520435Y-77264297D01*
X108504591Y-77408881D01*
X108482645Y-77551556D01*
X108454731Y-77692184D01*
X108420986Y-77830630D01*
X108381546Y-77966759D01*
X108336545Y-78100434D01*
X108286119Y-78231519D01*
X108230405Y-78359879D01*
X108103650Y-78607881D01*
X107957366Y-78843353D01*
X107792638Y-79065208D01*
X107610549Y-79272360D01*
X107412185Y-79463723D01*
X107198630Y-79638210D01*
X106970968Y-79794735D01*
X106730285Y-79932211D01*
X106605399Y-79993467D01*
X106477665Y-80049553D01*
X106347217Y-80100334D01*
X106214192Y-80145673D01*
X106078725Y-80185436D01*
X105940951Y-80219486D01*
X105940951Y-79703681D01*
X106052838Y-79671275D01*
X106162781Y-79634393D01*
X106270674Y-79593138D01*
X106376411Y-79547617D01*
X106479888Y-79497936D01*
X106580998Y-79444200D01*
X106679637Y-79386515D01*
X106775699Y-79324986D01*
X106869079Y-79259720D01*
X106959671Y-79190821D01*
X107047369Y-79118396D01*
X107132069Y-79042550D01*
X107213665Y-78963389D01*
X107292052Y-78881018D01*
X107367123Y-78795543D01*
X107438774Y-78707070D01*
X107506900Y-78615704D01*
X107571394Y-78521551D01*
X107632151Y-78424717D01*
X107689067Y-78325307D01*
X107742035Y-78223427D01*
X107790950Y-78119183D01*
X107835707Y-78012679D01*
X107876201Y-77904023D01*
X107912325Y-77793319D01*
X107943974Y-77680674D01*
X107971044Y-77566192D01*
X107993429Y-77449980D01*
X108011022Y-77332143D01*
X108023719Y-77212787D01*
X108031415Y-77092017D01*
X108034004Y-76969939D01*
X108031415Y-76847855D01*
X108023720Y-76727078D01*
X108011024Y-76607714D01*
X107993431Y-76489869D01*
X107971048Y-76373648D01*
X107943980Y-76259157D01*
X107912332Y-76146502D01*
X107876210Y-76035789D01*
X107790964Y-75820610D01*
X107689084Y-75614467D01*
X107571415Y-75418205D01*
X107438799Y-75232669D01*
X107292079Y-75058707D01*
X107132098Y-74897163D01*
X106959700Y-74748885D01*
X106775727Y-74614716D01*
X106581023Y-74495505D01*
X106376430Y-74392095D01*
X106162792Y-74305334D01*
X106052844Y-74268461D01*
X105940951Y-74236067D01*
X105940951Y-73720261D01*
X106071434Y-73752356D01*
X106199853Y-73789581D01*
X106326092Y-73831819D01*
X106450038Y-73878956D01*
X106571575Y-73930874D01*
X106690591Y-73987459D01*
X106806969Y-74048596D01*
X106920596Y-74114167D01*
X107031357Y-74184059D01*
X107139139Y-74258155D01*
X107243825Y-74336339D01*
X107345303Y-74418497D01*
X107443457Y-74504512D01*
X107538174Y-74594269D01*
X107629338Y-74687653D01*
X107716835Y-74784546D01*
X109287996Y-73348455D01*
X109287996Y-69881686D01*
X109262127Y-69875712D01*
X109236688Y-69868659D01*
X109211706Y-69860553D01*
X109187206Y-69851418D01*
X109163213Y-69841282D01*
X109139753Y-69830168D01*
X109116852Y-69818104D01*
X109094535Y-69805114D01*
X109072828Y-69791224D01*
X109051757Y-69776460D01*
X109031347Y-69760847D01*
X109011623Y-69744411D01*
X108992613Y-69727177D01*
X108974340Y-69709171D01*
X108956830Y-69690419D01*
X108940110Y-69670945D01*
X108924205Y-69650777D01*
X108909141Y-69629939D01*
X108894942Y-69608456D01*
X108881635Y-69586355D01*
X108869246Y-69563661D01*
X108857799Y-69540400D01*
X108847321Y-69516597D01*
X108837838Y-69492277D01*
X108829374Y-69467467D01*
X108821955Y-69442192D01*
X108815608Y-69416477D01*
X108810357Y-69390349D01*
X108806228Y-69363832D01*
X108803247Y-69336952D01*
X108801440Y-69309735D01*
X108800832Y-69282206D01*
X108801629Y-69250693D01*
X108803995Y-69219593D01*
X108807890Y-69188945D01*
X108813276Y-69158786D01*
X108820116Y-69129156D01*
X108828370Y-69100093D01*
X108838000Y-69071635D01*
X108848967Y-69043822D01*
X108861233Y-69016691D01*
X108874759Y-68990281D01*
X108889507Y-68964631D01*
X108905439Y-68939779D01*
X108922515Y-68915764D01*
X108940698Y-68892625D01*
X108959948Y-68870398D01*
X108980228Y-68849125D01*
X109001499Y-68828842D01*
X109023722Y-68809588D01*
X109046858Y-68791403D01*
X109070871Y-68774323D01*
X109095720Y-68758389D01*
X109121367Y-68743638D01*
X109147774Y-68730109D01*
X109174902Y-68717841D01*
X109202714Y-68706872D01*
X109231169Y-68697240D01*
X109260230Y-68688984D01*
X109289859Y-68682143D01*
X109320016Y-68676756D01*
X109350664Y-68672859D01*
X109381764Y-68670494D01*
X109413277Y-68669696D01*
X109444789Y-68670493D01*
G37*
G36*
X88750000Y-50250000D02*
G01*
X96750000Y-50250000D01*
X96750000Y-58250000D01*
X88750000Y-58250000D01*
X88750000Y-50250000D01*
G37*
G36*
X86073258Y-80698646D02*
G01*
X85043433Y-80698646D01*
X85043433Y-80492667D01*
X85867280Y-80492667D01*
X85867347Y-80492671D01*
X85867347Y-80286692D01*
X85043500Y-80286692D01*
X85043500Y-80080780D01*
X85867347Y-80080780D01*
X85867347Y-79874801D01*
X85043500Y-79874801D01*
X85043500Y-79668821D01*
X86073258Y-79668821D01*
X86073258Y-80698646D01*
G37*
G36*
X82637775Y-75034976D02*
G01*
X78896501Y-75034976D01*
X78896501Y-74283163D01*
X82637775Y-74283163D01*
X82637775Y-75034976D01*
G37*
G36*
X98839535Y-72538764D02*
G01*
X100318490Y-69614722D01*
X101084193Y-69614722D01*
X101084193Y-73373196D01*
X100335953Y-73373196D01*
X100335953Y-71245813D01*
X99261017Y-73373193D01*
X98418120Y-73373193D01*
X98418120Y-73370613D01*
X97343184Y-71243363D01*
X97343184Y-73373193D01*
X96594876Y-73373193D01*
X96594876Y-69614721D01*
X97360646Y-69614721D01*
X98839535Y-72538764D01*
G37*
G36*
X89783574Y-80355415D02*
G01*
X89783239Y-80376536D01*
X89782234Y-80396986D01*
X89780559Y-80416765D01*
X89778213Y-80435873D01*
X89775198Y-80454310D01*
X89771512Y-80472076D01*
X89767156Y-80489172D01*
X89762130Y-80505597D01*
X89756433Y-80521352D01*
X89750067Y-80536435D01*
X89743030Y-80550848D01*
X89735323Y-80564591D01*
X89726946Y-80577663D01*
X89717898Y-80590064D01*
X89708180Y-80601795D01*
X89697792Y-80612855D01*
X89686733Y-80623244D01*
X89675005Y-80632964D01*
X89662605Y-80642012D01*
X89649536Y-80650391D01*
X89635796Y-80658098D01*
X89621386Y-80665136D01*
X89606305Y-80671503D01*
X89590554Y-80677200D01*
X89574133Y-80682226D01*
X89557041Y-80686583D01*
X89539278Y-80690269D01*
X89520846Y-80693284D01*
X89501742Y-80695630D01*
X89481969Y-80697305D01*
X89461524Y-80698310D01*
X89440410Y-80698646D01*
X89440410Y-80699308D01*
X89097047Y-80698646D01*
X89075932Y-80698274D01*
X89055488Y-80697235D01*
X89035713Y-80695528D01*
X89016609Y-80693152D01*
X88998175Y-80690108D01*
X88980410Y-80686396D01*
X88963317Y-80682016D01*
X88946893Y-80676968D01*
X88931140Y-80671252D01*
X88916056Y-80664868D01*
X88901643Y-80657815D01*
X88887900Y-80650095D01*
X88874828Y-80641707D01*
X88862426Y-80632650D01*
X88850694Y-80622926D01*
X88839632Y-80612533D01*
X88829241Y-80601473D01*
X88819520Y-80589744D01*
X88810469Y-80577348D01*
X88802089Y-80564283D01*
X88794379Y-80550551D01*
X88787339Y-80536151D01*
X88780970Y-80521083D01*
X88775271Y-80505347D01*
X88770242Y-80488943D01*
X88765884Y-80471871D01*
X88762197Y-80454131D01*
X88759180Y-80435724D01*
X88756833Y-80416648D01*
X88755157Y-80396905D01*
X88754151Y-80376494D01*
X88753816Y-80355415D01*
X88753816Y-80136271D01*
X88753816Y-80046449D01*
X88959727Y-80046449D01*
X88959727Y-80148023D01*
X88959729Y-80148024D01*
X88959729Y-80321087D01*
X88959897Y-80331647D01*
X88960402Y-80341872D01*
X88961243Y-80351760D01*
X88962420Y-80361314D01*
X88963933Y-80370532D01*
X88965782Y-80379414D01*
X88967967Y-80387961D01*
X88970488Y-80396172D01*
X88973345Y-80404048D01*
X88976538Y-80411589D01*
X88980066Y-80418794D01*
X88983930Y-80425664D01*
X88988130Y-80432198D01*
X88992665Y-80438397D01*
X88997535Y-80444261D01*
X89002741Y-80449790D01*
X89008282Y-80454983D01*
X89014158Y-80459841D01*
X89020369Y-80464364D01*
X89026915Y-80468552D01*
X89033796Y-80472404D01*
X89041012Y-80475922D01*
X89048563Y-80479104D01*
X89056449Y-80481951D01*
X89064669Y-80484463D01*
X89073224Y-80486641D01*
X89082113Y-80488483D01*
X89091337Y-80489990D01*
X89100896Y-80491162D01*
X89110788Y-80491999D01*
X89121015Y-80492502D01*
X89131576Y-80492669D01*
X89406081Y-80492669D01*
X89416647Y-80492501D01*
X89426877Y-80491999D01*
X89436770Y-80491161D01*
X89446327Y-80489987D01*
X89455548Y-80488479D01*
X89464433Y-80486635D01*
X89472982Y-80484456D01*
X89481195Y-80481942D01*
X89489072Y-80479093D01*
X89496613Y-80475909D01*
X89503818Y-80472389D01*
X89510687Y-80468535D01*
X89517221Y-80464345D01*
X89523419Y-80459820D01*
X89529282Y-80454960D01*
X89534809Y-80449765D01*
X89540000Y-80444235D01*
X89544857Y-80438370D01*
X89549377Y-80432170D01*
X89553563Y-80425635D01*
X89557414Y-80418765D01*
X89560929Y-80411560D01*
X89564109Y-80404020D01*
X89566954Y-80396145D01*
X89569465Y-80387935D01*
X89571640Y-80379390D01*
X89573480Y-80370510D01*
X89574986Y-80361295D01*
X89576157Y-80351745D01*
X89576994Y-80341861D01*
X89577495Y-80331641D01*
X89577663Y-80321087D01*
X89577663Y-80046449D01*
X89577529Y-80035888D01*
X89577127Y-80025663D01*
X89576457Y-80015773D01*
X89575520Y-80006219D01*
X89574315Y-79996999D01*
X89572841Y-79988115D01*
X89571100Y-79979566D01*
X89569091Y-79971353D01*
X89566815Y-79963474D01*
X89564270Y-79955931D01*
X89561457Y-79948723D01*
X89558376Y-79941851D01*
X89555028Y-79935313D01*
X89551411Y-79929111D01*
X89547526Y-79923244D01*
X89543374Y-79917713D01*
X89538953Y-79912516D01*
X89534265Y-79907655D01*
X89529308Y-79903129D01*
X89524083Y-79898939D01*
X89518591Y-79895083D01*
X89512830Y-79891563D01*
X89506801Y-79888378D01*
X89500504Y-79885529D01*
X89493939Y-79883014D01*
X89487106Y-79880835D01*
X89480005Y-79878991D01*
X89472636Y-79877483D01*
X89464998Y-79876309D01*
X89457092Y-79875471D01*
X89448919Y-79874968D01*
X89440477Y-79874801D01*
X89131574Y-79874801D01*
X89120995Y-79874968D01*
X89110753Y-79875472D01*
X89100848Y-79876311D01*
X89091278Y-79877485D01*
X89082045Y-79878995D01*
X89073149Y-79880841D01*
X89064588Y-79883022D01*
X89056363Y-79885538D01*
X89048475Y-79888390D01*
X89040923Y-79891577D01*
X89033706Y-79895099D01*
X89026826Y-79898956D01*
X89020282Y-79903149D01*
X89014073Y-79907677D01*
X89008201Y-79912540D01*
X89002664Y-79917738D01*
X88997464Y-79923271D01*
X88992599Y-79929139D01*
X88988070Y-79935342D01*
X88983876Y-79941880D01*
X88980018Y-79948753D01*
X88976496Y-79955961D01*
X88973310Y-79963503D01*
X88970459Y-79971381D01*
X88967943Y-79979593D01*
X88965763Y-79988140D01*
X88963919Y-79997021D01*
X88962410Y-80006238D01*
X88961236Y-80015789D01*
X88960398Y-80025674D01*
X88959895Y-80035894D01*
X88959727Y-80046449D01*
X88753816Y-80046449D01*
X88753816Y-80012252D01*
X88754151Y-79991131D01*
X88755157Y-79970681D01*
X88756833Y-79950901D01*
X88759180Y-79931792D01*
X88762197Y-79913353D01*
X88765884Y-79895585D01*
X88770242Y-79878487D01*
X88775271Y-79862060D01*
X88780969Y-79846303D01*
X88787339Y-79831217D01*
X88794378Y-79816801D01*
X88802088Y-79803056D01*
X88810468Y-79789981D01*
X88819519Y-79777577D01*
X88829240Y-79765843D01*
X88839631Y-79754779D01*
X88850693Y-79744387D01*
X88862425Y-79734664D01*
X88874827Y-79725613D01*
X88887900Y-79717231D01*
X88901642Y-79709520D01*
X88916055Y-79702480D01*
X88931139Y-79696110D01*
X88946892Y-79690411D01*
X88963316Y-79685382D01*
X88980410Y-79681024D01*
X88998174Y-79677336D01*
X89016608Y-79674319D01*
X89035713Y-79671972D01*
X89055487Y-79670296D01*
X89075932Y-79669290D01*
X89097047Y-79668955D01*
X89440410Y-79668955D01*
X89461524Y-79669290D01*
X89481968Y-79670296D01*
X89501742Y-79671972D01*
X89520845Y-79674319D01*
X89539278Y-79677336D01*
X89557040Y-79681024D01*
X89574132Y-79685382D01*
X89590553Y-79690411D01*
X89606304Y-79696110D01*
X89621385Y-79702480D01*
X89635795Y-79709520D01*
X89649535Y-79717231D01*
X89662605Y-79725613D01*
X89675004Y-79734664D01*
X89686733Y-79744387D01*
X89697791Y-79754779D01*
X89708179Y-79765843D01*
X89717897Y-79777577D01*
X89726945Y-79789981D01*
X89735322Y-79803056D01*
X89743030Y-79816801D01*
X89750066Y-79831217D01*
X89756433Y-79846303D01*
X89762129Y-79862060D01*
X89767156Y-79878487D01*
X89771512Y-79895585D01*
X89775198Y-79913353D01*
X89778213Y-79931792D01*
X89780559Y-79950901D01*
X89782234Y-79970681D01*
X89783239Y-79991131D01*
X89783574Y-80012252D01*
X89783574Y-80046449D01*
X89783574Y-80355415D01*
G37*
G36*
X88545390Y-80698646D02*
G01*
X87515632Y-80698646D01*
X87515632Y-80492667D01*
X88339479Y-80492667D01*
X88339479Y-79668821D01*
X88545390Y-79668821D01*
X88545390Y-80698646D01*
G37*
G36*
X104598588Y-74210998D02*
G01*
X104481849Y-74240116D01*
X104367068Y-74274065D01*
X104254359Y-74312731D01*
X104143838Y-74355997D01*
X104035619Y-74403750D01*
X103929816Y-74455876D01*
X103826544Y-74512258D01*
X103725918Y-74572783D01*
X103628053Y-74637335D01*
X103533062Y-74705801D01*
X103441062Y-74778065D01*
X103352165Y-74854013D01*
X103266487Y-74933529D01*
X103184143Y-75016500D01*
X103105247Y-75102810D01*
X103029915Y-75192345D01*
X102958259Y-75284990D01*
X102890396Y-75380631D01*
X102826439Y-75479152D01*
X102766504Y-75580439D01*
X102710705Y-75684378D01*
X102659156Y-75790853D01*
X102611973Y-75899749D01*
X102569270Y-76010953D01*
X102531161Y-76124349D01*
X102497762Y-76239823D01*
X102469186Y-76357260D01*
X102445549Y-76476545D01*
X102426965Y-76597564D01*
X102413549Y-76720202D01*
X102405415Y-76844343D01*
X102402679Y-76969874D01*
X102405233Y-77104571D01*
X102412843Y-77236959D01*
X102425431Y-77366959D01*
X102442915Y-77494492D01*
X102465217Y-77619477D01*
X102492258Y-77741835D01*
X102523958Y-77861488D01*
X102560238Y-77978354D01*
X102601018Y-78092355D01*
X102646220Y-78203411D01*
X102695763Y-78311442D01*
X102749569Y-78416369D01*
X102807558Y-78518113D01*
X102869650Y-78616593D01*
X102935767Y-78711730D01*
X103005829Y-78803445D01*
X103079757Y-78891659D01*
X103157471Y-78976290D01*
X103238892Y-79057261D01*
X103323940Y-79134491D01*
X103412537Y-79207901D01*
X103504602Y-79277411D01*
X103600057Y-79342942D01*
X103698823Y-79404414D01*
X103800819Y-79461748D01*
X103905966Y-79514863D01*
X104014186Y-79563681D01*
X104125398Y-79608122D01*
X104239524Y-79648107D01*
X104356483Y-79683555D01*
X104476198Y-79714387D01*
X104598588Y-79740524D01*
X104598588Y-80248524D01*
X104392546Y-80207625D01*
X104192459Y-80155231D01*
X103998630Y-80091649D01*
X103811363Y-80017186D01*
X103630962Y-79932150D01*
X103457729Y-79836848D01*
X103291970Y-79731587D01*
X103133986Y-79616674D01*
X102984083Y-79492417D01*
X102842564Y-79359123D01*
X102709732Y-79217099D01*
X102585892Y-79066652D01*
X102471346Y-78908090D01*
X102366399Y-78741719D01*
X102271353Y-78567848D01*
X102186514Y-78386784D01*
X101492843Y-78881489D01*
X78280549Y-78881489D01*
X78274575Y-78907346D01*
X78267522Y-78932772D01*
X78259416Y-78957743D01*
X78250282Y-78982233D01*
X78240145Y-79006215D01*
X78229032Y-79029665D01*
X78216967Y-79052556D01*
X78203977Y-79074863D01*
X78190087Y-79096561D01*
X78175322Y-79117623D01*
X78159709Y-79138025D01*
X78143272Y-79157741D01*
X78126037Y-79176744D01*
X78108030Y-79195010D01*
X78089277Y-79212512D01*
X78069802Y-79229226D01*
X78049632Y-79245125D01*
X78028792Y-79260184D01*
X78007307Y-79274377D01*
X77985204Y-79287679D01*
X77962508Y-79300064D01*
X77939243Y-79311506D01*
X77915437Y-79321981D01*
X77891114Y-79331461D01*
X77866301Y-79339922D01*
X77841021Y-79347338D01*
X77815302Y-79353683D01*
X77789169Y-79358932D01*
X77762647Y-79363060D01*
X77735762Y-79366039D01*
X77708539Y-79367846D01*
X77681005Y-79368454D01*
X77649503Y-79367657D01*
X77618414Y-79365292D01*
X77587776Y-79361396D01*
X77557627Y-79356010D01*
X77528006Y-79349170D01*
X77498952Y-79340916D01*
X77470502Y-79331286D01*
X77442696Y-79320319D01*
X77415572Y-79308052D01*
X77389168Y-79294525D01*
X77363524Y-79279777D01*
X77338677Y-79263844D01*
X77314667Y-79246767D01*
X77291531Y-79228583D01*
X77269309Y-79209332D01*
X77248038Y-79189050D01*
X77227758Y-79167778D01*
X77208508Y-79145553D01*
X77190324Y-79122414D01*
X77173247Y-79098400D01*
X77157314Y-79073548D01*
X77142565Y-79047898D01*
X77129037Y-79021488D01*
X77116770Y-78994356D01*
X77105801Y-78966541D01*
X77096170Y-78938082D01*
X77087915Y-78909016D01*
X77081074Y-78879383D01*
X77075687Y-78849220D01*
X77071791Y-78818567D01*
X77069425Y-78787462D01*
X77068627Y-78755943D01*
X77069412Y-78724430D01*
X77071766Y-78693330D01*
X77075651Y-78662681D01*
X77081028Y-78632523D01*
X77087858Y-78602893D01*
X77096104Y-78573830D01*
X77105726Y-78545372D01*
X77116686Y-78517559D01*
X77128945Y-78490428D01*
X77142466Y-78464018D01*
X77157209Y-78438368D01*
X77173136Y-78413516D01*
X77190208Y-78389501D01*
X77208388Y-78366361D01*
X77227636Y-78344135D01*
X77247914Y-78322861D01*
X77269183Y-78302578D01*
X77291406Y-78283325D01*
X77314542Y-78265139D01*
X77338555Y-78248060D01*
X77363405Y-78232125D01*
X77389053Y-78217375D01*
X77415462Y-78203846D01*
X77442593Y-78191577D01*
X77470408Y-78180608D01*
X77498867Y-78170976D01*
X77527932Y-78162721D01*
X77557565Y-78155880D01*
X77587727Y-78150492D01*
X77618380Y-78146596D01*
X77649486Y-78144230D01*
X77681005Y-78143433D01*
X77681008Y-78143433D01*
X77708549Y-78144041D01*
X77735776Y-78145849D01*
X77762664Y-78148830D01*
X77789189Y-78152960D01*
X77815323Y-78158212D01*
X77841043Y-78164562D01*
X77866322Y-78171982D01*
X77891135Y-78180448D01*
X77915456Y-78189935D01*
X77939260Y-78200415D01*
X77962521Y-78211864D01*
X77985215Y-78224257D01*
X78007314Y-78237567D01*
X78028795Y-78251768D01*
X78069796Y-78282744D01*
X78108014Y-78316979D01*
X78143246Y-78354269D01*
X78175286Y-78394408D01*
X78203932Y-78437191D01*
X78216918Y-78459510D01*
X78228979Y-78482413D01*
X78240089Y-78505875D01*
X78250222Y-78529869D01*
X78259354Y-78554371D01*
X78267459Y-78579354D01*
X78274511Y-78604793D01*
X78280484Y-78630662D01*
X101412607Y-78630662D01*
X102093115Y-78145483D01*
X102070677Y-78077421D01*
X102049583Y-78008578D01*
X102029848Y-77938967D01*
X102011486Y-77868600D01*
X101994511Y-77797490D01*
X101978937Y-77725649D01*
X101964779Y-77653091D01*
X101952051Y-77579828D01*
X101940767Y-77505873D01*
X101930942Y-77431239D01*
X101922588Y-77355937D01*
X101915722Y-77279982D01*
X101910357Y-77203385D01*
X101906507Y-77126159D01*
X101904187Y-77048318D01*
X101903410Y-76969872D01*
X101906792Y-76818470D01*
X101916841Y-76668786D01*
X101933411Y-76520968D01*
X101956358Y-76375159D01*
X101985536Y-76231505D01*
X102020801Y-76090152D01*
X102062008Y-75951245D01*
X102109010Y-75814930D01*
X102161663Y-75681351D01*
X102219822Y-75550653D01*
X102283342Y-75422984D01*
X102352078Y-75298487D01*
X102425884Y-75177308D01*
X102504615Y-75059592D01*
X102588127Y-74945485D01*
X102676274Y-74835132D01*
X102865893Y-74626270D01*
X103072311Y-74434167D01*
X103181457Y-74344765D01*
X103294367Y-74259988D01*
X103410897Y-74179983D01*
X103530901Y-74104894D01*
X103654234Y-74034868D01*
X103780751Y-73970049D01*
X103910306Y-73910583D01*
X104042756Y-73856615D01*
X104177954Y-73808291D01*
X104315755Y-73765755D01*
X104456015Y-73729153D01*
X104598588Y-73698631D01*
X104598588Y-74210998D01*
G37*
G36*
X98275793Y-79669290D02*
G01*
X98296243Y-79670296D01*
X98316023Y-79671972D01*
X98335132Y-79674319D01*
X98353571Y-79677336D01*
X98371339Y-79681024D01*
X98388437Y-79685382D01*
X98404865Y-79690411D01*
X98420621Y-79696110D01*
X98435708Y-79702480D01*
X98450123Y-79709520D01*
X98463869Y-79717231D01*
X98476944Y-79725613D01*
X98489348Y-79734664D01*
X98501082Y-79744387D01*
X98512145Y-79754779D01*
X98522538Y-79765843D01*
X98532260Y-79777577D01*
X98541312Y-79789981D01*
X98549693Y-79803056D01*
X98557404Y-79816801D01*
X98564444Y-79831217D01*
X98570814Y-79846303D01*
X98576513Y-79862060D01*
X98581542Y-79878487D01*
X98585900Y-79895585D01*
X98589588Y-79913353D01*
X98592605Y-79931792D01*
X98594952Y-79950901D01*
X98596628Y-79970681D01*
X98597634Y-79991131D01*
X98597969Y-80012252D01*
X98597969Y-80355415D01*
X98597634Y-80376536D01*
X98596627Y-80396986D01*
X98594950Y-80416765D01*
X98592602Y-80435873D01*
X98589584Y-80454310D01*
X98585895Y-80472076D01*
X98581535Y-80489172D01*
X98576504Y-80505597D01*
X98570803Y-80521352D01*
X98564431Y-80536435D01*
X98557389Y-80550848D01*
X98549676Y-80564591D01*
X98541293Y-80577663D01*
X98532239Y-80590064D01*
X98522515Y-80601795D01*
X98512121Y-80612855D01*
X98501056Y-80623244D01*
X98489321Y-80632964D01*
X98476916Y-80642012D01*
X98463840Y-80650391D01*
X98450095Y-80658098D01*
X98435679Y-80665136D01*
X98420593Y-80671503D01*
X98404837Y-80677200D01*
X98388411Y-80682226D01*
X98371315Y-80686583D01*
X98353550Y-80690269D01*
X98335114Y-80693284D01*
X98316008Y-80695630D01*
X98296233Y-80697305D01*
X98275787Y-80698310D01*
X98254672Y-80698646D01*
X97568078Y-80698646D01*
X97568078Y-80492667D01*
X98225768Y-80492803D01*
X98235987Y-80492641D01*
X98245883Y-80492156D01*
X98255454Y-80491348D01*
X98264702Y-80490217D01*
X98273626Y-80488763D01*
X98282226Y-80486985D01*
X98290502Y-80484884D01*
X98298455Y-80482461D01*
X98306083Y-80479714D01*
X98313387Y-80476644D01*
X98320367Y-80473252D01*
X98327023Y-80469536D01*
X98333355Y-80465497D01*
X98339362Y-80461136D01*
X98345045Y-80456452D01*
X98350404Y-80451444D01*
X98355438Y-80446114D01*
X98360148Y-80440461D01*
X98364534Y-80434485D01*
X98368594Y-80428187D01*
X98372331Y-80421566D01*
X98375742Y-80414622D01*
X98378829Y-80407355D01*
X98381591Y-80399765D01*
X98384029Y-80391853D01*
X98386141Y-80383619D01*
X98387929Y-80375062D01*
X98389392Y-80366182D01*
X98390530Y-80356979D01*
X98391342Y-80347455D01*
X98391830Y-80337607D01*
X98391993Y-80327437D01*
X98391993Y-80039702D01*
X98391831Y-80029563D01*
X98391345Y-80019746D01*
X98390536Y-80010251D01*
X98389404Y-80001078D01*
X98387948Y-79992227D01*
X98386169Y-79983699D01*
X98384066Y-79975492D01*
X98381640Y-79967607D01*
X98378890Y-79960044D01*
X98375817Y-79952803D01*
X98372421Y-79945884D01*
X98368702Y-79939287D01*
X98364659Y-79933012D01*
X98360294Y-79927058D01*
X98355605Y-79921427D01*
X98350593Y-79916118D01*
X98345258Y-79911130D01*
X98339600Y-79906465D01*
X98333619Y-79902121D01*
X98327316Y-79898099D01*
X98320689Y-79894399D01*
X98313739Y-79891020D01*
X98306467Y-79887964D01*
X98298872Y-79885229D01*
X98290954Y-79882816D01*
X98282713Y-79880725D01*
X98274150Y-79878955D01*
X98265264Y-79877508D01*
X98256056Y-79876382D01*
X98246525Y-79875578D01*
X98236671Y-79875095D01*
X98226495Y-79874934D01*
X97568078Y-79874934D01*
X97568078Y-79668955D01*
X98254672Y-79668955D01*
X98275793Y-79669290D01*
G37*
G36*
X104014288Y-64833903D02*
G01*
X104045393Y-64836268D01*
X104076046Y-64840164D01*
X104106208Y-64845550D01*
X104135842Y-64852390D01*
X104164907Y-64860644D01*
X104193367Y-64870274D01*
X104221181Y-64881242D01*
X104248313Y-64893508D01*
X104274723Y-64907035D01*
X104300373Y-64921784D01*
X104325225Y-64937716D01*
X104349239Y-64954793D01*
X104372378Y-64972977D01*
X104394603Y-64992229D01*
X104415875Y-65012510D01*
X104436157Y-65033782D01*
X104455408Y-65056007D01*
X104473592Y-65079146D01*
X104490669Y-65103160D01*
X104506602Y-65128012D01*
X104521351Y-65153662D01*
X104534877Y-65180072D01*
X104547144Y-65207204D01*
X104558111Y-65235019D01*
X104567741Y-65263478D01*
X104575995Y-65292544D01*
X104582835Y-65322177D01*
X104588222Y-65352339D01*
X104592117Y-65382992D01*
X104594482Y-65414097D01*
X104595279Y-65445616D01*
X104594671Y-65473145D01*
X104592863Y-65500361D01*
X104589882Y-65527241D01*
X104585752Y-65553758D01*
X104580500Y-65579887D01*
X104574150Y-65605602D01*
X104566730Y-65630877D01*
X104558263Y-65655687D01*
X104548777Y-65680006D01*
X104538297Y-65703810D01*
X104526848Y-65727071D01*
X104514455Y-65749765D01*
X104501145Y-65771866D01*
X104486944Y-65793348D01*
X104455968Y-65834355D01*
X104421733Y-65872581D01*
X104384443Y-65907820D01*
X104344304Y-65939870D01*
X104301520Y-65968524D01*
X104279201Y-65981514D01*
X104256298Y-65993578D01*
X104232837Y-66004691D01*
X104208842Y-66014828D01*
X104184341Y-66023962D01*
X104159357Y-66032069D01*
X104133918Y-66039122D01*
X104108049Y-66045096D01*
X104108049Y-68745169D01*
X107410445Y-72390069D01*
X107433629Y-72377133D01*
X107457218Y-72365284D01*
X107505468Y-72344845D01*
X107554905Y-72328737D01*
X107605240Y-72316947D01*
X107656183Y-72309462D01*
X107707447Y-72306268D01*
X107758741Y-72307350D01*
X107809776Y-72312695D01*
X107860263Y-72322290D01*
X107909913Y-72336121D01*
X107958436Y-72354173D01*
X108005544Y-72376433D01*
X108028476Y-72389137D01*
X108050947Y-72402888D01*
X108072918Y-72417684D01*
X108094355Y-72433523D01*
X108115221Y-72450404D01*
X108135480Y-72468325D01*
X108155096Y-72487284D01*
X108174033Y-72507280D01*
X108194601Y-72531168D01*
X108213729Y-72555803D01*
X108231421Y-72581130D01*
X108247678Y-72607096D01*
X108262504Y-72633646D01*
X108275901Y-72660725D01*
X108287872Y-72688279D01*
X108298419Y-72716254D01*
X108307545Y-72744595D01*
X108315253Y-72773248D01*
X108321545Y-72802157D01*
X108326425Y-72831270D01*
X108329894Y-72860532D01*
X108331955Y-72889887D01*
X108332611Y-72919282D01*
X108331865Y-72948662D01*
X108329719Y-72977974D01*
X108326176Y-73007161D01*
X108321239Y-73036171D01*
X108314910Y-73064948D01*
X108307192Y-73093438D01*
X108298087Y-73121587D01*
X108287599Y-73149340D01*
X108275729Y-73176643D01*
X108262481Y-73203442D01*
X108247857Y-73229682D01*
X108231860Y-73255308D01*
X108214492Y-73280267D01*
X108195757Y-73304503D01*
X108175656Y-73327963D01*
X108154192Y-73350592D01*
X108131369Y-73372335D01*
X108107475Y-73392909D01*
X108082835Y-73412043D01*
X108057503Y-73429739D01*
X108031534Y-73446000D01*
X108004981Y-73460828D01*
X107977899Y-73474228D01*
X107950342Y-73486200D01*
X107922366Y-73496748D01*
X107894024Y-73505875D01*
X107865370Y-73513583D01*
X107836459Y-73519874D01*
X107807346Y-73524752D01*
X107778085Y-73528220D01*
X107748729Y-73530279D01*
X107719334Y-73530933D01*
X107689954Y-73530184D01*
X107660642Y-73528034D01*
X107631455Y-73524488D01*
X107602445Y-73519547D01*
X107573668Y-73513213D01*
X107545177Y-73505490D01*
X107517027Y-73496381D01*
X107489273Y-73485887D01*
X107461969Y-73474012D01*
X107435168Y-73460759D01*
X107408926Y-73446129D01*
X107383297Y-73430126D01*
X107358336Y-73412753D01*
X107334095Y-73394011D01*
X107310631Y-73373904D01*
X107287997Y-73352435D01*
X107266248Y-73329605D01*
X107248213Y-73308793D01*
X107231276Y-73287408D01*
X107215435Y-73265485D01*
X107200689Y-73243062D01*
X107187035Y-73220173D01*
X107174472Y-73196856D01*
X107162998Y-73173146D01*
X107152612Y-73149080D01*
X107143311Y-73124692D01*
X107135093Y-73100020D01*
X107127957Y-73075100D01*
X107121901Y-73049967D01*
X107116923Y-73024659D01*
X107113022Y-72999209D01*
X107108441Y-72948035D01*
X107108143Y-72896732D01*
X107112114Y-72845590D01*
X107120340Y-72794898D01*
X107132805Y-72744944D01*
X107140623Y-72720333D01*
X107149496Y-72696016D01*
X107159421Y-72672027D01*
X107170397Y-72648403D01*
X107182423Y-72625181D01*
X107195495Y-72602395D01*
X107209613Y-72580082D01*
X107224775Y-72558279D01*
X103857422Y-68841677D01*
X103857422Y-66045098D01*
X103831559Y-66039124D01*
X103806126Y-66032071D01*
X103781148Y-66023964D01*
X103756651Y-66014830D01*
X103732661Y-66004693D01*
X103709204Y-65993580D01*
X103686305Y-65981516D01*
X103663989Y-65968526D01*
X103642284Y-65954636D01*
X103621213Y-65939872D01*
X103600803Y-65924259D01*
X103581079Y-65907822D01*
X103562067Y-65890589D01*
X103543794Y-65872583D01*
X103526283Y-65853830D01*
X103509562Y-65834357D01*
X103493655Y-65814189D01*
X103478588Y-65793350D01*
X103464388Y-65771868D01*
X103451079Y-65749767D01*
X103438688Y-65727073D01*
X103427239Y-65703812D01*
X103416759Y-65680008D01*
X103407273Y-65655689D01*
X103398807Y-65630879D01*
X103391387Y-65605604D01*
X103385038Y-65579889D01*
X103379786Y-65553760D01*
X103375656Y-65527243D01*
X103372674Y-65500364D01*
X103370867Y-65473147D01*
X103370258Y-65445618D01*
X103370259Y-65445616D01*
X103371056Y-65414103D01*
X103373422Y-65383003D01*
X103377317Y-65352354D01*
X103382704Y-65322196D01*
X103389543Y-65292566D01*
X103397797Y-65263502D01*
X103407427Y-65235045D01*
X103418395Y-65207231D01*
X103430661Y-65180101D01*
X103444188Y-65153691D01*
X103458937Y-65128041D01*
X103474869Y-65103189D01*
X103491946Y-65079174D01*
X103510130Y-65056034D01*
X103529382Y-65033808D01*
X103549663Y-65012534D01*
X103570935Y-64992252D01*
X103593160Y-64972998D01*
X103616299Y-64954812D01*
X103640314Y-64937733D01*
X103665165Y-64921799D01*
X103690815Y-64907048D01*
X103717225Y-64893519D01*
X103744357Y-64881251D01*
X103772172Y-64870281D01*
X103800631Y-64860650D01*
X103829697Y-64852394D01*
X103859330Y-64845553D01*
X103889492Y-64840165D01*
X103920145Y-64836269D01*
X103951250Y-64833903D01*
X103982769Y-64833106D01*
X104014288Y-64833903D01*
G37*
G36*
X99834042Y-80698646D02*
G01*
X99609475Y-80698646D01*
X99520311Y-80492667D01*
X99029444Y-80492667D01*
X98940147Y-80698646D01*
X98716309Y-80698646D01*
X98895069Y-80286821D01*
X99119332Y-80286821D01*
X99430879Y-80286821D01*
X99475583Y-80389714D01*
X99430881Y-80286821D01*
X99275107Y-79927649D01*
X99119332Y-80286821D01*
X98895069Y-80286821D01*
X99163322Y-79668821D01*
X99387026Y-79668821D01*
X99699944Y-80389714D01*
X99834042Y-80698646D01*
G37*
G36*
X87311505Y-80698513D02*
G01*
X86624978Y-80698513D01*
X86603864Y-80698178D01*
X86583420Y-80697173D01*
X86563646Y-80695497D01*
X86544543Y-80693152D01*
X86526111Y-80690136D01*
X86508349Y-80686450D01*
X86491257Y-80682094D01*
X86474836Y-80677067D01*
X86459085Y-80671370D01*
X86444004Y-80665003D01*
X86429594Y-80657966D01*
X86415854Y-80650258D01*
X86402785Y-80641879D01*
X86390386Y-80632831D01*
X86378657Y-80623111D01*
X86367598Y-80612722D01*
X86357210Y-80601662D01*
X86347492Y-80589931D01*
X86338445Y-80577530D01*
X86330067Y-80564458D01*
X86322360Y-80550715D01*
X86315323Y-80536302D01*
X86308957Y-80521219D01*
X86303260Y-80505464D01*
X86298234Y-80489039D01*
X86293878Y-80471944D01*
X86290192Y-80454177D01*
X86287177Y-80435740D01*
X86284831Y-80416632D01*
X86283156Y-80396853D01*
X86282151Y-80376403D01*
X86281816Y-80355283D01*
X86281816Y-80012118D01*
X86282151Y-79990998D01*
X86283156Y-79970547D01*
X86284831Y-79950768D01*
X86287177Y-79931658D01*
X86290192Y-79913220D01*
X86293878Y-79895451D01*
X86298234Y-79878354D01*
X86303260Y-79861926D01*
X86308956Y-79846169D01*
X86315323Y-79831083D01*
X86322360Y-79816667D01*
X86330067Y-79802922D01*
X86338444Y-79789847D01*
X86347492Y-79777443D01*
X86357210Y-79765709D01*
X86367598Y-79754646D01*
X86378656Y-79744253D01*
X86390385Y-79734531D01*
X86402784Y-79725479D01*
X86415853Y-79717098D01*
X86429593Y-79709387D01*
X86444003Y-79702347D01*
X86459084Y-79695977D01*
X86474835Y-79690277D01*
X86491256Y-79685249D01*
X86508348Y-79680890D01*
X86526110Y-79677203D01*
X86544543Y-79674185D01*
X86563646Y-79671839D01*
X86583420Y-79670162D01*
X86603864Y-79669157D01*
X86624978Y-79668821D01*
X87311505Y-79668689D01*
X87105594Y-79874799D01*
X86653157Y-79874799D01*
X86643061Y-79874957D01*
X86633286Y-79875432D01*
X86623831Y-79876224D01*
X86614698Y-79877332D01*
X86605885Y-79878757D01*
X86597393Y-79880498D01*
X86589222Y-79882556D01*
X86581372Y-79884931D01*
X86573843Y-79887622D01*
X86566635Y-79890629D01*
X86559748Y-79893953D01*
X86553181Y-79897594D01*
X86546936Y-79901551D01*
X86541011Y-79905825D01*
X86535408Y-79910415D01*
X86530125Y-79915322D01*
X86525163Y-79920545D01*
X86520523Y-79926084D01*
X86516203Y-79931940D01*
X86512204Y-79938113D01*
X86508526Y-79944601D01*
X86505168Y-79951406D01*
X86502132Y-79958528D01*
X86499417Y-79965966D01*
X86497022Y-79973720D01*
X86494949Y-79981791D01*
X86493196Y-79990178D01*
X86491765Y-79998881D01*
X86490654Y-80007900D01*
X86489864Y-80017236D01*
X86489395Y-80026888D01*
X86489247Y-80036857D01*
X86489247Y-80330015D01*
X86489408Y-80340026D01*
X86489891Y-80349719D01*
X86490695Y-80359093D01*
X86491821Y-80368150D01*
X86493268Y-80376888D01*
X86495038Y-80385309D01*
X86497129Y-80393411D01*
X86499541Y-80401195D01*
X86502276Y-80408661D01*
X86505332Y-80415809D01*
X86508709Y-80422640D01*
X86512409Y-80429152D01*
X86516430Y-80435346D01*
X86520773Y-80441223D01*
X86525437Y-80446781D01*
X86530423Y-80452022D01*
X86535731Y-80456945D01*
X86541361Y-80461550D01*
X86547312Y-80465838D01*
X86553585Y-80469808D01*
X86560179Y-80473460D01*
X86567095Y-80476794D01*
X86574333Y-80479810D01*
X86581893Y-80482509D01*
X86589774Y-80484891D01*
X86597977Y-80486955D01*
X86606502Y-80488701D01*
X86615348Y-80490129D01*
X86624516Y-80491241D01*
X86634006Y-80492034D01*
X86653951Y-80492669D01*
X87105594Y-80492669D01*
X87105594Y-79874801D01*
X87311505Y-79668689D01*
X87311505Y-80698513D01*
G37*
G36*
X109006383Y-66375064D02*
G01*
X109035694Y-66377681D01*
X109064885Y-66381704D01*
X109093901Y-66387133D01*
X109122687Y-66393972D01*
X109151190Y-66402221D01*
X109179354Y-66411882D01*
X109207125Y-66422957D01*
X109234450Y-66435447D01*
X109261273Y-66449353D01*
X109287539Y-66464679D01*
X109313196Y-66481424D01*
X109338187Y-66499592D01*
X109362459Y-66519183D01*
X109385957Y-66540199D01*
X109405587Y-66559504D01*
X109424169Y-66579470D01*
X109441701Y-66600059D01*
X109458183Y-66621237D01*
X109473613Y-66642966D01*
X109487991Y-66665210D01*
X109501315Y-66687934D01*
X109513583Y-66711101D01*
X109524796Y-66734674D01*
X109534952Y-66758618D01*
X109544050Y-66782896D01*
X109552089Y-66807473D01*
X109559067Y-66832311D01*
X109564984Y-66857375D01*
X109569839Y-66882628D01*
X109573629Y-66908035D01*
X109576356Y-66933559D01*
X109578016Y-66959164D01*
X109578610Y-66984813D01*
X109578135Y-67010471D01*
X109576592Y-67036100D01*
X109573979Y-67061666D01*
X109570294Y-67087132D01*
X109565537Y-67112461D01*
X109559707Y-67137617D01*
X109552802Y-67162565D01*
X109544821Y-67187267D01*
X109535764Y-67211689D01*
X109525630Y-67235792D01*
X109514416Y-67259542D01*
X109502122Y-67282902D01*
X109488748Y-67305836D01*
X111571415Y-69265208D01*
X111571415Y-77166195D01*
X109447936Y-79389819D01*
X109462514Y-79412000D01*
X109476036Y-79434665D01*
X109488501Y-79457777D01*
X109499908Y-79481300D01*
X109519544Y-79529435D01*
X109534937Y-79578778D01*
X109546081Y-79629042D01*
X109552968Y-79679935D01*
X109555591Y-79731169D01*
X109553943Y-79782453D01*
X109548017Y-79833497D01*
X109537806Y-79884012D01*
X109523303Y-79933708D01*
X109514439Y-79958158D01*
X109504500Y-79982295D01*
X109493484Y-80006082D01*
X109481391Y-80029483D01*
X109468220Y-80052462D01*
X109453969Y-80074983D01*
X109438638Y-80097009D01*
X109422226Y-80118504D01*
X109404732Y-80139433D01*
X109386156Y-80159758D01*
X109363811Y-80181999D01*
X109340618Y-80202859D01*
X109316631Y-80222335D01*
X109291905Y-80240428D01*
X109266494Y-80257134D01*
X109240452Y-80272454D01*
X109213833Y-80286386D01*
X109186693Y-80298928D01*
X109159086Y-80310080D01*
X109131065Y-80319840D01*
X109102686Y-80328207D01*
X109074003Y-80335179D01*
X109045070Y-80340756D01*
X109015942Y-80344936D01*
X108986672Y-80347718D01*
X108957316Y-80349100D01*
X108927928Y-80349082D01*
X108898562Y-80347661D01*
X108869273Y-80344838D01*
X108840115Y-80340610D01*
X108811142Y-80334976D01*
X108782409Y-80327935D01*
X108753970Y-80319486D01*
X108725880Y-80309627D01*
X108698193Y-80298358D01*
X108670964Y-80285677D01*
X108644246Y-80271582D01*
X108618095Y-80256073D01*
X108592565Y-80239148D01*
X108567709Y-80220805D01*
X108543583Y-80201045D01*
X108520241Y-80179865D01*
X108498000Y-80157514D01*
X108477141Y-80134316D01*
X108457665Y-80110323D01*
X108439574Y-80085592D01*
X108422869Y-80060176D01*
X108407551Y-80034130D01*
X108393622Y-80007507D01*
X108381082Y-79980363D01*
X108369933Y-79952752D01*
X108360176Y-79924728D01*
X108351813Y-79896345D01*
X108344844Y-79867659D01*
X108339271Y-79838723D01*
X108335095Y-79809591D01*
X108332318Y-79780318D01*
X108330940Y-79750959D01*
X108330963Y-79721568D01*
X108332389Y-79692199D01*
X108335217Y-79662906D01*
X108339451Y-79633745D01*
X108345090Y-79604769D01*
X108352136Y-79576033D01*
X108360591Y-79547590D01*
X108370455Y-79519497D01*
X108381730Y-79491806D01*
X108394417Y-79464572D01*
X108408518Y-79437850D01*
X108424033Y-79411694D01*
X108440964Y-79386159D01*
X108459312Y-79361298D01*
X108479079Y-79337167D01*
X108500265Y-79313819D01*
X108500265Y-79313817D01*
X108519721Y-79294332D01*
X108539829Y-79275902D01*
X108560552Y-79258526D01*
X108581855Y-79242205D01*
X108603701Y-79226940D01*
X108626054Y-79212732D01*
X108648878Y-79199581D01*
X108672136Y-79187489D01*
X108695792Y-79176456D01*
X108719811Y-79166482D01*
X108744155Y-79157569D01*
X108768789Y-79149718D01*
X108793677Y-79142928D01*
X108818782Y-79137201D01*
X108844068Y-79132538D01*
X108869499Y-79128939D01*
X108895039Y-79126406D01*
X108920652Y-79124937D01*
X108946300Y-79124536D01*
X108971949Y-79125202D01*
X108997561Y-79126936D01*
X109023102Y-79129739D01*
X109048534Y-79133611D01*
X109073821Y-79138553D01*
X109098927Y-79144567D01*
X109123816Y-79151653D01*
X109148452Y-79159811D01*
X109172798Y-79169042D01*
X109196819Y-79179347D01*
X109220478Y-79190728D01*
X109243738Y-79203184D01*
X109266564Y-79216716D01*
X111320723Y-77065654D01*
X111320723Y-69373489D01*
X109317034Y-67488267D01*
X109294960Y-67503014D01*
X109272396Y-67516709D01*
X109249376Y-67529349D01*
X109225937Y-67540934D01*
X109177948Y-67560933D01*
X109128719Y-67576697D01*
X109078538Y-67588217D01*
X109027696Y-67595483D01*
X108976482Y-67598486D01*
X108925186Y-67597218D01*
X108874098Y-67591668D01*
X108823507Y-67581828D01*
X108773703Y-67567689D01*
X108749187Y-67559004D01*
X108724977Y-67549240D01*
X108701108Y-67538397D01*
X108677617Y-67526474D01*
X108654540Y-67513469D01*
X108631913Y-67499380D01*
X108609773Y-67484208D01*
X108588155Y-67467951D01*
X108567097Y-67450607D01*
X108546633Y-67432175D01*
X108524227Y-67409999D01*
X108503198Y-67386964D01*
X108483546Y-67363126D01*
X108465273Y-67338538D01*
X108448381Y-67313254D01*
X108432871Y-67287330D01*
X108418746Y-67260819D01*
X108406006Y-67233776D01*
X108394654Y-67206255D01*
X108384691Y-67178311D01*
X108376118Y-67149998D01*
X108368938Y-67121370D01*
X108363152Y-67092481D01*
X108358761Y-67063387D01*
X108355768Y-67034141D01*
X108354174Y-67004799D01*
X108353980Y-66975413D01*
X108355188Y-66946039D01*
X108357800Y-66916730D01*
X108361817Y-66887542D01*
X108367241Y-66858529D01*
X108374074Y-66829745D01*
X108382318Y-66801244D01*
X108391973Y-66773080D01*
X108403042Y-66745309D01*
X108415526Y-66717985D01*
X108429427Y-66691161D01*
X108444746Y-66664893D01*
X108461485Y-66639234D01*
X108479647Y-66614239D01*
X108499231Y-66589962D01*
X108520241Y-66566459D01*
X108542411Y-66544053D01*
X108565441Y-66523024D01*
X108589276Y-66503373D01*
X108613862Y-66485101D01*
X108639144Y-66468211D01*
X108665067Y-66452703D01*
X108691578Y-66438580D01*
X108718621Y-66425843D01*
X108746143Y-66414494D01*
X108774089Y-66404534D01*
X108802404Y-66395965D01*
X108831034Y-66388788D01*
X108859925Y-66383006D01*
X108889022Y-66378619D01*
X108918271Y-66375630D01*
X108947617Y-66374040D01*
X108977006Y-66373851D01*
X109006383Y-66375064D01*
G37*
G36*
X79557772Y-79669357D02*
G01*
X79578217Y-79670363D01*
X79597992Y-79672039D01*
X79617097Y-79674386D01*
X79635531Y-79677403D01*
X79653295Y-79681091D01*
X79670390Y-79685449D01*
X79686813Y-79690478D01*
X79702567Y-79696177D01*
X79717651Y-79702547D01*
X79732064Y-79709587D01*
X79745807Y-79717298D01*
X79758879Y-79725679D01*
X79771282Y-79734731D01*
X79783014Y-79744453D01*
X79794075Y-79754846D01*
X79804467Y-79765909D01*
X79814188Y-79777643D01*
X79823239Y-79790047D01*
X79831619Y-79803122D01*
X79839329Y-79816867D01*
X79846368Y-79831283D01*
X79852738Y-79846369D01*
X79858437Y-79862126D01*
X79863465Y-79878553D01*
X79867823Y-79895651D01*
X79871511Y-79913420D01*
X79874528Y-79931858D01*
X79876874Y-79950968D01*
X79878551Y-79970747D01*
X79879556Y-79991198D01*
X79879891Y-80012319D01*
X79879891Y-80355482D01*
X79879556Y-80376603D01*
X79878550Y-80397052D01*
X79876874Y-80416831D01*
X79874527Y-80435939D01*
X79871510Y-80454376D01*
X79867823Y-80472143D01*
X79863465Y-80489239D01*
X79858436Y-80505664D01*
X79852737Y-80521418D01*
X79846368Y-80536502D01*
X79839328Y-80550915D01*
X79831618Y-80564657D01*
X79823237Y-80577729D01*
X79814187Y-80590130D01*
X79804465Y-80601861D01*
X79794074Y-80612921D01*
X79783012Y-80623311D01*
X79771280Y-80633030D01*
X79758878Y-80642079D01*
X79745805Y-80650457D01*
X79732062Y-80658165D01*
X79717649Y-80665203D01*
X79702565Y-80671570D01*
X79686812Y-80677267D01*
X79670388Y-80682293D01*
X79653294Y-80686649D01*
X79635530Y-80690335D01*
X79617095Y-80693351D01*
X79597991Y-80695697D01*
X79578216Y-80697372D01*
X79557771Y-80698377D01*
X79536656Y-80698712D01*
X78850000Y-80698712D01*
X78850000Y-80149705D01*
X79056043Y-80149705D01*
X79056043Y-80492868D01*
X79507688Y-80492868D01*
X79517918Y-80492707D01*
X79527823Y-80492222D01*
X79537402Y-80491414D01*
X79546656Y-80490283D01*
X79555585Y-80488828D01*
X79564188Y-80487051D01*
X79572467Y-80484950D01*
X79580419Y-80482527D01*
X79588047Y-80479780D01*
X79595350Y-80476711D01*
X79602327Y-80473318D01*
X79608979Y-80469602D01*
X79615307Y-80465564D01*
X79621309Y-80461202D01*
X79626987Y-80456518D01*
X79632340Y-80451511D01*
X79637368Y-80446180D01*
X79642071Y-80440527D01*
X79646450Y-80434552D01*
X79650504Y-80428253D01*
X79654233Y-80421632D01*
X79657638Y-80414688D01*
X79660718Y-80407421D01*
X79663474Y-80399832D01*
X79665905Y-80391920D01*
X79668012Y-80383685D01*
X79669795Y-80375128D01*
X79671254Y-80366248D01*
X79672388Y-80357046D01*
X79673198Y-80347521D01*
X79673684Y-80337674D01*
X79673846Y-80327504D01*
X79673846Y-80039769D01*
X79673685Y-80029630D01*
X79673201Y-80019813D01*
X79672395Y-80010318D01*
X79671266Y-80001145D01*
X79669815Y-79992294D01*
X79668041Y-79983765D01*
X79665944Y-79975558D01*
X79663524Y-79967673D01*
X79660781Y-79960110D01*
X79657716Y-79952869D01*
X79654327Y-79945950D01*
X79650616Y-79939353D01*
X79646581Y-79933078D01*
X79642224Y-79927124D01*
X79637543Y-79921493D01*
X79632539Y-79916184D01*
X79627212Y-79911196D01*
X79621562Y-79906530D01*
X79615588Y-79902187D01*
X79609291Y-79898165D01*
X79602670Y-79894464D01*
X79595726Y-79891086D01*
X79588458Y-79888030D01*
X79580867Y-79885295D01*
X79572952Y-79882882D01*
X79564713Y-79880791D01*
X79556151Y-79879021D01*
X79547265Y-79877574D01*
X79538055Y-79876448D01*
X79528521Y-79875643D01*
X79518663Y-79875161D01*
X79508481Y-79875000D01*
X78850000Y-79875000D01*
X78850000Y-79669022D01*
X79536656Y-79669022D01*
X79557772Y-79669357D01*
G37*
G36*
X101084260Y-78041700D02*
G01*
X100336018Y-78041700D01*
X100336018Y-76538272D01*
X97343184Y-76538272D01*
X97343184Y-75786656D01*
X100336018Y-75786656D01*
X100336018Y-75034976D01*
X97343184Y-75034976D01*
X97343184Y-74283163D01*
X101084260Y-74283163D01*
X101084260Y-78041700D01*
G37*
G36*
X92333366Y-78041700D02*
G01*
X91517789Y-78041700D01*
X90303151Y-75227790D01*
X89085935Y-78041700D01*
X88272870Y-78041700D01*
X89896550Y-74283163D01*
X90709550Y-74283163D01*
X92333366Y-78041700D01*
G37*
G36*
X81113839Y-80698777D02*
G01*
X80907930Y-80698777D01*
X80907930Y-80286821D01*
X80807519Y-80286821D01*
X80324191Y-80698911D01*
X80007814Y-80698911D01*
X80491141Y-80286955D01*
X80427180Y-80286955D01*
X80406066Y-80286653D01*
X80385622Y-80285747D01*
X80365848Y-80284238D01*
X80346745Y-80282124D01*
X80328312Y-80279407D01*
X80310550Y-80276087D01*
X80293458Y-80272162D01*
X80277037Y-80267634D01*
X80261286Y-80262502D01*
X80246205Y-80256767D01*
X80231795Y-80250428D01*
X80218055Y-80243485D01*
X80204986Y-80235939D01*
X80192586Y-80227790D01*
X80180857Y-80219037D01*
X80169799Y-80209680D01*
X80159411Y-80199720D01*
X80149693Y-80189157D01*
X80140645Y-80177990D01*
X80132268Y-80166219D01*
X80124561Y-80153846D01*
X80117524Y-80140869D01*
X80111157Y-80127289D01*
X80105461Y-80113105D01*
X80100434Y-80098318D01*
X80096078Y-80082928D01*
X80092393Y-80066935D01*
X80089377Y-80050339D01*
X80087032Y-80033139D01*
X80085356Y-80015336D01*
X80084351Y-79996930D01*
X80084016Y-79977921D01*
X80084020Y-79977721D01*
X80289863Y-79977721D01*
X80290031Y-79984058D01*
X80290534Y-79990194D01*
X80291373Y-79996130D01*
X80292548Y-80001865D01*
X80294058Y-80007399D01*
X80295903Y-80012733D01*
X80298085Y-80017867D01*
X80300601Y-80022799D01*
X80303453Y-80027531D01*
X80306641Y-80032062D01*
X80310164Y-80036392D01*
X80314022Y-80040522D01*
X80318216Y-80044450D01*
X80322745Y-80048177D01*
X80327609Y-80051703D01*
X80332808Y-80055029D01*
X80344213Y-80061075D01*
X80356959Y-80066317D01*
X80371045Y-80070754D01*
X80386471Y-80074384D01*
X80403238Y-80077209D01*
X80421345Y-80079227D01*
X80440791Y-80080438D01*
X80461578Y-80080842D01*
X80907796Y-80080708D01*
X80907796Y-79874732D01*
X80461578Y-79874732D01*
X80451011Y-79874833D01*
X80440780Y-79875136D01*
X80430885Y-79875640D01*
X80421325Y-79876347D01*
X80412101Y-79877255D01*
X80403213Y-79878364D01*
X80394660Y-79879675D01*
X80386442Y-79881187D01*
X80378561Y-79882901D01*
X80371014Y-79884816D01*
X80363804Y-79886932D01*
X80356928Y-79889250D01*
X80350389Y-79891768D01*
X80344185Y-79894487D01*
X80338316Y-79897408D01*
X80332783Y-79900529D01*
X80327585Y-79903851D01*
X80322722Y-79907373D01*
X80318195Y-79911097D01*
X80314004Y-79915020D01*
X80310148Y-79919144D01*
X80306627Y-79923469D01*
X80303442Y-79927994D01*
X80300592Y-79932719D01*
X80298077Y-79937645D01*
X80295898Y-79942770D01*
X80294054Y-79948096D01*
X80292545Y-79953621D01*
X80291371Y-79959346D01*
X80290533Y-79965272D01*
X80290030Y-79971397D01*
X80289863Y-79977721D01*
X80084020Y-79977721D01*
X80084351Y-79958924D01*
X80085356Y-79940529D01*
X80087032Y-79922736D01*
X80089377Y-79905545D01*
X80092393Y-79888957D01*
X80096078Y-79872970D01*
X80100434Y-79857586D01*
X80105461Y-79842804D01*
X80111157Y-79828625D01*
X80117524Y-79815048D01*
X80124561Y-79802074D01*
X80132268Y-79789703D01*
X80140645Y-79777934D01*
X80149693Y-79766769D01*
X80159411Y-79756206D01*
X80169799Y-79746246D01*
X80180857Y-79736889D01*
X80192586Y-79728136D01*
X80204986Y-79719985D01*
X80218055Y-79712438D01*
X80231795Y-79705494D01*
X80246205Y-79699154D01*
X80261286Y-79693417D01*
X80277037Y-79688284D01*
X80293458Y-79683754D01*
X80310550Y-79679828D01*
X80328312Y-79676506D01*
X80346745Y-79673788D01*
X80385622Y-79670163D01*
X80427180Y-79668955D01*
X81113837Y-79668955D01*
X81113839Y-79668953D01*
X81113839Y-80080708D01*
X81113839Y-80698777D01*
G37*
G36*
X93832889Y-80698646D02*
G01*
X93608323Y-80698646D01*
X93519027Y-80492667D01*
X93028293Y-80492667D01*
X92938995Y-80698646D01*
X92715091Y-80698646D01*
X92893851Y-80286821D01*
X93118116Y-80286821D01*
X93429597Y-80286821D01*
X93273891Y-79927649D01*
X93118116Y-80286821D01*
X92893851Y-80286821D01*
X93162105Y-79668821D01*
X93385875Y-79668821D01*
X93654129Y-80286821D01*
X93832889Y-80698646D01*
G37*
G36*
X87145480Y-72233037D02*
G01*
X89375188Y-69614721D01*
X90138446Y-69614721D01*
X90138446Y-73373193D01*
X89390071Y-73373193D01*
X89390071Y-70754811D01*
X87157916Y-73373193D01*
X86397105Y-73373193D01*
X86397105Y-69614721D01*
X87145480Y-69614721D01*
X87145480Y-72233037D01*
G37*
G36*
X94896318Y-80698646D02*
G01*
X94690406Y-80698646D01*
X94690406Y-80286756D01*
X94690406Y-80286755D01*
X94209790Y-80286755D01*
X94188676Y-80286453D01*
X94168231Y-80285548D01*
X94148457Y-80284039D01*
X94129353Y-80281927D01*
X94110919Y-80279212D01*
X94093155Y-80275893D01*
X94076061Y-80271970D01*
X94059637Y-80267444D01*
X94043884Y-80262315D01*
X94028801Y-80256582D01*
X94014388Y-80250246D01*
X94000645Y-80243307D01*
X93987573Y-80235763D01*
X93975171Y-80227617D01*
X93963439Y-80218867D01*
X93952377Y-80209514D01*
X93941986Y-80199557D01*
X93932265Y-80188996D01*
X93923214Y-80177832D01*
X93914834Y-80166065D01*
X93907124Y-80153694D01*
X93900084Y-80140720D01*
X93893715Y-80127143D01*
X93888016Y-80112962D01*
X93882988Y-80098177D01*
X93878630Y-80082789D01*
X93874942Y-80066797D01*
X93871925Y-80050202D01*
X93869578Y-80033004D01*
X93867902Y-80015202D01*
X93866896Y-79996797D01*
X93866561Y-79977788D01*
X93866562Y-79977723D01*
X94072471Y-79977723D01*
X94072639Y-79984060D01*
X94073142Y-79990196D01*
X94073981Y-79996132D01*
X94075156Y-80001867D01*
X94076666Y-80007402D01*
X94078511Y-80012736D01*
X94080692Y-80017869D01*
X94083209Y-80022802D01*
X94086061Y-80027533D01*
X94089248Y-80032064D01*
X94092771Y-80036395D01*
X94096630Y-80040524D01*
X94100823Y-80044452D01*
X94105352Y-80048180D01*
X94110216Y-80051706D01*
X94115416Y-80055031D01*
X94126820Y-80061078D01*
X94139566Y-80066319D01*
X94153652Y-80070756D01*
X94169079Y-80074387D01*
X94185845Y-80077211D01*
X94203952Y-80079229D01*
X94223399Y-80080440D01*
X94244186Y-80080844D01*
X94690272Y-80080711D01*
X94690272Y-79874734D01*
X94244186Y-79874734D01*
X94233608Y-79874835D01*
X94223367Y-79875138D01*
X94213463Y-79875642D01*
X94203896Y-79876349D01*
X94194666Y-79877256D01*
X94185772Y-79878366D01*
X94177216Y-79879677D01*
X94168996Y-79881189D01*
X94161112Y-79882903D01*
X94153565Y-79884818D01*
X94146354Y-79886934D01*
X94139480Y-79889252D01*
X94132941Y-79891770D01*
X94126739Y-79894489D01*
X94120872Y-79897410D01*
X94115342Y-79900531D01*
X94110147Y-79903853D01*
X94105289Y-79907375D01*
X94100765Y-79911098D01*
X94096578Y-79915022D01*
X94092726Y-79919146D01*
X94089209Y-79923471D01*
X94086028Y-79927996D01*
X94083181Y-79932721D01*
X94080670Y-79937646D01*
X94078494Y-79942772D01*
X94076654Y-79948097D01*
X94075148Y-79953623D01*
X94073976Y-79959348D01*
X94073140Y-79965274D01*
X94072638Y-79971398D01*
X94072471Y-79977723D01*
X93866562Y-79977723D01*
X93866896Y-79958791D01*
X93867902Y-79940396D01*
X93869578Y-79922603D01*
X93871925Y-79905412D01*
X93874942Y-79888823D01*
X93878630Y-79872837D01*
X93882988Y-79857452D01*
X93888016Y-79842671D01*
X93893715Y-79828491D01*
X93900084Y-79814915D01*
X93907123Y-79801941D01*
X93914833Y-79789569D01*
X93923214Y-79777801D01*
X93932264Y-79766635D01*
X93941985Y-79756072D01*
X93952376Y-79746112D01*
X93963438Y-79736756D01*
X93975170Y-79728002D01*
X93987572Y-79719852D01*
X94000644Y-79712305D01*
X94014387Y-79705361D01*
X94028800Y-79699020D01*
X94043883Y-79693284D01*
X94059637Y-79688150D01*
X94076060Y-79683621D01*
X94093154Y-79679695D01*
X94110918Y-79676373D01*
X94129352Y-79673654D01*
X94168231Y-79670030D01*
X94209790Y-79668821D01*
X94896318Y-79668821D01*
X94896318Y-80080711D01*
X94896318Y-80698646D01*
G37*
G36*
X92274442Y-79669290D02*
G01*
X92294887Y-79670296D01*
X92314661Y-79671972D01*
X92333766Y-79674319D01*
X92352200Y-79677336D01*
X92369964Y-79681024D01*
X92387058Y-79685382D01*
X92403481Y-79690411D01*
X92419235Y-79696110D01*
X92434318Y-79702480D01*
X92448731Y-79709520D01*
X92462474Y-79717231D01*
X92475546Y-79725613D01*
X92487949Y-79734664D01*
X92499681Y-79744387D01*
X92510742Y-79754779D01*
X92521134Y-79765843D01*
X92530855Y-79777577D01*
X92539905Y-79789981D01*
X92548286Y-79803056D01*
X92555996Y-79816801D01*
X92563035Y-79831217D01*
X92569405Y-79846303D01*
X92575104Y-79862060D01*
X92580132Y-79878487D01*
X92584490Y-79895585D01*
X92588178Y-79913353D01*
X92591195Y-79931792D01*
X92593541Y-79950901D01*
X92595218Y-79970681D01*
X92596223Y-79991131D01*
X92596559Y-80012252D01*
X92596559Y-80355415D01*
X92596223Y-80376536D01*
X92595218Y-80396986D01*
X92593541Y-80416765D01*
X92591195Y-80435873D01*
X92588178Y-80454310D01*
X92584490Y-80472076D01*
X92580132Y-80489172D01*
X92575104Y-80505597D01*
X92569405Y-80521352D01*
X92563036Y-80536435D01*
X92555996Y-80550848D01*
X92548286Y-80564591D01*
X92539906Y-80577663D01*
X92530855Y-80590064D01*
X92521134Y-80601795D01*
X92510743Y-80612855D01*
X92499681Y-80623244D01*
X92487949Y-80632964D01*
X92475547Y-80642012D01*
X92462475Y-80650391D01*
X92448732Y-80658098D01*
X92434319Y-80665136D01*
X92419236Y-80671503D01*
X92403482Y-80677200D01*
X92387059Y-80682226D01*
X92369965Y-80686583D01*
X92352201Y-80690269D01*
X92333766Y-80693284D01*
X92314662Y-80695630D01*
X92294887Y-80697305D01*
X92274442Y-80698310D01*
X92253327Y-80698646D01*
X91566800Y-80698646D01*
X91566800Y-80492667D01*
X92224488Y-80492803D01*
X92234707Y-80492641D01*
X92244601Y-80492156D01*
X92254172Y-80491348D01*
X92263418Y-80490217D01*
X92272341Y-80488763D01*
X92280939Y-80486985D01*
X92289213Y-80484884D01*
X92297163Y-80482461D01*
X92304788Y-80479714D01*
X92312090Y-80476644D01*
X92319067Y-80473252D01*
X92325720Y-80469536D01*
X92332049Y-80465497D01*
X92338053Y-80461136D01*
X92343733Y-80456452D01*
X92349089Y-80451444D01*
X92354120Y-80446114D01*
X92358827Y-80440461D01*
X92363209Y-80434485D01*
X92367267Y-80428187D01*
X92371001Y-80421566D01*
X92374410Y-80414622D01*
X92377494Y-80407355D01*
X92380254Y-80399765D01*
X92382689Y-80391853D01*
X92384800Y-80383619D01*
X92386586Y-80375062D01*
X92388047Y-80366182D01*
X92389184Y-80356979D01*
X92389996Y-80347455D01*
X92390483Y-80337607D01*
X92390645Y-80327437D01*
X92390645Y-80039702D01*
X92390484Y-80029563D01*
X92389999Y-80019746D01*
X92389191Y-80010251D01*
X92388059Y-80001078D01*
X92386605Y-79992227D01*
X92384828Y-79983699D01*
X92382727Y-79975492D01*
X92380304Y-79967607D01*
X92377557Y-79960044D01*
X92374487Y-79952803D01*
X92371095Y-79945884D01*
X92367379Y-79939287D01*
X92363340Y-79933012D01*
X92358979Y-79927058D01*
X92354294Y-79921427D01*
X92349287Y-79916118D01*
X92343957Y-79911130D01*
X92338304Y-79906465D01*
X92332328Y-79902121D01*
X92326030Y-79898099D01*
X92319409Y-79894399D01*
X92312465Y-79891020D01*
X92305198Y-79887964D01*
X92297608Y-79885229D01*
X92289696Y-79882816D01*
X92281462Y-79880725D01*
X92272904Y-79878955D01*
X92264025Y-79877508D01*
X92254822Y-79876382D01*
X92245297Y-79875578D01*
X92235450Y-79875095D01*
X92225280Y-79874934D01*
X91566800Y-79874934D01*
X91566800Y-79668955D01*
X92253327Y-79668955D01*
X92274442Y-79669290D01*
G37*
G36*
X95808024Y-79669123D02*
G01*
X95828474Y-79670030D01*
X95848253Y-79671540D01*
X95867361Y-79673654D01*
X95885798Y-79676373D01*
X95903564Y-79679695D01*
X95920660Y-79683621D01*
X95937085Y-79688150D01*
X95952839Y-79693284D01*
X95967923Y-79699020D01*
X95982336Y-79705361D01*
X95996079Y-79712305D01*
X96009150Y-79719852D01*
X96021552Y-79728002D01*
X96033282Y-79736756D01*
X96044342Y-79746112D01*
X96054732Y-79756072D01*
X96064451Y-79766635D01*
X96073500Y-79777801D01*
X96081878Y-79789569D01*
X96089586Y-79801941D01*
X96096624Y-79814915D01*
X96102991Y-79828491D01*
X96108688Y-79842671D01*
X96113715Y-79857452D01*
X96118071Y-79872837D01*
X96121757Y-79888823D01*
X96124773Y-79905412D01*
X96127118Y-79922603D01*
X96128793Y-79940396D01*
X96129799Y-79958791D01*
X96130134Y-79977788D01*
X96129799Y-79996797D01*
X96128793Y-80015203D01*
X96127118Y-80033005D01*
X96124773Y-80050205D01*
X96121757Y-80066801D01*
X96118071Y-80082794D01*
X96113715Y-80098184D01*
X96108688Y-80112971D01*
X96102991Y-80127155D01*
X96096624Y-80140735D01*
X96089586Y-80153712D01*
X96081878Y-80166085D01*
X96073500Y-80177856D01*
X96064451Y-80189023D01*
X96054732Y-80199586D01*
X96044342Y-80209546D01*
X96033282Y-80218903D01*
X96021552Y-80227656D01*
X96009150Y-80235806D01*
X95996079Y-80243352D01*
X95982336Y-80250294D01*
X95967923Y-80256633D01*
X95952839Y-80262369D01*
X95937085Y-80267500D01*
X95920660Y-80272029D01*
X95903564Y-80275953D01*
X95885798Y-80279274D01*
X95867361Y-80281991D01*
X95828474Y-80285614D01*
X95786903Y-80286821D01*
X95478135Y-80286821D01*
X95467575Y-80286922D01*
X95457349Y-80287224D01*
X95447458Y-80287728D01*
X95437902Y-80288433D01*
X95428681Y-80289340D01*
X95419795Y-80290448D01*
X95411244Y-80291757D01*
X95403028Y-80293268D01*
X95395147Y-80294979D01*
X95387601Y-80296892D01*
X95380390Y-80299007D01*
X95373515Y-80301322D01*
X95366974Y-80303838D01*
X95360769Y-80306556D01*
X95354899Y-80309474D01*
X95349364Y-80312594D01*
X95344165Y-80315914D01*
X95339301Y-80319436D01*
X95334772Y-80323158D01*
X95330578Y-80327081D01*
X95326720Y-80331205D01*
X95323197Y-80335530D01*
X95320009Y-80340055D01*
X95317157Y-80344781D01*
X95314640Y-80349708D01*
X95312459Y-80354835D01*
X95310614Y-80360163D01*
X95309103Y-80365692D01*
X95307929Y-80371421D01*
X95307090Y-80377350D01*
X95306586Y-80383480D01*
X95306419Y-80389811D01*
X95306586Y-80396147D01*
X95307090Y-80402282D01*
X95307929Y-80408216D01*
X95309103Y-80413948D01*
X95310614Y-80419480D01*
X95312459Y-80424811D01*
X95314640Y-80429940D01*
X95317157Y-80434868D01*
X95320009Y-80439595D01*
X95323197Y-80444121D01*
X95326720Y-80448446D01*
X95330578Y-80452569D01*
X95334772Y-80456492D01*
X95339301Y-80460213D01*
X95344165Y-80463733D01*
X95349364Y-80467052D01*
X95360769Y-80473087D01*
X95373515Y-80478317D01*
X95387601Y-80482742D01*
X95403028Y-80486363D01*
X95419795Y-80489179D01*
X95437902Y-80491190D01*
X95457349Y-80492397D01*
X95478135Y-80492800D01*
X96130200Y-80492800D01*
X96130200Y-80698779D01*
X95443673Y-80698779D01*
X95422552Y-80698477D01*
X95402102Y-80697572D01*
X95382322Y-80696064D01*
X95363213Y-80693952D01*
X95344774Y-80691236D01*
X95327006Y-80687917D01*
X95309908Y-80683995D01*
X95293481Y-80679469D01*
X95277724Y-80674340D01*
X95262637Y-80668607D01*
X95248222Y-80662271D01*
X95234476Y-80655331D01*
X95221401Y-80647788D01*
X95208997Y-80639641D01*
X95197263Y-80630891D01*
X95186200Y-80621538D01*
X95175807Y-80611581D01*
X95166085Y-80601021D01*
X95157033Y-80589857D01*
X95148652Y-80578090D01*
X95140941Y-80565719D01*
X95133901Y-80552745D01*
X95127531Y-80539167D01*
X95121831Y-80524986D01*
X95116803Y-80510201D01*
X95112444Y-80494813D01*
X95108757Y-80478822D01*
X95105739Y-80462227D01*
X95103393Y-80445029D01*
X95101716Y-80427227D01*
X95100711Y-80408821D01*
X95100375Y-80389812D01*
X95100711Y-80370810D01*
X95101717Y-80352410D01*
X95103394Y-80334613D01*
X95105742Y-80317420D01*
X95108761Y-80300829D01*
X95112450Y-80284842D01*
X95116810Y-80269458D01*
X95121841Y-80254677D01*
X95127542Y-80240499D01*
X95133914Y-80226925D01*
X95140956Y-80213953D01*
X95148669Y-80201585D01*
X95157052Y-80189820D01*
X95166106Y-80178658D01*
X95175830Y-80168100D01*
X95186224Y-80158144D01*
X95197289Y-80148792D01*
X95209024Y-80140043D01*
X95221429Y-80131898D01*
X95234505Y-80124356D01*
X95248250Y-80117417D01*
X95262666Y-80111081D01*
X95277752Y-80105349D01*
X95293508Y-80100220D01*
X95309934Y-80095695D01*
X95327030Y-80091772D01*
X95344796Y-80088454D01*
X95363232Y-80085738D01*
X95402113Y-80082118D01*
X95443673Y-80080911D01*
X95752706Y-80080911D01*
X95763266Y-80080810D01*
X95773490Y-80080507D01*
X95783378Y-80080002D01*
X95792930Y-80079296D01*
X95802146Y-80078388D01*
X95811027Y-80077278D01*
X95819572Y-80075966D01*
X95827781Y-80074453D01*
X95835654Y-80072739D01*
X95843192Y-80070822D01*
X95850395Y-80068705D01*
X95857261Y-80066386D01*
X95863793Y-80063866D01*
X95869989Y-80061144D01*
X95875850Y-80058221D01*
X95881375Y-80055097D01*
X95886565Y-80051772D01*
X95891420Y-80048246D01*
X95895940Y-80044519D01*
X95900125Y-80040590D01*
X95903975Y-80036461D01*
X95907489Y-80032131D01*
X95910669Y-80027600D01*
X95913514Y-80022868D01*
X95916024Y-80017935D01*
X95918199Y-80012802D01*
X95920039Y-80007468D01*
X95921545Y-80001933D01*
X95922716Y-79996198D01*
X95923552Y-79990263D01*
X95924054Y-79984126D01*
X95924221Y-79977790D01*
X95924054Y-79971465D01*
X95923552Y-79965340D01*
X95922716Y-79959415D01*
X95921545Y-79953690D01*
X95920039Y-79948164D01*
X95918199Y-79942839D01*
X95916024Y-79937713D01*
X95913514Y-79932788D01*
X95910669Y-79928063D01*
X95907490Y-79923538D01*
X95903975Y-79919213D01*
X95900125Y-79915089D01*
X95895941Y-79911165D01*
X95891421Y-79907442D01*
X95886566Y-79903919D01*
X95881376Y-79900598D01*
X95869990Y-79894556D01*
X95857262Y-79889318D01*
X95843193Y-79884885D01*
X95827782Y-79881256D01*
X95811027Y-79878433D01*
X95792930Y-79876415D01*
X95773490Y-79875204D01*
X95752706Y-79874801D01*
X95100375Y-79874801D01*
X95100375Y-79668821D01*
X95786903Y-79668821D01*
X95808024Y-79669123D01*
G37*
G36*
X83589944Y-80698646D02*
G01*
X83383901Y-80492669D01*
X83383901Y-80286823D01*
X82903285Y-80286823D01*
X82894831Y-80286924D01*
X82886647Y-80287225D01*
X82878732Y-80287727D01*
X82871087Y-80288429D01*
X82863711Y-80289333D01*
X82856605Y-80290437D01*
X82849768Y-80291743D01*
X82843200Y-80293249D01*
X82836901Y-80294956D01*
X82830871Y-80296863D01*
X82825110Y-80298972D01*
X82819618Y-80301282D01*
X82814395Y-80303792D01*
X82809440Y-80306504D01*
X82804754Y-80309416D01*
X82800336Y-80312529D01*
X82796187Y-80315843D01*
X82792306Y-80319359D01*
X82788693Y-80323075D01*
X82785348Y-80326992D01*
X82782272Y-80331110D01*
X82779463Y-80335429D01*
X82776922Y-80339950D01*
X82774650Y-80344671D01*
X82772644Y-80349593D01*
X82770907Y-80354717D01*
X82769437Y-80360041D01*
X82768234Y-80365567D01*
X82767299Y-80371293D01*
X82766631Y-80377221D01*
X82766231Y-80383350D01*
X82766097Y-80389680D01*
X82766265Y-80396016D01*
X82766768Y-80402151D01*
X82767606Y-80408085D01*
X82768779Y-80413818D01*
X82770288Y-80419349D01*
X82772131Y-80424680D01*
X82774310Y-80429809D01*
X82776824Y-80434737D01*
X82779673Y-80439464D01*
X82782858Y-80443990D01*
X82786377Y-80448315D01*
X82790232Y-80452439D01*
X82794422Y-80456361D01*
X82798946Y-80460082D01*
X82803806Y-80463603D01*
X82809001Y-80466922D01*
X82820396Y-80472956D01*
X82833132Y-80478186D01*
X82847207Y-80482611D01*
X82862622Y-80486232D01*
X82879377Y-80489048D01*
X82897472Y-80491060D01*
X82916906Y-80492267D01*
X82937680Y-80492669D01*
X83383901Y-80492669D01*
X83589944Y-80698648D01*
X82903283Y-80698648D01*
X82882168Y-80698347D01*
X82861724Y-80697442D01*
X82841949Y-80695933D01*
X82822845Y-80693821D01*
X82804411Y-80691105D01*
X82786647Y-80687786D01*
X82769553Y-80683864D01*
X82753129Y-80679338D01*
X82737376Y-80674209D01*
X82722293Y-80668476D01*
X82707880Y-80662140D01*
X82694137Y-80655200D01*
X82681064Y-80647657D01*
X82668662Y-80639510D01*
X82656930Y-80630760D01*
X82645868Y-80621407D01*
X82635477Y-80611450D01*
X82625756Y-80600890D01*
X82616705Y-80589726D01*
X82608325Y-80577959D01*
X82600615Y-80565588D01*
X82593575Y-80552614D01*
X82587206Y-80539036D01*
X82581507Y-80524855D01*
X82576479Y-80510070D01*
X82572121Y-80494682D01*
X82568433Y-80478691D01*
X82565416Y-80462096D01*
X82563069Y-80444898D01*
X82561393Y-80427096D01*
X82560387Y-80408691D01*
X82560052Y-80389682D01*
X82560153Y-80379094D01*
X82560457Y-80368774D01*
X82560962Y-80358721D01*
X82561670Y-80348937D01*
X82562579Y-80339420D01*
X82563691Y-80330172D01*
X82565004Y-80321191D01*
X82566519Y-80312478D01*
X82568235Y-80304033D01*
X82570154Y-80295856D01*
X82572273Y-80287947D01*
X82574594Y-80280306D01*
X82577117Y-80272933D01*
X82579840Y-80265827D01*
X82582765Y-80258990D01*
X82585890Y-80252421D01*
X82589217Y-80246119D01*
X82592745Y-80240086D01*
X82596473Y-80234321D01*
X82600402Y-80228824D01*
X82604531Y-80223595D01*
X82608861Y-80218634D01*
X82613392Y-80213941D01*
X82618123Y-80209516D01*
X82623054Y-80205359D01*
X82628185Y-80201470D01*
X82633517Y-80197850D01*
X82639048Y-80194497D01*
X82644780Y-80191413D01*
X82650711Y-80188597D01*
X82656842Y-80186049D01*
X82663173Y-80183769D01*
X82650700Y-80178952D01*
X82639029Y-80173057D01*
X82628161Y-80166087D01*
X82618095Y-80158040D01*
X82608832Y-80148919D01*
X82600372Y-80138723D01*
X82592717Y-80127453D01*
X82585865Y-80115109D01*
X82579819Y-80101693D01*
X82574577Y-80087205D01*
X82570140Y-80071645D01*
X82566509Y-80055013D01*
X82563685Y-80037312D01*
X82561667Y-80018540D01*
X82560456Y-79998699D01*
X82560052Y-79977790D01*
X82560053Y-79977725D01*
X82766097Y-79977725D01*
X82766231Y-79984062D01*
X82766631Y-79990198D01*
X82767299Y-79996134D01*
X82768234Y-80001869D01*
X82769437Y-80007403D01*
X82770907Y-80012737D01*
X82772644Y-80017871D01*
X82774650Y-80022803D01*
X82776922Y-80027535D01*
X82779463Y-80032066D01*
X82782272Y-80036397D01*
X82785348Y-80040526D01*
X82788693Y-80044454D01*
X82792306Y-80048181D01*
X82796187Y-80051708D01*
X82800336Y-80055033D01*
X82804754Y-80058157D01*
X82809440Y-80061080D01*
X82814395Y-80063801D01*
X82819618Y-80066321D01*
X82825110Y-80068640D01*
X82830871Y-80070758D01*
X82843200Y-80074388D01*
X82856605Y-80077213D01*
X82871087Y-80079231D01*
X82886647Y-80080442D01*
X82903285Y-80080846D01*
X83383901Y-80080713D01*
X83383901Y-79874736D01*
X82937680Y-79874736D01*
X82927114Y-79874837D01*
X82916885Y-79875140D01*
X82906991Y-79875644D01*
X82897434Y-79876350D01*
X82888213Y-79877258D01*
X82879328Y-79878368D01*
X82870779Y-79879679D01*
X82862567Y-79881191D01*
X82854690Y-79882905D01*
X82847149Y-79884820D01*
X82839943Y-79886936D01*
X82833074Y-79889254D01*
X82826540Y-79891772D01*
X82820342Y-79894491D01*
X82814479Y-79897412D01*
X82808952Y-79900533D01*
X82803760Y-79903855D01*
X82798904Y-79907377D01*
X82794383Y-79911100D01*
X82790197Y-79915024D01*
X82786347Y-79919148D01*
X82782831Y-79923473D01*
X82779651Y-79927998D01*
X82776806Y-79932723D01*
X82774295Y-79937648D01*
X82772120Y-79942774D01*
X82770279Y-79948099D01*
X82768774Y-79953625D01*
X82767603Y-79959350D01*
X82766766Y-79965275D01*
X82766264Y-79971400D01*
X82766097Y-79977725D01*
X82560053Y-79977725D01*
X82560387Y-79958793D01*
X82561393Y-79940398D01*
X82563069Y-79922605D01*
X82565416Y-79905414D01*
X82568433Y-79888825D01*
X82572121Y-79872838D01*
X82576479Y-79857454D01*
X82581507Y-79842673D01*
X82587206Y-79828493D01*
X82593575Y-79814917D01*
X82600614Y-79801943D01*
X82608324Y-79789571D01*
X82616705Y-79777803D01*
X82625755Y-79766637D01*
X82635476Y-79756074D01*
X82645868Y-79746114D01*
X82656929Y-79736758D01*
X82668661Y-79728004D01*
X82681063Y-79719854D01*
X82694136Y-79712306D01*
X82707879Y-79705363D01*
X82722292Y-79699022D01*
X82737375Y-79693285D01*
X82753128Y-79688152D01*
X82769552Y-79683623D01*
X82786646Y-79679697D01*
X82804410Y-79676374D01*
X82822844Y-79673656D01*
X82861724Y-79670032D01*
X82903283Y-79668823D01*
X83589942Y-79668823D01*
X83589944Y-79668821D01*
X83589944Y-80080713D01*
X83589944Y-80698646D01*
G37*
G36*
X96720950Y-75035041D02*
G01*
X94351672Y-75035041D01*
X94276183Y-75036508D01*
X94205561Y-75040910D01*
X94139808Y-75048247D01*
X94078924Y-75058519D01*
X94022909Y-75071727D01*
X93971763Y-75087869D01*
X93925487Y-75106946D01*
X93884081Y-75128959D01*
X93865204Y-75141067D01*
X93847544Y-75153908D01*
X93831103Y-75167483D01*
X93815879Y-75181792D01*
X93801873Y-75196835D01*
X93789084Y-75212612D01*
X93777513Y-75229122D01*
X93767160Y-75246367D01*
X93758025Y-75264346D01*
X93750108Y-75283058D01*
X93743409Y-75302505D01*
X93737928Y-75322686D01*
X93733664Y-75343600D01*
X93730619Y-75365249D01*
X93728792Y-75387632D01*
X93728183Y-75410748D01*
X93728792Y-75433878D01*
X93730619Y-75456273D01*
X93733664Y-75477934D01*
X93737928Y-75498861D01*
X93743409Y-75519054D01*
X93750108Y-75538512D01*
X93758025Y-75557237D01*
X93767160Y-75575227D01*
X93777513Y-75592483D01*
X93789084Y-75609005D01*
X93801873Y-75624793D01*
X93815879Y-75639847D01*
X93831103Y-75654166D01*
X93847544Y-75667752D01*
X93865204Y-75680603D01*
X93884081Y-75692719D01*
X93904175Y-75704102D01*
X93925487Y-75714750D01*
X93948016Y-75724664D01*
X93971763Y-75733844D01*
X93996727Y-75742289D01*
X94022909Y-75750000D01*
X94050308Y-75756977D01*
X94078924Y-75763219D01*
X94108758Y-75768727D01*
X94139808Y-75773501D01*
X94172076Y-75777540D01*
X94205561Y-75780845D01*
X94240263Y-75783415D01*
X94276183Y-75785251D01*
X94313319Y-75786353D01*
X94351672Y-75786720D01*
X96720950Y-75786720D01*
X96720950Y-76538336D01*
X95608642Y-76538336D01*
X93852866Y-78041700D01*
X92703054Y-78041700D01*
X94458896Y-76538272D01*
X94226855Y-76538272D01*
X94075874Y-76533867D01*
X93934627Y-76520654D01*
X93867653Y-76510744D01*
X93803114Y-76498632D01*
X93741008Y-76484317D01*
X93681337Y-76467801D01*
X93624099Y-76449082D01*
X93569296Y-76428160D01*
X93516927Y-76405036D01*
X93466993Y-76379710D01*
X93419493Y-76352182D01*
X93374429Y-76322451D01*
X93331799Y-76290518D01*
X93291604Y-76256383D01*
X93253844Y-76220045D01*
X93218519Y-76181505D01*
X93185630Y-76140762D01*
X93155176Y-76097817D01*
X93127158Y-76052670D01*
X93101576Y-76005320D01*
X93078429Y-75955767D01*
X93057719Y-75904013D01*
X93039444Y-75850055D01*
X93023606Y-75793895D01*
X93010204Y-75735533D01*
X92999238Y-75674968D01*
X92990709Y-75612201D01*
X92984617Y-75547231D01*
X92980962Y-75480059D01*
X92979743Y-75410684D01*
X92980961Y-75341332D01*
X92984616Y-75274181D01*
X92990708Y-75209231D01*
X92999236Y-75146481D01*
X93010200Y-75085931D01*
X93023600Y-75027582D01*
X93039437Y-74971434D01*
X93057709Y-74917487D01*
X93078418Y-74865741D01*
X93101562Y-74816195D01*
X93127143Y-74768851D01*
X93155159Y-74723708D01*
X93185610Y-74680766D01*
X93218498Y-74640026D01*
X93253820Y-74601487D01*
X93291579Y-74565150D01*
X93331772Y-74531014D01*
X93374401Y-74499079D01*
X93419465Y-74469347D01*
X93466964Y-74441817D01*
X93516898Y-74416488D01*
X93569266Y-74393361D01*
X93624070Y-74372437D01*
X93681308Y-74353715D01*
X93740981Y-74337195D01*
X93803089Y-74322877D01*
X93867631Y-74310762D01*
X93934607Y-74300850D01*
X94004018Y-74293140D01*
X94075863Y-74287633D01*
X94150142Y-74284328D01*
X94226855Y-74283227D01*
X96720950Y-74283227D01*
X96720950Y-75035041D01*
G37*
G36*
X85535886Y-77207272D02*
G01*
X87014972Y-74283163D01*
X87780545Y-74283163D01*
X87780545Y-78041700D01*
X87032502Y-78041700D01*
X87032502Y-75914384D01*
X85957633Y-78041700D01*
X85114537Y-78041700D01*
X85114537Y-78039054D01*
X84039668Y-75911804D01*
X84039668Y-78041700D01*
X83291492Y-78041700D01*
X83291492Y-74283163D01*
X84056932Y-74283163D01*
X85535886Y-77207272D01*
G37*
G36*
X82637839Y-78041700D02*
G01*
X78896566Y-78041700D01*
X78896566Y-77289887D01*
X82637839Y-77289887D01*
X82637839Y-78041700D01*
G37*
G36*
X107099895Y-77308680D02*
G01*
X107097910Y-77359414D01*
X107108030Y-77410545D01*
X107131115Y-77458502D01*
X107168223Y-77503018D01*
X107207381Y-77531593D01*
X107250575Y-77555936D01*
X107294695Y-77576374D01*
X107340931Y-77593242D01*
X107380420Y-77620030D01*
X107388688Y-77657005D01*
X107340931Y-77795448D01*
X107279217Y-77928864D01*
X107247070Y-77950758D01*
X107200504Y-77944805D01*
X107154930Y-77924762D01*
X107107701Y-77910144D01*
X107059877Y-77900022D01*
X107011789Y-77894070D01*
X106953845Y-77902669D01*
X106903309Y-77922247D01*
X106859057Y-77952343D01*
X106826911Y-77991898D01*
X106804289Y-78036480D01*
X106793904Y-78087676D01*
X106797080Y-78141783D01*
X106813285Y-78196155D01*
X106838883Y-78237826D01*
X106868516Y-78275661D01*
X106902118Y-78311711D01*
X106938631Y-78344322D01*
X106963766Y-78383613D01*
X106956822Y-78421911D01*
X106859323Y-78530787D01*
X106750447Y-78631990D01*
X106711751Y-78639266D01*
X106671137Y-78616379D01*
X106636940Y-78581783D01*
X106599634Y-78549768D01*
X106559550Y-78522317D01*
X106515695Y-78499497D01*
X106459207Y-78484747D01*
X106405364Y-78483689D01*
X106353242Y-78495199D01*
X106307601Y-78519408D01*
X106268509Y-78552944D01*
X106239338Y-78596731D01*
X106221479Y-78646605D01*
X106215459Y-78703954D01*
X106223000Y-78751446D01*
X106234641Y-78798345D01*
X106251839Y-78844051D01*
X106273204Y-78887444D01*
X106280545Y-78932887D01*
X106260437Y-78965762D01*
X106260106Y-78965364D01*
X106126558Y-79029262D01*
X105987387Y-79081450D01*
X105948361Y-79074571D01*
X105919521Y-79037727D01*
X105901992Y-78992220D01*
X105878511Y-78949225D01*
X105852582Y-78908811D01*
X105821560Y-78871040D01*
X105775721Y-78836843D01*
X105724988Y-78815016D01*
X105672467Y-78806615D01*
X105621469Y-78812105D01*
X105572521Y-78827848D01*
X105529327Y-78857217D01*
X105492220Y-78897434D01*
X105463843Y-78947572D01*
X105452730Y-78994006D01*
X105445322Y-79041631D01*
X105442742Y-79090183D01*
X105445918Y-79139066D01*
X105435466Y-79183913D01*
X105403320Y-79205807D01*
X105254624Y-79215530D01*
X105105399Y-79211364D01*
X105073319Y-79190661D01*
X105061214Y-79145218D01*
X105062273Y-79096071D01*
X105058304Y-79048315D01*
X105049375Y-79000623D01*
X105035749Y-78954585D01*
X105006248Y-78905108D01*
X104968412Y-78867074D01*
X104923235Y-78839953D01*
X104873493Y-78824211D01*
X104821569Y-78821896D01*
X104770041Y-78831950D01*
X104720563Y-78854505D01*
X104675121Y-78890754D01*
X104646612Y-78929317D01*
X104621808Y-78971652D01*
X104600774Y-79015242D01*
X104583841Y-79060287D01*
X104556523Y-79098982D01*
X104518555Y-79107384D01*
X104377400Y-79060287D01*
X104241800Y-78999565D01*
X104219377Y-78967948D01*
X104225197Y-78922571D01*
X104245637Y-78877924D01*
X104260585Y-78831556D01*
X104271103Y-78784393D01*
X104277254Y-78737231D01*
X104268126Y-78680079D01*
X104248481Y-78630801D01*
X104218451Y-78588336D01*
X104177441Y-78555725D01*
X104131602Y-78533631D01*
X104079348Y-78523510D01*
X104023851Y-78526288D01*
X103968752Y-78542560D01*
X103926286Y-78567696D01*
X103888054Y-78596338D01*
X103851277Y-78629344D01*
X103818204Y-78665128D01*
X103778186Y-78689799D01*
X103739689Y-78683649D01*
X103627571Y-78587208D01*
X103525574Y-78480052D01*
X103517041Y-78442679D01*
X103540854Y-78402660D01*
X103576771Y-78368529D01*
X103608455Y-78332150D01*
X103636765Y-78293256D01*
X103659586Y-78250525D01*
X103674931Y-78194897D01*
X103675394Y-78141981D01*
X103664215Y-78091049D01*
X103639279Y-78046335D01*
X103605345Y-78007771D01*
X103560300Y-77979396D01*
X103509897Y-77961537D01*
X103451028Y-77955915D01*
X103403006Y-77963059D01*
X103355050Y-77974436D01*
X103309277Y-77990708D01*
X103264099Y-78011875D01*
X103217533Y-78019681D01*
X103185122Y-77999176D01*
X103118579Y-77868471D01*
X103065926Y-77732078D01*
X103073003Y-77693714D01*
X103110244Y-77665072D01*
X103156810Y-77648272D01*
X103200731Y-77625319D01*
X103241609Y-77600117D01*
X103280106Y-77569691D01*
X103314964Y-77524712D01*
X103336925Y-77474640D01*
X103345656Y-77423509D01*
X103340497Y-77373304D01*
X103324357Y-77325348D01*
X103294525Y-77282949D01*
X103253383Y-77246436D01*
X103201987Y-77218192D01*
X103154958Y-77207742D01*
X103106010Y-77200664D01*
X103056600Y-77198085D01*
X103006726Y-77201193D01*
X102961350Y-77190610D01*
X102938992Y-77158992D01*
X102928608Y-77013471D01*
X102932775Y-76867024D01*
X102954008Y-76835076D01*
X103000640Y-76823565D01*
X103050249Y-76824888D01*
X103099330Y-76820722D01*
X103147947Y-76811991D01*
X103194449Y-76798961D01*
X103244984Y-76769990D01*
X103284077Y-76732684D01*
X103311395Y-76688565D01*
X103312679Y-76684665D01*
X103578361Y-76684665D01*
X103984827Y-77258810D01*
X104101773Y-77179106D01*
X104630279Y-77925562D01*
X104513135Y-78005202D01*
X104919601Y-78579082D01*
X105797158Y-77981588D01*
X105390823Y-77407376D01*
X105273745Y-77487147D01*
X105192452Y-77372319D01*
X105309530Y-77292746D01*
X105485015Y-77173153D01*
X105602027Y-77093448D01*
X105683320Y-77208210D01*
X105566242Y-77287915D01*
X105972708Y-77861994D01*
X106850331Y-77264499D01*
X106443997Y-76690420D01*
X106326919Y-76770125D01*
X105798612Y-76023803D01*
X105915624Y-75944097D01*
X105509224Y-75369952D01*
X105519469Y-75313210D01*
X105509222Y-75369950D01*
X104631533Y-75967645D01*
X105038000Y-76541723D01*
X105154946Y-76461952D01*
X105236240Y-76576780D01*
X104826731Y-76855652D01*
X104745438Y-76740756D01*
X104862449Y-76661249D01*
X104455917Y-76087104D01*
X103578361Y-76684665D01*
X103312679Y-76684665D01*
X103327402Y-76639949D01*
X103329718Y-76588951D01*
X103319862Y-76538217D01*
X103296446Y-76489799D01*
X103259536Y-76445215D01*
X103220576Y-76417038D01*
X103178110Y-76392300D01*
X103133660Y-76371530D01*
X103086499Y-76355325D01*
X103047538Y-76328667D01*
X103038674Y-76291559D01*
X103086895Y-76152917D01*
X103148345Y-76020163D01*
X103180558Y-75998202D01*
X103226860Y-76003958D01*
X103272501Y-76023867D01*
X103319662Y-76038550D01*
X103368015Y-76048737D01*
X103416169Y-76054756D01*
X103474047Y-76046223D01*
X103525112Y-76025718D01*
X103568238Y-75996349D01*
X103600716Y-75957190D01*
X103623469Y-75912012D01*
X103633789Y-75860816D01*
X103630613Y-75806576D01*
X103613945Y-75752469D01*
X103588809Y-75710666D01*
X103559441Y-75673226D01*
X103526567Y-75636582D01*
X103488996Y-75604172D01*
X103464125Y-75565277D01*
X103471069Y-75527044D01*
X103569362Y-75416911D01*
X103677841Y-75317626D01*
X103715478Y-75309491D01*
X103756687Y-75332576D01*
X103791148Y-75368228D01*
X103828125Y-75398919D01*
X103869135Y-75426237D01*
X103911600Y-75449455D01*
X103968684Y-75464405D01*
X104022394Y-75465067D01*
X104074584Y-75453955D01*
X104120092Y-75429415D01*
X104159382Y-75396209D01*
X104188288Y-75352157D01*
X104206412Y-75302546D01*
X104211769Y-75245131D01*
X104205552Y-75197242D01*
X104192984Y-75150476D01*
X104176249Y-75106027D01*
X104154619Y-75061775D01*
X104146748Y-75016134D01*
X104167981Y-74984055D01*
X104301926Y-74918504D01*
X104440302Y-74867372D01*
X104479262Y-74874252D01*
X104507838Y-74910765D01*
X104526425Y-74956008D01*
X104549047Y-74999531D01*
X104574778Y-75039550D01*
X104605470Y-75077649D01*
X104651706Y-75111649D01*
X104702375Y-75133476D01*
X104754895Y-75141877D01*
X104805695Y-75137049D01*
X104854445Y-75120777D01*
X104898697Y-75090681D01*
X104935341Y-75051325D01*
X104963718Y-75001253D01*
X104974765Y-74954885D01*
X104981644Y-74907129D01*
X104984158Y-74858644D01*
X104980982Y-74809697D01*
X104991698Y-74765114D01*
X105023911Y-74743220D01*
X105172739Y-74732835D01*
X105321567Y-74737266D01*
X105354309Y-74758168D01*
X105365818Y-74803544D01*
X105365885Y-74851831D01*
X105370185Y-74899985D01*
X105378254Y-74948139D01*
X105391615Y-74993780D01*
X105421248Y-75043323D01*
X105459414Y-75081819D01*
X105504327Y-75108542D01*
X105553533Y-75124548D01*
X105553535Y-75124537D01*
X105605592Y-75126786D01*
X105657649Y-75116932D01*
X105706994Y-75093913D01*
X105752436Y-75057732D01*
X105781209Y-75019566D01*
X105806542Y-74977894D01*
X105827180Y-74934568D01*
X105843716Y-74888266D01*
X105871101Y-74849438D01*
X105909069Y-74841103D01*
X106050356Y-74888463D01*
X106185823Y-74948853D01*
X106208180Y-74980472D01*
X106202028Y-75026178D01*
X106182052Y-75070695D01*
X106166707Y-75117263D01*
X106156851Y-75164426D01*
X106150435Y-75211257D01*
X106159563Y-75268408D01*
X106180002Y-75318877D01*
X106209967Y-75361145D01*
X106250249Y-75392762D01*
X106296088Y-75415385D01*
X106348013Y-75425176D01*
X106403575Y-75422464D01*
X106458939Y-75405928D01*
X106501339Y-75381388D01*
X106539901Y-75352417D01*
X106577142Y-75320137D01*
X106609487Y-75283162D01*
X106649769Y-75258953D01*
X106688795Y-75265899D01*
X106800449Y-75362206D01*
X106903174Y-75468305D01*
X106910648Y-75505744D01*
X106886903Y-75545696D01*
X106851713Y-75579365D01*
X106819236Y-75616406D01*
X106791786Y-75656292D01*
X106768106Y-75697965D01*
X106753090Y-75753924D01*
X106752031Y-75806775D01*
X106763739Y-75857774D01*
X106788478Y-75902621D01*
X106822674Y-75940985D01*
X106867059Y-75969230D01*
X106918256Y-75987088D01*
X106976662Y-75992445D01*
X107025544Y-75986360D01*
X107072574Y-75973989D01*
X107119140Y-75957122D01*
X107163590Y-75936418D01*
X107210090Y-75928679D01*
X107243494Y-75949053D01*
X107309111Y-76080816D01*
X107362425Y-76217407D01*
X107354884Y-76254911D01*
X107317380Y-76283155D01*
X107271541Y-76301081D01*
X107227223Y-76323372D01*
X107186014Y-76348772D01*
X107147517Y-76378539D01*
X107112328Y-76423782D01*
X107090367Y-76473854D01*
X107081768Y-76525381D01*
X107087126Y-76575057D01*
X107103993Y-76624204D01*
X107134023Y-76666471D01*
X107174173Y-76701926D01*
X107225635Y-76730038D01*
X107272929Y-76741016D01*
X107321215Y-76747896D01*
X107371023Y-76750278D01*
X107420500Y-76747301D01*
X107466207Y-76757620D01*
X107488498Y-76789304D01*
X107499214Y-76935090D01*
X107494849Y-77081140D01*
X107473616Y-77113220D01*
X107427050Y-77124730D01*
X107377771Y-77124797D01*
X107329022Y-77128765D01*
X107279876Y-77136702D01*
X107233045Y-77149402D01*
X107182642Y-77178373D01*
X107143749Y-77216077D01*
X107115835Y-77259997D01*
X107114361Y-77264499D01*
X107099895Y-77308680D01*
G37*
G36*
X84833751Y-80698712D02*
G01*
X84627839Y-80698712D01*
X84627839Y-79981295D01*
X84013543Y-80698714D01*
X83803992Y-80698714D01*
X83803992Y-79668890D01*
X84009906Y-79668890D01*
X84009906Y-80386373D01*
X84623672Y-79668888D01*
X84833751Y-79668888D01*
X84833751Y-80698712D01*
G37*
G36*
X81532018Y-80326575D02*
G01*
X81532179Y-80336800D01*
X81532664Y-80346699D01*
X81533472Y-80356273D01*
X81534604Y-80365522D01*
X81536058Y-80374446D01*
X81537836Y-80383045D01*
X81539937Y-80391319D01*
X81542361Y-80399268D01*
X81545109Y-80406893D01*
X81548180Y-80414192D01*
X81551574Y-80421167D01*
X81555291Y-80427817D01*
X81559332Y-80434142D01*
X81563695Y-80440142D01*
X81568382Y-80445818D01*
X81573392Y-80451169D01*
X81578726Y-80456196D01*
X81584383Y-80460897D01*
X81590363Y-80465275D01*
X81596666Y-80469328D01*
X81603292Y-80473056D01*
X81610242Y-80476461D01*
X81617515Y-80479540D01*
X81625111Y-80482296D01*
X81633030Y-80484727D01*
X81641273Y-80486834D01*
X81649839Y-80488616D01*
X81658728Y-80490075D01*
X81667940Y-80491209D01*
X81677476Y-80492019D01*
X81687334Y-80492505D01*
X81697517Y-80492667D01*
X81985250Y-80492667D01*
X81995383Y-80492506D01*
X82005194Y-80492021D01*
X82014683Y-80491213D01*
X82023851Y-80490081D01*
X82032698Y-80488627D01*
X82041222Y-80486850D01*
X82049425Y-80484749D01*
X82057306Y-80482325D01*
X82064866Y-80479579D01*
X82072104Y-80476509D01*
X82079020Y-80473116D01*
X82085614Y-80469401D01*
X82091887Y-80465362D01*
X82097838Y-80461001D01*
X82103468Y-80456316D01*
X82108775Y-80451309D01*
X82113762Y-80445979D01*
X82118426Y-80440326D01*
X82122769Y-80434350D01*
X82126790Y-80428051D01*
X82130489Y-80421430D01*
X82133867Y-80414486D01*
X82136923Y-80407219D01*
X82139657Y-80399630D01*
X82142070Y-80391718D01*
X82144161Y-80383483D01*
X82145930Y-80374926D01*
X82147378Y-80366046D01*
X82148503Y-80356844D01*
X82149308Y-80347319D01*
X82149790Y-80337472D01*
X82149951Y-80327302D01*
X82149951Y-79668821D01*
X82355863Y-79668821D01*
X82355863Y-80355415D01*
X82355528Y-80376536D01*
X82354522Y-80396986D01*
X82352847Y-80416765D01*
X82350502Y-80435873D01*
X82347486Y-80454310D01*
X82343800Y-80472076D01*
X82339444Y-80489172D01*
X82334418Y-80505597D01*
X82328722Y-80521352D01*
X82322355Y-80536435D01*
X82315318Y-80550848D01*
X82307611Y-80564591D01*
X82299234Y-80577663D01*
X82290186Y-80590064D01*
X82280468Y-80601795D01*
X82270080Y-80612855D01*
X82259021Y-80623244D01*
X82247292Y-80632964D01*
X82234893Y-80642012D01*
X82221824Y-80650391D01*
X82208084Y-80658098D01*
X82193673Y-80665136D01*
X82178593Y-80671503D01*
X82162842Y-80677200D01*
X82146420Y-80682226D01*
X82129329Y-80686583D01*
X82111566Y-80690269D01*
X82093134Y-80693284D01*
X82074031Y-80695630D01*
X82054257Y-80697305D01*
X82033813Y-80698310D01*
X82012698Y-80698646D01*
X81669465Y-80698646D01*
X81648338Y-80698310D01*
X81627883Y-80697305D01*
X81608098Y-80695630D01*
X81588984Y-80693284D01*
X81570540Y-80690269D01*
X81552768Y-80686583D01*
X81535666Y-80682226D01*
X81519235Y-80677200D01*
X81503475Y-80671503D01*
X81488386Y-80665136D01*
X81473968Y-80658098D01*
X81460220Y-80650391D01*
X81447143Y-80642012D01*
X81434737Y-80632964D01*
X81423001Y-80623244D01*
X81411936Y-80612855D01*
X81401542Y-80601795D01*
X81391818Y-80590064D01*
X81382766Y-80577663D01*
X81374384Y-80564591D01*
X81366672Y-80550848D01*
X81359631Y-80536435D01*
X81353261Y-80521352D01*
X81347561Y-80505597D01*
X81342532Y-80489172D01*
X81338174Y-80472076D01*
X81334486Y-80454310D01*
X81331468Y-80435873D01*
X81329122Y-80416765D01*
X81327445Y-80396986D01*
X81326440Y-80376536D01*
X81326104Y-80355415D01*
X81326104Y-79668821D01*
X81532018Y-79668821D01*
X81532018Y-80326575D01*
G37*
G36*
X101029093Y-80698582D02*
G01*
X100823114Y-80698582D01*
X100823114Y-80286625D01*
X100205181Y-80286625D01*
X100205181Y-80698582D01*
X99999202Y-80698582D01*
X99999202Y-79668756D01*
X100205181Y-79669550D01*
X100205181Y-80080780D01*
X100823114Y-80080780D01*
X100823114Y-79668756D01*
X101029093Y-79668756D01*
X101029093Y-80698582D01*
G37*
G36*
X82637775Y-76538272D02*
G01*
X78896501Y-76538272D01*
X78896501Y-75786656D01*
X82637775Y-75786656D01*
X82637775Y-76538272D01*
G37*
G36*
X91547088Y-73373127D02*
G01*
X90798781Y-73373127D01*
X90798781Y-69614655D01*
X91547088Y-69614655D01*
X91547088Y-73373127D01*
G37*
G36*
X97158107Y-80133562D02*
G01*
X97158107Y-79668821D01*
X97364086Y-79668821D01*
X97364086Y-80698646D01*
X97158107Y-80698646D01*
X97158107Y-80233906D01*
X96641839Y-80698646D01*
X96334261Y-80698646D01*
X96905431Y-80183767D01*
X96334261Y-79668821D01*
X96641839Y-79668821D01*
X97158107Y-80133562D01*
G37*
G36*
X91362674Y-80698646D02*
G01*
X90332915Y-80698646D01*
X90332915Y-80492667D01*
X91156762Y-80492667D01*
X91156762Y-80286692D01*
X90332915Y-80286692D01*
X90332915Y-80080780D01*
X91156762Y-80080780D01*
X91156762Y-79874801D01*
X90332915Y-79874801D01*
X90332915Y-79668821D01*
X91362674Y-79668821D01*
X91362674Y-80698646D01*
G37*
D11*
X78060419Y-87196792D02*
X78012800Y-87244411D01*
X78012800Y-87244411D02*
X77965180Y-87387268D01*
X77965180Y-87387268D02*
X77965180Y-87482506D01*
X77965180Y-87482506D02*
X78012800Y-87625363D01*
X78012800Y-87625363D02*
X78108038Y-87720601D01*
X78108038Y-87720601D02*
X78203276Y-87768220D01*
X78203276Y-87768220D02*
X78393752Y-87815839D01*
X78393752Y-87815839D02*
X78536609Y-87815839D01*
X78536609Y-87815839D02*
X78727085Y-87768220D01*
X78727085Y-87768220D02*
X78822323Y-87720601D01*
X78822323Y-87720601D02*
X78917561Y-87625363D01*
X78917561Y-87625363D02*
X78965180Y-87482506D01*
X78965180Y-87482506D02*
X78965180Y-87387268D01*
X78965180Y-87387268D02*
X78917561Y-87244411D01*
X78917561Y-87244411D02*
X78869942Y-87196792D01*
X77965180Y-86292030D02*
X77965180Y-86768220D01*
X77965180Y-86768220D02*
X78965180Y-86768220D01*
X77965180Y-85958696D02*
X78965180Y-85958696D01*
X77965180Y-85387268D02*
X78536609Y-85815839D01*
X78965180Y-85387268D02*
X78393752Y-85958696D01*
D12*
X81893019Y-53008898D02*
X81845400Y-53056517D01*
X81845400Y-53056517D02*
X81797780Y-53199374D01*
X81797780Y-53199374D02*
X81797780Y-53294612D01*
X81797780Y-53294612D02*
X81845400Y-53437469D01*
X81845400Y-53437469D02*
X81940638Y-53532707D01*
X81940638Y-53532707D02*
X82035876Y-53580326D01*
X82035876Y-53580326D02*
X82226352Y-53627945D01*
X82226352Y-53627945D02*
X82369209Y-53627945D01*
X82369209Y-53627945D02*
X82559685Y-53580326D01*
X82559685Y-53580326D02*
X82654923Y-53532707D01*
X82654923Y-53532707D02*
X82750161Y-53437469D01*
X82750161Y-53437469D02*
X82797780Y-53294612D01*
X82797780Y-53294612D02*
X82797780Y-53199374D01*
X82797780Y-53199374D02*
X82750161Y-53056517D01*
X82750161Y-53056517D02*
X82702542Y-53008898D01*
X82083495Y-52627945D02*
X82083495Y-52151755D01*
X81797780Y-52723183D02*
X82797780Y-52389850D01*
X82797780Y-52389850D02*
X81797780Y-52056517D01*
X81797780Y-51723183D02*
X82797780Y-51723183D01*
X82797780Y-51723183D02*
X81797780Y-51151755D01*
X81797780Y-51151755D02*
X82797780Y-51151755D01*
X81797780Y-50199374D02*
X81797780Y-50675564D01*
X81797780Y-50675564D02*
X82797780Y-50675564D01*
D11*
X76695180Y-87196792D02*
X77171371Y-87530125D01*
X76695180Y-87768220D02*
X77695180Y-87768220D01*
X77695180Y-87768220D02*
X77695180Y-87387268D01*
X77695180Y-87387268D02*
X77647561Y-87292030D01*
X77647561Y-87292030D02*
X77599942Y-87244411D01*
X77599942Y-87244411D02*
X77504704Y-87196792D01*
X77504704Y-87196792D02*
X77361847Y-87196792D01*
X77361847Y-87196792D02*
X77266609Y-87244411D01*
X77266609Y-87244411D02*
X77218990Y-87292030D01*
X77218990Y-87292030D02*
X77171371Y-87387268D01*
X77171371Y-87387268D02*
X77171371Y-87768220D01*
X76742800Y-86815839D02*
X76695180Y-86672982D01*
X76695180Y-86672982D02*
X76695180Y-86434887D01*
X76695180Y-86434887D02*
X76742800Y-86339649D01*
X76742800Y-86339649D02*
X76790419Y-86292030D01*
X76790419Y-86292030D02*
X76885657Y-86244411D01*
X76885657Y-86244411D02*
X76980895Y-86244411D01*
X76980895Y-86244411D02*
X77076133Y-86292030D01*
X77076133Y-86292030D02*
X77123752Y-86339649D01*
X77123752Y-86339649D02*
X77171371Y-86434887D01*
X77171371Y-86434887D02*
X77218990Y-86625363D01*
X77218990Y-86625363D02*
X77266609Y-86720601D01*
X77266609Y-86720601D02*
X77314228Y-86768220D01*
X77314228Y-86768220D02*
X77409466Y-86815839D01*
X77409466Y-86815839D02*
X77504704Y-86815839D01*
X77504704Y-86815839D02*
X77599942Y-86768220D01*
X77599942Y-86768220D02*
X77647561Y-86720601D01*
X77647561Y-86720601D02*
X77695180Y-86625363D01*
X77695180Y-86625363D02*
X77695180Y-86387268D01*
X77695180Y-86387268D02*
X77647561Y-86244411D01*
X77695180Y-85958696D02*
X77695180Y-85387268D01*
X76695180Y-85672982D02*
X77695180Y-85672982D01*
D12*
X111511904Y-94571266D02*
X110750000Y-94571266D01*
X111130952Y-94952219D02*
X111130952Y-94190314D01*
X110369047Y-93952219D02*
X109750000Y-93952219D01*
X109750000Y-93952219D02*
X110083333Y-94333171D01*
X110083333Y-94333171D02*
X109940476Y-94333171D01*
X109940476Y-94333171D02*
X109845238Y-94380790D01*
X109845238Y-94380790D02*
X109797619Y-94428409D01*
X109797619Y-94428409D02*
X109750000Y-94523647D01*
X109750000Y-94523647D02*
X109750000Y-94761742D01*
X109750000Y-94761742D02*
X109797619Y-94856980D01*
X109797619Y-94856980D02*
X109845238Y-94904600D01*
X109845238Y-94904600D02*
X109940476Y-94952219D01*
X109940476Y-94952219D02*
X110226190Y-94952219D01*
X110226190Y-94952219D02*
X110321428Y-94904600D01*
X110321428Y-94904600D02*
X110369047Y-94856980D01*
X109464285Y-93952219D02*
X109130952Y-94952219D01*
X109130952Y-94952219D02*
X108797619Y-93952219D01*
X108559523Y-93952219D02*
X107940476Y-93952219D01*
X107940476Y-93952219D02*
X108273809Y-94333171D01*
X108273809Y-94333171D02*
X108130952Y-94333171D01*
X108130952Y-94333171D02*
X108035714Y-94380790D01*
X108035714Y-94380790D02*
X107988095Y-94428409D01*
X107988095Y-94428409D02*
X107940476Y-94523647D01*
X107940476Y-94523647D02*
X107940476Y-94761742D01*
X107940476Y-94761742D02*
X107988095Y-94856980D01*
X107988095Y-94856980D02*
X108035714Y-94904600D01*
X108035714Y-94904600D02*
X108130952Y-94952219D01*
X108130952Y-94952219D02*
X108416666Y-94952219D01*
X108416666Y-94952219D02*
X108511904Y-94904600D01*
X108511904Y-94904600D02*
X108559523Y-94856980D01*
X110940475Y-89904600D02*
X110797618Y-89952219D01*
X110797618Y-89952219D02*
X110559523Y-89952219D01*
X110559523Y-89952219D02*
X110464285Y-89904600D01*
X110464285Y-89904600D02*
X110416666Y-89856980D01*
X110416666Y-89856980D02*
X110369047Y-89761742D01*
X110369047Y-89761742D02*
X110369047Y-89666504D01*
X110369047Y-89666504D02*
X110416666Y-89571266D01*
X110416666Y-89571266D02*
X110464285Y-89523647D01*
X110464285Y-89523647D02*
X110559523Y-89476028D01*
X110559523Y-89476028D02*
X110749999Y-89428409D01*
X110749999Y-89428409D02*
X110845237Y-89380790D01*
X110845237Y-89380790D02*
X110892856Y-89333171D01*
X110892856Y-89333171D02*
X110940475Y-89237933D01*
X110940475Y-89237933D02*
X110940475Y-89142695D01*
X110940475Y-89142695D02*
X110892856Y-89047457D01*
X110892856Y-89047457D02*
X110845237Y-88999838D01*
X110845237Y-88999838D02*
X110749999Y-88952219D01*
X110749999Y-88952219D02*
X110511904Y-88952219D01*
X110511904Y-88952219D02*
X110369047Y-88999838D01*
X109369047Y-89856980D02*
X109416666Y-89904600D01*
X109416666Y-89904600D02*
X109559523Y-89952219D01*
X109559523Y-89952219D02*
X109654761Y-89952219D01*
X109654761Y-89952219D02*
X109797618Y-89904600D01*
X109797618Y-89904600D02*
X109892856Y-89809361D01*
X109892856Y-89809361D02*
X109940475Y-89714123D01*
X109940475Y-89714123D02*
X109988094Y-89523647D01*
X109988094Y-89523647D02*
X109988094Y-89380790D01*
X109988094Y-89380790D02*
X109940475Y-89190314D01*
X109940475Y-89190314D02*
X109892856Y-89095076D01*
X109892856Y-89095076D02*
X109797618Y-88999838D01*
X109797618Y-88999838D02*
X109654761Y-88952219D01*
X109654761Y-88952219D02*
X109559523Y-88952219D01*
X109559523Y-88952219D02*
X109416666Y-88999838D01*
X109416666Y-88999838D02*
X109369047Y-89047457D01*
X108464285Y-89952219D02*
X108940475Y-89952219D01*
X108940475Y-89952219D02*
X108940475Y-88952219D01*
D13*
X76382761Y-87178622D02*
X76430380Y-87273860D01*
X76430380Y-87273860D02*
X76430380Y-87416717D01*
X76430380Y-87416717D02*
X76382761Y-87559574D01*
X76382761Y-87559574D02*
X76287523Y-87654812D01*
X76287523Y-87654812D02*
X76192285Y-87702431D01*
X76192285Y-87702431D02*
X76001809Y-87750050D01*
X76001809Y-87750050D02*
X75858952Y-87750050D01*
X75858952Y-87750050D02*
X75668476Y-87702431D01*
X75668476Y-87702431D02*
X75573238Y-87654812D01*
X75573238Y-87654812D02*
X75478000Y-87559574D01*
X75478000Y-87559574D02*
X75430380Y-87416717D01*
X75430380Y-87416717D02*
X75430380Y-87321479D01*
X75430380Y-87321479D02*
X75478000Y-87178622D01*
X75478000Y-87178622D02*
X75525619Y-87131003D01*
X75525619Y-87131003D02*
X75858952Y-87131003D01*
X75858952Y-87131003D02*
X75858952Y-87321479D01*
X75430380Y-86702431D02*
X76430380Y-86702431D01*
X76430380Y-86702431D02*
X75430380Y-86131003D01*
X75430380Y-86131003D02*
X76430380Y-86131003D01*
X75430380Y-85654812D02*
X76430380Y-85654812D01*
X76430380Y-85654812D02*
X76430380Y-85416717D01*
X76430380Y-85416717D02*
X76382761Y-85273860D01*
X76382761Y-85273860D02*
X76287523Y-85178622D01*
X76287523Y-85178622D02*
X76192285Y-85131003D01*
X76192285Y-85131003D02*
X76001809Y-85083384D01*
X76001809Y-85083384D02*
X75858952Y-85083384D01*
X75858952Y-85083384D02*
X75668476Y-85131003D01*
X75668476Y-85131003D02*
X75573238Y-85178622D01*
X75573238Y-85178622D02*
X75478000Y-85273860D01*
X75478000Y-85273860D02*
X75430380Y-85416717D01*
X75430380Y-85416717D02*
X75430380Y-85654812D01*
D11*
X79235180Y-87768220D02*
X80235180Y-87768220D01*
X80235180Y-87768220D02*
X80235180Y-87530125D01*
X80235180Y-87530125D02*
X80187561Y-87387268D01*
X80187561Y-87387268D02*
X80092323Y-87292030D01*
X80092323Y-87292030D02*
X79997085Y-87244411D01*
X79997085Y-87244411D02*
X79806609Y-87196792D01*
X79806609Y-87196792D02*
X79663752Y-87196792D01*
X79663752Y-87196792D02*
X79473276Y-87244411D01*
X79473276Y-87244411D02*
X79378038Y-87292030D01*
X79378038Y-87292030D02*
X79282800Y-87387268D01*
X79282800Y-87387268D02*
X79235180Y-87530125D01*
X79235180Y-87530125D02*
X79235180Y-87768220D01*
X79235180Y-86768220D02*
X80235180Y-86768220D01*
X80235180Y-86101554D02*
X80235180Y-85911078D01*
X80235180Y-85911078D02*
X80187561Y-85815840D01*
X80187561Y-85815840D02*
X80092323Y-85720602D01*
X80092323Y-85720602D02*
X79901847Y-85672983D01*
X79901847Y-85672983D02*
X79568514Y-85672983D01*
X79568514Y-85672983D02*
X79378038Y-85720602D01*
X79378038Y-85720602D02*
X79282800Y-85815840D01*
X79282800Y-85815840D02*
X79235180Y-85911078D01*
X79235180Y-85911078D02*
X79235180Y-86101554D01*
X79235180Y-86101554D02*
X79282800Y-86196792D01*
X79282800Y-86196792D02*
X79378038Y-86292030D01*
X79378038Y-86292030D02*
X79568514Y-86339649D01*
X79568514Y-86339649D02*
X79901847Y-86339649D01*
X79901847Y-86339649D02*
X80092323Y-86292030D01*
X80092323Y-86292030D02*
X80187561Y-86196792D01*
X80187561Y-86196792D02*
X80235180Y-86101554D01*
X116094172Y-76854819D02*
X115522744Y-76854819D01*
X115808458Y-77854819D02*
X115808458Y-76854819D01*
X115237029Y-77807200D02*
X115094172Y-77854819D01*
X115094172Y-77854819D02*
X114856077Y-77854819D01*
X114856077Y-77854819D02*
X114760839Y-77807200D01*
X114760839Y-77807200D02*
X114713220Y-77759580D01*
X114713220Y-77759580D02*
X114665601Y-77664342D01*
X114665601Y-77664342D02*
X114665601Y-77569104D01*
X114665601Y-77569104D02*
X114713220Y-77473866D01*
X114713220Y-77473866D02*
X114760839Y-77426247D01*
X114760839Y-77426247D02*
X114856077Y-77378628D01*
X114856077Y-77378628D02*
X115046553Y-77331009D01*
X115046553Y-77331009D02*
X115141791Y-77283390D01*
X115141791Y-77283390D02*
X115189410Y-77235771D01*
X115189410Y-77235771D02*
X115237029Y-77140533D01*
X115237029Y-77140533D02*
X115237029Y-77045295D01*
X115237029Y-77045295D02*
X115189410Y-76950057D01*
X115189410Y-76950057D02*
X115141791Y-76902438D01*
X115141791Y-76902438D02*
X115046553Y-76854819D01*
X115046553Y-76854819D02*
X114808458Y-76854819D01*
X114808458Y-76854819D02*
X114665601Y-76902438D01*
X113713220Y-77854819D02*
X114284648Y-77854819D01*
X113998934Y-77854819D02*
X113998934Y-76854819D01*
X113998934Y-76854819D02*
X114094172Y-76997676D01*
X114094172Y-76997676D02*
X114189410Y-77092914D01*
X114189410Y-77092914D02*
X114284648Y-77140533D01*
X116094172Y-56454819D02*
X115522744Y-56454819D01*
X115808458Y-57454819D02*
X115808458Y-56454819D01*
X115237029Y-57407200D02*
X115094172Y-57454819D01*
X115094172Y-57454819D02*
X114856077Y-57454819D01*
X114856077Y-57454819D02*
X114760839Y-57407200D01*
X114760839Y-57407200D02*
X114713220Y-57359580D01*
X114713220Y-57359580D02*
X114665601Y-57264342D01*
X114665601Y-57264342D02*
X114665601Y-57169104D01*
X114665601Y-57169104D02*
X114713220Y-57073866D01*
X114713220Y-57073866D02*
X114760839Y-57026247D01*
X114760839Y-57026247D02*
X114856077Y-56978628D01*
X114856077Y-56978628D02*
X115046553Y-56931009D01*
X115046553Y-56931009D02*
X115141791Y-56883390D01*
X115141791Y-56883390D02*
X115189410Y-56835771D01*
X115189410Y-56835771D02*
X115237029Y-56740533D01*
X115237029Y-56740533D02*
X115237029Y-56645295D01*
X115237029Y-56645295D02*
X115189410Y-56550057D01*
X115189410Y-56550057D02*
X115141791Y-56502438D01*
X115141791Y-56502438D02*
X115046553Y-56454819D01*
X115046553Y-56454819D02*
X114808458Y-56454819D01*
X114808458Y-56454819D02*
X114665601Y-56502438D01*
X113808458Y-56788152D02*
X113808458Y-57454819D01*
X114046553Y-56407200D02*
X114284648Y-57121485D01*
X114284648Y-57121485D02*
X113665601Y-57121485D01*
D12*
X110511904Y-91499838D02*
X110607142Y-91452219D01*
X110607142Y-91452219D02*
X110749999Y-91452219D01*
X110749999Y-91452219D02*
X110892856Y-91499838D01*
X110892856Y-91499838D02*
X110988094Y-91595076D01*
X110988094Y-91595076D02*
X111035713Y-91690314D01*
X111035713Y-91690314D02*
X111083332Y-91880790D01*
X111083332Y-91880790D02*
X111083332Y-92023647D01*
X111083332Y-92023647D02*
X111035713Y-92214123D01*
X111035713Y-92214123D02*
X110988094Y-92309361D01*
X110988094Y-92309361D02*
X110892856Y-92404600D01*
X110892856Y-92404600D02*
X110749999Y-92452219D01*
X110749999Y-92452219D02*
X110654761Y-92452219D01*
X110654761Y-92452219D02*
X110511904Y-92404600D01*
X110511904Y-92404600D02*
X110464285Y-92356980D01*
X110464285Y-92356980D02*
X110464285Y-92023647D01*
X110464285Y-92023647D02*
X110654761Y-92023647D01*
X110035713Y-92452219D02*
X110035713Y-91452219D01*
X110035713Y-91452219D02*
X109464285Y-92452219D01*
X109464285Y-92452219D02*
X109464285Y-91452219D01*
X108988094Y-92452219D02*
X108988094Y-91452219D01*
X108988094Y-91452219D02*
X108749999Y-91452219D01*
X108749999Y-91452219D02*
X108607142Y-91499838D01*
X108607142Y-91499838D02*
X108511904Y-91595076D01*
X108511904Y-91595076D02*
X108464285Y-91690314D01*
X108464285Y-91690314D02*
X108416666Y-91880790D01*
X108416666Y-91880790D02*
X108416666Y-92023647D01*
X108416666Y-92023647D02*
X108464285Y-92214123D01*
X108464285Y-92214123D02*
X108511904Y-92309361D01*
X108511904Y-92309361D02*
X108607142Y-92404600D01*
X108607142Y-92404600D02*
X108749999Y-92452219D01*
X108749999Y-92452219D02*
X108988094Y-92452219D01*
X78393019Y-53008898D02*
X78345400Y-53056517D01*
X78345400Y-53056517D02*
X78297780Y-53199374D01*
X78297780Y-53199374D02*
X78297780Y-53294612D01*
X78297780Y-53294612D02*
X78345400Y-53437469D01*
X78345400Y-53437469D02*
X78440638Y-53532707D01*
X78440638Y-53532707D02*
X78535876Y-53580326D01*
X78535876Y-53580326D02*
X78726352Y-53627945D01*
X78726352Y-53627945D02*
X78869209Y-53627945D01*
X78869209Y-53627945D02*
X79059685Y-53580326D01*
X79059685Y-53580326D02*
X79154923Y-53532707D01*
X79154923Y-53532707D02*
X79250161Y-53437469D01*
X79250161Y-53437469D02*
X79297780Y-53294612D01*
X79297780Y-53294612D02*
X79297780Y-53199374D01*
X79297780Y-53199374D02*
X79250161Y-53056517D01*
X79250161Y-53056517D02*
X79202542Y-53008898D01*
X78583495Y-52627945D02*
X78583495Y-52151755D01*
X78297780Y-52723183D02*
X79297780Y-52389850D01*
X79297780Y-52389850D02*
X78297780Y-52056517D01*
X78297780Y-51723183D02*
X79297780Y-51723183D01*
X79297780Y-51723183D02*
X78297780Y-51151755D01*
X78297780Y-51151755D02*
X79297780Y-51151755D01*
X78297780Y-50675564D02*
X79297780Y-50675564D01*
X78821590Y-50675564D02*
X78821590Y-50104136D01*
X78297780Y-50104136D02*
X79297780Y-50104136D01*
D11*
X116094172Y-70054819D02*
X115522744Y-70054819D01*
X115808458Y-71054819D02*
X115808458Y-70054819D01*
X115237029Y-71007200D02*
X115094172Y-71054819D01*
X115094172Y-71054819D02*
X114856077Y-71054819D01*
X114856077Y-71054819D02*
X114760839Y-71007200D01*
X114760839Y-71007200D02*
X114713220Y-70959580D01*
X114713220Y-70959580D02*
X114665601Y-70864342D01*
X114665601Y-70864342D02*
X114665601Y-70769104D01*
X114665601Y-70769104D02*
X114713220Y-70673866D01*
X114713220Y-70673866D02*
X114760839Y-70626247D01*
X114760839Y-70626247D02*
X114856077Y-70578628D01*
X114856077Y-70578628D02*
X115046553Y-70531009D01*
X115046553Y-70531009D02*
X115141791Y-70483390D01*
X115141791Y-70483390D02*
X115189410Y-70435771D01*
X115189410Y-70435771D02*
X115237029Y-70340533D01*
X115237029Y-70340533D02*
X115237029Y-70245295D01*
X115237029Y-70245295D02*
X115189410Y-70150057D01*
X115189410Y-70150057D02*
X115141791Y-70102438D01*
X115141791Y-70102438D02*
X115046553Y-70054819D01*
X115046553Y-70054819D02*
X114808458Y-70054819D01*
X114808458Y-70054819D02*
X114665601Y-70102438D01*
X114284648Y-70150057D02*
X114237029Y-70102438D01*
X114237029Y-70102438D02*
X114141791Y-70054819D01*
X114141791Y-70054819D02*
X113903696Y-70054819D01*
X113903696Y-70054819D02*
X113808458Y-70102438D01*
X113808458Y-70102438D02*
X113760839Y-70150057D01*
X113760839Y-70150057D02*
X113713220Y-70245295D01*
X113713220Y-70245295D02*
X113713220Y-70340533D01*
X113713220Y-70340533D02*
X113760839Y-70483390D01*
X113760839Y-70483390D02*
X114332267Y-71054819D01*
X114332267Y-71054819D02*
X113713220Y-71054819D01*
X116094172Y-63254819D02*
X115522744Y-63254819D01*
X115808458Y-64254819D02*
X115808458Y-63254819D01*
X115237029Y-64207200D02*
X115094172Y-64254819D01*
X115094172Y-64254819D02*
X114856077Y-64254819D01*
X114856077Y-64254819D02*
X114760839Y-64207200D01*
X114760839Y-64207200D02*
X114713220Y-64159580D01*
X114713220Y-64159580D02*
X114665601Y-64064342D01*
X114665601Y-64064342D02*
X114665601Y-63969104D01*
X114665601Y-63969104D02*
X114713220Y-63873866D01*
X114713220Y-63873866D02*
X114760839Y-63826247D01*
X114760839Y-63826247D02*
X114856077Y-63778628D01*
X114856077Y-63778628D02*
X115046553Y-63731009D01*
X115046553Y-63731009D02*
X115141791Y-63683390D01*
X115141791Y-63683390D02*
X115189410Y-63635771D01*
X115189410Y-63635771D02*
X115237029Y-63540533D01*
X115237029Y-63540533D02*
X115237029Y-63445295D01*
X115237029Y-63445295D02*
X115189410Y-63350057D01*
X115189410Y-63350057D02*
X115141791Y-63302438D01*
X115141791Y-63302438D02*
X115046553Y-63254819D01*
X115046553Y-63254819D02*
X114808458Y-63254819D01*
X114808458Y-63254819D02*
X114665601Y-63302438D01*
X114332267Y-63254819D02*
X113713220Y-63254819D01*
X113713220Y-63254819D02*
X114046553Y-63635771D01*
X114046553Y-63635771D02*
X113903696Y-63635771D01*
X113903696Y-63635771D02*
X113808458Y-63683390D01*
X113808458Y-63683390D02*
X113760839Y-63731009D01*
X113760839Y-63731009D02*
X113713220Y-63826247D01*
X113713220Y-63826247D02*
X113713220Y-64064342D01*
X113713220Y-64064342D02*
X113760839Y-64159580D01*
X113760839Y-64159580D02*
X113808458Y-64207200D01*
X113808458Y-64207200D02*
X113903696Y-64254819D01*
X113903696Y-64254819D02*
X114189410Y-64254819D01*
X114189410Y-64254819D02*
X114284648Y-64207200D01*
X114284648Y-64207200D02*
X114332267Y-64159580D01*
X104734220Y-83289819D02*
X104734220Y-82289819D01*
X104734220Y-82289819D02*
X104353268Y-82289819D01*
X104353268Y-82289819D02*
X104258030Y-82337438D01*
X104258030Y-82337438D02*
X104210411Y-82385057D01*
X104210411Y-82385057D02*
X104162792Y-82480295D01*
X104162792Y-82480295D02*
X104162792Y-82623152D01*
X104162792Y-82623152D02*
X104210411Y-82718390D01*
X104210411Y-82718390D02*
X104258030Y-82766009D01*
X104258030Y-82766009D02*
X104353268Y-82813628D01*
X104353268Y-82813628D02*
X104734220Y-82813628D01*
X103353268Y-83242200D02*
X103448506Y-83289819D01*
X103448506Y-83289819D02*
X103638982Y-83289819D01*
X103638982Y-83289819D02*
X103734220Y-83242200D01*
X103734220Y-83242200D02*
X103781839Y-83146961D01*
X103781839Y-83146961D02*
X103781839Y-82766009D01*
X103781839Y-82766009D02*
X103734220Y-82670771D01*
X103734220Y-82670771D02*
X103638982Y-82623152D01*
X103638982Y-82623152D02*
X103448506Y-82623152D01*
X103448506Y-82623152D02*
X103353268Y-82670771D01*
X103353268Y-82670771D02*
X103305649Y-82766009D01*
X103305649Y-82766009D02*
X103305649Y-82861247D01*
X103305649Y-82861247D02*
X103781839Y-82956485D01*
X102734220Y-83289819D02*
X102829458Y-83242200D01*
X102829458Y-83242200D02*
X102877077Y-83146961D01*
X102877077Y-83146961D02*
X102877077Y-82289819D01*
X102496124Y-82623152D02*
X102115172Y-82623152D01*
X102353267Y-82289819D02*
X102353267Y-83146961D01*
X102353267Y-83146961D02*
X102305648Y-83242200D01*
X102305648Y-83242200D02*
X102210410Y-83289819D01*
X102210410Y-83289819D02*
X102115172Y-83289819D01*
X101781838Y-83289819D02*
X101781838Y-82623152D01*
X101781838Y-82289819D02*
X101829457Y-82337438D01*
X101829457Y-82337438D02*
X101781838Y-82385057D01*
X101781838Y-82385057D02*
X101734219Y-82337438D01*
X101734219Y-82337438D02*
X101781838Y-82289819D01*
X101781838Y-82289819D02*
X101781838Y-82385057D01*
X100924696Y-83242200D02*
X101019934Y-83289819D01*
X101019934Y-83289819D02*
X101210410Y-83289819D01*
X101210410Y-83289819D02*
X101305648Y-83242200D01*
X101305648Y-83242200D02*
X101353267Y-83146961D01*
X101353267Y-83146961D02*
X101353267Y-82766009D01*
X101353267Y-82766009D02*
X101305648Y-82670771D01*
X101305648Y-82670771D02*
X101210410Y-82623152D01*
X101210410Y-82623152D02*
X101019934Y-82623152D01*
X101019934Y-82623152D02*
X100924696Y-82670771D01*
X100924696Y-82670771D02*
X100877077Y-82766009D01*
X100877077Y-82766009D02*
X100877077Y-82861247D01*
X100877077Y-82861247D02*
X101353267Y-82956485D01*
X100448505Y-83289819D02*
X100448505Y-82623152D01*
X100448505Y-82813628D02*
X100400886Y-82718390D01*
X100400886Y-82718390D02*
X100353267Y-82670771D01*
X100353267Y-82670771D02*
X100258029Y-82623152D01*
X100258029Y-82623152D02*
X100162791Y-82623152D01*
X99210409Y-82623152D02*
X98829457Y-82623152D01*
X99067552Y-82289819D02*
X99067552Y-83146961D01*
X99067552Y-83146961D02*
X99019933Y-83242200D01*
X99019933Y-83242200D02*
X98924695Y-83289819D01*
X98924695Y-83289819D02*
X98829457Y-83289819D01*
X98115171Y-83242200D02*
X98210409Y-83289819D01*
X98210409Y-83289819D02*
X98400885Y-83289819D01*
X98400885Y-83289819D02*
X98496123Y-83242200D01*
X98496123Y-83242200D02*
X98543742Y-83146961D01*
X98543742Y-83146961D02*
X98543742Y-82766009D01*
X98543742Y-82766009D02*
X98496123Y-82670771D01*
X98496123Y-82670771D02*
X98400885Y-82623152D01*
X98400885Y-82623152D02*
X98210409Y-82623152D01*
X98210409Y-82623152D02*
X98115171Y-82670771D01*
X98115171Y-82670771D02*
X98067552Y-82766009D01*
X98067552Y-82766009D02*
X98067552Y-82861247D01*
X98067552Y-82861247D02*
X98543742Y-82956485D01*
X97638980Y-83289819D02*
X97638980Y-82623152D01*
X97638980Y-82718390D02*
X97591361Y-82670771D01*
X97591361Y-82670771D02*
X97496123Y-82623152D01*
X97496123Y-82623152D02*
X97353266Y-82623152D01*
X97353266Y-82623152D02*
X97258028Y-82670771D01*
X97258028Y-82670771D02*
X97210409Y-82766009D01*
X97210409Y-82766009D02*
X97210409Y-83289819D01*
X97210409Y-82766009D02*
X97162790Y-82670771D01*
X97162790Y-82670771D02*
X97067552Y-82623152D01*
X97067552Y-82623152D02*
X96924695Y-82623152D01*
X96924695Y-82623152D02*
X96829456Y-82670771D01*
X96829456Y-82670771D02*
X96781837Y-82766009D01*
X96781837Y-82766009D02*
X96781837Y-83289819D01*
X96305647Y-82623152D02*
X96305647Y-83623152D01*
X96305647Y-82670771D02*
X96210409Y-82623152D01*
X96210409Y-82623152D02*
X96019933Y-82623152D01*
X96019933Y-82623152D02*
X95924695Y-82670771D01*
X95924695Y-82670771D02*
X95877076Y-82718390D01*
X95877076Y-82718390D02*
X95829457Y-82813628D01*
X95829457Y-82813628D02*
X95829457Y-83099342D01*
X95829457Y-83099342D02*
X95877076Y-83194580D01*
X95877076Y-83194580D02*
X95924695Y-83242200D01*
X95924695Y-83242200D02*
X96019933Y-83289819D01*
X96019933Y-83289819D02*
X96210409Y-83289819D01*
X96210409Y-83289819D02*
X96305647Y-83242200D01*
X95019933Y-83242200D02*
X95115171Y-83289819D01*
X95115171Y-83289819D02*
X95305647Y-83289819D01*
X95305647Y-83289819D02*
X95400885Y-83242200D01*
X95400885Y-83242200D02*
X95448504Y-83146961D01*
X95448504Y-83146961D02*
X95448504Y-82766009D01*
X95448504Y-82766009D02*
X95400885Y-82670771D01*
X95400885Y-82670771D02*
X95305647Y-82623152D01*
X95305647Y-82623152D02*
X95115171Y-82623152D01*
X95115171Y-82623152D02*
X95019933Y-82670771D01*
X95019933Y-82670771D02*
X94972314Y-82766009D01*
X94972314Y-82766009D02*
X94972314Y-82861247D01*
X94972314Y-82861247D02*
X95448504Y-82956485D01*
X94543742Y-83289819D02*
X94543742Y-82623152D01*
X94543742Y-82813628D02*
X94496123Y-82718390D01*
X94496123Y-82718390D02*
X94448504Y-82670771D01*
X94448504Y-82670771D02*
X94353266Y-82623152D01*
X94353266Y-82623152D02*
X94258028Y-82623152D01*
X93496123Y-83289819D02*
X93496123Y-82766009D01*
X93496123Y-82766009D02*
X93543742Y-82670771D01*
X93543742Y-82670771D02*
X93638980Y-82623152D01*
X93638980Y-82623152D02*
X93829456Y-82623152D01*
X93829456Y-82623152D02*
X93924694Y-82670771D01*
X93496123Y-83242200D02*
X93591361Y-83289819D01*
X93591361Y-83289819D02*
X93829456Y-83289819D01*
X93829456Y-83289819D02*
X93924694Y-83242200D01*
X93924694Y-83242200D02*
X93972313Y-83146961D01*
X93972313Y-83146961D02*
X93972313Y-83051723D01*
X93972313Y-83051723D02*
X93924694Y-82956485D01*
X93924694Y-82956485D02*
X93829456Y-82908866D01*
X93829456Y-82908866D02*
X93591361Y-82908866D01*
X93591361Y-82908866D02*
X93496123Y-82861247D01*
X93162789Y-82623152D02*
X92781837Y-82623152D01*
X93019932Y-82289819D02*
X93019932Y-83146961D01*
X93019932Y-83146961D02*
X92972313Y-83242200D01*
X92972313Y-83242200D02*
X92877075Y-83289819D01*
X92877075Y-83289819D02*
X92781837Y-83289819D01*
X92019932Y-82623152D02*
X92019932Y-83289819D01*
X92448503Y-82623152D02*
X92448503Y-83146961D01*
X92448503Y-83146961D02*
X92400884Y-83242200D01*
X92400884Y-83242200D02*
X92305646Y-83289819D01*
X92305646Y-83289819D02*
X92162789Y-83289819D01*
X92162789Y-83289819D02*
X92067551Y-83242200D01*
X92067551Y-83242200D02*
X92019932Y-83194580D01*
X91543741Y-83289819D02*
X91543741Y-82623152D01*
X91543741Y-82813628D02*
X91496122Y-82718390D01*
X91496122Y-82718390D02*
X91448503Y-82670771D01*
X91448503Y-82670771D02*
X91353265Y-82623152D01*
X91353265Y-82623152D02*
X91258027Y-82623152D01*
X90543741Y-83242200D02*
X90638979Y-83289819D01*
X90638979Y-83289819D02*
X90829455Y-83289819D01*
X90829455Y-83289819D02*
X90924693Y-83242200D01*
X90924693Y-83242200D02*
X90972312Y-83146961D01*
X90972312Y-83146961D02*
X90972312Y-82766009D01*
X90972312Y-82766009D02*
X90924693Y-82670771D01*
X90924693Y-82670771D02*
X90829455Y-82623152D01*
X90829455Y-82623152D02*
X90638979Y-82623152D01*
X90638979Y-82623152D02*
X90543741Y-82670771D01*
X90543741Y-82670771D02*
X90496122Y-82766009D01*
X90496122Y-82766009D02*
X90496122Y-82861247D01*
X90496122Y-82861247D02*
X90972312Y-82956485D01*
X88877074Y-83242200D02*
X88972312Y-83289819D01*
X88972312Y-83289819D02*
X89162788Y-83289819D01*
X89162788Y-83289819D02*
X89258026Y-83242200D01*
X89258026Y-83242200D02*
X89305645Y-83194580D01*
X89305645Y-83194580D02*
X89353264Y-83099342D01*
X89353264Y-83099342D02*
X89353264Y-82813628D01*
X89353264Y-82813628D02*
X89305645Y-82718390D01*
X89305645Y-82718390D02*
X89258026Y-82670771D01*
X89258026Y-82670771D02*
X89162788Y-82623152D01*
X89162788Y-82623152D02*
X88972312Y-82623152D01*
X88972312Y-82623152D02*
X88877074Y-82670771D01*
X88305645Y-83289819D02*
X88400883Y-83242200D01*
X88400883Y-83242200D02*
X88448502Y-83194580D01*
X88448502Y-83194580D02*
X88496121Y-83099342D01*
X88496121Y-83099342D02*
X88496121Y-82813628D01*
X88496121Y-82813628D02*
X88448502Y-82718390D01*
X88448502Y-82718390D02*
X88400883Y-82670771D01*
X88400883Y-82670771D02*
X88305645Y-82623152D01*
X88305645Y-82623152D02*
X88162788Y-82623152D01*
X88162788Y-82623152D02*
X88067550Y-82670771D01*
X88067550Y-82670771D02*
X88019931Y-82718390D01*
X88019931Y-82718390D02*
X87972312Y-82813628D01*
X87972312Y-82813628D02*
X87972312Y-83099342D01*
X87972312Y-83099342D02*
X88019931Y-83194580D01*
X88019931Y-83194580D02*
X88067550Y-83242200D01*
X88067550Y-83242200D02*
X88162788Y-83289819D01*
X88162788Y-83289819D02*
X88305645Y-83289819D01*
X87543740Y-82623152D02*
X87543740Y-83289819D01*
X87543740Y-82718390D02*
X87496121Y-82670771D01*
X87496121Y-82670771D02*
X87400883Y-82623152D01*
X87400883Y-82623152D02*
X87258026Y-82623152D01*
X87258026Y-82623152D02*
X87162788Y-82670771D01*
X87162788Y-82670771D02*
X87115169Y-82766009D01*
X87115169Y-82766009D02*
X87115169Y-83289819D01*
X86781835Y-82623152D02*
X86400883Y-82623152D01*
X86638978Y-82289819D02*
X86638978Y-83146961D01*
X86638978Y-83146961D02*
X86591359Y-83242200D01*
X86591359Y-83242200D02*
X86496121Y-83289819D01*
X86496121Y-83289819D02*
X86400883Y-83289819D01*
X86067549Y-83289819D02*
X86067549Y-82623152D01*
X86067549Y-82813628D02*
X86019930Y-82718390D01*
X86019930Y-82718390D02*
X85972311Y-82670771D01*
X85972311Y-82670771D02*
X85877073Y-82623152D01*
X85877073Y-82623152D02*
X85781835Y-82623152D01*
X85305644Y-83289819D02*
X85400882Y-83242200D01*
X85400882Y-83242200D02*
X85448501Y-83194580D01*
X85448501Y-83194580D02*
X85496120Y-83099342D01*
X85496120Y-83099342D02*
X85496120Y-82813628D01*
X85496120Y-82813628D02*
X85448501Y-82718390D01*
X85448501Y-82718390D02*
X85400882Y-82670771D01*
X85400882Y-82670771D02*
X85305644Y-82623152D01*
X85305644Y-82623152D02*
X85162787Y-82623152D01*
X85162787Y-82623152D02*
X85067549Y-82670771D01*
X85067549Y-82670771D02*
X85019930Y-82718390D01*
X85019930Y-82718390D02*
X84972311Y-82813628D01*
X84972311Y-82813628D02*
X84972311Y-83099342D01*
X84972311Y-83099342D02*
X85019930Y-83194580D01*
X85019930Y-83194580D02*
X85067549Y-83242200D01*
X85067549Y-83242200D02*
X85162787Y-83289819D01*
X85162787Y-83289819D02*
X85305644Y-83289819D01*
X84400882Y-83289819D02*
X84496120Y-83242200D01*
X84496120Y-83242200D02*
X84543739Y-83146961D01*
X84543739Y-83146961D02*
X84543739Y-82289819D01*
X83877072Y-83289819D02*
X83972310Y-83242200D01*
X83972310Y-83242200D02*
X84019929Y-83146961D01*
X84019929Y-83146961D02*
X84019929Y-82289819D01*
X83115167Y-83242200D02*
X83210405Y-83289819D01*
X83210405Y-83289819D02*
X83400881Y-83289819D01*
X83400881Y-83289819D02*
X83496119Y-83242200D01*
X83496119Y-83242200D02*
X83543738Y-83146961D01*
X83543738Y-83146961D02*
X83543738Y-82766009D01*
X83543738Y-82766009D02*
X83496119Y-82670771D01*
X83496119Y-82670771D02*
X83400881Y-82623152D01*
X83400881Y-82623152D02*
X83210405Y-82623152D01*
X83210405Y-82623152D02*
X83115167Y-82670771D01*
X83115167Y-82670771D02*
X83067548Y-82766009D01*
X83067548Y-82766009D02*
X83067548Y-82861247D01*
X83067548Y-82861247D02*
X83543738Y-82956485D01*
X82638976Y-83289819D02*
X82638976Y-82623152D01*
X82638976Y-82813628D02*
X82591357Y-82718390D01*
X82591357Y-82718390D02*
X82543738Y-82670771D01*
X82543738Y-82670771D02*
X82448500Y-82623152D01*
X82448500Y-82623152D02*
X82353262Y-82623152D01*
X104162792Y-84899763D02*
X104496125Y-84423572D01*
X104734220Y-84899763D02*
X104734220Y-83899763D01*
X104734220Y-83899763D02*
X104353268Y-83899763D01*
X104353268Y-83899763D02*
X104258030Y-83947382D01*
X104258030Y-83947382D02*
X104210411Y-83995001D01*
X104210411Y-83995001D02*
X104162792Y-84090239D01*
X104162792Y-84090239D02*
X104162792Y-84233096D01*
X104162792Y-84233096D02*
X104210411Y-84328334D01*
X104210411Y-84328334D02*
X104258030Y-84375953D01*
X104258030Y-84375953D02*
X104353268Y-84423572D01*
X104353268Y-84423572D02*
X104734220Y-84423572D01*
X103353268Y-84852144D02*
X103448506Y-84899763D01*
X103448506Y-84899763D02*
X103638982Y-84899763D01*
X103638982Y-84899763D02*
X103734220Y-84852144D01*
X103734220Y-84852144D02*
X103781839Y-84756905D01*
X103781839Y-84756905D02*
X103781839Y-84375953D01*
X103781839Y-84375953D02*
X103734220Y-84280715D01*
X103734220Y-84280715D02*
X103638982Y-84233096D01*
X103638982Y-84233096D02*
X103448506Y-84233096D01*
X103448506Y-84233096D02*
X103353268Y-84280715D01*
X103353268Y-84280715D02*
X103305649Y-84375953D01*
X103305649Y-84375953D02*
X103305649Y-84471191D01*
X103305649Y-84471191D02*
X103781839Y-84566429D01*
X102972315Y-84233096D02*
X102734220Y-84899763D01*
X102734220Y-84899763D02*
X102496125Y-84233096D01*
X102115172Y-84804524D02*
X102067553Y-84852144D01*
X102067553Y-84852144D02*
X102115172Y-84899763D01*
X102115172Y-84899763D02*
X102162791Y-84852144D01*
X102162791Y-84852144D02*
X102115172Y-84804524D01*
X102115172Y-84804524D02*
X102115172Y-84899763D01*
X100353268Y-84899763D02*
X100924696Y-84899763D01*
X100638982Y-84899763D02*
X100638982Y-83899763D01*
X100638982Y-83899763D02*
X100734220Y-84042620D01*
X100734220Y-84042620D02*
X100829458Y-84137858D01*
X100829458Y-84137858D02*
X100924696Y-84185477D01*
X99210410Y-83995001D02*
X99162791Y-83947382D01*
X99162791Y-83947382D02*
X99067553Y-83899763D01*
X99067553Y-83899763D02*
X98829458Y-83899763D01*
X98829458Y-83899763D02*
X98734220Y-83947382D01*
X98734220Y-83947382D02*
X98686601Y-83995001D01*
X98686601Y-83995001D02*
X98638982Y-84090239D01*
X98638982Y-84090239D02*
X98638982Y-84185477D01*
X98638982Y-84185477D02*
X98686601Y-84328334D01*
X98686601Y-84328334D02*
X99258029Y-84899763D01*
X99258029Y-84899763D02*
X98638982Y-84899763D01*
X98019934Y-83899763D02*
X97924696Y-83899763D01*
X97924696Y-83899763D02*
X97829458Y-83947382D01*
X97829458Y-83947382D02*
X97781839Y-83995001D01*
X97781839Y-83995001D02*
X97734220Y-84090239D01*
X97734220Y-84090239D02*
X97686601Y-84280715D01*
X97686601Y-84280715D02*
X97686601Y-84518810D01*
X97686601Y-84518810D02*
X97734220Y-84709286D01*
X97734220Y-84709286D02*
X97781839Y-84804524D01*
X97781839Y-84804524D02*
X97829458Y-84852144D01*
X97829458Y-84852144D02*
X97924696Y-84899763D01*
X97924696Y-84899763D02*
X98019934Y-84899763D01*
X98019934Y-84899763D02*
X98115172Y-84852144D01*
X98115172Y-84852144D02*
X98162791Y-84804524D01*
X98162791Y-84804524D02*
X98210410Y-84709286D01*
X98210410Y-84709286D02*
X98258029Y-84518810D01*
X98258029Y-84518810D02*
X98258029Y-84280715D01*
X98258029Y-84280715D02*
X98210410Y-84090239D01*
X98210410Y-84090239D02*
X98162791Y-83995001D01*
X98162791Y-83995001D02*
X98115172Y-83947382D01*
X98115172Y-83947382D02*
X98019934Y-83899763D01*
X97305648Y-83995001D02*
X97258029Y-83947382D01*
X97258029Y-83947382D02*
X97162791Y-83899763D01*
X97162791Y-83899763D02*
X96924696Y-83899763D01*
X96924696Y-83899763D02*
X96829458Y-83947382D01*
X96829458Y-83947382D02*
X96781839Y-83995001D01*
X96781839Y-83995001D02*
X96734220Y-84090239D01*
X96734220Y-84090239D02*
X96734220Y-84185477D01*
X96734220Y-84185477D02*
X96781839Y-84328334D01*
X96781839Y-84328334D02*
X97353267Y-84899763D01*
X97353267Y-84899763D02*
X96734220Y-84899763D01*
X95877077Y-84233096D02*
X95877077Y-84899763D01*
X96115172Y-83852144D02*
X96353267Y-84566429D01*
X96353267Y-84566429D02*
X95734220Y-84566429D01*
X95353267Y-84518810D02*
X94591363Y-84518810D01*
X93924696Y-83899763D02*
X93829458Y-83899763D01*
X93829458Y-83899763D02*
X93734220Y-83947382D01*
X93734220Y-83947382D02*
X93686601Y-83995001D01*
X93686601Y-83995001D02*
X93638982Y-84090239D01*
X93638982Y-84090239D02*
X93591363Y-84280715D01*
X93591363Y-84280715D02*
X93591363Y-84518810D01*
X93591363Y-84518810D02*
X93638982Y-84709286D01*
X93638982Y-84709286D02*
X93686601Y-84804524D01*
X93686601Y-84804524D02*
X93734220Y-84852144D01*
X93734220Y-84852144D02*
X93829458Y-84899763D01*
X93829458Y-84899763D02*
X93924696Y-84899763D01*
X93924696Y-84899763D02*
X94019934Y-84852144D01*
X94019934Y-84852144D02*
X94067553Y-84804524D01*
X94067553Y-84804524D02*
X94115172Y-84709286D01*
X94115172Y-84709286D02*
X94162791Y-84518810D01*
X94162791Y-84518810D02*
X94162791Y-84280715D01*
X94162791Y-84280715D02*
X94115172Y-84090239D01*
X94115172Y-84090239D02*
X94067553Y-83995001D01*
X94067553Y-83995001D02*
X94019934Y-83947382D01*
X94019934Y-83947382D02*
X93924696Y-83899763D01*
X92734220Y-83899763D02*
X92924696Y-83899763D01*
X92924696Y-83899763D02*
X93019934Y-83947382D01*
X93019934Y-83947382D02*
X93067553Y-83995001D01*
X93067553Y-83995001D02*
X93162791Y-84137858D01*
X93162791Y-84137858D02*
X93210410Y-84328334D01*
X93210410Y-84328334D02*
X93210410Y-84709286D01*
X93210410Y-84709286D02*
X93162791Y-84804524D01*
X93162791Y-84804524D02*
X93115172Y-84852144D01*
X93115172Y-84852144D02*
X93019934Y-84899763D01*
X93019934Y-84899763D02*
X92829458Y-84899763D01*
X92829458Y-84899763D02*
X92734220Y-84852144D01*
X92734220Y-84852144D02*
X92686601Y-84804524D01*
X92686601Y-84804524D02*
X92638982Y-84709286D01*
X92638982Y-84709286D02*
X92638982Y-84471191D01*
X92638982Y-84471191D02*
X92686601Y-84375953D01*
X92686601Y-84375953D02*
X92734220Y-84328334D01*
X92734220Y-84328334D02*
X92829458Y-84280715D01*
X92829458Y-84280715D02*
X93019934Y-84280715D01*
X93019934Y-84280715D02*
X93115172Y-84328334D01*
X93115172Y-84328334D02*
X93162791Y-84375953D01*
X93162791Y-84375953D02*
X93210410Y-84471191D01*
X92210410Y-84518810D02*
X91448506Y-84518810D01*
X90448506Y-84899763D02*
X91019934Y-84899763D01*
X90734220Y-84899763D02*
X90734220Y-83899763D01*
X90734220Y-83899763D02*
X90829458Y-84042620D01*
X90829458Y-84042620D02*
X90924696Y-84137858D01*
X90924696Y-84137858D02*
X91019934Y-84185477D01*
X90115172Y-83899763D02*
X89496125Y-83899763D01*
X89496125Y-83899763D02*
X89829458Y-84280715D01*
X89829458Y-84280715D02*
X89686601Y-84280715D01*
X89686601Y-84280715D02*
X89591363Y-84328334D01*
X89591363Y-84328334D02*
X89543744Y-84375953D01*
X89543744Y-84375953D02*
X89496125Y-84471191D01*
X89496125Y-84471191D02*
X89496125Y-84709286D01*
X89496125Y-84709286D02*
X89543744Y-84804524D01*
X89543744Y-84804524D02*
X89591363Y-84852144D01*
X89591363Y-84852144D02*
X89686601Y-84899763D01*
X89686601Y-84899763D02*
X89972315Y-84899763D01*
X89972315Y-84899763D02*
X90067553Y-84852144D01*
X90067553Y-84852144D02*
X90115172Y-84804524D01*
X104162792Y-86414468D02*
X104210411Y-86462088D01*
X104210411Y-86462088D02*
X104353268Y-86509707D01*
X104353268Y-86509707D02*
X104448506Y-86509707D01*
X104448506Y-86509707D02*
X104591363Y-86462088D01*
X104591363Y-86462088D02*
X104686601Y-86366849D01*
X104686601Y-86366849D02*
X104734220Y-86271611D01*
X104734220Y-86271611D02*
X104781839Y-86081135D01*
X104781839Y-86081135D02*
X104781839Y-85938278D01*
X104781839Y-85938278D02*
X104734220Y-85747802D01*
X104734220Y-85747802D02*
X104686601Y-85652564D01*
X104686601Y-85652564D02*
X104591363Y-85557326D01*
X104591363Y-85557326D02*
X104448506Y-85509707D01*
X104448506Y-85509707D02*
X104353268Y-85509707D01*
X104353268Y-85509707D02*
X104210411Y-85557326D01*
X104210411Y-85557326D02*
X104162792Y-85604945D01*
X103162792Y-86414468D02*
X103210411Y-86462088D01*
X103210411Y-86462088D02*
X103353268Y-86509707D01*
X103353268Y-86509707D02*
X103448506Y-86509707D01*
X103448506Y-86509707D02*
X103591363Y-86462088D01*
X103591363Y-86462088D02*
X103686601Y-86366849D01*
X103686601Y-86366849D02*
X103734220Y-86271611D01*
X103734220Y-86271611D02*
X103781839Y-86081135D01*
X103781839Y-86081135D02*
X103781839Y-85938278D01*
X103781839Y-85938278D02*
X103734220Y-85747802D01*
X103734220Y-85747802D02*
X103686601Y-85652564D01*
X103686601Y-85652564D02*
X103591363Y-85557326D01*
X103591363Y-85557326D02*
X103448506Y-85509707D01*
X103448506Y-85509707D02*
X103353268Y-85509707D01*
X103353268Y-85509707D02*
X103210411Y-85557326D01*
X103210411Y-85557326D02*
X103162792Y-85604945D01*
X102734220Y-86128754D02*
X101972316Y-86128754D01*
X101162792Y-85985897D02*
X101019935Y-86033516D01*
X101019935Y-86033516D02*
X100972316Y-86081135D01*
X100972316Y-86081135D02*
X100924697Y-86176373D01*
X100924697Y-86176373D02*
X100924697Y-86319230D01*
X100924697Y-86319230D02*
X100972316Y-86414468D01*
X100972316Y-86414468D02*
X101019935Y-86462088D01*
X101019935Y-86462088D02*
X101115173Y-86509707D01*
X101115173Y-86509707D02*
X101496125Y-86509707D01*
X101496125Y-86509707D02*
X101496125Y-85509707D01*
X101496125Y-85509707D02*
X101162792Y-85509707D01*
X101162792Y-85509707D02*
X101067554Y-85557326D01*
X101067554Y-85557326D02*
X101019935Y-85604945D01*
X101019935Y-85604945D02*
X100972316Y-85700183D01*
X100972316Y-85700183D02*
X100972316Y-85795421D01*
X100972316Y-85795421D02*
X101019935Y-85890659D01*
X101019935Y-85890659D02*
X101067554Y-85938278D01*
X101067554Y-85938278D02*
X101162792Y-85985897D01*
X101162792Y-85985897D02*
X101496125Y-85985897D01*
X100305649Y-86033516D02*
X100305649Y-86509707D01*
X100638982Y-85509707D02*
X100305649Y-86033516D01*
X100305649Y-86033516D02*
X99972316Y-85509707D01*
X99638982Y-86128754D02*
X98877078Y-86128754D01*
X98400887Y-86509707D02*
X98400887Y-85509707D01*
X98400887Y-85509707D02*
X97829459Y-86509707D01*
X97829459Y-86509707D02*
X97829459Y-85509707D01*
X96781840Y-86414468D02*
X96829459Y-86462088D01*
X96829459Y-86462088D02*
X96972316Y-86509707D01*
X96972316Y-86509707D02*
X97067554Y-86509707D01*
X97067554Y-86509707D02*
X97210411Y-86462088D01*
X97210411Y-86462088D02*
X97305649Y-86366849D01*
X97305649Y-86366849D02*
X97353268Y-86271611D01*
X97353268Y-86271611D02*
X97400887Y-86081135D01*
X97400887Y-86081135D02*
X97400887Y-85938278D01*
X97400887Y-85938278D02*
X97353268Y-85747802D01*
X97353268Y-85747802D02*
X97305649Y-85652564D01*
X97305649Y-85652564D02*
X97210411Y-85557326D01*
X97210411Y-85557326D02*
X97067554Y-85509707D01*
X97067554Y-85509707D02*
X96972316Y-85509707D01*
X96972316Y-85509707D02*
X96829459Y-85557326D01*
X96829459Y-85557326D02*
X96781840Y-85604945D01*
X96353268Y-86128754D02*
X95591364Y-86128754D01*
X95162792Y-86462088D02*
X95019935Y-86509707D01*
X95019935Y-86509707D02*
X94781840Y-86509707D01*
X94781840Y-86509707D02*
X94686602Y-86462088D01*
X94686602Y-86462088D02*
X94638983Y-86414468D01*
X94638983Y-86414468D02*
X94591364Y-86319230D01*
X94591364Y-86319230D02*
X94591364Y-86223992D01*
X94591364Y-86223992D02*
X94638983Y-86128754D01*
X94638983Y-86128754D02*
X94686602Y-86081135D01*
X94686602Y-86081135D02*
X94781840Y-86033516D01*
X94781840Y-86033516D02*
X94972316Y-85985897D01*
X94972316Y-85985897D02*
X95067554Y-85938278D01*
X95067554Y-85938278D02*
X95115173Y-85890659D01*
X95115173Y-85890659D02*
X95162792Y-85795421D01*
X95162792Y-85795421D02*
X95162792Y-85700183D01*
X95162792Y-85700183D02*
X95115173Y-85604945D01*
X95115173Y-85604945D02*
X95067554Y-85557326D01*
X95067554Y-85557326D02*
X94972316Y-85509707D01*
X94972316Y-85509707D02*
X94734221Y-85509707D01*
X94734221Y-85509707D02*
X94591364Y-85557326D01*
X94210411Y-86223992D02*
X93734221Y-86223992D01*
X94305649Y-86509707D02*
X93972316Y-85509707D01*
X93972316Y-85509707D02*
X93638983Y-86509707D01*
X92591363Y-86223992D02*
X92115173Y-86223992D01*
X92686601Y-86509707D02*
X92353268Y-85509707D01*
X92353268Y-85509707D02*
X92019935Y-86509707D01*
X91543744Y-86509707D02*
X91638982Y-86462088D01*
X91638982Y-86462088D02*
X91686601Y-86366849D01*
X91686601Y-86366849D02*
X91686601Y-85509707D01*
X90781839Y-86462088D02*
X90877077Y-86509707D01*
X90877077Y-86509707D02*
X91067553Y-86509707D01*
X91067553Y-86509707D02*
X91162791Y-86462088D01*
X91162791Y-86462088D02*
X91210410Y-86366849D01*
X91210410Y-86366849D02*
X91210410Y-85985897D01*
X91210410Y-85985897D02*
X91162791Y-85890659D01*
X91162791Y-85890659D02*
X91067553Y-85843040D01*
X91067553Y-85843040D02*
X90877077Y-85843040D01*
X90877077Y-85843040D02*
X90781839Y-85890659D01*
X90781839Y-85890659D02*
X90734220Y-85985897D01*
X90734220Y-85985897D02*
X90734220Y-86081135D01*
X90734220Y-86081135D02*
X91210410Y-86176373D01*
X90400886Y-86509707D02*
X89877077Y-85843040D01*
X90400886Y-85843040D02*
X89877077Y-86509707D01*
X89115172Y-86462088D02*
X89210410Y-86509707D01*
X89210410Y-86509707D02*
X89400886Y-86509707D01*
X89400886Y-86509707D02*
X89496124Y-86462088D01*
X89496124Y-86462088D02*
X89543743Y-86366849D01*
X89543743Y-86366849D02*
X89543743Y-85985897D01*
X89543743Y-85985897D02*
X89496124Y-85890659D01*
X89496124Y-85890659D02*
X89400886Y-85843040D01*
X89400886Y-85843040D02*
X89210410Y-85843040D01*
X89210410Y-85843040D02*
X89115172Y-85890659D01*
X89115172Y-85890659D02*
X89067553Y-85985897D01*
X89067553Y-85985897D02*
X89067553Y-86081135D01*
X89067553Y-86081135D02*
X89543743Y-86176373D01*
X88734219Y-85843040D02*
X88496124Y-86509707D01*
X88258029Y-85843040D02*
X88496124Y-86509707D01*
X88496124Y-86509707D02*
X88591362Y-86747802D01*
X88591362Y-86747802D02*
X88638981Y-86795421D01*
X88638981Y-86795421D02*
X88734219Y-86843040D01*
X86591362Y-85557326D02*
X86686600Y-85509707D01*
X86686600Y-85509707D02*
X86829457Y-85509707D01*
X86829457Y-85509707D02*
X86972314Y-85557326D01*
X86972314Y-85557326D02*
X87067552Y-85652564D01*
X87067552Y-85652564D02*
X87115171Y-85747802D01*
X87115171Y-85747802D02*
X87162790Y-85938278D01*
X87162790Y-85938278D02*
X87162790Y-86081135D01*
X87162790Y-86081135D02*
X87115171Y-86271611D01*
X87115171Y-86271611D02*
X87067552Y-86366849D01*
X87067552Y-86366849D02*
X86972314Y-86462088D01*
X86972314Y-86462088D02*
X86829457Y-86509707D01*
X86829457Y-86509707D02*
X86734219Y-86509707D01*
X86734219Y-86509707D02*
X86591362Y-86462088D01*
X86591362Y-86462088D02*
X86543743Y-86414468D01*
X86543743Y-86414468D02*
X86543743Y-86081135D01*
X86543743Y-86081135D02*
X86734219Y-86081135D01*
X85686600Y-86509707D02*
X85686600Y-85985897D01*
X85686600Y-85985897D02*
X85734219Y-85890659D01*
X85734219Y-85890659D02*
X85829457Y-85843040D01*
X85829457Y-85843040D02*
X86019933Y-85843040D01*
X86019933Y-85843040D02*
X86115171Y-85890659D01*
X85686600Y-86462088D02*
X85781838Y-86509707D01*
X85781838Y-86509707D02*
X86019933Y-86509707D01*
X86019933Y-86509707D02*
X86115171Y-86462088D01*
X86115171Y-86462088D02*
X86162790Y-86366849D01*
X86162790Y-86366849D02*
X86162790Y-86271611D01*
X86162790Y-86271611D02*
X86115171Y-86176373D01*
X86115171Y-86176373D02*
X86019933Y-86128754D01*
X86019933Y-86128754D02*
X85781838Y-86128754D01*
X85781838Y-86128754D02*
X85686600Y-86081135D01*
X85067552Y-86509707D02*
X85162790Y-86462088D01*
X85162790Y-86462088D02*
X85210409Y-86366849D01*
X85210409Y-86366849D02*
X85210409Y-85509707D01*
X84258028Y-86509707D02*
X84258028Y-85985897D01*
X84258028Y-85985897D02*
X84305647Y-85890659D01*
X84305647Y-85890659D02*
X84400885Y-85843040D01*
X84400885Y-85843040D02*
X84591361Y-85843040D01*
X84591361Y-85843040D02*
X84686599Y-85890659D01*
X84258028Y-86462088D02*
X84353266Y-86509707D01*
X84353266Y-86509707D02*
X84591361Y-86509707D01*
X84591361Y-86509707D02*
X84686599Y-86462088D01*
X84686599Y-86462088D02*
X84734218Y-86366849D01*
X84734218Y-86366849D02*
X84734218Y-86271611D01*
X84734218Y-86271611D02*
X84686599Y-86176373D01*
X84686599Y-86176373D02*
X84591361Y-86128754D01*
X84591361Y-86128754D02*
X84353266Y-86128754D01*
X84353266Y-86128754D02*
X84258028Y-86081135D01*
X83781837Y-86509707D02*
X83781837Y-85509707D01*
X83686599Y-86128754D02*
X83400885Y-86509707D01*
X83400885Y-85843040D02*
X83781837Y-86223992D01*
X82972313Y-86509707D02*
X82972313Y-85509707D01*
X82543742Y-86509707D02*
X82543742Y-85985897D01*
X82543742Y-85985897D02*
X82591361Y-85890659D01*
X82591361Y-85890659D02*
X82686599Y-85843040D01*
X82686599Y-85843040D02*
X82829456Y-85843040D01*
X82829456Y-85843040D02*
X82924694Y-85890659D01*
X82924694Y-85890659D02*
X82972313Y-85938278D01*
X81924694Y-86509707D02*
X82019932Y-86462088D01*
X82019932Y-86462088D02*
X82067551Y-86414468D01*
X82067551Y-86414468D02*
X82115170Y-86319230D01*
X82115170Y-86319230D02*
X82115170Y-86033516D01*
X82115170Y-86033516D02*
X82067551Y-85938278D01*
X82067551Y-85938278D02*
X82019932Y-85890659D01*
X82019932Y-85890659D02*
X81924694Y-85843040D01*
X81924694Y-85843040D02*
X81781837Y-85843040D01*
X81781837Y-85843040D02*
X81686599Y-85890659D01*
X81686599Y-85890659D02*
X81638980Y-85938278D01*
X81638980Y-85938278D02*
X81591361Y-86033516D01*
X81591361Y-86033516D02*
X81591361Y-86319230D01*
X81591361Y-86319230D02*
X81638980Y-86414468D01*
X81638980Y-86414468D02*
X81686599Y-86462088D01*
X81686599Y-86462088D02*
X81781837Y-86509707D01*
X81781837Y-86509707D02*
X81924694Y-86509707D01*
X81258027Y-85843040D02*
X81019932Y-86509707D01*
X81019932Y-86509707D02*
X80781837Y-85843040D01*
D12*
X110964285Y-87404600D02*
X110821428Y-87452219D01*
X110821428Y-87452219D02*
X110583333Y-87452219D01*
X110583333Y-87452219D02*
X110488095Y-87404600D01*
X110488095Y-87404600D02*
X110440476Y-87356980D01*
X110440476Y-87356980D02*
X110392857Y-87261742D01*
X110392857Y-87261742D02*
X110392857Y-87166504D01*
X110392857Y-87166504D02*
X110440476Y-87071266D01*
X110440476Y-87071266D02*
X110488095Y-87023647D01*
X110488095Y-87023647D02*
X110583333Y-86976028D01*
X110583333Y-86976028D02*
X110773809Y-86928409D01*
X110773809Y-86928409D02*
X110869047Y-86880790D01*
X110869047Y-86880790D02*
X110916666Y-86833171D01*
X110916666Y-86833171D02*
X110964285Y-86737933D01*
X110964285Y-86737933D02*
X110964285Y-86642695D01*
X110964285Y-86642695D02*
X110916666Y-86547457D01*
X110916666Y-86547457D02*
X110869047Y-86499838D01*
X110869047Y-86499838D02*
X110773809Y-86452219D01*
X110773809Y-86452219D02*
X110535714Y-86452219D01*
X110535714Y-86452219D02*
X110392857Y-86499838D01*
X109964285Y-87452219D02*
X109964285Y-86452219D01*
X109964285Y-86452219D02*
X109726190Y-86452219D01*
X109726190Y-86452219D02*
X109583333Y-86499838D01*
X109583333Y-86499838D02*
X109488095Y-86595076D01*
X109488095Y-86595076D02*
X109440476Y-86690314D01*
X109440476Y-86690314D02*
X109392857Y-86880790D01*
X109392857Y-86880790D02*
X109392857Y-87023647D01*
X109392857Y-87023647D02*
X109440476Y-87214123D01*
X109440476Y-87214123D02*
X109488095Y-87309361D01*
X109488095Y-87309361D02*
X109583333Y-87404600D01*
X109583333Y-87404600D02*
X109726190Y-87452219D01*
X109726190Y-87452219D02*
X109964285Y-87452219D01*
X109011904Y-87166504D02*
X108535714Y-87166504D01*
X109107142Y-87452219D02*
X108773809Y-86452219D01*
X108773809Y-86452219D02*
X108440476Y-87452219D01*
M02*
